<?xml version="1.0" encoding="utf-8" standalone="no"?>
<!DOCTYPE svg PUBLIC "-//W3C//DTD SVG 1.1//EN"
  "http://www.w3.org/Graphics/SVG/1.1/DTD/svg11.dtd">
<svg xmlns:xlink="http://www.w3.org/1999/xlink" width="656.28pt" height="339.48pt" viewBox="0 0 656.28 339.48" xmlns="http://www.w3.org/2000/svg" version="1.1">
 <metadata>
  <rdf:RDF xmlns:dc="http://purl.org/dc/elements/1.1/" xmlns:cc="http://creativecommons.org/ns#" xmlns:rdf="http://www.w3.org/1999/02/22-rdf-syntax-ns#">
   <cc:Work>
    <dc:type rdf:resource="http://purl.org/dc/dcmitype/StillImage"/>
    <dc:date>2026-04-29T21:41:22.474254</dc:date>
    <dc:format>image/svg+xml</dc:format>
    <dc:creator>
     <cc:Agent>
      <dc:title>Matplotlib v3.10.9, https://matplotlib.org/</dc:title>
     </cc:Agent>
    </dc:creator>
   </cc:Work>
  </rdf:RDF>
 </metadata>
 <defs>
  <style type="text/css">*{stroke-linejoin: round; stroke-linecap: butt}</style>
 </defs>
 <g id="figure_1">
  <g id="patch_1">
   <path d="M 0 339.48
L 656.28 339.48
L 656.28 0
L 0 0
z
" style="fill: #ffffff"/>
  </g>
  <g id="axes_1">
   <g id="patch_2">
    <path d="M 12.781565 112.17375
L 102.784304 112.17375
Q 108.36587 112.17375 108.36587 106.75575
L 108.36587 46.4805
Q 108.36587 41.0625 102.784304 41.0625
L 12.781565 41.0625
Q 7.2 41.0625 7.2 46.4805
L 7.2 106.75575
Q 7.2 112.17375 12.781565 112.17375
z
" clip-path="url(#p7539ccecb0)" style="fill: #f5f6f8; stroke: #5c6770; stroke-width: 0.8; stroke-linejoin: miter"/>
   </g>
   <g id="patch_3">
    <path d="M 86.039609 112.17375
L 176.042348 112.17375
Q 181.623913 112.17375 181.623913 106.75575
L 181.623913 46.4805
Q 181.623913 41.0625 176.042348 41.0625
L 86.039609 41.0625
Q 80.458043 41.0625 80.458043 46.4805
L 80.458043 106.75575
Q 80.458043 112.17375 86.039609 112.17375
z
" clip-path="url(#p7539ccecb0)" style="fill: #f5f6f8; stroke: #5c6770; stroke-width: 0.8; stroke-linejoin: miter"/>
   </g>
   <g id="patch_4">
    <path d="M 159.297652 112.17375
L 249.300391 112.17375
Q 254.881957 112.17375 254.881957 106.75575
L 254.881957 46.4805
Q 254.881957 41.0625 249.300391 41.0625
L 159.297652 41.0625
Q 153.716087 41.0625 153.716087 46.4805
L 153.716087 106.75575
Q 153.716087 112.17375 159.297652 112.17375
z
" clip-path="url(#p7539ccecb0)" style="fill: #f5f6f8; stroke: #5c6770; stroke-width: 0.8; stroke-linejoin: miter"/>
   </g>
   <g id="patch_5">
    <path d="M 232.555696 112.17375
L 322.558435 112.17375
Q 328.14 112.17375 328.14 106.75575
L 328.14 46.4805
Q 328.14 41.0625 322.558435 41.0625
L 232.555696 41.0625
Q 226.97413 41.0625 226.97413 46.4805
L 226.97413 106.75575
Q 226.97413 112.17375 232.555696 112.17375
z
" clip-path="url(#p7539ccecb0)" style="fill: #f5f6f8; stroke: #5c6770; stroke-width: 0.8; stroke-linejoin: miter"/>
   </g>
   <g id="patch_6">
    <path d="M 12.781565 186.67125
L 102.784304 186.67125
Q 108.36587 186.67125 108.36587 181.25325
L 108.36587 120.978
Q 108.36587 115.56 102.784304 115.56
L 12.781565 115.56
Q 7.2 115.56 7.2 120.978
L 7.2 181.25325
Q 7.2 186.67125 12.781565 186.67125
z
" clip-path="url(#p7539ccecb0)" style="fill: #f5f6f8; stroke: #5c6770; stroke-width: 0.8; stroke-linejoin: miter"/>
   </g>
   <g id="patch_7">
    <path d="M 86.039609 186.67125
L 176.042348 186.67125
Q 181.623913 186.67125 181.623913 181.25325
L 181.623913 120.978
Q 181.623913 115.56 176.042348 115.56
L 86.039609 115.56
Q 80.458043 115.56 80.458043 120.978
L 80.458043 181.25325
Q 80.458043 186.67125 86.039609 186.67125
z
" clip-path="url(#p7539ccecb0)" style="fill: #f5f6f8; stroke: #5c6770; stroke-width: 0.8; stroke-linejoin: miter"/>
   </g>
   <g id="patch_8">
    <path d="M 159.297652 186.67125
L 249.300391 186.67125
Q 254.881957 186.67125 254.881957 181.25325
L 254.881957 120.978
Q 254.881957 115.56 249.300391 115.56
L 159.297652 115.56
Q 153.716087 115.56 153.716087 120.978
L 153.716087 181.25325
Q 153.716087 186.67125 159.297652 186.67125
z
" clip-path="url(#p7539ccecb0)" style="fill: #f5f6f8; stroke: #5c6770; stroke-width: 0.8; stroke-linejoin: miter"/>
   </g>
   <g id="patch_9">
    <path d="M 232.555696 186.67125
L 322.558435 186.67125
Q 328.14 186.67125 328.14 181.25325
L 328.14 120.978
Q 328.14 115.56 322.558435 115.56
L 232.555696 115.56
Q 226.97413 115.56 226.97413 120.978
L 226.97413 181.25325
Q 226.97413 186.67125 232.555696 186.67125
z
" clip-path="url(#p7539ccecb0)" style="fill: #f5f6f8; stroke: #5c6770; stroke-width: 0.8; stroke-linejoin: miter"/>
   </g>
   <g id="patch_10">
    <path d="M 443.259783 251.01
L 565.356522 251.01
Q 572.333478 251.01 572.333478 244.2375
L 572.333478 190.0575
Q 572.333478 183.285 565.356522 183.285
L 443.259783 183.285
Q 436.282826 183.285 436.282826 190.0575
L 436.282826 244.2375
Q 436.282826 251.01 443.259783 251.01
z
" clip-path="url(#p7539ccecb0)" style="fill: #f0f3f6; stroke-dasharray: 4,3; stroke-dashoffset: 0; stroke: #6b7c8e; stroke-linejoin: miter"/>
   </g>
   <g id="patch_11">
    <path d="M 162.78613 322.12125
L 291.16213 322.12125
Q 296.743696 322.12125 296.743696 316.70325
L 296.743696 256.428
Q 296.743696 251.01 291.16213 251.01
L 162.78613 251.01
Q 157.204565 251.01 157.204565 256.428
L 157.204565 316.70325
Q 157.204565 322.12125 162.78613 322.12125
z
" clip-path="url(#p7539ccecb0)" style="fill: #f5f6f8; stroke: #5c6770; stroke-width: 0.8; stroke-linejoin: miter"/>
   </g>
   <g id="patch_12">
    <path d="M 90.923478 76.618125
Q 94.411957 76.618125 96.894204 76.618125
" clip-path="url(#p7539ccecb0)" style="fill: none; stroke: #4a5568; stroke-width: 0.9; stroke-linecap: round"/>
    <path d="M 92.094204 74.218125
L 96.894204 76.618125
L 92.094204 79.018125
z
" clip-path="url(#p7539ccecb0)" style="fill: #4a5568; stroke: #4a5568; stroke-width: 0.9; stroke-linecap: round"/>
   </g>
   <g id="patch_13">
    <path d="M 164.181522 76.618125
Q 167.67 76.618125 170.152248 76.618125
" clip-path="url(#p7539ccecb0)" style="fill: none; stroke: #4a5568; stroke-width: 0.9; stroke-linecap: round"/>
    <path d="M 165.352248 74.218125
L 170.152248 76.618125
L 165.352248 79.018125
z
" clip-path="url(#p7539ccecb0)" style="fill: #4a5568; stroke: #4a5568; stroke-width: 0.9; stroke-linecap: round"/>
   </g>
   <g id="patch_14">
    <path d="M 237.439565 76.618125
Q 240.928043 76.618125 243.410291 76.618125
" clip-path="url(#p7539ccecb0)" style="fill: none; stroke: #4a5568; stroke-width: 0.9; stroke-linecap: round"/>
    <path d="M 238.610291 74.218125
L 243.410291 76.618125
L 238.610291 79.018125
z
" clip-path="url(#p7539ccecb0)" style="fill: #4a5568; stroke: #4a5568; stroke-width: 0.9; stroke-linecap: round"/>
   </g>
   <g id="patch_15">
    <path d="M 277.557065 95.2425
Q 167.67 113.866875 58.775017 132.323105
" clip-path="url(#p7539ccecb0)" style="fill: none; stroke: #4a5568; stroke-width: 0.9; stroke-linecap: round"/>
    <path d="M 63.908574 133.887263
L 58.775017 132.323105
L 63.106478 129.154755
z
" clip-path="url(#p7539ccecb0)" style="fill: #4a5568; stroke: #4a5568; stroke-width: 0.9; stroke-linecap: round"/>
   </g>
   <g id="patch_16">
    <path d="M 90.923478 151.115625
Q 94.411957 151.115625 96.894204 151.115625
" clip-path="url(#p7539ccecb0)" style="fill: none; stroke: #4a5568; stroke-width: 0.9; stroke-linecap: round"/>
    <path d="M 92.094204 148.715625
L 96.894204 151.115625
L 92.094204 153.515625
z
" clip-path="url(#p7539ccecb0)" style="fill: #4a5568; stroke: #4a5568; stroke-width: 0.9; stroke-linecap: round"/>
   </g>
   <g id="patch_17">
    <path d="M 164.181522 151.115625
Q 167.67 151.115625 170.152248 151.115625
" clip-path="url(#p7539ccecb0)" style="fill: none; stroke: #4a5568; stroke-width: 0.9; stroke-linecap: round"/>
    <path d="M 165.352248 148.715625
L 170.152248 151.115625
L 165.352248 153.515625
z
" clip-path="url(#p7539ccecb0)" style="fill: #4a5568; stroke: #4a5568; stroke-width: 0.9; stroke-linecap: round"/>
   </g>
   <g id="patch_18">
    <path d="M 237.439565 151.115625
Q 240.928043 151.115625 243.410291 151.115625
" clip-path="url(#p7539ccecb0)" style="fill: none; stroke: #4a5568; stroke-width: 0.9; stroke-linecap: round"/>
    <path d="M 238.610291 148.715625
L 243.410291 151.115625
L 238.610291 153.515625
z
" clip-path="url(#p7539ccecb0)" style="fill: #4a5568; stroke: #4a5568; stroke-width: 0.9; stroke-linecap: round"/>
   </g>
   <g id="patch_19">
    <path d="M 204.299022 169.74
Q 335.989076 183.285 466.678181 196.727047
" clip-path="url(#p7539ccecb0)" style="fill: none; stroke: #4a5568; stroke-width: 0.9; stroke-linecap: round"/>
    <path d="M 462.148928 193.848529
L 466.678181 196.727047
L 461.657814 198.623338
z
" clip-path="url(#p7539ccecb0)" style="fill: #4a5568; stroke: #4a5568; stroke-width: 0.9; stroke-linecap: round"/>
   </g>
   <g id="patch_20">
    <path d="M 131.040978 169.74
Q 297.615815 183.285 463.187732 196.748448
" clip-path="url(#p7539ccecb0)" style="fill: none; stroke: #4a5568; stroke-width: 0.9; stroke-linecap: round"/>
    <path d="M 458.598036 193.967316
L 463.187732 196.748448
L 458.209009 198.751525
z
" clip-path="url(#p7539ccecb0)" style="fill: #4a5568; stroke: #4a5568; stroke-width: 0.9; stroke-linecap: round"/>
   </g>
   <g id="patch_21">
    <path d="M 277.557065 169.74
Q 252.265598 218.840625 227.4349 267.046716
" clip-path="url(#p7539ccecb0)" style="fill: none; stroke: #4a5568; stroke-width: 0.9; stroke-linecap: round"/>
    <path d="M 231.766488 263.878539
L 227.4349 267.046716
L 227.499312 261.680539
z
" clip-path="url(#p7539ccecb0)" style="fill: #4a5568; stroke: #4a5568; stroke-width: 0.9; stroke-linecap: round"/>
   </g>
   <g id="patch_22">
    <path d="M 504.308152 237.465
Q 365.641141 252.703125 227.97434 267.831337
" clip-path="url(#p7539ccecb0)" style="fill: none; stroke: #4a5568; stroke-width: 0.9; stroke-linecap: round"/>
    <path d="M 233.007776 269.69266
L 227.97434 267.831337
L 232.48346 264.921382
z
" clip-path="url(#p7539ccecb0)" style="fill: #4a5568; stroke: #4a5568; stroke-width: 0.9; stroke-linecap: round"/>
   </g>
   <g id="text_1">
    <!-- Input -->
    <g style="fill: #2b2d42" transform="translate(46.130747 74.062547) scale(0.09 -0.09)">
     <defs>
      <path id="DejaVuSans-49" d="M 628 4666
L 1259 4666
L 1259 0
L 628 0
L 628 4666
z
" transform="scale(0.015625)"/>
      <path id="DejaVuSans-6e" d="M 3513 2113
L 3513 0
L 2938 0
L 2938 2094
Q 2938 2591 2744 2837
Q 2550 3084 2163 3084
Q 1697 3084 1428 2787
Q 1159 2491 1159 1978
L 1159 0
L 581 0
L 581 3500
L 1159 3500
L 1159 2956
Q 1366 3272 1645 3428
Q 1925 3584 2291 3584
Q 2894 3584 3203 3211
Q 3513 2838 3513 2113
z
" transform="scale(0.015625)"/>
      <path id="DejaVuSans-70" d="M 1159 525
L 1159 -1331
L 581 -1331
L 581 3500
L 1159 3500
L 1159 2969
Q 1341 3281 1617 3432
Q 1894 3584 2278 3584
Q 2916 3584 3314 3078
Q 3713 2572 3713 1747
Q 3713 922 3314 415
Q 2916 -91 2278 -91
Q 1894 -91 1617 61
Q 1341 213 1159 525
z
M 3116 1747
Q 3116 2381 2855 2742
Q 2594 3103 2138 3103
Q 1681 3103 1420 2742
Q 1159 2381 1159 1747
Q 1159 1113 1420 752
Q 1681 391 2138 391
Q 2594 391 2855 752
Q 3116 1113 3116 1747
z
" transform="scale(0.015625)"/>
      <path id="DejaVuSans-75" d="M 544 1381
L 544 3500
L 1119 3500
L 1119 1403
Q 1119 906 1312 657
Q 1506 409 1894 409
Q 2359 409 2629 706
Q 2900 1003 2900 1516
L 2900 3500
L 3475 3500
L 3475 0
L 2900 0
L 2900 538
Q 2691 219 2414 64
Q 2138 -91 1772 -91
Q 1169 -91 856 284
Q 544 659 544 1381
z
M 1991 3584
L 1991 3584
z
" transform="scale(0.015625)"/>
      <path id="DejaVuSans-74" d="M 1172 4494
L 1172 3500
L 2356 3500
L 2356 3053
L 1172 3053
L 1172 1153
Q 1172 725 1289 603
Q 1406 481 1766 481
L 2356 481
L 2356 0
L 1766 0
Q 1100 0 847 248
Q 594 497 594 1153
L 594 3053
L 172 3053
L 172 3500
L 594 3500
L 594 4494
L 1172 4494
z
" transform="scale(0.015625)"/>
     </defs>
     <use xlink:href="#DejaVuSans-49"/>
     <use xlink:href="#DejaVuSans-6e" transform="translate(29.492188 0)"/>
     <use xlink:href="#DejaVuSans-70" transform="translate(92.871094 0)"/>
     <use xlink:href="#DejaVuSans-75" transform="translate(156.347656 0)"/>
     <use xlink:href="#DejaVuSans-74" transform="translate(219.726562 0)"/>
    </g>
    <!-- video -->
    <g style="fill: #2b2d42" transform="translate(45.4902 84.140578) scale(0.09 -0.09)">
     <defs>
      <path id="DejaVuSans-76" d="M 191 3500
L 800 3500
L 1894 563
L 2988 3500
L 3597 3500
L 2284 0
L 1503 0
L 191 3500
z
" transform="scale(0.015625)"/>
      <path id="DejaVuSans-69" d="M 603 3500
L 1178 3500
L 1178 0
L 603 0
L 603 3500
z
M 603 4863
L 1178 4863
L 1178 4134
L 603 4134
L 603 4863
z
" transform="scale(0.015625)"/>
      <path id="DejaVuSans-64" d="M 2906 2969
L 2906 4863
L 3481 4863
L 3481 0
L 2906 0
L 2906 525
Q 2725 213 2448 61
Q 2172 -91 1784 -91
Q 1150 -91 751 415
Q 353 922 353 1747
Q 353 2572 751 3078
Q 1150 3584 1784 3584
Q 2172 3584 2448 3432
Q 2725 3281 2906 2969
z
M 947 1747
Q 947 1113 1208 752
Q 1469 391 1925 391
Q 2381 391 2643 752
Q 2906 1113 2906 1747
Q 2906 2381 2643 2742
Q 2381 3103 1925 3103
Q 1469 3103 1208 2742
Q 947 2381 947 1747
z
" transform="scale(0.015625)"/>
      <path id="DejaVuSans-65" d="M 3597 1894
L 3597 1613
L 953 1613
Q 991 1019 1311 708
Q 1631 397 2203 397
Q 2534 397 2845 478
Q 3156 559 3463 722
L 3463 178
Q 3153 47 2828 -22
Q 2503 -91 2169 -91
Q 1331 -91 842 396
Q 353 884 353 1716
Q 353 2575 817 3079
Q 1281 3584 2069 3584
Q 2775 3584 3186 3129
Q 3597 2675 3597 1894
z
M 3022 2063
Q 3016 2534 2758 2815
Q 2500 3097 2075 3097
Q 1594 3097 1305 2825
Q 1016 2553 972 2059
L 3022 2063
z
" transform="scale(0.015625)"/>
      <path id="DejaVuSans-6f" d="M 1959 3097
Q 1497 3097 1228 2736
Q 959 2375 959 1747
Q 959 1119 1226 758
Q 1494 397 1959 397
Q 2419 397 2687 759
Q 2956 1122 2956 1747
Q 2956 2369 2687 2733
Q 2419 3097 1959 3097
z
M 1959 3584
Q 2709 3584 3137 3096
Q 3566 2609 3566 1747
Q 3566 888 3137 398
Q 2709 -91 1959 -91
Q 1206 -91 779 398
Q 353 888 353 1747
Q 353 2609 779 3096
Q 1206 3584 1959 3584
z
" transform="scale(0.015625)"/>
     </defs>
     <use xlink:href="#DejaVuSans-76"/>
     <use xlink:href="#DejaVuSans-69" transform="translate(59.179688 0)"/>
     <use xlink:href="#DejaVuSans-64" transform="translate(86.962891 0)"/>
     <use xlink:href="#DejaVuSans-65" transform="translate(150.439453 0)"/>
     <use xlink:href="#DejaVuSans-6f" transform="translate(211.962891 0)"/>
    </g>
   </g>
   <g id="text_2">
    <!-- Frame -->
    <g style="fill: #2b2d42" transform="translate(117.01926 74.062547) scale(0.09 -0.09)">
     <defs>
      <path id="DejaVuSans-46" d="M 628 4666
L 3309 4666
L 3309 4134
L 1259 4134
L 1259 2759
L 3109 2759
L 3109 2228
L 1259 2228
L 1259 0
L 628 0
L 628 4666
z
" transform="scale(0.015625)"/>
      <path id="DejaVuSans-72" d="M 2631 2963
Q 2534 3019 2420 3045
Q 2306 3072 2169 3072
Q 1681 3072 1420 2755
Q 1159 2438 1159 1844
L 1159 0
L 581 0
L 581 3500
L 1159 3500
L 1159 2956
Q 1341 3275 1631 3429
Q 1922 3584 2338 3584
Q 2397 3584 2469 3576
Q 2541 3569 2628 3553
L 2631 2963
z
" transform="scale(0.015625)"/>
      <path id="DejaVuSans-61" d="M 2194 1759
Q 1497 1759 1228 1600
Q 959 1441 959 1056
Q 959 750 1161 570
Q 1363 391 1709 391
Q 2188 391 2477 730
Q 2766 1069 2766 1631
L 2766 1759
L 2194 1759
z
M 3341 1997
L 3341 0
L 2766 0
L 2766 531
Q 2569 213 2275 61
Q 1981 -91 1556 -91
Q 1019 -91 701 211
Q 384 513 384 1019
Q 384 1609 779 1909
Q 1175 2209 1959 2209
L 2766 2209
L 2766 2266
Q 2766 2663 2505 2880
Q 2244 3097 1772 3097
Q 1472 3097 1187 3025
Q 903 2953 641 2809
L 641 3341
Q 956 3463 1253 3523
Q 1550 3584 1831 3584
Q 2591 3584 2966 3190
Q 3341 2797 3341 1997
z
" transform="scale(0.015625)"/>
      <path id="DejaVuSans-6d" d="M 3328 2828
Q 3544 3216 3844 3400
Q 4144 3584 4550 3584
Q 5097 3584 5394 3201
Q 5691 2819 5691 2113
L 5691 0
L 5113 0
L 5113 2094
Q 5113 2597 4934 2840
Q 4756 3084 4391 3084
Q 3944 3084 3684 2787
Q 3425 2491 3425 1978
L 3425 0
L 2847 0
L 2847 2094
Q 2847 2600 2669 2842
Q 2491 3084 2119 3084
Q 1678 3084 1418 2786
Q 1159 2488 1159 1978
L 1159 0
L 581 0
L 581 3500
L 1159 3500
L 1159 2956
Q 1356 3278 1631 3431
Q 1906 3584 2284 3584
Q 2666 3584 2933 3390
Q 3200 3197 3328 2828
z
" transform="scale(0.015625)"/>
     </defs>
     <use xlink:href="#DejaVuSans-46"/>
     <use xlink:href="#DejaVuSans-72" transform="translate(50.269531 0)"/>
     <use xlink:href="#DejaVuSans-61" transform="translate(91.382812 0)"/>
     <use xlink:href="#DejaVuSans-6d" transform="translate(152.662109 0)"/>
     <use xlink:href="#DejaVuSans-65" transform="translate(250.074219 0)"/>
    </g>
    <!-- extraction -->
    <g style="fill: #2b2d42" transform="translate(108.22176 84.140578) scale(0.09 -0.09)">
     <defs>
      <path id="DejaVuSans-78" d="M 3513 3500
L 2247 1797
L 3578 0
L 2900 0
L 1881 1375
L 863 0
L 184 0
L 1544 1831
L 300 3500
L 978 3500
L 1906 2253
L 2834 3500
L 3513 3500
z
" transform="scale(0.015625)"/>
      <path id="DejaVuSans-63" d="M 3122 3366
L 3122 2828
Q 2878 2963 2633 3030
Q 2388 3097 2138 3097
Q 1578 3097 1268 2742
Q 959 2388 959 1747
Q 959 1106 1268 751
Q 1578 397 2138 397
Q 2388 397 2633 464
Q 2878 531 3122 666
L 3122 134
Q 2881 22 2623 -34
Q 2366 -91 2075 -91
Q 1284 -91 818 406
Q 353 903 353 1747
Q 353 2603 823 3093
Q 1294 3584 2113 3584
Q 2378 3584 2631 3529
Q 2884 3475 3122 3366
z
" transform="scale(0.015625)"/>
     </defs>
     <use xlink:href="#DejaVuSans-65"/>
     <use xlink:href="#DejaVuSans-78" transform="translate(59.773438 0)"/>
     <use xlink:href="#DejaVuSans-74" transform="translate(118.953125 0)"/>
     <use xlink:href="#DejaVuSans-72" transform="translate(158.162109 0)"/>
     <use xlink:href="#DejaVuSans-61" transform="translate(199.275391 0)"/>
     <use xlink:href="#DejaVuSans-63" transform="translate(260.554688 0)"/>
     <use xlink:href="#DejaVuSans-74" transform="translate(315.535156 0)"/>
     <use xlink:href="#DejaVuSans-69" transform="translate(354.744141 0)"/>
     <use xlink:href="#DejaVuSans-6f" transform="translate(382.527344 0)"/>
     <use xlink:href="#DejaVuSans-6e" transform="translate(443.708984 0)"/>
    </g>
   </g>
   <g id="text_3">
    <!-- Pose -->
    <g style="fill: #2b2d42" transform="translate(193.882225 74.062547) scale(0.09 -0.09)">
     <defs>
      <path id="DejaVuSans-50" d="M 1259 4147
L 1259 2394
L 2053 2394
Q 2494 2394 2734 2622
Q 2975 2850 2975 3272
Q 2975 3691 2734 3919
Q 2494 4147 2053 4147
L 1259 4147
z
M 628 4666
L 2053 4666
Q 2838 4666 3239 4311
Q 3641 3956 3641 3272
Q 3641 2581 3239 2228
Q 2838 1875 2053 1875
L 1259 1875
L 1259 0
L 628 0
L 628 4666
z
" transform="scale(0.015625)"/>
      <path id="DejaVuSans-73" d="M 2834 3397
L 2834 2853
Q 2591 2978 2328 3040
Q 2066 3103 1784 3103
Q 1356 3103 1142 2972
Q 928 2841 928 2578
Q 928 2378 1081 2264
Q 1234 2150 1697 2047
L 1894 2003
Q 2506 1872 2764 1633
Q 3022 1394 3022 966
Q 3022 478 2636 193
Q 2250 -91 1575 -91
Q 1294 -91 989 -36
Q 684 19 347 128
L 347 722
Q 666 556 975 473
Q 1284 391 1588 391
Q 1994 391 2212 530
Q 2431 669 2431 922
Q 2431 1156 2273 1281
Q 2116 1406 1581 1522
L 1381 1569
Q 847 1681 609 1914
Q 372 2147 372 2553
Q 372 3047 722 3315
Q 1072 3584 1716 3584
Q 2034 3584 2315 3537
Q 2597 3491 2834 3397
z
" transform="scale(0.015625)"/>
     </defs>
     <use xlink:href="#DejaVuSans-50"/>
     <use xlink:href="#DejaVuSans-6f" transform="translate(56.677734 0)"/>
     <use xlink:href="#DejaVuSans-73" transform="translate(117.859375 0)"/>
     <use xlink:href="#DejaVuSans-65" transform="translate(169.958984 0)"/>
    </g>
    <!-- estimation -->
    <g style="fill: #2b2d42" transform="translate(180.411053 84.140578) scale(0.09 -0.09)">
     <use xlink:href="#DejaVuSans-65"/>
     <use xlink:href="#DejaVuSans-73" transform="translate(61.523438 0)"/>
     <use xlink:href="#DejaVuSans-74" transform="translate(113.623047 0)"/>
     <use xlink:href="#DejaVuSans-69" transform="translate(152.832031 0)"/>
     <use xlink:href="#DejaVuSans-6d" transform="translate(180.615234 0)"/>
     <use xlink:href="#DejaVuSans-61" transform="translate(278.027344 0)"/>
     <use xlink:href="#DejaVuSans-74" transform="translate(339.306641 0)"/>
     <use xlink:href="#DejaVuSans-69" transform="translate(378.515625 0)"/>
     <use xlink:href="#DejaVuSans-6f" transform="translate(406.298828 0)"/>
     <use xlink:href="#DejaVuSans-6e" transform="translate(467.480469 0)"/>
    </g>
   </g>
   <g id="text_4">
    <!-- Feature -->
    <g style="fill: #2b2d42" transform="translate(260.556206 74.062547) scale(0.09 -0.09)">
     <use xlink:href="#DejaVuSans-46"/>
     <use xlink:href="#DejaVuSans-65" transform="translate(52.019531 0)"/>
     <use xlink:href="#DejaVuSans-61" transform="translate(113.542969 0)"/>
     <use xlink:href="#DejaVuSans-74" transform="translate(174.822266 0)"/>
     <use xlink:href="#DejaVuSans-75" transform="translate(214.03125 0)"/>
     <use xlink:href="#DejaVuSans-72" transform="translate(277.410156 0)"/>
     <use xlink:href="#DejaVuSans-65" transform="translate(316.273438 0)"/>
    </g>
    <!-- computation -->
    <g style="fill: #2b2d42" transform="translate(249.095971 84.140578) scale(0.09 -0.09)">
     <use xlink:href="#DejaVuSans-63"/>
     <use xlink:href="#DejaVuSans-6f" transform="translate(54.980469 0)"/>
     <use xlink:href="#DejaVuSans-6d" transform="translate(116.162109 0)"/>
     <use xlink:href="#DejaVuSans-70" transform="translate(213.574219 0)"/>
     <use xlink:href="#DejaVuSans-75" transform="translate(277.050781 0)"/>
     <use xlink:href="#DejaVuSans-74" transform="translate(340.429688 0)"/>
     <use xlink:href="#DejaVuSans-61" transform="translate(379.638672 0)"/>
     <use xlink:href="#DejaVuSans-74" transform="translate(440.917969 0)"/>
     <use xlink:href="#DejaVuSans-69" transform="translate(480.126953 0)"/>
     <use xlink:href="#DejaVuSans-6f" transform="translate(507.910156 0)"/>
     <use xlink:href="#DejaVuSans-6e" transform="translate(569.091797 0)"/>
    </g>
   </g>
   <g id="text_5">
    <!-- Temporal -->
    <g style="fill: #2b2d42" transform="translate(37.179263 148.560047) scale(0.09 -0.09)">
     <defs>
      <path id="DejaVuSans-54" d="M -19 4666
L 3928 4666
L 3928 4134
L 2272 4134
L 2272 0
L 1638 0
L 1638 4134
L -19 4134
L -19 4666
z
" transform="scale(0.015625)"/>
      <path id="DejaVuSans-6c" d="M 603 4863
L 1178 4863
L 1178 0
L 603 0
L 603 4863
z
" transform="scale(0.015625)"/>
     </defs>
     <use xlink:href="#DejaVuSans-54"/>
     <use xlink:href="#DejaVuSans-65" transform="translate(44.083984 0)"/>
     <use xlink:href="#DejaVuSans-6d" transform="translate(105.607422 0)"/>
     <use xlink:href="#DejaVuSans-70" transform="translate(203.019531 0)"/>
     <use xlink:href="#DejaVuSans-6f" transform="translate(266.496094 0)"/>
     <use xlink:href="#DejaVuSans-72" transform="translate(327.677734 0)"/>
     <use xlink:href="#DejaVuSans-61" transform="translate(368.791016 0)"/>
     <use xlink:href="#DejaVuSans-6c" transform="translate(430.070312 0)"/>
    </g>
    <!-- analysis -->
    <g style="fill: #2b2d42" transform="translate(39.56356 158.638078) scale(0.09 -0.09)">
     <defs>
      <path id="DejaVuSans-79" d="M 2059 -325
Q 1816 -950 1584 -1140
Q 1353 -1331 966 -1331
L 506 -1331
L 506 -850
L 844 -850
Q 1081 -850 1212 -737
Q 1344 -625 1503 -206
L 1606 56
L 191 3500
L 800 3500
L 1894 763
L 2988 3500
L 3597 3500
L 2059 -325
z
" transform="scale(0.015625)"/>
     </defs>
     <use xlink:href="#DejaVuSans-61"/>
     <use xlink:href="#DejaVuSans-6e" transform="translate(61.279297 0)"/>
     <use xlink:href="#DejaVuSans-61" transform="translate(124.658203 0)"/>
     <use xlink:href="#DejaVuSans-6c" transform="translate(185.9375 0)"/>
     <use xlink:href="#DejaVuSans-79" transform="translate(213.720703 0)"/>
     <use xlink:href="#DejaVuSans-73" transform="translate(272.900391 0)"/>
     <use xlink:href="#DejaVuSans-69" transform="translate(325 0)"/>
     <use xlink:href="#DejaVuSans-73" transform="translate(352.783203 0)"/>
    </g>
   </g>
   <g id="text_6">
    <!-- Risk -->
    <g style="fill: #2b2d42" transform="translate(121.714025 148.560047) scale(0.09 -0.09)">
     <defs>
      <path id="DejaVuSans-52" d="M 2841 2188
Q 3044 2119 3236 1894
Q 3428 1669 3622 1275
L 4263 0
L 3584 0
L 2988 1197
Q 2756 1666 2539 1819
Q 2322 1972 1947 1972
L 1259 1972
L 1259 0
L 628 0
L 628 4666
L 2053 4666
Q 2853 4666 3247 4331
Q 3641 3997 3641 3322
Q 3641 2881 3436 2590
Q 3231 2300 2841 2188
z
M 1259 4147
L 1259 2491
L 2053 2491
Q 2509 2491 2742 2702
Q 2975 2913 2975 3322
Q 2975 3731 2742 3939
Q 2509 4147 2053 4147
L 1259 4147
z
" transform="scale(0.015625)"/>
      <path id="DejaVuSans-6b" d="M 581 4863
L 1159 4863
L 1159 1991
L 2875 3500
L 3609 3500
L 1753 1863
L 3688 0
L 2938 0
L 1159 1709
L 1159 0
L 581 0
L 581 4863
z
" transform="scale(0.015625)"/>
     </defs>
     <use xlink:href="#DejaVuSans-52"/>
     <use xlink:href="#DejaVuSans-69" transform="translate(69.482422 0)"/>
     <use xlink:href="#DejaVuSans-73" transform="translate(97.265625 0)"/>
     <use xlink:href="#DejaVuSans-6b" transform="translate(149.365234 0)"/>
    </g>
    <!-- scoring -->
    <g style="fill: #2b2d42" transform="translate(114.660275 158.638078) scale(0.09 -0.09)">
     <defs>
      <path id="DejaVuSans-67" d="M 2906 1791
Q 2906 2416 2648 2759
Q 2391 3103 1925 3103
Q 1463 3103 1205 2759
Q 947 2416 947 1791
Q 947 1169 1205 825
Q 1463 481 1925 481
Q 2391 481 2648 825
Q 2906 1169 2906 1791
z
M 3481 434
Q 3481 -459 3084 -895
Q 2688 -1331 1869 -1331
Q 1566 -1331 1297 -1286
Q 1028 -1241 775 -1147
L 775 -588
Q 1028 -725 1275 -790
Q 1522 -856 1778 -856
Q 2344 -856 2625 -561
Q 2906 -266 2906 331
L 2906 616
Q 2728 306 2450 153
Q 2172 0 1784 0
Q 1141 0 747 490
Q 353 981 353 1791
Q 353 2603 747 3093
Q 1141 3584 1784 3584
Q 2172 3584 2450 3431
Q 2728 3278 2906 2969
L 2906 3500
L 3481 3500
L 3481 434
z
" transform="scale(0.015625)"/>
     </defs>
     <use xlink:href="#DejaVuSans-73"/>
     <use xlink:href="#DejaVuSans-63" transform="translate(52.099609 0)"/>
     <use xlink:href="#DejaVuSans-6f" transform="translate(107.080078 0)"/>
     <use xlink:href="#DejaVuSans-72" transform="translate(168.261719 0)"/>
     <use xlink:href="#DejaVuSans-69" transform="translate(209.375 0)"/>
     <use xlink:href="#DejaVuSans-6e" transform="translate(237.158203 0)"/>
     <use xlink:href="#DejaVuSans-67" transform="translate(300.537109 0)"/>
    </g>
   </g>
   <g id="text_7">
    <!-- Event -->
    <g style="fill: #2b2d42" transform="translate(191.407225 148.560047) scale(0.09 -0.09)">
     <defs>
      <path id="DejaVuSans-45" d="M 628 4666
L 3578 4666
L 3578 4134
L 1259 4134
L 1259 2753
L 3481 2753
L 3481 2222
L 1259 2222
L 1259 531
L 3634 531
L 3634 0
L 628 0
L 628 4666
z
" transform="scale(0.015625)"/>
     </defs>
     <use xlink:href="#DejaVuSans-45"/>
     <use xlink:href="#DejaVuSans-76" transform="translate(63.183594 0)"/>
     <use xlink:href="#DejaVuSans-65" transform="translate(122.363281 0)"/>
     <use xlink:href="#DejaVuSans-6e" transform="translate(183.886719 0)"/>
     <use xlink:href="#DejaVuSans-74" transform="translate(247.265625 0)"/>
    </g>
    <!-- detection -->
    <g style="fill: #2b2d42" transform="translate(183.046365 158.638078) scale(0.09 -0.09)">
     <use xlink:href="#DejaVuSans-64"/>
     <use xlink:href="#DejaVuSans-65" transform="translate(63.476562 0)"/>
     <use xlink:href="#DejaVuSans-74" transform="translate(125 0)"/>
     <use xlink:href="#DejaVuSans-65" transform="translate(164.208984 0)"/>
     <use xlink:href="#DejaVuSans-63" transform="translate(225.732422 0)"/>
     <use xlink:href="#DejaVuSans-74" transform="translate(280.712891 0)"/>
     <use xlink:href="#DejaVuSans-69" transform="translate(319.921875 0)"/>
     <use xlink:href="#DejaVuSans-6f" transform="translate(347.705078 0)"/>
     <use xlink:href="#DejaVuSans-6e" transform="translate(408.886719 0)"/>
    </g>
   </g>
   <g id="text_8">
    <!-- Visualization -->
    <g style="fill: #2b2d42" transform="translate(249.136753 153.599063) scale(0.09 -0.09)">
     <defs>
      <path id="DejaVuSans-56" d="M 1831 0
L 50 4666
L 709 4666
L 2188 738
L 3669 4666
L 4325 4666
L 2547 0
L 1831 0
z
" transform="scale(0.015625)"/>
      <path id="DejaVuSans-7a" d="M 353 3500
L 3084 3500
L 3084 2975
L 922 459
L 3084 459
L 3084 0
L 275 0
L 275 525
L 2438 3041
L 353 3041
L 353 3500
z
" transform="scale(0.015625)"/>
     </defs>
     <use xlink:href="#DejaVuSans-56"/>
     <use xlink:href="#DejaVuSans-69" transform="translate(66.158203 0)"/>
     <use xlink:href="#DejaVuSans-73" transform="translate(93.941406 0)"/>
     <use xlink:href="#DejaVuSans-75" transform="translate(146.041016 0)"/>
     <use xlink:href="#DejaVuSans-61" transform="translate(209.419922 0)"/>
     <use xlink:href="#DejaVuSans-6c" transform="translate(270.699219 0)"/>
     <use xlink:href="#DejaVuSans-69" transform="translate(298.482422 0)"/>
     <use xlink:href="#DejaVuSans-7a" transform="translate(326.265625 0)"/>
     <use xlink:href="#DejaVuSans-61" transform="translate(378.755859 0)"/>
     <use xlink:href="#DejaVuSans-74" transform="translate(440.035156 0)"/>
     <use xlink:href="#DejaVuSans-69" transform="translate(479.244141 0)"/>
     <use xlink:href="#DejaVuSans-6f" transform="translate(507.027344 0)"/>
     <use xlink:href="#DejaVuSans-6e" transform="translate(568.208984 0)"/>
    </g>
   </g>
   <g id="text_9">
    <!-- Optional: LLM explanations -->
    <g style="fill: #2b2d42" transform="translate(446.610418 214.733898) scale(0.085 -0.085)">
     <defs>
      <path id="DejaVuSans-4f" d="M 2522 4238
Q 1834 4238 1429 3725
Q 1025 3213 1025 2328
Q 1025 1447 1429 934
Q 1834 422 2522 422
Q 3209 422 3611 934
Q 4013 1447 4013 2328
Q 4013 3213 3611 3725
Q 3209 4238 2522 4238
z
M 2522 4750
Q 3503 4750 4090 4092
Q 4678 3434 4678 2328
Q 4678 1225 4090 567
Q 3503 -91 2522 -91
Q 1538 -91 948 565
Q 359 1222 359 2328
Q 359 3434 948 4092
Q 1538 4750 2522 4750
z
" transform="scale(0.015625)"/>
      <path id="DejaVuSans-3a" d="M 750 794
L 1409 794
L 1409 0
L 750 0
L 750 794
z
M 750 3309
L 1409 3309
L 1409 2516
L 750 2516
L 750 3309
z
" transform="scale(0.015625)"/>
      <path id="DejaVuSans-20" transform="scale(0.015625)"/>
      <path id="DejaVuSans-4c" d="M 628 4666
L 1259 4666
L 1259 531
L 3531 531
L 3531 0
L 628 0
L 628 4666
z
" transform="scale(0.015625)"/>
      <path id="DejaVuSans-4d" d="M 628 4666
L 1569 4666
L 2759 1491
L 3956 4666
L 4897 4666
L 4897 0
L 4281 0
L 4281 4097
L 3078 897
L 2444 897
L 1241 4097
L 1241 0
L 628 0
L 628 4666
z
" transform="scale(0.015625)"/>
     </defs>
     <use xlink:href="#DejaVuSans-4f"/>
     <use xlink:href="#DejaVuSans-70" transform="translate(78.710938 0)"/>
     <use xlink:href="#DejaVuSans-74" transform="translate(142.1875 0)"/>
     <use xlink:href="#DejaVuSans-69" transform="translate(181.396484 0)"/>
     <use xlink:href="#DejaVuSans-6f" transform="translate(209.179688 0)"/>
     <use xlink:href="#DejaVuSans-6e" transform="translate(270.361328 0)"/>
     <use xlink:href="#DejaVuSans-61" transform="translate(333.740234 0)"/>
     <use xlink:href="#DejaVuSans-6c" transform="translate(395.019531 0)"/>
     <use xlink:href="#DejaVuSans-3a" transform="translate(422.802734 0)"/>
     <use xlink:href="#DejaVuSans-20" transform="translate(456.494141 0)"/>
     <use xlink:href="#DejaVuSans-4c" transform="translate(488.28125 0)"/>
     <use xlink:href="#DejaVuSans-4c" transform="translate(543.994141 0)"/>
     <use xlink:href="#DejaVuSans-4d" transform="translate(599.707031 0)"/>
     <use xlink:href="#DejaVuSans-20" transform="translate(685.986328 0)"/>
     <use xlink:href="#DejaVuSans-65" transform="translate(717.773438 0)"/>
     <use xlink:href="#DejaVuSans-78" transform="translate(777.546875 0)"/>
     <use xlink:href="#DejaVuSans-70" transform="translate(836.726562 0)"/>
     <use xlink:href="#DejaVuSans-6c" transform="translate(900.203125 0)"/>
     <use xlink:href="#DejaVuSans-61" transform="translate(927.986328 0)"/>
     <use xlink:href="#DejaVuSans-6e" transform="translate(989.265625 0)"/>
     <use xlink:href="#DejaVuSans-61" transform="translate(1052.644531 0)"/>
     <use xlink:href="#DejaVuSans-74" transform="translate(1113.923828 0)"/>
     <use xlink:href="#DejaVuSans-69" transform="translate(1153.132812 0)"/>
     <use xlink:href="#DejaVuSans-6f" transform="translate(1180.916016 0)"/>
     <use xlink:href="#DejaVuSans-6e" transform="translate(1242.097656 0)"/>
     <use xlink:href="#DejaVuSans-73" transform="translate(1305.476562 0)"/>
    </g>
    <!-- (e.g. Ollama, local) -->
    <g style="fill: #2b2d42" transform="translate(463.966355 224.252039) scale(0.085 -0.085)">
     <defs>
      <path id="DejaVuSans-28" d="M 1984 4856
Q 1566 4138 1362 3434
Q 1159 2731 1159 2009
Q 1159 1288 1364 580
Q 1569 -128 1984 -844
L 1484 -844
Q 1016 -109 783 600
Q 550 1309 550 2009
Q 550 2706 781 3412
Q 1013 4119 1484 4856
L 1984 4856
z
" transform="scale(0.015625)"/>
      <path id="DejaVuSans-2e" d="M 684 794
L 1344 794
L 1344 0
L 684 0
L 684 794
z
" transform="scale(0.015625)"/>
      <path id="DejaVuSans-2c" d="M 750 794
L 1409 794
L 1409 256
L 897 -744
L 494 -744
L 750 256
L 750 794
z
" transform="scale(0.015625)"/>
      <path id="DejaVuSans-29" d="M 513 4856
L 1013 4856
Q 1481 4119 1714 3412
Q 1947 2706 1947 2009
Q 1947 1309 1714 600
Q 1481 -109 1013 -844
L 513 -844
Q 928 -128 1133 580
Q 1338 1288 1338 2009
Q 1338 2731 1133 3434
Q 928 4138 513 4856
z
" transform="scale(0.015625)"/>
     </defs>
     <use xlink:href="#DejaVuSans-28"/>
     <use xlink:href="#DejaVuSans-65" transform="translate(39.013672 0)"/>
     <use xlink:href="#DejaVuSans-2e" transform="translate(100.537109 0)"/>
     <use xlink:href="#DejaVuSans-67" transform="translate(132.324219 0)"/>
     <use xlink:href="#DejaVuSans-2e" transform="translate(195.800781 0)"/>
     <use xlink:href="#DejaVuSans-20" transform="translate(227.587891 0)"/>
     <use xlink:href="#DejaVuSans-4f" transform="translate(259.375 0)"/>
     <use xlink:href="#DejaVuSans-6c" transform="translate(338.085938 0)"/>
     <use xlink:href="#DejaVuSans-6c" transform="translate(365.869141 0)"/>
     <use xlink:href="#DejaVuSans-61" transform="translate(393.652344 0)"/>
     <use xlink:href="#DejaVuSans-6d" transform="translate(454.931641 0)"/>
     <use xlink:href="#DejaVuSans-61" transform="translate(552.34375 0)"/>
     <use xlink:href="#DejaVuSans-2c" transform="translate(613.623047 0)"/>
     <use xlink:href="#DejaVuSans-20" transform="translate(645.410156 0)"/>
     <use xlink:href="#DejaVuSans-6c" transform="translate(677.197266 0)"/>
     <use xlink:href="#DejaVuSans-6f" transform="translate(704.980469 0)"/>
     <use xlink:href="#DejaVuSans-63" transform="translate(766.162109 0)"/>
     <use xlink:href="#DejaVuSans-61" transform="translate(821.142578 0)"/>
     <use xlink:href="#DejaVuSans-6c" transform="translate(882.421875 0)"/>
     <use xlink:href="#DejaVuSans-29" transform="translate(910.205078 0)"/>
    </g>
   </g>
   <g id="text_10">
    <!-- Human-in-the-loop -->
    <g style="fill: #2b2d42" transform="translate(184.773974 284.010047) scale(0.09 -0.09)">
     <defs>
      <path id="DejaVuSans-48" d="M 628 4666
L 1259 4666
L 1259 2753
L 3553 2753
L 3553 4666
L 4184 4666
L 4184 0
L 3553 0
L 3553 2222
L 1259 2222
L 1259 0
L 628 0
L 628 4666
z
" transform="scale(0.015625)"/>
      <path id="DejaVuSans-2d" d="M 313 2009
L 1997 2009
L 1997 1497
L 313 1497
L 313 2009
z
" transform="scale(0.015625)"/>
      <path id="DejaVuSans-68" d="M 3513 2113
L 3513 0
L 2938 0
L 2938 2094
Q 2938 2591 2744 2837
Q 2550 3084 2163 3084
Q 1697 3084 1428 2787
Q 1159 2491 1159 1978
L 1159 0
L 581 0
L 581 4863
L 1159 4863
L 1159 2956
Q 1366 3272 1645 3428
Q 1925 3584 2291 3584
Q 2894 3584 3203 3211
Q 3513 2838 3513 2113
z
" transform="scale(0.015625)"/>
     </defs>
     <use xlink:href="#DejaVuSans-48"/>
     <use xlink:href="#DejaVuSans-75" transform="translate(75.195312 0)"/>
     <use xlink:href="#DejaVuSans-6d" transform="translate(138.574219 0)"/>
     <use xlink:href="#DejaVuSans-61" transform="translate(235.986328 0)"/>
     <use xlink:href="#DejaVuSans-6e" transform="translate(297.265625 0)"/>
     <use xlink:href="#DejaVuSans-2d" transform="translate(360.644531 0)"/>
     <use xlink:href="#DejaVuSans-69" transform="translate(396.728516 0)"/>
     <use xlink:href="#DejaVuSans-6e" transform="translate(424.511719 0)"/>
     <use xlink:href="#DejaVuSans-2d" transform="translate(487.890625 0)"/>
     <use xlink:href="#DejaVuSans-74" transform="translate(523.974609 0)"/>
     <use xlink:href="#DejaVuSans-68" transform="translate(563.183594 0)"/>
     <use xlink:href="#DejaVuSans-65" transform="translate(626.5625 0)"/>
     <use xlink:href="#DejaVuSans-2d" transform="translate(688.085938 0)"/>
     <use xlink:href="#DejaVuSans-6c" transform="translate(724.169922 0)"/>
     <use xlink:href="#DejaVuSans-6f" transform="translate(751.953125 0)"/>
     <use xlink:href="#DejaVuSans-6f" transform="translate(813.134766 0)"/>
     <use xlink:href="#DejaVuSans-70" transform="translate(874.316406 0)"/>
    </g>
    <!-- decision -->
    <g style="fill: #2b2d42" transform="translate(208.424287 294.088078) scale(0.09 -0.09)">
     <use xlink:href="#DejaVuSans-64"/>
     <use xlink:href="#DejaVuSans-65" transform="translate(63.476562 0)"/>
     <use xlink:href="#DejaVuSans-63" transform="translate(125 0)"/>
     <use xlink:href="#DejaVuSans-69" transform="translate(179.980469 0)"/>
     <use xlink:href="#DejaVuSans-73" transform="translate(207.763672 0)"/>
     <use xlink:href="#DejaVuSans-69" transform="translate(259.863281 0)"/>
     <use xlink:href="#DejaVuSans-6f" transform="translate(287.646484 0)"/>
     <use xlink:href="#DejaVuSans-6e" transform="translate(348.828125 0)"/>
    </g>
   </g>
   <g id="text_11">
    <!-- System architecture: offline core pipeline, optional generative layer, and human review. -->
    <g style="fill: #2b2d42" transform="translate(14.176957 41.0625) scale(0.115 -0.115)">
     <defs>
      <path id="DejaVuSans-53" d="M 3425 4513
L 3425 3897
Q 3066 4069 2747 4153
Q 2428 4238 2131 4238
Q 1616 4238 1336 4038
Q 1056 3838 1056 3469
Q 1056 3159 1242 3001
Q 1428 2844 1947 2747
L 2328 2669
Q 3034 2534 3370 2195
Q 3706 1856 3706 1288
Q 3706 609 3251 259
Q 2797 -91 1919 -91
Q 1588 -91 1214 -16
Q 841 59 441 206
L 441 856
Q 825 641 1194 531
Q 1563 422 1919 422
Q 2459 422 2753 634
Q 3047 847 3047 1241
Q 3047 1584 2836 1778
Q 2625 1972 2144 2069
L 1759 2144
Q 1053 2284 737 2584
Q 422 2884 422 3419
Q 422 4038 858 4394
Q 1294 4750 2059 4750
Q 2388 4750 2728 4690
Q 3069 4631 3425 4513
z
" transform="scale(0.015625)"/>
      <path id="DejaVuSans-66" d="M 2375 4863
L 2375 4384
L 1825 4384
Q 1516 4384 1395 4259
Q 1275 4134 1275 3809
L 1275 3500
L 2222 3500
L 2222 3053
L 1275 3053
L 1275 0
L 697 0
L 697 3053
L 147 3053
L 147 3500
L 697 3500
L 697 3744
Q 697 4328 969 4595
Q 1241 4863 1831 4863
L 2375 4863
z
" transform="scale(0.015625)"/>
      <path id="DejaVuSans-77" d="M 269 3500
L 844 3500
L 1563 769
L 2278 3500
L 2956 3500
L 3675 769
L 4391 3500
L 4966 3500
L 4050 0
L 3372 0
L 2619 2869
L 1863 0
L 1184 0
L 269 3500
z
" transform="scale(0.015625)"/>
     </defs>
     <use xlink:href="#DejaVuSans-53"/>
     <use xlink:href="#DejaVuSans-79" transform="translate(63.476562 0)"/>
     <use xlink:href="#DejaVuSans-73" transform="translate(122.65625 0)"/>
     <use xlink:href="#DejaVuSans-74" transform="translate(174.755859 0)"/>
     <use xlink:href="#DejaVuSans-65" transform="translate(213.964844 0)"/>
     <use xlink:href="#DejaVuSans-6d" transform="translate(275.488281 0)"/>
     <use xlink:href="#DejaVuSans-20" transform="translate(372.900391 0)"/>
     <use xlink:href="#DejaVuSans-61" transform="translate(404.6875 0)"/>
     <use xlink:href="#DejaVuSans-72" transform="translate(465.966797 0)"/>
     <use xlink:href="#DejaVuSans-63" transform="translate(504.830078 0)"/>
     <use xlink:href="#DejaVuSans-68" transform="translate(559.810547 0)"/>
     <use xlink:href="#DejaVuSans-69" transform="translate(623.189453 0)"/>
     <use xlink:href="#DejaVuSans-74" transform="translate(650.972656 0)"/>
     <use xlink:href="#DejaVuSans-65" transform="translate(690.181641 0)"/>
     <use xlink:href="#DejaVuSans-63" transform="translate(751.705078 0)"/>
     <use xlink:href="#DejaVuSans-74" transform="translate(806.685547 0)"/>
     <use xlink:href="#DejaVuSans-75" transform="translate(845.894531 0)"/>
     <use xlink:href="#DejaVuSans-72" transform="translate(909.273438 0)"/>
     <use xlink:href="#DejaVuSans-65" transform="translate(948.136719 0)"/>
     <use xlink:href="#DejaVuSans-3a" transform="translate(1009.660156 0)"/>
     <use xlink:href="#DejaVuSans-20" transform="translate(1043.351562 0)"/>
     <use xlink:href="#DejaVuSans-6f" transform="translate(1075.138672 0)"/>
     <use xlink:href="#DejaVuSans-66" transform="translate(1136.320312 0)"/>
     <use xlink:href="#DejaVuSans-66" transform="translate(1171.525391 0)"/>
     <use xlink:href="#DejaVuSans-6c" transform="translate(1206.730469 0)"/>
     <use xlink:href="#DejaVuSans-69" transform="translate(1234.513672 0)"/>
     <use xlink:href="#DejaVuSans-6e" transform="translate(1262.296875 0)"/>
     <use xlink:href="#DejaVuSans-65" transform="translate(1325.675781 0)"/>
     <use xlink:href="#DejaVuSans-20" transform="translate(1387.199219 0)"/>
     <use xlink:href="#DejaVuSans-63" transform="translate(1418.986328 0)"/>
     <use xlink:href="#DejaVuSans-6f" transform="translate(1473.966797 0)"/>
     <use xlink:href="#DejaVuSans-72" transform="translate(1535.148438 0)"/>
     <use xlink:href="#DejaVuSans-65" transform="translate(1574.011719 0)"/>
     <use xlink:href="#DejaVuSans-20" transform="translate(1635.535156 0)"/>
     <use xlink:href="#DejaVuSans-70" transform="translate(1667.322266 0)"/>
     <use xlink:href="#DejaVuSans-69" transform="translate(1730.798828 0)"/>
     <use xlink:href="#DejaVuSans-70" transform="translate(1758.582031 0)"/>
     <use xlink:href="#DejaVuSans-65" transform="translate(1822.058594 0)"/>
     <use xlink:href="#DejaVuSans-6c" transform="translate(1883.582031 0)"/>
     <use xlink:href="#DejaVuSans-69" transform="translate(1911.365234 0)"/>
     <use xlink:href="#DejaVuSans-6e" transform="translate(1939.148438 0)"/>
     <use xlink:href="#DejaVuSans-65" transform="translate(2002.527344 0)"/>
     <use xlink:href="#DejaVuSans-2c" transform="translate(2064.050781 0)"/>
     <use xlink:href="#DejaVuSans-20" transform="translate(2095.837891 0)"/>
     <use xlink:href="#DejaVuSans-6f" transform="translate(2127.625 0)"/>
     <use xlink:href="#DejaVuSans-70" transform="translate(2188.806641 0)"/>
     <use xlink:href="#DejaVuSans-74" transform="translate(2252.283203 0)"/>
     <use xlink:href="#DejaVuSans-69" transform="translate(2291.492188 0)"/>
     <use xlink:href="#DejaVuSans-6f" transform="translate(2319.275391 0)"/>
     <use xlink:href="#DejaVuSans-6e" transform="translate(2380.457031 0)"/>
     <use xlink:href="#DejaVuSans-61" transform="translate(2443.835938 0)"/>
     <use xlink:href="#DejaVuSans-6c" transform="translate(2505.115234 0)"/>
     <use xlink:href="#DejaVuSans-20" transform="translate(2532.898438 0)"/>
     <use xlink:href="#DejaVuSans-67" transform="translate(2564.685547 0)"/>
     <use xlink:href="#DejaVuSans-65" transform="translate(2628.162109 0)"/>
     <use xlink:href="#DejaVuSans-6e" transform="translate(2689.685547 0)"/>
     <use xlink:href="#DejaVuSans-65" transform="translate(2753.064453 0)"/>
     <use xlink:href="#DejaVuSans-72" transform="translate(2814.587891 0)"/>
     <use xlink:href="#DejaVuSans-61" transform="translate(2855.701172 0)"/>
     <use xlink:href="#DejaVuSans-74" transform="translate(2916.980469 0)"/>
     <use xlink:href="#DejaVuSans-69" transform="translate(2956.189453 0)"/>
     <use xlink:href="#DejaVuSans-76" transform="translate(2983.972656 0)"/>
     <use xlink:href="#DejaVuSans-65" transform="translate(3043.152344 0)"/>
     <use xlink:href="#DejaVuSans-20" transform="translate(3104.675781 0)"/>
     <use xlink:href="#DejaVuSans-6c" transform="translate(3136.462891 0)"/>
     <use xlink:href="#DejaVuSans-61" transform="translate(3164.246094 0)"/>
     <use xlink:href="#DejaVuSans-79" transform="translate(3225.525391 0)"/>
     <use xlink:href="#DejaVuSans-65" transform="translate(3284.705078 0)"/>
     <use xlink:href="#DejaVuSans-72" transform="translate(3346.228516 0)"/>
     <use xlink:href="#DejaVuSans-2c" transform="translate(3387.341797 0)"/>
     <use xlink:href="#DejaVuSans-20" transform="translate(3419.128906 0)"/>
     <use xlink:href="#DejaVuSans-61" transform="translate(3450.916016 0)"/>
     <use xlink:href="#DejaVuSans-6e" transform="translate(3512.195312 0)"/>
     <use xlink:href="#DejaVuSans-64" transform="translate(3575.574219 0)"/>
     <use xlink:href="#DejaVuSans-20" transform="translate(3639.050781 0)"/>
     <use xlink:href="#DejaVuSans-68" transform="translate(3670.837891 0)"/>
     <use xlink:href="#DejaVuSans-75" transform="translate(3734.216797 0)"/>
     <use xlink:href="#DejaVuSans-6d" transform="translate(3797.595703 0)"/>
     <use xlink:href="#DejaVuSans-61" transform="translate(3895.007812 0)"/>
     <use xlink:href="#DejaVuSans-6e" transform="translate(3956.287109 0)"/>
     <use xlink:href="#DejaVuSans-20" transform="translate(4019.666016 0)"/>
     <use xlink:href="#DejaVuSans-72" transform="translate(4051.453125 0)"/>
     <use xlink:href="#DejaVuSans-65" transform="translate(4090.316406 0)"/>
     <use xlink:href="#DejaVuSans-76" transform="translate(4151.839844 0)"/>
     <use xlink:href="#DejaVuSans-69" transform="translate(4211.019531 0)"/>
     <use xlink:href="#DejaVuSans-65" transform="translate(4238.802734 0)"/>
     <use xlink:href="#DejaVuSans-77" transform="translate(4300.326172 0)"/>
     <use xlink:href="#DejaVuSans-2e" transform="translate(4372.988281 0)"/>
    </g>
   </g>
  </g>
 </g>
 <defs>
  <clipPath id="p7539ccecb0">
   <rect x="7.2" y="7.2" width="641.88" height="325.08"/>
  </clipPath>
 </defs>
</svg>
