<?xml version="1.0" encoding="utf-8" standalone="no"?>
<!DOCTYPE svg PUBLIC "-//W3C//DTD SVG 1.1//EN"
  "http://www.w3.org/Graphics/SVG/1.1/DTD/svg11.dtd">
<svg xmlns:xlink="http://www.w3.org/1999/xlink" width="681.573083pt" height="267.48pt" viewBox="0 0 681.573083 267.48" xmlns="http://www.w3.org/2000/svg" version="1.1">
 <metadata>
  <rdf:RDF xmlns:dc="http://purl.org/dc/elements/1.1/" xmlns:cc="http://creativecommons.org/ns#" xmlns:rdf="http://www.w3.org/1999/02/22-rdf-syntax-ns#">
   <cc:Work>
    <dc:type rdf:resource="http://purl.org/dc/dcmitype/StillImage"/>
    <dc:date>2026-04-29T21:41:23.518472</dc:date>
    <dc:format>image/svg+xml</dc:format>
    <dc:creator>
     <cc:Agent>
      <dc:title>Matplotlib v3.10.9, https://matplotlib.org/</dc:title>
     </cc:Agent>
    </dc:creator>
   </cc:Work>
  </rdf:RDF>
 </metadata>
 <defs>
  <style type="text/css">*{stroke-linejoin: round; stroke-linecap: butt}</style>
 </defs>
 <g id="figure_1">
  <g id="patch_1">
   <path d="M -0 267.48
L 681.573083 267.48
L 681.573083 0
L -0 0
z
" style="fill: #ffffff"/>
  </g>
  <g id="axes_1">
   <g id="patch_2">
    <path d="M 32.724688 240.3
L 194.381049 240.3
Q 201.673817 240.3 201.673817 232.308
L 201.673817 71.802
Q 201.673817 63.81 194.381049 63.81
L 32.724688 63.81
Q 25.43192 63.81 25.43192 71.802
L 25.43192 232.308
Q 25.43192 240.3 32.724688 240.3
z
" clip-path="url(#p86fbfdfbde)" style="fill: #e8ecef; stroke: #5c6770; stroke-width: 0.8; stroke-linejoin: miter"/>
   </g>
   <g id="patch_3">
    <path d="M 218.082545 240.3
L 379.738905 240.3
Q 387.031673 240.3 387.031673 232.308
L 387.031673 71.802
Q 387.031673 63.81 379.738905 63.81
L 218.082545 63.81
Q 210.789777 63.81 210.789777 71.802
L 210.789777 232.308
Q 210.789777 240.3 218.082545 240.3
z
" clip-path="url(#p86fbfdfbde)" style="fill: #d4c4a8; stroke: #5c6770; stroke-width: 0.8; stroke-linejoin: miter"/>
   </g>
   <g id="patch_4">
    <path d="M 403.440401 240.3
L 565.096762 240.3
Q 572.38953 240.3 572.38953 232.308
L 572.38953 71.802
Q 572.38953 63.81 565.096762 63.81
L 403.440401 63.81
Q 396.147633 63.81 396.147633 71.802
L 396.147633 232.308
Q 396.147633 240.3 403.440401 240.3
z
" clip-path="url(#p86fbfdfbde)" style="fill: #ddd6c8; stroke: #5c6770; stroke-width: 0.8; stroke-linejoin: miter"/>
   </g>
   <g id="text_1">
    <!-- Combat-safety signal taxonomy (research labels; not clinical) -->
    <g style="fill: #2b2d42" transform="translate(125.453077 39.096234) scale(0.113 -0.113)">
     <defs>
      <path id="DejaVuSans-43" d="M 4122 4306
L 4122 3641
Q 3803 3938 3442 4084
Q 3081 4231 2675 4231
Q 1875 4231 1450 3742
Q 1025 3253 1025 2328
Q 1025 1406 1450 917
Q 1875 428 2675 428
Q 3081 428 3442 575
Q 3803 722 4122 1019
L 4122 359
Q 3791 134 3420 21
Q 3050 -91 2638 -91
Q 1578 -91 968 557
Q 359 1206 359 2328
Q 359 3453 968 4101
Q 1578 4750 2638 4750
Q 3056 4750 3426 4639
Q 3797 4528 4122 4306
z
" transform="scale(0.015625)"/>
      <path id="DejaVuSans-6f" d="M 1959 3097
Q 1497 3097 1228 2736
Q 959 2375 959 1747
Q 959 1119 1226 758
Q 1494 397 1959 397
Q 2419 397 2687 759
Q 2956 1122 2956 1747
Q 2956 2369 2687 2733
Q 2419 3097 1959 3097
z
M 1959 3584
Q 2709 3584 3137 3096
Q 3566 2609 3566 1747
Q 3566 888 3137 398
Q 2709 -91 1959 -91
Q 1206 -91 779 398
Q 353 888 353 1747
Q 353 2609 779 3096
Q 1206 3584 1959 3584
z
" transform="scale(0.015625)"/>
      <path id="DejaVuSans-6d" d="M 3328 2828
Q 3544 3216 3844 3400
Q 4144 3584 4550 3584
Q 5097 3584 5394 3201
Q 5691 2819 5691 2113
L 5691 0
L 5113 0
L 5113 2094
Q 5113 2597 4934 2840
Q 4756 3084 4391 3084
Q 3944 3084 3684 2787
Q 3425 2491 3425 1978
L 3425 0
L 2847 0
L 2847 2094
Q 2847 2600 2669 2842
Q 2491 3084 2119 3084
Q 1678 3084 1418 2786
Q 1159 2488 1159 1978
L 1159 0
L 581 0
L 581 3500
L 1159 3500
L 1159 2956
Q 1356 3278 1631 3431
Q 1906 3584 2284 3584
Q 2666 3584 2933 3390
Q 3200 3197 3328 2828
z
" transform="scale(0.015625)"/>
      <path id="DejaVuSans-62" d="M 3116 1747
Q 3116 2381 2855 2742
Q 2594 3103 2138 3103
Q 1681 3103 1420 2742
Q 1159 2381 1159 1747
Q 1159 1113 1420 752
Q 1681 391 2138 391
Q 2594 391 2855 752
Q 3116 1113 3116 1747
z
M 1159 2969
Q 1341 3281 1617 3432
Q 1894 3584 2278 3584
Q 2916 3584 3314 3078
Q 3713 2572 3713 1747
Q 3713 922 3314 415
Q 2916 -91 2278 -91
Q 1894 -91 1617 61
Q 1341 213 1159 525
L 1159 0
L 581 0
L 581 4863
L 1159 4863
L 1159 2969
z
" transform="scale(0.015625)"/>
      <path id="DejaVuSans-61" d="M 2194 1759
Q 1497 1759 1228 1600
Q 959 1441 959 1056
Q 959 750 1161 570
Q 1363 391 1709 391
Q 2188 391 2477 730
Q 2766 1069 2766 1631
L 2766 1759
L 2194 1759
z
M 3341 1997
L 3341 0
L 2766 0
L 2766 531
Q 2569 213 2275 61
Q 1981 -91 1556 -91
Q 1019 -91 701 211
Q 384 513 384 1019
Q 384 1609 779 1909
Q 1175 2209 1959 2209
L 2766 2209
L 2766 2266
Q 2766 2663 2505 2880
Q 2244 3097 1772 3097
Q 1472 3097 1187 3025
Q 903 2953 641 2809
L 641 3341
Q 956 3463 1253 3523
Q 1550 3584 1831 3584
Q 2591 3584 2966 3190
Q 3341 2797 3341 1997
z
" transform="scale(0.015625)"/>
      <path id="DejaVuSans-74" d="M 1172 4494
L 1172 3500
L 2356 3500
L 2356 3053
L 1172 3053
L 1172 1153
Q 1172 725 1289 603
Q 1406 481 1766 481
L 2356 481
L 2356 0
L 1766 0
Q 1100 0 847 248
Q 594 497 594 1153
L 594 3053
L 172 3053
L 172 3500
L 594 3500
L 594 4494
L 1172 4494
z
" transform="scale(0.015625)"/>
      <path id="DejaVuSans-2d" d="M 313 2009
L 1997 2009
L 1997 1497
L 313 1497
L 313 2009
z
" transform="scale(0.015625)"/>
      <path id="DejaVuSans-73" d="M 2834 3397
L 2834 2853
Q 2591 2978 2328 3040
Q 2066 3103 1784 3103
Q 1356 3103 1142 2972
Q 928 2841 928 2578
Q 928 2378 1081 2264
Q 1234 2150 1697 2047
L 1894 2003
Q 2506 1872 2764 1633
Q 3022 1394 3022 966
Q 3022 478 2636 193
Q 2250 -91 1575 -91
Q 1294 -91 989 -36
Q 684 19 347 128
L 347 722
Q 666 556 975 473
Q 1284 391 1588 391
Q 1994 391 2212 530
Q 2431 669 2431 922
Q 2431 1156 2273 1281
Q 2116 1406 1581 1522
L 1381 1569
Q 847 1681 609 1914
Q 372 2147 372 2553
Q 372 3047 722 3315
Q 1072 3584 1716 3584
Q 2034 3584 2315 3537
Q 2597 3491 2834 3397
z
" transform="scale(0.015625)"/>
      <path id="DejaVuSans-66" d="M 2375 4863
L 2375 4384
L 1825 4384
Q 1516 4384 1395 4259
Q 1275 4134 1275 3809
L 1275 3500
L 2222 3500
L 2222 3053
L 1275 3053
L 1275 0
L 697 0
L 697 3053
L 147 3053
L 147 3500
L 697 3500
L 697 3744
Q 697 4328 969 4595
Q 1241 4863 1831 4863
L 2375 4863
z
" transform="scale(0.015625)"/>
      <path id="DejaVuSans-65" d="M 3597 1894
L 3597 1613
L 953 1613
Q 991 1019 1311 708
Q 1631 397 2203 397
Q 2534 397 2845 478
Q 3156 559 3463 722
L 3463 178
Q 3153 47 2828 -22
Q 2503 -91 2169 -91
Q 1331 -91 842 396
Q 353 884 353 1716
Q 353 2575 817 3079
Q 1281 3584 2069 3584
Q 2775 3584 3186 3129
Q 3597 2675 3597 1894
z
M 3022 2063
Q 3016 2534 2758 2815
Q 2500 3097 2075 3097
Q 1594 3097 1305 2825
Q 1016 2553 972 2059
L 3022 2063
z
" transform="scale(0.015625)"/>
      <path id="DejaVuSans-79" d="M 2059 -325
Q 1816 -950 1584 -1140
Q 1353 -1331 966 -1331
L 506 -1331
L 506 -850
L 844 -850
Q 1081 -850 1212 -737
Q 1344 -625 1503 -206
L 1606 56
L 191 3500
L 800 3500
L 1894 763
L 2988 3500
L 3597 3500
L 2059 -325
z
" transform="scale(0.015625)"/>
      <path id="DejaVuSans-20" transform="scale(0.015625)"/>
      <path id="DejaVuSans-69" d="M 603 3500
L 1178 3500
L 1178 0
L 603 0
L 603 3500
z
M 603 4863
L 1178 4863
L 1178 4134
L 603 4134
L 603 4863
z
" transform="scale(0.015625)"/>
      <path id="DejaVuSans-67" d="M 2906 1791
Q 2906 2416 2648 2759
Q 2391 3103 1925 3103
Q 1463 3103 1205 2759
Q 947 2416 947 1791
Q 947 1169 1205 825
Q 1463 481 1925 481
Q 2391 481 2648 825
Q 2906 1169 2906 1791
z
M 3481 434
Q 3481 -459 3084 -895
Q 2688 -1331 1869 -1331
Q 1566 -1331 1297 -1286
Q 1028 -1241 775 -1147
L 775 -588
Q 1028 -725 1275 -790
Q 1522 -856 1778 -856
Q 2344 -856 2625 -561
Q 2906 -266 2906 331
L 2906 616
Q 2728 306 2450 153
Q 2172 0 1784 0
Q 1141 0 747 490
Q 353 981 353 1791
Q 353 2603 747 3093
Q 1141 3584 1784 3584
Q 2172 3584 2450 3431
Q 2728 3278 2906 2969
L 2906 3500
L 3481 3500
L 3481 434
z
" transform="scale(0.015625)"/>
      <path id="DejaVuSans-6e" d="M 3513 2113
L 3513 0
L 2938 0
L 2938 2094
Q 2938 2591 2744 2837
Q 2550 3084 2163 3084
Q 1697 3084 1428 2787
Q 1159 2491 1159 1978
L 1159 0
L 581 0
L 581 3500
L 1159 3500
L 1159 2956
Q 1366 3272 1645 3428
Q 1925 3584 2291 3584
Q 2894 3584 3203 3211
Q 3513 2838 3513 2113
z
" transform="scale(0.015625)"/>
      <path id="DejaVuSans-6c" d="M 603 4863
L 1178 4863
L 1178 0
L 603 0
L 603 4863
z
" transform="scale(0.015625)"/>
      <path id="DejaVuSans-78" d="M 3513 3500
L 2247 1797
L 3578 0
L 2900 0
L 1881 1375
L 863 0
L 184 0
L 1544 1831
L 300 3500
L 978 3500
L 1906 2253
L 2834 3500
L 3513 3500
z
" transform="scale(0.015625)"/>
      <path id="DejaVuSans-28" d="M 1984 4856
Q 1566 4138 1362 3434
Q 1159 2731 1159 2009
Q 1159 1288 1364 580
Q 1569 -128 1984 -844
L 1484 -844
Q 1016 -109 783 600
Q 550 1309 550 2009
Q 550 2706 781 3412
Q 1013 4119 1484 4856
L 1984 4856
z
" transform="scale(0.015625)"/>
      <path id="DejaVuSans-72" d="M 2631 2963
Q 2534 3019 2420 3045
Q 2306 3072 2169 3072
Q 1681 3072 1420 2755
Q 1159 2438 1159 1844
L 1159 0
L 581 0
L 581 3500
L 1159 3500
L 1159 2956
Q 1341 3275 1631 3429
Q 1922 3584 2338 3584
Q 2397 3584 2469 3576
Q 2541 3569 2628 3553
L 2631 2963
z
" transform="scale(0.015625)"/>
      <path id="DejaVuSans-63" d="M 3122 3366
L 3122 2828
Q 2878 2963 2633 3030
Q 2388 3097 2138 3097
Q 1578 3097 1268 2742
Q 959 2388 959 1747
Q 959 1106 1268 751
Q 1578 397 2138 397
Q 2388 397 2633 464
Q 2878 531 3122 666
L 3122 134
Q 2881 22 2623 -34
Q 2366 -91 2075 -91
Q 1284 -91 818 406
Q 353 903 353 1747
Q 353 2603 823 3093
Q 1294 3584 2113 3584
Q 2378 3584 2631 3529
Q 2884 3475 3122 3366
z
" transform="scale(0.015625)"/>
      <path id="DejaVuSans-68" d="M 3513 2113
L 3513 0
L 2938 0
L 2938 2094
Q 2938 2591 2744 2837
Q 2550 3084 2163 3084
Q 1697 3084 1428 2787
Q 1159 2491 1159 1978
L 1159 0
L 581 0
L 581 4863
L 1159 4863
L 1159 2956
Q 1366 3272 1645 3428
Q 1925 3584 2291 3584
Q 2894 3584 3203 3211
Q 3513 2838 3513 2113
z
" transform="scale(0.015625)"/>
      <path id="DejaVuSans-3b" d="M 750 3309
L 1409 3309
L 1409 2516
L 750 2516
L 750 3309
z
M 750 794
L 1409 794
L 1409 256
L 897 -744
L 494 -744
L 750 256
L 750 794
z
" transform="scale(0.015625)"/>
      <path id="DejaVuSans-29" d="M 513 4856
L 1013 4856
Q 1481 4119 1714 3412
Q 1947 2706 1947 2009
Q 1947 1309 1714 600
Q 1481 -109 1013 -844
L 513 -844
Q 928 -128 1133 580
Q 1338 1288 1338 2009
Q 1338 2731 1133 3434
Q 928 4138 513 4856
z
" transform="scale(0.015625)"/>
     </defs>
     <use xlink:href="#DejaVuSans-43"/>
     <use xlink:href="#DejaVuSans-6f" transform="translate(69.824219 0)"/>
     <use xlink:href="#DejaVuSans-6d" transform="translate(131.005859 0)"/>
     <use xlink:href="#DejaVuSans-62" transform="translate(228.417969 0)"/>
     <use xlink:href="#DejaVuSans-61" transform="translate(291.894531 0)"/>
     <use xlink:href="#DejaVuSans-74" transform="translate(353.173828 0)"/>
     <use xlink:href="#DejaVuSans-2d" transform="translate(392.382812 0)"/>
     <use xlink:href="#DejaVuSans-73" transform="translate(428.466797 0)"/>
     <use xlink:href="#DejaVuSans-61" transform="translate(480.566406 0)"/>
     <use xlink:href="#DejaVuSans-66" transform="translate(541.845703 0)"/>
     <use xlink:href="#DejaVuSans-65" transform="translate(577.050781 0)"/>
     <use xlink:href="#DejaVuSans-74" transform="translate(638.574219 0)"/>
     <use xlink:href="#DejaVuSans-79" transform="translate(677.783203 0)"/>
     <use xlink:href="#DejaVuSans-20" transform="translate(736.962891 0)"/>
     <use xlink:href="#DejaVuSans-73" transform="translate(768.75 0)"/>
     <use xlink:href="#DejaVuSans-69" transform="translate(820.849609 0)"/>
     <use xlink:href="#DejaVuSans-67" transform="translate(848.632812 0)"/>
     <use xlink:href="#DejaVuSans-6e" transform="translate(912.109375 0)"/>
     <use xlink:href="#DejaVuSans-61" transform="translate(975.488281 0)"/>
     <use xlink:href="#DejaVuSans-6c" transform="translate(1036.767578 0)"/>
     <use xlink:href="#DejaVuSans-20" transform="translate(1064.550781 0)"/>
     <use xlink:href="#DejaVuSans-74" transform="translate(1096.337891 0)"/>
     <use xlink:href="#DejaVuSans-61" transform="translate(1135.546875 0)"/>
     <use xlink:href="#DejaVuSans-78" transform="translate(1196.826172 0)"/>
     <use xlink:href="#DejaVuSans-6f" transform="translate(1252.880859 0)"/>
     <use xlink:href="#DejaVuSans-6e" transform="translate(1314.0625 0)"/>
     <use xlink:href="#DejaVuSans-6f" transform="translate(1377.441406 0)"/>
     <use xlink:href="#DejaVuSans-6d" transform="translate(1438.623047 0)"/>
     <use xlink:href="#DejaVuSans-79" transform="translate(1536.035156 0)"/>
     <use xlink:href="#DejaVuSans-20" transform="translate(1595.214844 0)"/>
     <use xlink:href="#DejaVuSans-28" transform="translate(1627.001953 0)"/>
     <use xlink:href="#DejaVuSans-72" transform="translate(1666.015625 0)"/>
     <use xlink:href="#DejaVuSans-65" transform="translate(1704.878906 0)"/>
     <use xlink:href="#DejaVuSans-73" transform="translate(1766.402344 0)"/>
     <use xlink:href="#DejaVuSans-65" transform="translate(1818.501953 0)"/>
     <use xlink:href="#DejaVuSans-61" transform="translate(1880.025391 0)"/>
     <use xlink:href="#DejaVuSans-72" transform="translate(1941.304688 0)"/>
     <use xlink:href="#DejaVuSans-63" transform="translate(1980.167969 0)"/>
     <use xlink:href="#DejaVuSans-68" transform="translate(2035.148438 0)"/>
     <use xlink:href="#DejaVuSans-20" transform="translate(2098.527344 0)"/>
     <use xlink:href="#DejaVuSans-6c" transform="translate(2130.314453 0)"/>
     <use xlink:href="#DejaVuSans-61" transform="translate(2158.097656 0)"/>
     <use xlink:href="#DejaVuSans-62" transform="translate(2219.376953 0)"/>
     <use xlink:href="#DejaVuSans-65" transform="translate(2282.853516 0)"/>
     <use xlink:href="#DejaVuSans-6c" transform="translate(2344.376953 0)"/>
     <use xlink:href="#DejaVuSans-73" transform="translate(2372.160156 0)"/>
     <use xlink:href="#DejaVuSans-3b" transform="translate(2424.259766 0)"/>
     <use xlink:href="#DejaVuSans-20" transform="translate(2457.951172 0)"/>
     <use xlink:href="#DejaVuSans-6e" transform="translate(2489.738281 0)"/>
     <use xlink:href="#DejaVuSans-6f" transform="translate(2553.117188 0)"/>
     <use xlink:href="#DejaVuSans-74" transform="translate(2614.298828 0)"/>
     <use xlink:href="#DejaVuSans-20" transform="translate(2653.507812 0)"/>
     <use xlink:href="#DejaVuSans-63" transform="translate(2685.294922 0)"/>
     <use xlink:href="#DejaVuSans-6c" transform="translate(2740.275391 0)"/>
     <use xlink:href="#DejaVuSans-69" transform="translate(2768.058594 0)"/>
     <use xlink:href="#DejaVuSans-6e" transform="translate(2795.841797 0)"/>
     <use xlink:href="#DejaVuSans-69" transform="translate(2859.220703 0)"/>
     <use xlink:href="#DejaVuSans-63" transform="translate(2887.003906 0)"/>
     <use xlink:href="#DejaVuSans-61" transform="translate(2941.984375 0)"/>
     <use xlink:href="#DejaVuSans-6c" transform="translate(3003.263672 0)"/>
     <use xlink:href="#DejaVuSans-29" transform="translate(3031.046875 0)"/>
    </g>
   </g>
   <g id="text_2">
    <!-- Pre-critical / early -->
    <g style="fill: #2b2d42" transform="translate(63.143493 61.652187) scale(0.1 -0.1)">
     <defs>
      <path id="DejaVuSans-Bold-50" d="M 588 4666
L 2584 4666
Q 3475 4666 3951 4270
Q 4428 3875 4428 3144
Q 4428 2409 3951 2014
Q 3475 1619 2584 1619
L 1791 1619
L 1791 0
L 588 0
L 588 4666
z
M 1791 3794
L 1791 2491
L 2456 2491
Q 2806 2491 2997 2661
Q 3188 2831 3188 3144
Q 3188 3456 2997 3625
Q 2806 3794 2456 3794
L 1791 3794
z
" transform="scale(0.015625)"/>
      <path id="DejaVuSans-Bold-72" d="M 3138 2547
Q 2991 2616 2845 2648
Q 2700 2681 2553 2681
Q 2122 2681 1889 2404
Q 1656 2128 1656 1613
L 1656 0
L 538 0
L 538 3500
L 1656 3500
L 1656 2925
Q 1872 3269 2151 3426
Q 2431 3584 2822 3584
Q 2878 3584 2943 3579
Q 3009 3575 3134 3559
L 3138 2547
z
" transform="scale(0.015625)"/>
      <path id="DejaVuSans-Bold-65" d="M 4031 1759
L 4031 1441
L 1416 1441
Q 1456 1047 1700 850
Q 1944 653 2381 653
Q 2734 653 3104 758
Q 3475 863 3866 1075
L 3866 213
Q 3469 63 3072 -14
Q 2675 -91 2278 -91
Q 1328 -91 801 392
Q 275 875 275 1747
Q 275 2603 792 3093
Q 1309 3584 2216 3584
Q 3041 3584 3536 3087
Q 4031 2591 4031 1759
z
M 2881 2131
Q 2881 2450 2695 2645
Q 2509 2841 2209 2841
Q 1884 2841 1681 2658
Q 1478 2475 1428 2131
L 2881 2131
z
" transform="scale(0.015625)"/>
      <path id="DejaVuSans-Bold-2d" d="M 347 2297
L 2309 2297
L 2309 1388
L 347 1388
L 347 2297
z
" transform="scale(0.015625)"/>
      <path id="DejaVuSans-Bold-63" d="M 3366 3391
L 3366 2478
Q 3138 2634 2908 2709
Q 2678 2784 2431 2784
Q 1963 2784 1702 2511
Q 1441 2238 1441 1747
Q 1441 1256 1702 982
Q 1963 709 2431 709
Q 2694 709 2930 787
Q 3166 866 3366 1019
L 3366 103
Q 3103 6 2833 -42
Q 2563 -91 2291 -91
Q 1344 -91 809 395
Q 275 881 275 1747
Q 275 2613 809 3098
Q 1344 3584 2291 3584
Q 2566 3584 2833 3536
Q 3100 3488 3366 3391
z
" transform="scale(0.015625)"/>
      <path id="DejaVuSans-Bold-69" d="M 538 3500
L 1656 3500
L 1656 0
L 538 0
L 538 3500
z
M 538 4863
L 1656 4863
L 1656 3950
L 538 3950
L 538 4863
z
" transform="scale(0.015625)"/>
      <path id="DejaVuSans-Bold-74" d="M 1759 4494
L 1759 3500
L 2913 3500
L 2913 2700
L 1759 2700
L 1759 1216
Q 1759 972 1856 886
Q 1953 800 2241 800
L 2816 800
L 2816 0
L 1856 0
Q 1194 0 917 276
Q 641 553 641 1216
L 641 2700
L 84 2700
L 84 3500
L 641 3500
L 641 4494
L 1759 4494
z
" transform="scale(0.015625)"/>
      <path id="DejaVuSans-Bold-61" d="M 2106 1575
Q 1756 1575 1579 1456
Q 1403 1338 1403 1106
Q 1403 894 1545 773
Q 1688 653 1941 653
Q 2256 653 2472 879
Q 2688 1106 2688 1447
L 2688 1575
L 2106 1575
z
M 3816 1997
L 3816 0
L 2688 0
L 2688 519
Q 2463 200 2181 54
Q 1900 -91 1497 -91
Q 953 -91 614 226
Q 275 544 275 1050
Q 275 1666 698 1953
Q 1122 2241 2028 2241
L 2688 2241
L 2688 2328
Q 2688 2594 2478 2717
Q 2269 2841 1825 2841
Q 1466 2841 1156 2769
Q 847 2697 581 2553
L 581 3406
Q 941 3494 1303 3539
Q 1666 3584 2028 3584
Q 2975 3584 3395 3211
Q 3816 2838 3816 1997
z
" transform="scale(0.015625)"/>
      <path id="DejaVuSans-Bold-6c" d="M 538 4863
L 1656 4863
L 1656 0
L 538 0
L 538 4863
z
" transform="scale(0.015625)"/>
      <path id="DejaVuSans-Bold-20" transform="scale(0.015625)"/>
      <path id="DejaVuSans-Bold-2f" d="M 1644 4666
L 2338 4666
L 691 -594
L 0 -594
L 1644 4666
z
" transform="scale(0.015625)"/>
      <path id="DejaVuSans-Bold-79" d="M 78 3500
L 1197 3500
L 2138 1125
L 2938 3500
L 4056 3500
L 2584 -331
Q 2363 -916 2067 -1148
Q 1772 -1381 1288 -1381
L 641 -1381
L 641 -647
L 991 -647
Q 1275 -647 1404 -556
Q 1534 -466 1606 -231
L 1638 -134
L 78 3500
z
" transform="scale(0.015625)"/>
     </defs>
     <use xlink:href="#DejaVuSans-Bold-50"/>
     <use xlink:href="#DejaVuSans-Bold-72" transform="translate(73.291016 0)"/>
     <use xlink:href="#DejaVuSans-Bold-65" transform="translate(122.607422 0)"/>
     <use xlink:href="#DejaVuSans-Bold-2d" transform="translate(190.429688 0)"/>
     <use xlink:href="#DejaVuSans-Bold-63" transform="translate(231.933594 0)"/>
     <use xlink:href="#DejaVuSans-Bold-72" transform="translate(291.210938 0)"/>
     <use xlink:href="#DejaVuSans-Bold-69" transform="translate(340.527344 0)"/>
     <use xlink:href="#DejaVuSans-Bold-74" transform="translate(374.804688 0)"/>
     <use xlink:href="#DejaVuSans-Bold-69" transform="translate(422.607422 0)"/>
     <use xlink:href="#DejaVuSans-Bold-63" transform="translate(456.884766 0)"/>
     <use xlink:href="#DejaVuSans-Bold-61" transform="translate(516.162109 0)"/>
     <use xlink:href="#DejaVuSans-Bold-6c" transform="translate(583.642578 0)"/>
     <use xlink:href="#DejaVuSans-Bold-20" transform="translate(617.919922 0)"/>
     <use xlink:href="#DejaVuSans-Bold-2f" transform="translate(652.734375 0)"/>
     <use xlink:href="#DejaVuSans-Bold-20" transform="translate(689.257812 0)"/>
     <use xlink:href="#DejaVuSans-Bold-65" transform="translate(724.072266 0)"/>
     <use xlink:href="#DejaVuSans-Bold-61" transform="translate(791.894531 0)"/>
     <use xlink:href="#DejaVuSans-Bold-72" transform="translate(859.375 0)"/>
     <use xlink:href="#DejaVuSans-Bold-6c" transform="translate(908.691406 0)"/>
     <use xlink:href="#DejaVuSans-Bold-79" transform="translate(942.96875 0)"/>
    </g>
   </g>
   <g id="text_3">
    <!-- Proxies for posture, guard, and -->
    <g style="fill: #2b2d42" transform="translate(38.801995 89.488828) scale(0.075 -0.075)">
     <defs>
      <path id="DejaVuSans-50" d="M 1259 4147
L 1259 2394
L 2053 2394
Q 2494 2394 2734 2622
Q 2975 2850 2975 3272
Q 2975 3691 2734 3919
Q 2494 4147 2053 4147
L 1259 4147
z
M 628 4666
L 2053 4666
Q 2838 4666 3239 4311
Q 3641 3956 3641 3272
Q 3641 2581 3239 2228
Q 2838 1875 2053 1875
L 1259 1875
L 1259 0
L 628 0
L 628 4666
z
" transform="scale(0.015625)"/>
      <path id="DejaVuSans-70" d="M 1159 525
L 1159 -1331
L 581 -1331
L 581 3500
L 1159 3500
L 1159 2969
Q 1341 3281 1617 3432
Q 1894 3584 2278 3584
Q 2916 3584 3314 3078
Q 3713 2572 3713 1747
Q 3713 922 3314 415
Q 2916 -91 2278 -91
Q 1894 -91 1617 61
Q 1341 213 1159 525
z
M 3116 1747
Q 3116 2381 2855 2742
Q 2594 3103 2138 3103
Q 1681 3103 1420 2742
Q 1159 2381 1159 1747
Q 1159 1113 1420 752
Q 1681 391 2138 391
Q 2594 391 2855 752
Q 3116 1113 3116 1747
z
" transform="scale(0.015625)"/>
      <path id="DejaVuSans-75" d="M 544 1381
L 544 3500
L 1119 3500
L 1119 1403
Q 1119 906 1312 657
Q 1506 409 1894 409
Q 2359 409 2629 706
Q 2900 1003 2900 1516
L 2900 3500
L 3475 3500
L 3475 0
L 2900 0
L 2900 538
Q 2691 219 2414 64
Q 2138 -91 1772 -91
Q 1169 -91 856 284
Q 544 659 544 1381
z
M 1991 3584
L 1991 3584
z
" transform="scale(0.015625)"/>
      <path id="DejaVuSans-2c" d="M 750 794
L 1409 794
L 1409 256
L 897 -744
L 494 -744
L 750 256
L 750 794
z
" transform="scale(0.015625)"/>
      <path id="DejaVuSans-64" d="M 2906 2969
L 2906 4863
L 3481 4863
L 3481 0
L 2906 0
L 2906 525
Q 2725 213 2448 61
Q 2172 -91 1784 -91
Q 1150 -91 751 415
Q 353 922 353 1747
Q 353 2572 751 3078
Q 1150 3584 1784 3584
Q 2172 3584 2448 3432
Q 2725 3281 2906 2969
z
M 947 1747
Q 947 1113 1208 752
Q 1469 391 1925 391
Q 2381 391 2643 752
Q 2906 1113 2906 1747
Q 2906 2381 2643 2742
Q 2381 3103 1925 3103
Q 1469 3103 1208 2742
Q 947 2381 947 1747
z
" transform="scale(0.015625)"/>
     </defs>
     <use xlink:href="#DejaVuSans-50"/>
     <use xlink:href="#DejaVuSans-72" transform="translate(58.552734 0)"/>
     <use xlink:href="#DejaVuSans-6f" transform="translate(97.416016 0)"/>
     <use xlink:href="#DejaVuSans-78" transform="translate(155.472656 0)"/>
     <use xlink:href="#DejaVuSans-69" transform="translate(214.652344 0)"/>
     <use xlink:href="#DejaVuSans-65" transform="translate(242.435547 0)"/>
     <use xlink:href="#DejaVuSans-73" transform="translate(303.958984 0)"/>
     <use xlink:href="#DejaVuSans-20" transform="translate(356.058594 0)"/>
     <use xlink:href="#DejaVuSans-66" transform="translate(387.845703 0)"/>
     <use xlink:href="#DejaVuSans-6f" transform="translate(423.050781 0)"/>
     <use xlink:href="#DejaVuSans-72" transform="translate(484.232422 0)"/>
     <use xlink:href="#DejaVuSans-20" transform="translate(525.345703 0)"/>
     <use xlink:href="#DejaVuSans-70" transform="translate(557.132812 0)"/>
     <use xlink:href="#DejaVuSans-6f" transform="translate(620.609375 0)"/>
     <use xlink:href="#DejaVuSans-73" transform="translate(681.791016 0)"/>
     <use xlink:href="#DejaVuSans-74" transform="translate(733.890625 0)"/>
     <use xlink:href="#DejaVuSans-75" transform="translate(773.099609 0)"/>
     <use xlink:href="#DejaVuSans-72" transform="translate(836.478516 0)"/>
     <use xlink:href="#DejaVuSans-65" transform="translate(875.341797 0)"/>
     <use xlink:href="#DejaVuSans-2c" transform="translate(936.865234 0)"/>
     <use xlink:href="#DejaVuSans-20" transform="translate(968.652344 0)"/>
     <use xlink:href="#DejaVuSans-67" transform="translate(1000.439453 0)"/>
     <use xlink:href="#DejaVuSans-75" transform="translate(1063.916016 0)"/>
     <use xlink:href="#DejaVuSans-61" transform="translate(1127.294922 0)"/>
     <use xlink:href="#DejaVuSans-72" transform="translate(1188.574219 0)"/>
     <use xlink:href="#DejaVuSans-64" transform="translate(1227.9375 0)"/>
     <use xlink:href="#DejaVuSans-2c" transform="translate(1291.414062 0)"/>
     <use xlink:href="#DejaVuSans-20" transform="translate(1323.201172 0)"/>
     <use xlink:href="#DejaVuSans-61" transform="translate(1354.988281 0)"/>
     <use xlink:href="#DejaVuSans-6e" transform="translate(1416.267578 0)"/>
     <use xlink:href="#DejaVuSans-64" transform="translate(1479.646484 0)"/>
    </g>
    <!-- reduced activity before a severe band. -->
    <g style="fill: #2b2d42" transform="translate(38.801995 98.742012) scale(0.075 -0.075)">
     <defs>
      <path id="DejaVuSans-76" d="M 191 3500
L 800 3500
L 1894 563
L 2988 3500
L 3597 3500
L 2284 0
L 1503 0
L 191 3500
z
" transform="scale(0.015625)"/>
      <path id="DejaVuSans-2e" d="M 684 794
L 1344 794
L 1344 0
L 684 0
L 684 794
z
" transform="scale(0.015625)"/>
     </defs>
     <use xlink:href="#DejaVuSans-72"/>
     <use xlink:href="#DejaVuSans-65" transform="translate(38.863281 0)"/>
     <use xlink:href="#DejaVuSans-64" transform="translate(100.386719 0)"/>
     <use xlink:href="#DejaVuSans-75" transform="translate(163.863281 0)"/>
     <use xlink:href="#DejaVuSans-63" transform="translate(227.242188 0)"/>
     <use xlink:href="#DejaVuSans-65" transform="translate(282.222656 0)"/>
     <use xlink:href="#DejaVuSans-64" transform="translate(343.746094 0)"/>
     <use xlink:href="#DejaVuSans-20" transform="translate(407.222656 0)"/>
     <use xlink:href="#DejaVuSans-61" transform="translate(439.009766 0)"/>
     <use xlink:href="#DejaVuSans-63" transform="translate(500.289062 0)"/>
     <use xlink:href="#DejaVuSans-74" transform="translate(555.269531 0)"/>
     <use xlink:href="#DejaVuSans-69" transform="translate(594.478516 0)"/>
     <use xlink:href="#DejaVuSans-76" transform="translate(622.261719 0)"/>
     <use xlink:href="#DejaVuSans-69" transform="translate(681.441406 0)"/>
     <use xlink:href="#DejaVuSans-74" transform="translate(709.224609 0)"/>
     <use xlink:href="#DejaVuSans-79" transform="translate(748.433594 0)"/>
     <use xlink:href="#DejaVuSans-20" transform="translate(807.613281 0)"/>
     <use xlink:href="#DejaVuSans-62" transform="translate(839.400391 0)"/>
     <use xlink:href="#DejaVuSans-65" transform="translate(902.876953 0)"/>
     <use xlink:href="#DejaVuSans-66" transform="translate(964.400391 0)"/>
     <use xlink:href="#DejaVuSans-6f" transform="translate(999.605469 0)"/>
     <use xlink:href="#DejaVuSans-72" transform="translate(1060.787109 0)"/>
     <use xlink:href="#DejaVuSans-65" transform="translate(1099.650391 0)"/>
     <use xlink:href="#DejaVuSans-20" transform="translate(1161.173828 0)"/>
     <use xlink:href="#DejaVuSans-61" transform="translate(1192.960938 0)"/>
     <use xlink:href="#DejaVuSans-20" transform="translate(1254.240234 0)"/>
     <use xlink:href="#DejaVuSans-73" transform="translate(1286.027344 0)"/>
     <use xlink:href="#DejaVuSans-65" transform="translate(1338.126953 0)"/>
     <use xlink:href="#DejaVuSans-76" transform="translate(1399.650391 0)"/>
     <use xlink:href="#DejaVuSans-65" transform="translate(1458.830078 0)"/>
     <use xlink:href="#DejaVuSans-72" transform="translate(1520.353516 0)"/>
     <use xlink:href="#DejaVuSans-65" transform="translate(1559.216797 0)"/>
     <use xlink:href="#DejaVuSans-20" transform="translate(1620.740234 0)"/>
     <use xlink:href="#DejaVuSans-62" transform="translate(1652.527344 0)"/>
     <use xlink:href="#DejaVuSans-61" transform="translate(1716.003906 0)"/>
     <use xlink:href="#DejaVuSans-6e" transform="translate(1777.283203 0)"/>
     <use xlink:href="#DejaVuSans-64" transform="translate(1840.662109 0)"/>
     <use xlink:href="#DejaVuSans-2e" transform="translate(1904.138672 0)"/>
    </g>
   </g>
   <g id="text_4">
    <!-- Examples: Low guard, turned back, inactivity, limb-motion cues. -->
    <g style="fill: #2b2d42" transform="translate(38.801995 222.152625) scale(0.072 -0.072)">
     <defs>
      <path id="DejaVuSans-Oblique-45" d="M 1081 4666
L 4031 4666
L 3928 4134
L 1606 4134
L 1338 2753
L 3566 2753
L 3463 2222
L 1234 2222
L 909 531
L 3284 531
L 3181 0
L 172 0
L 1081 4666
z
" transform="scale(0.015625)"/>
      <path id="DejaVuSans-Oblique-78" d="M 3841 3500
L 2234 1784
L 3219 0
L 2559 0
L 1819 1388
L 531 0
L -166 0
L 1556 1844
L 641 3500
L 1300 3500
L 1972 2234
L 3144 3500
L 3841 3500
z
" transform="scale(0.015625)"/>
      <path id="DejaVuSans-Oblique-61" d="M 3438 1997
L 3047 0
L 2472 0
L 2578 531
Q 2325 219 2001 64
Q 1678 -91 1281 -91
Q 834 -91 548 182
Q 263 456 263 884
Q 263 1497 752 1853
Q 1241 2209 2100 2209
L 2900 2209
L 2931 2363
Q 2938 2388 2941 2417
Q 2944 2447 2944 2509
Q 2944 2788 2717 2942
Q 2491 3097 2081 3097
Q 1800 3097 1504 3025
Q 1209 2953 897 2809
L 997 3341
Q 1322 3463 1633 3523
Q 1944 3584 2234 3584
Q 2853 3584 3176 3315
Q 3500 3047 3500 2534
Q 3500 2431 3484 2292
Q 3469 2153 3438 1997
z
M 2816 1759
L 2241 1759
Q 1534 1759 1195 1570
Q 856 1381 856 984
Q 856 709 1029 553
Q 1203 397 1509 397
Q 1978 397 2328 733
Q 2678 1069 2791 1631
L 2816 1759
z
" transform="scale(0.015625)"/>
      <path id="DejaVuSans-Oblique-6d" d="M 5747 2113
L 5338 0
L 4763 0
L 5166 2094
Q 5191 2228 5203 2325
Q 5216 2422 5216 2491
Q 5216 2772 5059 2928
Q 4903 3084 4622 3084
Q 4203 3084 3875 2770
Q 3547 2456 3450 1953
L 3066 0
L 2491 0
L 2900 2094
Q 2925 2209 2937 2307
Q 2950 2406 2950 2484
Q 2950 2769 2794 2926
Q 2638 3084 2363 3084
Q 1938 3084 1609 2770
Q 1281 2456 1184 1953
L 800 0
L 225 0
L 909 3500
L 1484 3500
L 1375 2956
Q 1609 3263 1923 3423
Q 2238 3584 2597 3584
Q 2978 3584 3223 3384
Q 3469 3184 3519 2828
Q 3781 3197 4126 3390
Q 4472 3584 4856 3584
Q 5306 3584 5551 3325
Q 5797 3066 5797 2591
Q 5797 2488 5784 2364
Q 5772 2241 5747 2113
z
" transform="scale(0.015625)"/>
      <path id="DejaVuSans-Oblique-70" d="M 3175 2156
Q 3175 2616 2975 2859
Q 2775 3103 2400 3103
Q 2144 3103 1911 2972
Q 1678 2841 1497 2591
Q 1319 2344 1212 1994
Q 1106 1644 1106 1300
Q 1106 863 1306 627
Q 1506 391 1875 391
Q 2147 391 2380 519
Q 2613 647 2778 891
Q 2956 1147 3065 1494
Q 3175 1841 3175 2156
z
M 1394 2969
Q 1625 3272 1939 3428
Q 2253 3584 2638 3584
Q 3175 3584 3472 3232
Q 3769 2881 3769 2247
Q 3769 1728 3584 1258
Q 3400 788 3053 416
Q 2822 169 2531 39
Q 2241 -91 1919 -91
Q 1547 -91 1294 64
Q 1041 219 916 525
L 556 -1331
L -19 -1331
L 922 3500
L 1497 3500
L 1394 2969
z
" transform="scale(0.015625)"/>
      <path id="DejaVuSans-Oblique-6c" d="M 1172 4863
L 1747 4863
L 800 0
L 225 0
L 1172 4863
z
" transform="scale(0.015625)"/>
      <path id="DejaVuSans-Oblique-65" d="M 3078 2063
Q 3088 2113 3092 2166
Q 3097 2219 3097 2272
Q 3097 2653 2873 2875
Q 2650 3097 2266 3097
Q 1838 3097 1509 2826
Q 1181 2556 1013 2059
L 3078 2063
z
M 3578 1613
L 903 1613
Q 884 1494 878 1425
Q 872 1356 872 1306
Q 872 872 1139 634
Q 1406 397 1894 397
Q 2269 397 2603 481
Q 2938 566 3225 728
L 3116 159
Q 2806 34 2476 -28
Q 2147 -91 1806 -91
Q 1078 -91 686 257
Q 294 606 294 1247
Q 294 1794 489 2264
Q 684 2734 1063 3103
Q 1306 3334 1642 3459
Q 1978 3584 2356 3584
Q 2950 3584 3301 3228
Q 3653 2872 3653 2272
Q 3653 2128 3634 1964
Q 3616 1800 3578 1613
z
" transform="scale(0.015625)"/>
      <path id="DejaVuSans-Oblique-73" d="M 3200 3397
L 3091 2853
Q 2863 2978 2609 3040
Q 2356 3103 2088 3103
Q 1634 3103 1373 2948
Q 1113 2794 1113 2528
Q 1113 2219 1719 2053
Q 1766 2041 1788 2034
L 1972 1978
Q 2547 1819 2739 1644
Q 2931 1469 2931 1166
Q 2931 609 2489 259
Q 2047 -91 1331 -91
Q 1053 -91 747 -37
Q 441 16 72 128
L 184 722
Q 500 559 806 475
Q 1113 391 1394 391
Q 1816 391 2080 572
Q 2344 753 2344 1031
Q 2344 1331 1650 1516
L 1591 1531
L 1394 1581
Q 956 1697 753 1886
Q 550 2075 550 2369
Q 550 2928 970 3256
Q 1391 3584 2113 3584
Q 2397 3584 2667 3537
Q 2938 3491 3200 3397
z
" transform="scale(0.015625)"/>
      <path id="DejaVuSans-Oblique-3a" d="M 978 3309
L 1638 3309
L 1484 2516
L 825 2516
L 978 3309
z
M 488 794
L 1147 794
L 991 0
L 331 0
L 488 794
z
" transform="scale(0.015625)"/>
      <path id="DejaVuSans-Oblique-20" transform="scale(0.015625)"/>
      <path id="DejaVuSans-Oblique-4c" d="M 1075 4666
L 1709 4666
L 909 525
L 3181 525
L 3078 0
L 172 0
L 1075 4666
z
" transform="scale(0.015625)"/>
      <path id="DejaVuSans-Oblique-6f" d="M 1625 -91
Q 1009 -91 651 289
Q 294 669 294 1325
Q 294 1706 417 2101
Q 541 2497 738 2766
Q 1047 3184 1428 3384
Q 1809 3584 2291 3584
Q 2888 3584 3255 3212
Q 3622 2841 3622 2241
Q 3622 1825 3500 1412
Q 3378 1000 3181 728
Q 2875 309 2494 109
Q 2113 -91 1625 -91
z
M 891 1344
Q 891 869 1089 633
Q 1288 397 1691 397
Q 2269 397 2648 901
Q 3028 1406 3028 2181
Q 3028 2634 2825 2865
Q 2622 3097 2228 3097
Q 1903 3097 1650 2945
Q 1397 2794 1197 2484
Q 1050 2253 970 1956
Q 891 1659 891 1344
z
" transform="scale(0.015625)"/>
      <path id="DejaVuSans-Oblique-77" d="M 544 3500
L 1113 3500
L 1259 684
L 2566 3500
L 3231 3500
L 3425 684
L 4666 3500
L 5241 3500
L 3641 0
L 2969 0
L 2797 2900
L 1459 0
L 781 0
L 544 3500
z
" transform="scale(0.015625)"/>
      <path id="DejaVuSans-Oblique-67" d="M 3816 3500
L 3219 434
Q 3047 -456 2561 -893
Q 2075 -1331 1253 -1331
Q 950 -1331 690 -1286
Q 431 -1241 206 -1147
L 313 -588
Q 525 -725 762 -790
Q 1000 -856 1269 -856
Q 1816 -856 2167 -557
Q 2519 -259 2631 300
L 2681 563
Q 2441 288 2122 144
Q 1803 0 1434 0
Q 903 0 598 351
Q 294 703 294 1319
Q 294 1803 478 2267
Q 663 2731 997 3091
Q 1219 3328 1514 3456
Q 1809 3584 2131 3584
Q 2484 3584 2746 3420
Q 3009 3256 3138 2956
L 3238 3500
L 3816 3500
z
M 2950 2216
Q 2950 2641 2750 2872
Q 2550 3103 2181 3103
Q 1953 3103 1747 3012
Q 1541 2922 1394 2759
Q 1156 2491 1023 2127
Q 891 1763 891 1375
Q 891 944 1092 712
Q 1294 481 1672 481
Q 2219 481 2584 976
Q 2950 1472 2950 2216
z
" transform="scale(0.015625)"/>
      <path id="DejaVuSans-Oblique-75" d="M 428 1388
L 838 3500
L 1416 3500
L 1006 1409
Q 975 1256 961 1147
Q 947 1038 947 966
Q 947 700 1109 554
Q 1272 409 1569 409
Q 2031 409 2368 721
Q 2706 1034 2809 1563
L 3194 3500
L 3769 3500
L 3091 0
L 2516 0
L 2631 550
Q 2388 244 2052 76
Q 1716 -91 1338 -91
Q 878 -91 622 161
Q 366 413 366 863
Q 366 956 381 1097
Q 397 1238 428 1388
z
" transform="scale(0.015625)"/>
      <path id="DejaVuSans-Oblique-72" d="M 2853 2969
Q 2766 3016 2653 3041
Q 2541 3066 2413 3066
Q 1953 3066 1609 2717
Q 1266 2369 1153 1784
L 800 0
L 225 0
L 909 3500
L 1484 3500
L 1375 2956
Q 1603 3259 1920 3421
Q 2238 3584 2597 3584
Q 2691 3584 2781 3573
Q 2872 3563 2963 3538
L 2853 2969
z
" transform="scale(0.015625)"/>
      <path id="DejaVuSans-Oblique-64" d="M 2675 525
Q 2444 222 2128 65
Q 1813 -91 1428 -91
Q 903 -91 598 267
Q 294 625 294 1247
Q 294 1766 478 2236
Q 663 2706 1013 3078
Q 1244 3325 1534 3454
Q 1825 3584 2144 3584
Q 2481 3584 2739 3421
Q 2997 3259 3138 2956
L 3513 4863
L 4091 4863
L 3144 0
L 2566 0
L 2675 525
z
M 891 1350
Q 891 897 1095 644
Q 1300 391 1663 391
Q 1931 391 2161 520
Q 2391 650 2566 903
Q 2750 1166 2856 1509
Q 2963 1853 2963 2188
Q 2963 2622 2758 2865
Q 2553 3109 2194 3109
Q 1922 3109 1687 2981
Q 1453 2853 1288 2613
Q 1106 2353 998 2009
Q 891 1666 891 1350
z
" transform="scale(0.015625)"/>
      <path id="DejaVuSans-Oblique-2c" d="M 575 794
L 1234 794
L 1131 256
L 422 -744
L 19 -744
L 469 256
L 575 794
z
" transform="scale(0.015625)"/>
      <path id="DejaVuSans-Oblique-74" d="M 2706 3500
L 2619 3053
L 1472 3053
L 1100 1153
Q 1081 1047 1072 975
Q 1063 903 1063 863
Q 1063 663 1183 572
Q 1303 481 1569 481
L 2150 481
L 2053 0
L 1503 0
Q 991 0 739 200
Q 488 400 488 806
Q 488 878 497 964
Q 506 1050 525 1153
L 897 3053
L 409 3053
L 500 3500
L 978 3500
L 1172 4494
L 1747 4494
L 1556 3500
L 2706 3500
z
" transform="scale(0.015625)"/>
      <path id="DejaVuSans-Oblique-6e" d="M 3566 2113
L 3156 0
L 2578 0
L 2988 2091
Q 3016 2238 3031 2350
Q 3047 2463 3047 2528
Q 3047 2791 2881 2937
Q 2716 3084 2419 3084
Q 1956 3084 1622 2776
Q 1288 2469 1184 1941
L 800 0
L 225 0
L 903 3500
L 1478 3500
L 1363 2950
Q 1603 3253 1940 3418
Q 2278 3584 2650 3584
Q 3113 3584 3367 3334
Q 3622 3084 3622 2631
Q 3622 2519 3608 2391
Q 3594 2263 3566 2113
z
" transform="scale(0.015625)"/>
      <path id="DejaVuSans-Oblique-62" d="M 3169 2138
Q 3169 2591 2961 2847
Q 2753 3103 2388 3103
Q 2122 3103 1889 2973
Q 1656 2844 1484 2597
Q 1303 2338 1198 1995
Q 1094 1653 1094 1313
Q 1094 881 1298 636
Q 1503 391 1863 391
Q 2134 391 2365 517
Q 2597 644 2772 891
Q 2950 1147 3059 1487
Q 3169 1828 3169 2138
z
M 1381 2969
Q 1594 3256 1914 3420
Q 2234 3584 2584 3584
Q 3122 3584 3439 3221
Q 3756 2859 3756 2241
Q 3756 1734 3570 1259
Q 3384 784 3041 416
Q 2816 172 2522 40
Q 2228 -91 1906 -91
Q 1566 -91 1316 65
Q 1066 222 909 531
L 806 0
L 231 0
L 1178 4863
L 1753 4863
L 1381 2969
z
" transform="scale(0.015625)"/>
      <path id="DejaVuSans-Oblique-63" d="M 3431 3366
L 3316 2797
Q 3109 2947 2876 3022
Q 2644 3097 2394 3097
Q 2119 3097 1870 3000
Q 1622 2903 1453 2725
Q 1184 2453 1037 2087
Q 891 1722 891 1331
Q 891 859 1127 628
Q 1363 397 1844 397
Q 2081 397 2348 469
Q 2616 541 2906 684
L 2797 116
Q 2547 13 2283 -39
Q 2019 -91 1741 -91
Q 1044 -91 669 257
Q 294 606 294 1253
Q 294 1797 489 2255
Q 684 2713 1069 3078
Q 1331 3328 1684 3456
Q 2038 3584 2456 3584
Q 2700 3584 2940 3529
Q 3181 3475 3431 3366
z
" transform="scale(0.015625)"/>
      <path id="DejaVuSans-Oblique-6b" d="M 1172 4863
L 1747 4863
L 1197 2028
L 3169 3500
L 3916 3500
L 1716 1825
L 3322 0
L 2625 0
L 1131 1709
L 800 0
L 225 0
L 1172 4863
z
" transform="scale(0.015625)"/>
      <path id="DejaVuSans-Oblique-69" d="M 1172 4863
L 1747 4863
L 1606 4134
L 1031 4134
L 1172 4863
z
M 909 3500
L 1484 3500
L 800 0
L 225 0
L 909 3500
z
" transform="scale(0.015625)"/>
      <path id="DejaVuSans-Oblique-76" d="M 459 3500
L 1069 3500
L 1581 525
L 3256 3500
L 3866 3500
L 1875 0
L 1100 0
L 459 3500
z
" transform="scale(0.015625)"/>
      <path id="DejaVuSans-Oblique-79" d="M 1588 -325
Q 1188 -997 936 -1164
Q 684 -1331 294 -1331
L -159 -1331
L -63 -850
L 269 -850
Q 509 -850 678 -719
Q 847 -588 1056 -206
L 1234 128
L 459 3500
L 1069 3500
L 1650 819
L 3256 3500
L 3859 3500
L 1588 -325
z
" transform="scale(0.015625)"/>
      <path id="DejaVuSans-Oblique-2d" d="M 391 2009
L 2075 2009
L 1978 1497
L 288 1497
L 391 2009
z
" transform="scale(0.015625)"/>
      <path id="DejaVuSans-Oblique-2e" d="M 525 794
L 1184 794
L 1031 0
L 372 0
L 525 794
z
" transform="scale(0.015625)"/>
     </defs>
     <use xlink:href="#DejaVuSans-Oblique-45"/>
     <use xlink:href="#DejaVuSans-Oblique-78" transform="translate(63.183594 0)"/>
     <use xlink:href="#DejaVuSans-Oblique-61" transform="translate(122.363281 0)"/>
     <use xlink:href="#DejaVuSans-Oblique-6d" transform="translate(183.642578 0)"/>
     <use xlink:href="#DejaVuSans-Oblique-70" transform="translate(281.054688 0)"/>
     <use xlink:href="#DejaVuSans-Oblique-6c" transform="translate(344.53125 0)"/>
     <use xlink:href="#DejaVuSans-Oblique-65" transform="translate(372.314453 0)"/>
     <use xlink:href="#DejaVuSans-Oblique-73" transform="translate(433.837891 0)"/>
     <use xlink:href="#DejaVuSans-Oblique-3a" transform="translate(485.9375 0)"/>
     <use xlink:href="#DejaVuSans-Oblique-20" transform="translate(519.628906 0)"/>
     <use xlink:href="#DejaVuSans-Oblique-4c" transform="translate(551.416016 0)"/>
     <use xlink:href="#DejaVuSans-Oblique-6f" transform="translate(607.128906 0)"/>
     <use xlink:href="#DejaVuSans-Oblique-77" transform="translate(668.310547 0)"/>
     <use xlink:href="#DejaVuSans-Oblique-20" transform="translate(750.097656 0)"/>
     <use xlink:href="#DejaVuSans-Oblique-67" transform="translate(781.884766 0)"/>
     <use xlink:href="#DejaVuSans-Oblique-75" transform="translate(845.361328 0)"/>
     <use xlink:href="#DejaVuSans-Oblique-61" transform="translate(908.740234 0)"/>
     <use xlink:href="#DejaVuSans-Oblique-72" transform="translate(970.019531 0)"/>
     <use xlink:href="#DejaVuSans-Oblique-64" transform="translate(1011.132812 0)"/>
     <use xlink:href="#DejaVuSans-Oblique-2c" transform="translate(1074.609375 0)"/>
     <use xlink:href="#DejaVuSans-Oblique-20" transform="translate(1106.396484 0)"/>
     <use xlink:href="#DejaVuSans-Oblique-74" transform="translate(1138.183594 0)"/>
     <use xlink:href="#DejaVuSans-Oblique-75" transform="translate(1177.392578 0)"/>
     <use xlink:href="#DejaVuSans-Oblique-72" transform="translate(1240.771484 0)"/>
     <use xlink:href="#DejaVuSans-Oblique-6e" transform="translate(1281.884766 0)"/>
     <use xlink:href="#DejaVuSans-Oblique-65" transform="translate(1345.263672 0)"/>
     <use xlink:href="#DejaVuSans-Oblique-64" transform="translate(1406.787109 0)"/>
     <use xlink:href="#DejaVuSans-Oblique-20" transform="translate(1470.263672 0)"/>
     <use xlink:href="#DejaVuSans-Oblique-62" transform="translate(1502.050781 0)"/>
     <use xlink:href="#DejaVuSans-Oblique-61" transform="translate(1565.527344 0)"/>
     <use xlink:href="#DejaVuSans-Oblique-63" transform="translate(1626.806641 0)"/>
     <use xlink:href="#DejaVuSans-Oblique-6b" transform="translate(1681.787109 0)"/>
     <use xlink:href="#DejaVuSans-Oblique-2c" transform="translate(1739.697266 0)"/>
     <use xlink:href="#DejaVuSans-Oblique-20" transform="translate(1771.484375 0)"/>
     <use xlink:href="#DejaVuSans-Oblique-69" transform="translate(1803.271484 0)"/>
     <use xlink:href="#DejaVuSans-Oblique-6e" transform="translate(1831.054688 0)"/>
     <use xlink:href="#DejaVuSans-Oblique-61" transform="translate(1894.433594 0)"/>
     <use xlink:href="#DejaVuSans-Oblique-63" transform="translate(1955.712891 0)"/>
     <use xlink:href="#DejaVuSans-Oblique-74" transform="translate(2010.693359 0)"/>
     <use xlink:href="#DejaVuSans-Oblique-69" transform="translate(2049.902344 0)"/>
     <use xlink:href="#DejaVuSans-Oblique-76" transform="translate(2077.685547 0)"/>
     <use xlink:href="#DejaVuSans-Oblique-69" transform="translate(2136.865234 0)"/>
     <use xlink:href="#DejaVuSans-Oblique-74" transform="translate(2164.648438 0)"/>
     <use xlink:href="#DejaVuSans-Oblique-79" transform="translate(2203.857422 0)"/>
     <use xlink:href="#DejaVuSans-Oblique-2c" transform="translate(2255.287109 0)"/>
     <use xlink:href="#DejaVuSans-Oblique-20" transform="translate(2287.074219 0)"/>
     <use xlink:href="#DejaVuSans-Oblique-6c" transform="translate(2318.861328 0)"/>
     <use xlink:href="#DejaVuSans-Oblique-69" transform="translate(2346.644531 0)"/>
     <use xlink:href="#DejaVuSans-Oblique-6d" transform="translate(2374.427734 0)"/>
     <use xlink:href="#DejaVuSans-Oblique-62" transform="translate(2471.839844 0)"/>
     <use xlink:href="#DejaVuSans-Oblique-2d" transform="translate(2535.316406 0)"/>
     <use xlink:href="#DejaVuSans-Oblique-6d" transform="translate(2571.400391 0)"/>
     <use xlink:href="#DejaVuSans-Oblique-6f" transform="translate(2668.8125 0)"/>
     <use xlink:href="#DejaVuSans-Oblique-74" transform="translate(2729.994141 0)"/>
     <use xlink:href="#DejaVuSans-Oblique-69" transform="translate(2769.203125 0)"/>
     <use xlink:href="#DejaVuSans-Oblique-6f" transform="translate(2796.986328 0)"/>
     <use xlink:href="#DejaVuSans-Oblique-6e" transform="translate(2858.167969 0)"/>
     <use xlink:href="#DejaVuSans-Oblique-20" transform="translate(2921.546875 0)"/>
     <use xlink:href="#DejaVuSans-Oblique-63" transform="translate(2953.333984 0)"/>
     <use xlink:href="#DejaVuSans-Oblique-75" transform="translate(3008.314453 0)"/>
     <use xlink:href="#DejaVuSans-Oblique-65" transform="translate(3071.693359 0)"/>
     <use xlink:href="#DejaVuSans-Oblique-73" transform="translate(3133.216797 0)"/>
     <use xlink:href="#DejaVuSans-Oblique-2e" transform="translate(3185.316406 0)"/>
    </g>
   </g>
   <g id="text_5">
    <!-- Critical (high-urgency bands) -->
    <g style="fill: #2b2d42" transform="translate(216.521662 61.652187) scale(0.1 -0.1)">
     <defs>
      <path id="DejaVuSans-Bold-43" d="M 4288 256
Q 3956 84 3597 -3
Q 3238 -91 2847 -91
Q 1681 -91 1000 561
Q 319 1213 319 2328
Q 319 3447 1000 4098
Q 1681 4750 2847 4750
Q 3238 4750 3597 4662
Q 3956 4575 4288 4403
L 4288 3438
Q 3953 3666 3628 3772
Q 3303 3878 2944 3878
Q 2300 3878 1931 3465
Q 1563 3053 1563 2328
Q 1563 1606 1931 1193
Q 2300 781 2944 781
Q 3303 781 3628 887
Q 3953 994 4288 1222
L 4288 256
z
" transform="scale(0.015625)"/>
      <path id="DejaVuSans-Bold-28" d="M 2413 -844
L 1484 -844
Q 1006 -72 778 623
Q 550 1319 550 2003
Q 550 2688 779 3389
Q 1009 4091 1484 4856
L 2413 4856
Q 2013 4116 1813 3408
Q 1613 2700 1613 2009
Q 1613 1319 1811 609
Q 2009 -100 2413 -844
z
" transform="scale(0.015625)"/>
      <path id="DejaVuSans-Bold-68" d="M 4056 2131
L 4056 0
L 2931 0
L 2931 347
L 2931 1625
Q 2931 2084 2911 2256
Q 2891 2428 2841 2509
Q 2775 2619 2662 2680
Q 2550 2741 2406 2741
Q 2056 2741 1856 2470
Q 1656 2200 1656 1722
L 1656 0
L 538 0
L 538 4863
L 1656 4863
L 1656 2988
Q 1909 3294 2193 3439
Q 2478 3584 2822 3584
Q 3428 3584 3742 3212
Q 4056 2841 4056 2131
z
" transform="scale(0.015625)"/>
      <path id="DejaVuSans-Bold-67" d="M 2919 594
Q 2688 288 2409 144
Q 2131 0 1766 0
Q 1125 0 706 504
Q 288 1009 288 1791
Q 288 2575 706 3076
Q 1125 3578 1766 3578
Q 2131 3578 2409 3434
Q 2688 3291 2919 2981
L 2919 3500
L 4044 3500
L 4044 353
Q 4044 -491 3511 -936
Q 2978 -1381 1966 -1381
Q 1638 -1381 1331 -1331
Q 1025 -1281 716 -1178
L 716 -306
Q 1009 -475 1290 -558
Q 1572 -641 1856 -641
Q 2406 -641 2662 -400
Q 2919 -159 2919 353
L 2919 594
z
M 2181 2772
Q 1834 2772 1640 2515
Q 1447 2259 1447 1791
Q 1447 1309 1634 1061
Q 1822 813 2181 813
Q 2531 813 2725 1069
Q 2919 1325 2919 1791
Q 2919 2259 2725 2515
Q 2531 2772 2181 2772
z
" transform="scale(0.015625)"/>
      <path id="DejaVuSans-Bold-75" d="M 500 1363
L 500 3500
L 1625 3500
L 1625 3150
Q 1625 2866 1622 2436
Q 1619 2006 1619 1863
Q 1619 1441 1641 1255
Q 1663 1069 1716 984
Q 1784 875 1895 815
Q 2006 756 2150 756
Q 2500 756 2700 1025
Q 2900 1294 2900 1772
L 2900 3500
L 4019 3500
L 4019 0
L 2900 0
L 2900 506
Q 2647 200 2364 54
Q 2081 -91 1741 -91
Q 1134 -91 817 281
Q 500 653 500 1363
z
" transform="scale(0.015625)"/>
      <path id="DejaVuSans-Bold-6e" d="M 4056 2131
L 4056 0
L 2931 0
L 2931 347
L 2931 1631
Q 2931 2084 2911 2256
Q 2891 2428 2841 2509
Q 2775 2619 2662 2680
Q 2550 2741 2406 2741
Q 2056 2741 1856 2470
Q 1656 2200 1656 1722
L 1656 0
L 538 0
L 538 3500
L 1656 3500
L 1656 2988
Q 1909 3294 2193 3439
Q 2478 3584 2822 3584
Q 3428 3584 3742 3212
Q 4056 2841 4056 2131
z
" transform="scale(0.015625)"/>
      <path id="DejaVuSans-Bold-62" d="M 2400 722
Q 2759 722 2948 984
Q 3138 1247 3138 1747
Q 3138 2247 2948 2509
Q 2759 2772 2400 2772
Q 2041 2772 1848 2508
Q 1656 2244 1656 1747
Q 1656 1250 1848 986
Q 2041 722 2400 722
z
M 1656 2988
Q 1888 3294 2169 3439
Q 2450 3584 2816 3584
Q 3463 3584 3878 3070
Q 4294 2556 4294 1747
Q 4294 938 3878 423
Q 3463 -91 2816 -91
Q 2450 -91 2169 54
Q 1888 200 1656 506
L 1656 0
L 538 0
L 538 4863
L 1656 4863
L 1656 2988
z
" transform="scale(0.015625)"/>
      <path id="DejaVuSans-Bold-64" d="M 2919 2988
L 2919 4863
L 4044 4863
L 4044 0
L 2919 0
L 2919 506
Q 2688 197 2409 53
Q 2131 -91 1766 -91
Q 1119 -91 703 423
Q 288 938 288 1747
Q 288 2556 703 3070
Q 1119 3584 1766 3584
Q 2128 3584 2408 3439
Q 2688 3294 2919 2988
z
M 2181 722
Q 2541 722 2730 984
Q 2919 1247 2919 1747
Q 2919 2247 2730 2509
Q 2541 2772 2181 2772
Q 1825 2772 1636 2509
Q 1447 2247 1447 1747
Q 1447 1247 1636 984
Q 1825 722 2181 722
z
" transform="scale(0.015625)"/>
      <path id="DejaVuSans-Bold-73" d="M 3272 3391
L 3272 2541
Q 2913 2691 2578 2766
Q 2244 2841 1947 2841
Q 1628 2841 1473 2761
Q 1319 2681 1319 2516
Q 1319 2381 1436 2309
Q 1553 2238 1856 2203
L 2053 2175
Q 2913 2066 3209 1816
Q 3506 1566 3506 1031
Q 3506 472 3093 190
Q 2681 -91 1863 -91
Q 1516 -91 1145 -36
Q 775 19 384 128
L 384 978
Q 719 816 1070 734
Q 1422 653 1784 653
Q 2113 653 2278 743
Q 2444 834 2444 1013
Q 2444 1163 2330 1236
Q 2216 1309 1875 1350
L 1678 1375
Q 931 1469 631 1722
Q 331 1975 331 2491
Q 331 3047 712 3315
Q 1094 3584 1881 3584
Q 2191 3584 2531 3537
Q 2872 3491 3272 3391
z
" transform="scale(0.015625)"/>
      <path id="DejaVuSans-Bold-29" d="M 513 -844
Q 913 -100 1113 609
Q 1313 1319 1313 2009
Q 1313 2700 1113 3408
Q 913 4116 513 4856
L 1441 4856
Q 1916 4091 2145 3389
Q 2375 2688 2375 2003
Q 2375 1319 2147 623
Q 1919 -72 1441 -844
L 513 -844
z
" transform="scale(0.015625)"/>
     </defs>
     <use xlink:href="#DejaVuSans-Bold-43"/>
     <use xlink:href="#DejaVuSans-Bold-72" transform="translate(73.388672 0)"/>
     <use xlink:href="#DejaVuSans-Bold-69" transform="translate(122.705078 0)"/>
     <use xlink:href="#DejaVuSans-Bold-74" transform="translate(156.982422 0)"/>
     <use xlink:href="#DejaVuSans-Bold-69" transform="translate(204.785156 0)"/>
     <use xlink:href="#DejaVuSans-Bold-63" transform="translate(239.0625 0)"/>
     <use xlink:href="#DejaVuSans-Bold-61" transform="translate(298.339844 0)"/>
     <use xlink:href="#DejaVuSans-Bold-6c" transform="translate(365.820312 0)"/>
     <use xlink:href="#DejaVuSans-Bold-20" transform="translate(400.097656 0)"/>
     <use xlink:href="#DejaVuSans-Bold-28" transform="translate(434.912109 0)"/>
     <use xlink:href="#DejaVuSans-Bold-68" transform="translate(480.615234 0)"/>
     <use xlink:href="#DejaVuSans-Bold-69" transform="translate(551.806641 0)"/>
     <use xlink:href="#DejaVuSans-Bold-67" transform="translate(586.083984 0)"/>
     <use xlink:href="#DejaVuSans-Bold-68" transform="translate(657.666016 0)"/>
     <use xlink:href="#DejaVuSans-Bold-2d" transform="translate(728.857422 0)"/>
     <use xlink:href="#DejaVuSans-Bold-75" transform="translate(770.361328 0)"/>
     <use xlink:href="#DejaVuSans-Bold-72" transform="translate(841.552734 0)"/>
     <use xlink:href="#DejaVuSans-Bold-67" transform="translate(890.869141 0)"/>
     <use xlink:href="#DejaVuSans-Bold-65" transform="translate(962.451172 0)"/>
     <use xlink:href="#DejaVuSans-Bold-6e" transform="translate(1030.273438 0)"/>
     <use xlink:href="#DejaVuSans-Bold-63" transform="translate(1101.464844 0)"/>
     <use xlink:href="#DejaVuSans-Bold-79" transform="translate(1160.742188 0)"/>
     <use xlink:href="#DejaVuSans-Bold-20" transform="translate(1225.927734 0)"/>
     <use xlink:href="#DejaVuSans-Bold-62" transform="translate(1260.742188 0)"/>
     <use xlink:href="#DejaVuSans-Bold-61" transform="translate(1332.324219 0)"/>
     <use xlink:href="#DejaVuSans-Bold-6e" transform="translate(1399.804688 0)"/>
     <use xlink:href="#DejaVuSans-Bold-64" transform="translate(1470.996094 0)"/>
     <use xlink:href="#DejaVuSans-Bold-73" transform="translate(1542.578125 0)"/>
     <use xlink:href="#DejaVuSans-Bold-29" transform="translate(1602.099609 0)"/>
    </g>
   </g>
   <g id="text_6">
    <!-- Severe interpretive fusion, falls, -->
    <g style="fill: #2b2d42" transform="translate(224.159852 89.488828) scale(0.075 -0.075)">
     <defs>
      <path id="DejaVuSans-53" d="M 3425 4513
L 3425 3897
Q 3066 4069 2747 4153
Q 2428 4238 2131 4238
Q 1616 4238 1336 4038
Q 1056 3838 1056 3469
Q 1056 3159 1242 3001
Q 1428 2844 1947 2747
L 2328 2669
Q 3034 2534 3370 2195
Q 3706 1856 3706 1288
Q 3706 609 3251 259
Q 2797 -91 1919 -91
Q 1588 -91 1214 -16
Q 841 59 441 206
L 441 856
Q 825 641 1194 531
Q 1563 422 1919 422
Q 2459 422 2753 634
Q 3047 847 3047 1241
Q 3047 1584 2836 1778
Q 2625 1972 2144 2069
L 1759 2144
Q 1053 2284 737 2584
Q 422 2884 422 3419
Q 422 4038 858 4394
Q 1294 4750 2059 4750
Q 2388 4750 2728 4690
Q 3069 4631 3425 4513
z
" transform="scale(0.015625)"/>
     </defs>
     <use xlink:href="#DejaVuSans-53"/>
     <use xlink:href="#DejaVuSans-65" transform="translate(63.476562 0)"/>
     <use xlink:href="#DejaVuSans-76" transform="translate(125 0)"/>
     <use xlink:href="#DejaVuSans-65" transform="translate(184.179688 0)"/>
     <use xlink:href="#DejaVuSans-72" transform="translate(245.703125 0)"/>
     <use xlink:href="#DejaVuSans-65" transform="translate(284.566406 0)"/>
     <use xlink:href="#DejaVuSans-20" transform="translate(346.089844 0)"/>
     <use xlink:href="#DejaVuSans-69" transform="translate(377.876953 0)"/>
     <use xlink:href="#DejaVuSans-6e" transform="translate(405.660156 0)"/>
     <use xlink:href="#DejaVuSans-74" transform="translate(469.039062 0)"/>
     <use xlink:href="#DejaVuSans-65" transform="translate(508.248047 0)"/>
     <use xlink:href="#DejaVuSans-72" transform="translate(569.771484 0)"/>
     <use xlink:href="#DejaVuSans-70" transform="translate(610.884766 0)"/>
     <use xlink:href="#DejaVuSans-72" transform="translate(674.361328 0)"/>
     <use xlink:href="#DejaVuSans-65" transform="translate(713.224609 0)"/>
     <use xlink:href="#DejaVuSans-74" transform="translate(774.748047 0)"/>
     <use xlink:href="#DejaVuSans-69" transform="translate(813.957031 0)"/>
     <use xlink:href="#DejaVuSans-76" transform="translate(841.740234 0)"/>
     <use xlink:href="#DejaVuSans-65" transform="translate(900.919922 0)"/>
     <use xlink:href="#DejaVuSans-20" transform="translate(962.443359 0)"/>
     <use xlink:href="#DejaVuSans-66" transform="translate(994.230469 0)"/>
     <use xlink:href="#DejaVuSans-75" transform="translate(1029.435547 0)"/>
     <use xlink:href="#DejaVuSans-73" transform="translate(1092.814453 0)"/>
     <use xlink:href="#DejaVuSans-69" transform="translate(1144.914062 0)"/>
     <use xlink:href="#DejaVuSans-6f" transform="translate(1172.697266 0)"/>
     <use xlink:href="#DejaVuSans-6e" transform="translate(1233.878906 0)"/>
     <use xlink:href="#DejaVuSans-2c" transform="translate(1297.257812 0)"/>
     <use xlink:href="#DejaVuSans-20" transform="translate(1329.044922 0)"/>
     <use xlink:href="#DejaVuSans-66" transform="translate(1360.832031 0)"/>
     <use xlink:href="#DejaVuSans-61" transform="translate(1396.037109 0)"/>
     <use xlink:href="#DejaVuSans-6c" transform="translate(1457.316406 0)"/>
     <use xlink:href="#DejaVuSans-6c" transform="translate(1485.099609 0)"/>
     <use xlink:href="#DejaVuSans-73" transform="translate(1512.882812 0)"/>
     <use xlink:href="#DejaVuSans-2c" transform="translate(1564.982422 0)"/>
    </g>
    <!-- surrender-like gestures, STOP_RECOMMENDED -->
    <g style="fill: #2b2d42" transform="translate(224.159852 98.742012) scale(0.075 -0.075)">
     <defs>
      <path id="DejaVuSans-6b" d="M 581 4863
L 1159 4863
L 1159 1991
L 2875 3500
L 3609 3500
L 1753 1863
L 3688 0
L 2938 0
L 1159 1709
L 1159 0
L 581 0
L 581 4863
z
" transform="scale(0.015625)"/>
      <path id="DejaVuSans-54" d="M -19 4666
L 3928 4666
L 3928 4134
L 2272 4134
L 2272 0
L 1638 0
L 1638 4134
L -19 4134
L -19 4666
z
" transform="scale(0.015625)"/>
      <path id="DejaVuSans-4f" d="M 2522 4238
Q 1834 4238 1429 3725
Q 1025 3213 1025 2328
Q 1025 1447 1429 934
Q 1834 422 2522 422
Q 3209 422 3611 934
Q 4013 1447 4013 2328
Q 4013 3213 3611 3725
Q 3209 4238 2522 4238
z
M 2522 4750
Q 3503 4750 4090 4092
Q 4678 3434 4678 2328
Q 4678 1225 4090 567
Q 3503 -91 2522 -91
Q 1538 -91 948 565
Q 359 1222 359 2328
Q 359 3434 948 4092
Q 1538 4750 2522 4750
z
" transform="scale(0.015625)"/>
      <path id="DejaVuSans-5f" d="M 3263 -1063
L 3263 -1509
L -63 -1509
L -63 -1063
L 3263 -1063
z
" transform="scale(0.015625)"/>
      <path id="DejaVuSans-52" d="M 2841 2188
Q 3044 2119 3236 1894
Q 3428 1669 3622 1275
L 4263 0
L 3584 0
L 2988 1197
Q 2756 1666 2539 1819
Q 2322 1972 1947 1972
L 1259 1972
L 1259 0
L 628 0
L 628 4666
L 2053 4666
Q 2853 4666 3247 4331
Q 3641 3997 3641 3322
Q 3641 2881 3436 2590
Q 3231 2300 2841 2188
z
M 1259 4147
L 1259 2491
L 2053 2491
Q 2509 2491 2742 2702
Q 2975 2913 2975 3322
Q 2975 3731 2742 3939
Q 2509 4147 2053 4147
L 1259 4147
z
" transform="scale(0.015625)"/>
      <path id="DejaVuSans-45" d="M 628 4666
L 3578 4666
L 3578 4134
L 1259 4134
L 1259 2753
L 3481 2753
L 3481 2222
L 1259 2222
L 1259 531
L 3634 531
L 3634 0
L 628 0
L 628 4666
z
" transform="scale(0.015625)"/>
      <path id="DejaVuSans-4d" d="M 628 4666
L 1569 4666
L 2759 1491
L 3956 4666
L 4897 4666
L 4897 0
L 4281 0
L 4281 4097
L 3078 897
L 2444 897
L 1241 4097
L 1241 0
L 628 0
L 628 4666
z
" transform="scale(0.015625)"/>
      <path id="DejaVuSans-4e" d="M 628 4666
L 1478 4666
L 3547 763
L 3547 4666
L 4159 4666
L 4159 0
L 3309 0
L 1241 3903
L 1241 0
L 628 0
L 628 4666
z
" transform="scale(0.015625)"/>
      <path id="DejaVuSans-44" d="M 1259 4147
L 1259 519
L 2022 519
Q 2988 519 3436 956
Q 3884 1394 3884 2338
Q 3884 3275 3436 3711
Q 2988 4147 2022 4147
L 1259 4147
z
M 628 4666
L 1925 4666
Q 3281 4666 3915 4102
Q 4550 3538 4550 2338
Q 4550 1131 3912 565
Q 3275 0 1925 0
L 628 0
L 628 4666
z
" transform="scale(0.015625)"/>
     </defs>
     <use xlink:href="#DejaVuSans-73"/>
     <use xlink:href="#DejaVuSans-75" transform="translate(52.099609 0)"/>
     <use xlink:href="#DejaVuSans-72" transform="translate(115.478516 0)"/>
     <use xlink:href="#DejaVuSans-72" transform="translate(154.841797 0)"/>
     <use xlink:href="#DejaVuSans-65" transform="translate(193.705078 0)"/>
     <use xlink:href="#DejaVuSans-6e" transform="translate(255.228516 0)"/>
     <use xlink:href="#DejaVuSans-64" transform="translate(318.607422 0)"/>
     <use xlink:href="#DejaVuSans-65" transform="translate(382.083984 0)"/>
     <use xlink:href="#DejaVuSans-72" transform="translate(443.607422 0)"/>
     <use xlink:href="#DejaVuSans-2d" transform="translate(478.345703 0)"/>
     <use xlink:href="#DejaVuSans-6c" transform="translate(514.429688 0)"/>
     <use xlink:href="#DejaVuSans-69" transform="translate(542.212891 0)"/>
     <use xlink:href="#DejaVuSans-6b" transform="translate(569.996094 0)"/>
     <use xlink:href="#DejaVuSans-65" transform="translate(624.28125 0)"/>
     <use xlink:href="#DejaVuSans-20" transform="translate(685.804688 0)"/>
     <use xlink:href="#DejaVuSans-67" transform="translate(717.591797 0)"/>
     <use xlink:href="#DejaVuSans-65" transform="translate(781.068359 0)"/>
     <use xlink:href="#DejaVuSans-73" transform="translate(842.591797 0)"/>
     <use xlink:href="#DejaVuSans-74" transform="translate(894.691406 0)"/>
     <use xlink:href="#DejaVuSans-75" transform="translate(933.900391 0)"/>
     <use xlink:href="#DejaVuSans-72" transform="translate(997.279297 0)"/>
     <use xlink:href="#DejaVuSans-65" transform="translate(1036.142578 0)"/>
     <use xlink:href="#DejaVuSans-73" transform="translate(1097.666016 0)"/>
     <use xlink:href="#DejaVuSans-2c" transform="translate(1149.765625 0)"/>
     <use xlink:href="#DejaVuSans-20" transform="translate(1181.552734 0)"/>
     <use xlink:href="#DejaVuSans-53" transform="translate(1213.339844 0)"/>
     <use xlink:href="#DejaVuSans-54" transform="translate(1276.816406 0)"/>
     <use xlink:href="#DejaVuSans-4f" transform="translate(1337.900391 0)"/>
     <use xlink:href="#DejaVuSans-50" transform="translate(1416.611328 0)"/>
     <use xlink:href="#DejaVuSans-5f" transform="translate(1476.914062 0)"/>
     <use xlink:href="#DejaVuSans-52" transform="translate(1526.914062 0)"/>
     <use xlink:href="#DejaVuSans-45" transform="translate(1596.396484 0)"/>
     <use xlink:href="#DejaVuSans-43" transform="translate(1659.580078 0)"/>
     <use xlink:href="#DejaVuSans-4f" transform="translate(1729.404297 0)"/>
     <use xlink:href="#DejaVuSans-4d" transform="translate(1808.115234 0)"/>
     <use xlink:href="#DejaVuSans-4d" transform="translate(1894.394531 0)"/>
     <use xlink:href="#DejaVuSans-45" transform="translate(1980.673828 0)"/>
     <use xlink:href="#DejaVuSans-4e" transform="translate(2043.857422 0)"/>
     <use xlink:href="#DejaVuSans-44" transform="translate(2118.662109 0)"/>
     <use xlink:href="#DejaVuSans-45" transform="translate(2195.664062 0)"/>
     <use xlink:href="#DejaVuSans-44" transform="translate(2258.847656 0)"/>
    </g>
    <!-- mapping in HCI (review-oriented). -->
    <g style="fill: #2b2d42" transform="translate(224.159852 108.203789) scale(0.075 -0.075)">
     <defs>
      <path id="DejaVuSans-48" d="M 628 4666
L 1259 4666
L 1259 2753
L 3553 2753
L 3553 4666
L 4184 4666
L 4184 0
L 3553 0
L 3553 2222
L 1259 2222
L 1259 0
L 628 0
L 628 4666
z
" transform="scale(0.015625)"/>
      <path id="DejaVuSans-49" d="M 628 4666
L 1259 4666
L 1259 0
L 628 0
L 628 4666
z
" transform="scale(0.015625)"/>
      <path id="DejaVuSans-77" d="M 269 3500
L 844 3500
L 1563 769
L 2278 3500
L 2956 3500
L 3675 769
L 4391 3500
L 4966 3500
L 4050 0
L 3372 0
L 2619 2869
L 1863 0
L 1184 0
L 269 3500
z
" transform="scale(0.015625)"/>
     </defs>
     <use xlink:href="#DejaVuSans-6d"/>
     <use xlink:href="#DejaVuSans-61" transform="translate(97.412109 0)"/>
     <use xlink:href="#DejaVuSans-70" transform="translate(158.691406 0)"/>
     <use xlink:href="#DejaVuSans-70" transform="translate(222.167969 0)"/>
     <use xlink:href="#DejaVuSans-69" transform="translate(285.644531 0)"/>
     <use xlink:href="#DejaVuSans-6e" transform="translate(313.427734 0)"/>
     <use xlink:href="#DejaVuSans-67" transform="translate(376.806641 0)"/>
     <use xlink:href="#DejaVuSans-20" transform="translate(440.283203 0)"/>
     <use xlink:href="#DejaVuSans-69" transform="translate(472.070312 0)"/>
     <use xlink:href="#DejaVuSans-6e" transform="translate(499.853516 0)"/>
     <use xlink:href="#DejaVuSans-20" transform="translate(563.232422 0)"/>
     <use xlink:href="#DejaVuSans-48" transform="translate(595.019531 0)"/>
     <use xlink:href="#DejaVuSans-43" transform="translate(670.214844 0)"/>
     <use xlink:href="#DejaVuSans-49" transform="translate(740.039062 0)"/>
     <use xlink:href="#DejaVuSans-20" transform="translate(769.53125 0)"/>
     <use xlink:href="#DejaVuSans-28" transform="translate(801.318359 0)"/>
     <use xlink:href="#DejaVuSans-72" transform="translate(840.332031 0)"/>
     <use xlink:href="#DejaVuSans-65" transform="translate(879.195312 0)"/>
     <use xlink:href="#DejaVuSans-76" transform="translate(940.71875 0)"/>
     <use xlink:href="#DejaVuSans-69" transform="translate(999.898438 0)"/>
     <use xlink:href="#DejaVuSans-65" transform="translate(1027.681641 0)"/>
     <use xlink:href="#DejaVuSans-77" transform="translate(1089.205078 0)"/>
     <use xlink:href="#DejaVuSans-2d" transform="translate(1170.992188 0)"/>
     <use xlink:href="#DejaVuSans-6f" transform="translate(1208.951172 0)"/>
     <use xlink:href="#DejaVuSans-72" transform="translate(1270.132812 0)"/>
     <use xlink:href="#DejaVuSans-69" transform="translate(1311.246094 0)"/>
     <use xlink:href="#DejaVuSans-65" transform="translate(1339.029297 0)"/>
     <use xlink:href="#DejaVuSans-6e" transform="translate(1400.552734 0)"/>
     <use xlink:href="#DejaVuSans-74" transform="translate(1463.931641 0)"/>
     <use xlink:href="#DejaVuSans-65" transform="translate(1503.140625 0)"/>
     <use xlink:href="#DejaVuSans-64" transform="translate(1564.664062 0)"/>
     <use xlink:href="#DejaVuSans-29" transform="translate(1628.140625 0)"/>
     <use xlink:href="#DejaVuSans-2e" transform="translate(1667.154297 0)"/>
    </g>
   </g>
   <g id="text_7">
    <!-- Examples: Max fusion, fall/surrender heuristics, high instability. -->
    <g style="fill: #2b2d42" transform="translate(224.159852 222.152625) scale(0.072 -0.072)">
     <defs>
      <path id="DejaVuSans-Oblique-4d" d="M 1081 4666
L 2028 4666
L 2572 1522
L 4378 4666
L 5350 4666
L 4441 0
L 3828 0
L 4622 4091
L 2791 897
L 2175 897
L 1581 4103
L 788 0
L 172 0
L 1081 4666
z
" transform="scale(0.015625)"/>
      <path id="DejaVuSans-Oblique-66" d="M 3059 4863
L 2969 4384
L 2419 4384
Q 2106 4384 1964 4261
Q 1822 4138 1753 3809
L 1691 3500
L 2638 3500
L 2553 3053
L 1606 3053
L 1013 0
L 434 0
L 1031 3053
L 481 3053
L 563 3500
L 1113 3500
L 1159 3744
Q 1278 4363 1576 4613
Q 1875 4863 2516 4863
L 3059 4863
z
" transform="scale(0.015625)"/>
      <path id="DejaVuSans-Oblique-2f" d="M 2175 4666
L 2731 4666
L 84 -594
L -469 -594
L 2175 4666
z
" transform="scale(0.015625)"/>
      <path id="DejaVuSans-Oblique-68" d="M 3566 2113
L 3156 0
L 2578 0
L 2988 2091
Q 3016 2238 3031 2350
Q 3047 2463 3047 2528
Q 3047 2791 2881 2937
Q 2716 3084 2419 3084
Q 1956 3084 1617 2771
Q 1278 2459 1178 1941
L 800 0
L 225 0
L 1172 4863
L 1747 4863
L 1375 2950
Q 1594 3244 1934 3414
Q 2275 3584 2650 3584
Q 3113 3584 3367 3334
Q 3622 3084 3622 2631
Q 3622 2519 3608 2391
Q 3594 2263 3566 2113
z
" transform="scale(0.015625)"/>
     </defs>
     <use xlink:href="#DejaVuSans-Oblique-45"/>
     <use xlink:href="#DejaVuSans-Oblique-78" transform="translate(63.183594 0)"/>
     <use xlink:href="#DejaVuSans-Oblique-61" transform="translate(122.363281 0)"/>
     <use xlink:href="#DejaVuSans-Oblique-6d" transform="translate(183.642578 0)"/>
     <use xlink:href="#DejaVuSans-Oblique-70" transform="translate(281.054688 0)"/>
     <use xlink:href="#DejaVuSans-Oblique-6c" transform="translate(344.53125 0)"/>
     <use xlink:href="#DejaVuSans-Oblique-65" transform="translate(372.314453 0)"/>
     <use xlink:href="#DejaVuSans-Oblique-73" transform="translate(433.837891 0)"/>
     <use xlink:href="#DejaVuSans-Oblique-3a" transform="translate(485.9375 0)"/>
     <use xlink:href="#DejaVuSans-Oblique-20" transform="translate(519.628906 0)"/>
     <use xlink:href="#DejaVuSans-Oblique-4d" transform="translate(551.416016 0)"/>
     <use xlink:href="#DejaVuSans-Oblique-61" transform="translate(637.695312 0)"/>
     <use xlink:href="#DejaVuSans-Oblique-78" transform="translate(698.974609 0)"/>
     <use xlink:href="#DejaVuSans-Oblique-20" transform="translate(758.154297 0)"/>
     <use xlink:href="#DejaVuSans-Oblique-66" transform="translate(789.941406 0)"/>
     <use xlink:href="#DejaVuSans-Oblique-75" transform="translate(825.146484 0)"/>
     <use xlink:href="#DejaVuSans-Oblique-73" transform="translate(888.525391 0)"/>
     <use xlink:href="#DejaVuSans-Oblique-69" transform="translate(940.625 0)"/>
     <use xlink:href="#DejaVuSans-Oblique-6f" transform="translate(968.408203 0)"/>
     <use xlink:href="#DejaVuSans-Oblique-6e" transform="translate(1029.589844 0)"/>
     <use xlink:href="#DejaVuSans-Oblique-2c" transform="translate(1092.96875 0)"/>
     <use xlink:href="#DejaVuSans-Oblique-20" transform="translate(1124.755859 0)"/>
     <use xlink:href="#DejaVuSans-Oblique-66" transform="translate(1156.542969 0)"/>
     <use xlink:href="#DejaVuSans-Oblique-61" transform="translate(1191.748047 0)"/>
     <use xlink:href="#DejaVuSans-Oblique-6c" transform="translate(1253.027344 0)"/>
     <use xlink:href="#DejaVuSans-Oblique-6c" transform="translate(1280.810547 0)"/>
     <use xlink:href="#DejaVuSans-Oblique-2f" transform="translate(1308.59375 0)"/>
     <use xlink:href="#DejaVuSans-Oblique-73" transform="translate(1342.285156 0)"/>
     <use xlink:href="#DejaVuSans-Oblique-75" transform="translate(1394.384766 0)"/>
     <use xlink:href="#DejaVuSans-Oblique-72" transform="translate(1457.763672 0)"/>
     <use xlink:href="#DejaVuSans-Oblique-72" transform="translate(1498.876953 0)"/>
     <use xlink:href="#DejaVuSans-Oblique-65" transform="translate(1539.990234 0)"/>
     <use xlink:href="#DejaVuSans-Oblique-6e" transform="translate(1601.513672 0)"/>
     <use xlink:href="#DejaVuSans-Oblique-64" transform="translate(1664.892578 0)"/>
     <use xlink:href="#DejaVuSans-Oblique-65" transform="translate(1728.369141 0)"/>
     <use xlink:href="#DejaVuSans-Oblique-72" transform="translate(1789.892578 0)"/>
     <use xlink:href="#DejaVuSans-Oblique-20" transform="translate(1831.005859 0)"/>
     <use xlink:href="#DejaVuSans-Oblique-68" transform="translate(1862.792969 0)"/>
     <use xlink:href="#DejaVuSans-Oblique-65" transform="translate(1926.171875 0)"/>
     <use xlink:href="#DejaVuSans-Oblique-75" transform="translate(1987.695312 0)"/>
     <use xlink:href="#DejaVuSans-Oblique-72" transform="translate(2051.074219 0)"/>
     <use xlink:href="#DejaVuSans-Oblique-69" transform="translate(2092.1875 0)"/>
     <use xlink:href="#DejaVuSans-Oblique-73" transform="translate(2119.970703 0)"/>
     <use xlink:href="#DejaVuSans-Oblique-74" transform="translate(2172.070312 0)"/>
     <use xlink:href="#DejaVuSans-Oblique-69" transform="translate(2211.279297 0)"/>
     <use xlink:href="#DejaVuSans-Oblique-63" transform="translate(2239.0625 0)"/>
     <use xlink:href="#DejaVuSans-Oblique-73" transform="translate(2294.042969 0)"/>
     <use xlink:href="#DejaVuSans-Oblique-2c" transform="translate(2346.142578 0)"/>
     <use xlink:href="#DejaVuSans-Oblique-20" transform="translate(2377.929688 0)"/>
     <use xlink:href="#DejaVuSans-Oblique-68" transform="translate(2409.716797 0)"/>
     <use xlink:href="#DejaVuSans-Oblique-69" transform="translate(2473.095703 0)"/>
     <use xlink:href="#DejaVuSans-Oblique-67" transform="translate(2500.878906 0)"/>
     <use xlink:href="#DejaVuSans-Oblique-68" transform="translate(2564.355469 0)"/>
     <use xlink:href="#DejaVuSans-Oblique-20" transform="translate(2627.734375 0)"/>
     <use xlink:href="#DejaVuSans-Oblique-69" transform="translate(2659.521484 0)"/>
     <use xlink:href="#DejaVuSans-Oblique-6e" transform="translate(2687.304688 0)"/>
     <use xlink:href="#DejaVuSans-Oblique-73" transform="translate(2750.683594 0)"/>
     <use xlink:href="#DejaVuSans-Oblique-74" transform="translate(2802.783203 0)"/>
     <use xlink:href="#DejaVuSans-Oblique-61" transform="translate(2841.992188 0)"/>
     <use xlink:href="#DejaVuSans-Oblique-62" transform="translate(2903.271484 0)"/>
     <use xlink:href="#DejaVuSans-Oblique-69" transform="translate(2966.748047 0)"/>
     <use xlink:href="#DejaVuSans-Oblique-6c" transform="translate(2994.53125 0)"/>
     <use xlink:href="#DejaVuSans-Oblique-69" transform="translate(3022.314453 0)"/>
     <use xlink:href="#DejaVuSans-Oblique-74" transform="translate(3050.097656 0)"/>
     <use xlink:href="#DejaVuSans-Oblique-79" transform="translate(3089.306641 0)"/>
     <use xlink:href="#DejaVuSans-Oblique-2e" transform="translate(3140.736328 0)"/>
    </g>
   </g>
   <g id="text_8">
    <!-- Contextual -->
    <g style="fill: #2b2d42" transform="translate(453.560769 61.730312) scale(0.1 -0.1)">
     <defs>
      <path id="DejaVuSans-Bold-6f" d="M 2203 2784
Q 1831 2784 1636 2517
Q 1441 2250 1441 1747
Q 1441 1244 1636 976
Q 1831 709 2203 709
Q 2569 709 2762 976
Q 2956 1244 2956 1747
Q 2956 2250 2762 2517
Q 2569 2784 2203 2784
z
M 2203 3584
Q 3106 3584 3614 3096
Q 4122 2609 4122 1747
Q 4122 884 3614 396
Q 3106 -91 2203 -91
Q 1297 -91 786 396
Q 275 884 275 1747
Q 275 2609 786 3096
Q 1297 3584 2203 3584
z
" transform="scale(0.015625)"/>
      <path id="DejaVuSans-Bold-78" d="M 1422 1791
L 159 3500
L 1344 3500
L 2059 2463
L 2784 3500
L 3969 3500
L 2706 1797
L 4031 0
L 2847 0
L 2059 1106
L 1281 0
L 97 0
L 1422 1791
z
" transform="scale(0.015625)"/>
     </defs>
     <use xlink:href="#DejaVuSans-Bold-43"/>
     <use xlink:href="#DejaVuSans-Bold-6f" transform="translate(73.388672 0)"/>
     <use xlink:href="#DejaVuSans-Bold-6e" transform="translate(142.089844 0)"/>
     <use xlink:href="#DejaVuSans-Bold-74" transform="translate(213.28125 0)"/>
     <use xlink:href="#DejaVuSans-Bold-65" transform="translate(261.083984 0)"/>
     <use xlink:href="#DejaVuSans-Bold-78" transform="translate(328.90625 0)"/>
     <use xlink:href="#DejaVuSans-Bold-74" transform="translate(393.408203 0)"/>
     <use xlink:href="#DejaVuSans-Bold-75" transform="translate(441.210938 0)"/>
     <use xlink:href="#DejaVuSans-Bold-61" transform="translate(512.402344 0)"/>
     <use xlink:href="#DejaVuSans-Bold-6c" transform="translate(579.882812 0)"/>
    </g>
   </g>
   <g id="text_9">
    <!-- Affects interpretation and calibration; -->
    <g style="fill: #2b2d42" transform="translate(409.517708 89.488828) scale(0.075 -0.075)">
     <defs>
      <path id="DejaVuSans-41" d="M 2188 4044
L 1331 1722
L 3047 1722
L 2188 4044
z
M 1831 4666
L 2547 4666
L 4325 0
L 3669 0
L 3244 1197
L 1141 1197
L 716 0
L 50 0
L 1831 4666
z
" transform="scale(0.015625)"/>
     </defs>
     <use xlink:href="#DejaVuSans-41"/>
     <use xlink:href="#DejaVuSans-66" transform="translate(64.783203 0)"/>
     <use xlink:href="#DejaVuSans-66" transform="translate(99.988281 0)"/>
     <use xlink:href="#DejaVuSans-65" transform="translate(135.193359 0)"/>
     <use xlink:href="#DejaVuSans-63" transform="translate(196.716797 0)"/>
     <use xlink:href="#DejaVuSans-74" transform="translate(251.697266 0)"/>
     <use xlink:href="#DejaVuSans-73" transform="translate(290.90625 0)"/>
     <use xlink:href="#DejaVuSans-20" transform="translate(343.005859 0)"/>
     <use xlink:href="#DejaVuSans-69" transform="translate(374.792969 0)"/>
     <use xlink:href="#DejaVuSans-6e" transform="translate(402.576172 0)"/>
     <use xlink:href="#DejaVuSans-74" transform="translate(465.955078 0)"/>
     <use xlink:href="#DejaVuSans-65" transform="translate(505.164062 0)"/>
     <use xlink:href="#DejaVuSans-72" transform="translate(566.6875 0)"/>
     <use xlink:href="#DejaVuSans-70" transform="translate(607.800781 0)"/>
     <use xlink:href="#DejaVuSans-72" transform="translate(671.277344 0)"/>
     <use xlink:href="#DejaVuSans-65" transform="translate(710.140625 0)"/>
     <use xlink:href="#DejaVuSans-74" transform="translate(771.664062 0)"/>
     <use xlink:href="#DejaVuSans-61" transform="translate(810.873047 0)"/>
     <use xlink:href="#DejaVuSans-74" transform="translate(872.152344 0)"/>
     <use xlink:href="#DejaVuSans-69" transform="translate(911.361328 0)"/>
     <use xlink:href="#DejaVuSans-6f" transform="translate(939.144531 0)"/>
     <use xlink:href="#DejaVuSans-6e" transform="translate(1000.326172 0)"/>
     <use xlink:href="#DejaVuSans-20" transform="translate(1063.705078 0)"/>
     <use xlink:href="#DejaVuSans-61" transform="translate(1095.492188 0)"/>
     <use xlink:href="#DejaVuSans-6e" transform="translate(1156.771484 0)"/>
     <use xlink:href="#DejaVuSans-64" transform="translate(1220.150391 0)"/>
     <use xlink:href="#DejaVuSans-20" transform="translate(1283.626953 0)"/>
     <use xlink:href="#DejaVuSans-63" transform="translate(1315.414062 0)"/>
     <use xlink:href="#DejaVuSans-61" transform="translate(1370.394531 0)"/>
     <use xlink:href="#DejaVuSans-6c" transform="translate(1431.673828 0)"/>
     <use xlink:href="#DejaVuSans-69" transform="translate(1459.457031 0)"/>
     <use xlink:href="#DejaVuSans-62" transform="translate(1487.240234 0)"/>
     <use xlink:href="#DejaVuSans-72" transform="translate(1550.716797 0)"/>
     <use xlink:href="#DejaVuSans-61" transform="translate(1591.830078 0)"/>
     <use xlink:href="#DejaVuSans-74" transform="translate(1653.109375 0)"/>
     <use xlink:href="#DejaVuSans-69" transform="translate(1692.318359 0)"/>
     <use xlink:href="#DejaVuSans-6f" transform="translate(1720.101562 0)"/>
     <use xlink:href="#DejaVuSans-6e" transform="translate(1781.283203 0)"/>
     <use xlink:href="#DejaVuSans-3b" transform="translate(1844.662109 0)"/>
    </g>
    <!-- of themselves not a verdict. -->
    <g style="fill: #2b2d42" transform="translate(409.517708 98.742012) scale(0.075 -0.075)">
     <use xlink:href="#DejaVuSans-6f"/>
     <use xlink:href="#DejaVuSans-66" transform="translate(61.181641 0)"/>
     <use xlink:href="#DejaVuSans-20" transform="translate(96.386719 0)"/>
     <use xlink:href="#DejaVuSans-74" transform="translate(128.173828 0)"/>
     <use xlink:href="#DejaVuSans-68" transform="translate(167.382812 0)"/>
     <use xlink:href="#DejaVuSans-65" transform="translate(230.761719 0)"/>
     <use xlink:href="#DejaVuSans-6d" transform="translate(292.285156 0)"/>
     <use xlink:href="#DejaVuSans-73" transform="translate(389.697266 0)"/>
     <use xlink:href="#DejaVuSans-65" transform="translate(441.796875 0)"/>
     <use xlink:href="#DejaVuSans-6c" transform="translate(503.320312 0)"/>
     <use xlink:href="#DejaVuSans-76" transform="translate(531.103516 0)"/>
     <use xlink:href="#DejaVuSans-65" transform="translate(590.283203 0)"/>
     <use xlink:href="#DejaVuSans-73" transform="translate(651.806641 0)"/>
     <use xlink:href="#DejaVuSans-20" transform="translate(703.90625 0)"/>
     <use xlink:href="#DejaVuSans-6e" transform="translate(735.693359 0)"/>
     <use xlink:href="#DejaVuSans-6f" transform="translate(799.072266 0)"/>
     <use xlink:href="#DejaVuSans-74" transform="translate(860.253906 0)"/>
     <use xlink:href="#DejaVuSans-20" transform="translate(899.462891 0)"/>
     <use xlink:href="#DejaVuSans-61" transform="translate(931.25 0)"/>
     <use xlink:href="#DejaVuSans-20" transform="translate(992.529297 0)"/>
     <use xlink:href="#DejaVuSans-76" transform="translate(1024.316406 0)"/>
     <use xlink:href="#DejaVuSans-65" transform="translate(1083.496094 0)"/>
     <use xlink:href="#DejaVuSans-72" transform="translate(1145.019531 0)"/>
     <use xlink:href="#DejaVuSans-64" transform="translate(1184.382812 0)"/>
     <use xlink:href="#DejaVuSans-69" transform="translate(1247.859375 0)"/>
     <use xlink:href="#DejaVuSans-63" transform="translate(1275.642578 0)"/>
     <use xlink:href="#DejaVuSans-74" transform="translate(1330.623047 0)"/>
     <use xlink:href="#DejaVuSans-2e" transform="translate(1369.832031 0)"/>
    </g>
   </g>
   <g id="text_10">
    <!-- Examples: Camera &amp; crop, round timing, dataset/clip metadata, visibility. -->
    <g style="fill: #2b2d42" transform="translate(409.517708 222.152625) scale(0.072 -0.072)">
     <defs>
      <path id="DejaVuSans-Oblique-43" d="M 4447 4306
L 4319 3641
Q 4019 3944 3683 4091
Q 3347 4238 2956 4238
Q 2422 4238 2017 3981
Q 1613 3725 1319 3200
Q 1131 2863 1032 2486
Q 934 2109 934 1728
Q 934 1091 1264 756
Q 1594 422 2222 422
Q 2656 422 3056 561
Q 3456 700 3834 978
L 3688 231
Q 3316 72 2936 -9
Q 2556 -91 2175 -91
Q 1278 -91 773 396
Q 269 884 269 1753
Q 269 2309 461 2846
Q 653 3384 1013 3828
Q 1394 4300 1883 4525
Q 2372 4750 3022 4750
Q 3422 4750 3780 4639
Q 4138 4528 4447 4306
z
" transform="scale(0.015625)"/>
      <path id="DejaVuSans-Oblique-26" d="M 3022 813
L 1691 2509
Q 1313 2234 1117 1925
Q 922 1616 922 1294
Q 922 897 1189 656
Q 1456 416 1900 416
Q 2194 416 2480 517
Q 2766 619 3022 813
z
M 4709 2503
Q 4569 2006 4339 1593
Q 4109 1181 3788 844
L 4441 0
L 3653 0
L 3322 434
Q 2991 175 2609 42
Q 2228 -91 1813 -91
Q 1122 -91 711 250
Q 300 591 300 1153
Q 300 1634 589 2062
Q 878 2491 1447 2853
Q 1350 2997 1304 3145
Q 1259 3294 1259 3463
Q 1259 3675 1331 3865
Q 1403 4056 1538 4213
Q 1753 4469 2078 4609
Q 2403 4750 2778 4750
Q 3022 4750 3269 4694
Q 3516 4638 3769 4525
L 3659 3956
Q 3425 4103 3192 4179
Q 2959 4256 2741 4256
Q 2353 4256 2111 4054
Q 1869 3853 1869 3541
Q 1869 3403 1928 3268
Q 1988 3134 2203 2859
L 3475 1234
Q 3709 1481 3875 1801
Q 4041 2122 4128 2503
L 4709 2503
z
" transform="scale(0.015625)"/>
     </defs>
     <use xlink:href="#DejaVuSans-Oblique-45"/>
     <use xlink:href="#DejaVuSans-Oblique-78" transform="translate(63.183594 0)"/>
     <use xlink:href="#DejaVuSans-Oblique-61" transform="translate(122.363281 0)"/>
     <use xlink:href="#DejaVuSans-Oblique-6d" transform="translate(183.642578 0)"/>
     <use xlink:href="#DejaVuSans-Oblique-70" transform="translate(281.054688 0)"/>
     <use xlink:href="#DejaVuSans-Oblique-6c" transform="translate(344.53125 0)"/>
     <use xlink:href="#DejaVuSans-Oblique-65" transform="translate(372.314453 0)"/>
     <use xlink:href="#DejaVuSans-Oblique-73" transform="translate(433.837891 0)"/>
     <use xlink:href="#DejaVuSans-Oblique-3a" transform="translate(485.9375 0)"/>
     <use xlink:href="#DejaVuSans-Oblique-20" transform="translate(519.628906 0)"/>
     <use xlink:href="#DejaVuSans-Oblique-43" transform="translate(551.416016 0)"/>
     <use xlink:href="#DejaVuSans-Oblique-61" transform="translate(621.240234 0)"/>
     <use xlink:href="#DejaVuSans-Oblique-6d" transform="translate(682.519531 0)"/>
     <use xlink:href="#DejaVuSans-Oblique-65" transform="translate(779.931641 0)"/>
     <use xlink:href="#DejaVuSans-Oblique-72" transform="translate(841.455078 0)"/>
     <use xlink:href="#DejaVuSans-Oblique-61" transform="translate(882.568359 0)"/>
     <use xlink:href="#DejaVuSans-Oblique-20" transform="translate(943.847656 0)"/>
     <use xlink:href="#DejaVuSans-Oblique-26" transform="translate(975.634766 0)"/>
     <use xlink:href="#DejaVuSans-Oblique-20" transform="translate(1053.613281 0)"/>
     <use xlink:href="#DejaVuSans-Oblique-63" transform="translate(1085.400391 0)"/>
     <use xlink:href="#DejaVuSans-Oblique-72" transform="translate(1140.380859 0)"/>
     <use xlink:href="#DejaVuSans-Oblique-6f" transform="translate(1181.494141 0)"/>
     <use xlink:href="#DejaVuSans-Oblique-70" transform="translate(1242.675781 0)"/>
     <use xlink:href="#DejaVuSans-Oblique-2c" transform="translate(1306.152344 0)"/>
     <use xlink:href="#DejaVuSans-Oblique-20" transform="translate(1337.939453 0)"/>
     <use xlink:href="#DejaVuSans-Oblique-72" transform="translate(1369.726562 0)"/>
     <use xlink:href="#DejaVuSans-Oblique-6f" transform="translate(1410.839844 0)"/>
     <use xlink:href="#DejaVuSans-Oblique-75" transform="translate(1472.021484 0)"/>
     <use xlink:href="#DejaVuSans-Oblique-6e" transform="translate(1535.400391 0)"/>
     <use xlink:href="#DejaVuSans-Oblique-64" transform="translate(1598.779297 0)"/>
     <use xlink:href="#DejaVuSans-Oblique-20" transform="translate(1662.255859 0)"/>
     <use xlink:href="#DejaVuSans-Oblique-74" transform="translate(1694.042969 0)"/>
     <use xlink:href="#DejaVuSans-Oblique-69" transform="translate(1733.251953 0)"/>
     <use xlink:href="#DejaVuSans-Oblique-6d" transform="translate(1761.035156 0)"/>
     <use xlink:href="#DejaVuSans-Oblique-69" transform="translate(1858.447266 0)"/>
     <use xlink:href="#DejaVuSans-Oblique-6e" transform="translate(1886.230469 0)"/>
     <use xlink:href="#DejaVuSans-Oblique-67" transform="translate(1949.609375 0)"/>
     <use xlink:href="#DejaVuSans-Oblique-2c" transform="translate(2013.085938 0)"/>
     <use xlink:href="#DejaVuSans-Oblique-20" transform="translate(2044.873047 0)"/>
     <use xlink:href="#DejaVuSans-Oblique-64" transform="translate(2076.660156 0)"/>
     <use xlink:href="#DejaVuSans-Oblique-61" transform="translate(2140.136719 0)"/>
     <use xlink:href="#DejaVuSans-Oblique-74" transform="translate(2201.416016 0)"/>
     <use xlink:href="#DejaVuSans-Oblique-61" transform="translate(2240.625 0)"/>
     <use xlink:href="#DejaVuSans-Oblique-73" transform="translate(2301.904297 0)"/>
     <use xlink:href="#DejaVuSans-Oblique-65" transform="translate(2354.003906 0)"/>
     <use xlink:href="#DejaVuSans-Oblique-74" transform="translate(2415.527344 0)"/>
     <use xlink:href="#DejaVuSans-Oblique-2f" transform="translate(2454.736328 0)"/>
     <use xlink:href="#DejaVuSans-Oblique-63" transform="translate(2488.427734 0)"/>
     <use xlink:href="#DejaVuSans-Oblique-6c" transform="translate(2543.408203 0)"/>
     <use xlink:href="#DejaVuSans-Oblique-69" transform="translate(2571.191406 0)"/>
     <use xlink:href="#DejaVuSans-Oblique-70" transform="translate(2598.974609 0)"/>
     <use xlink:href="#DejaVuSans-Oblique-20" transform="translate(2662.451172 0)"/>
     <use xlink:href="#DejaVuSans-Oblique-6d" transform="translate(2694.238281 0)"/>
     <use xlink:href="#DejaVuSans-Oblique-65" transform="translate(2791.650391 0)"/>
     <use xlink:href="#DejaVuSans-Oblique-74" transform="translate(2853.173828 0)"/>
     <use xlink:href="#DejaVuSans-Oblique-61" transform="translate(2892.382812 0)"/>
     <use xlink:href="#DejaVuSans-Oblique-64" transform="translate(2953.662109 0)"/>
     <use xlink:href="#DejaVuSans-Oblique-61" transform="translate(3017.138672 0)"/>
     <use xlink:href="#DejaVuSans-Oblique-74" transform="translate(3078.417969 0)"/>
     <use xlink:href="#DejaVuSans-Oblique-61" transform="translate(3117.626953 0)"/>
     <use xlink:href="#DejaVuSans-Oblique-2c" transform="translate(3178.90625 0)"/>
     <use xlink:href="#DejaVuSans-Oblique-20" transform="translate(3210.693359 0)"/>
     <use xlink:href="#DejaVuSans-Oblique-76" transform="translate(3242.480469 0)"/>
     <use xlink:href="#DejaVuSans-Oblique-69" transform="translate(3301.660156 0)"/>
     <use xlink:href="#DejaVuSans-Oblique-73" transform="translate(3329.443359 0)"/>
     <use xlink:href="#DejaVuSans-Oblique-69" transform="translate(3381.542969 0)"/>
     <use xlink:href="#DejaVuSans-Oblique-62" transform="translate(3409.326172 0)"/>
     <use xlink:href="#DejaVuSans-Oblique-69" transform="translate(3472.802734 0)"/>
     <use xlink:href="#DejaVuSans-Oblique-6c" transform="translate(3500.585938 0)"/>
     <use xlink:href="#DejaVuSans-Oblique-69" transform="translate(3528.369141 0)"/>
     <use xlink:href="#DejaVuSans-Oblique-74" transform="translate(3556.152344 0)"/>
     <use xlink:href="#DejaVuSans-Oblique-79" transform="translate(3595.361328 0)"/>
     <use xlink:href="#DejaVuSans-Oblique-2e" transform="translate(3646.791016 0)"/>
    </g>
   </g>
  </g>
 </g>
 <defs>
  <clipPath id="p86fbfdfbde">
   <rect x="7.2" y="7.2" width="583.42145" height="253.08"/>
  </clipPath>
 </defs>
</svg>
