<?xml version="1.0" encoding="utf-8" standalone="no"?>
<!DOCTYPE svg PUBLIC "-//W3C//DTD SVG 1.1//EN"
  "http://www.w3.org/Graphics/SVG/1.1/DTD/svg11.dtd">
<svg xmlns:xlink="http://www.w3.org/1999/xlink" width="566.333992pt" height="238.68pt" viewBox="0 0 566.333992 238.68" xmlns="http://www.w3.org/2000/svg" version="1.1">
 <metadata>
  <rdf:RDF xmlns:dc="http://purl.org/dc/elements/1.1/" xmlns:cc="http://creativecommons.org/ns#" xmlns:rdf="http://www.w3.org/1999/02/22-rdf-syntax-ns#">
   <cc:Work>
    <dc:type rdf:resource="http://purl.org/dc/dcmitype/StillImage"/>
    <dc:date>2026-04-29T21:41:23.410470</dc:date>
    <dc:format>image/svg+xml</dc:format>
    <dc:creator>
     <cc:Agent>
      <dc:title>Matplotlib v3.10.9, https://matplotlib.org/</dc:title>
     </cc:Agent>
    </dc:creator>
   </cc:Work>
  </rdf:RDF>
 </metadata>
 <defs>
  <style type="text/css">*{stroke-linejoin: round; stroke-linecap: butt}</style>
 </defs>
 <g id="figure_1">
  <g id="patch_1">
   <path d="M 0 238.68
L 566.333992 238.68
L 566.333992 0
L 0 0
z
" style="fill: #ffffff"/>
  </g>
  <g id="axes_1">
   <g id="patch_2">
    <path d="M 65.690265 149.024118
L 196.932143 149.024118
Q 202.078883 149.024118 202.078883 143.746941
L 202.078883 71.845412
Q 202.078883 66.568235 196.932143 66.568235
L 65.690265 66.568235
Q 60.543524 66.568235 60.543524 71.845412
L 60.543524 143.746941
Q 60.543524 149.024118 65.690265 149.024118
z
" clip-path="url(#pae87b20fee)" style="fill: #f5f6f8; stroke: #5c6770; stroke-width: 0.8; stroke-linejoin: miter"/>
   </g>
   <g id="patch_3">
    <path d="M 208.512308 132.532941
L 311.447115 132.532941
Q 317.88054 132.532941 317.88054 125.936471
L 317.88054 83.059412
Q 317.88054 76.462941 311.447115 76.462941
L 208.512308 76.462941
Q 202.078883 76.462941 202.078883 83.059412
L 202.078883 125.936471
Q 202.078883 132.532941 208.512308 132.532941
z
" clip-path="url(#pae87b20fee)" style="fill: #ebeef0; stroke: #3d5a73; stroke-width: 0.9; stroke-linejoin: miter"/>
   </g>
   <g id="patch_4">
    <path d="M 335.894131 147.704824
L 476.786147 147.704824
Q 481.932888 147.704824 481.932888 142.427647
L 481.932888 73.824353
Q 481.932888 68.547176 476.786147 68.547176
L 335.894131 68.547176
Q 330.747391 68.547176 330.747391 73.824353
L 330.747391 142.427647
Q 330.747391 147.704824 335.894131 147.704824
z
" clip-path="url(#pae87b20fee)" style="fill: #e8ecef; stroke: #5c6770; stroke-width: 0.8; stroke-linejoin: miter"/>
   </g>
   <g id="patch_5">
    <path d="M 485.1496 205.094118
C 488.561929 205.094118 491.834957 203.704026 494.247838 201.229995
C 496.660718 198.755963 498.016451 195.399985 498.016451 191.901176
C 498.016451 188.402368 496.660718 185.04639 494.247838 182.572358
C 491.834957 180.098327 488.561929 178.708235 485.1496 178.708235
C 481.737271 178.708235 478.464244 180.098327 476.051363 182.572358
C 473.638482 185.04639 472.282749 188.402368 472.282749 191.901176
C 472.282749 195.399985 473.638482 198.755963 476.051363 201.229995
C 478.464244 203.704026 481.737271 205.094118 485.1496 205.094118
z
" clip-path="url(#pae87b20fee)" style="fill: #ffffff; stroke: #6b3a3a; stroke-width: 1.1; stroke-linejoin: miter"/>
   </g>
   <g id="patch_6">
    <path d="M 185.99532 107.796176
Q 198.86217 106.147059 210.730955 104.625861
" clip-path="url(#pae87b20fee)" style="fill: none; stroke: #4a5568; stroke-width: 0.9; stroke-linecap: round"/>
    <path d="M 205.664793 102.855549
L 210.730955 104.625861
L 206.275008 107.616603
z
" clip-path="url(#pae87b20fee)" style="fill: #4a5568; stroke: #4a5568; stroke-width: 0.9; stroke-linecap: round"/>
   </g>
   <g id="patch_7">
    <path d="M 308.230402 104.497941
Q 327.530678 106.311971 345.829139 108.03184
" clip-path="url(#pae87b20fee)" style="fill: none; stroke: #4a5568; stroke-width: 0.9; stroke-linecap: round"/>
    <path d="M 341.274787 105.193199
L 345.829139 108.03184
L 340.825616 109.972137
z
" clip-path="url(#pae87b20fee)" style="fill: #4a5568; stroke: #4a5568; stroke-width: 0.9; stroke-linecap: round"/>
   </g>
   <g id="text_1">
    <!-- Alerting the referee: recommendation, not a replacement -->
    <g style="fill: #2b2d42" transform="translate(137.603133 45.546336) scale(0.114 -0.114)">
     <defs>
      <path id="DejaVuSans-41" d="M 2188 4044
L 1331 1722
L 3047 1722
L 2188 4044
z
M 1831 4666
L 2547 4666
L 4325 0
L 3669 0
L 3244 1197
L 1141 1197
L 716 0
L 50 0
L 1831 4666
z
" transform="scale(0.015625)"/>
      <path id="DejaVuSans-6c" d="M 603 4863
L 1178 4863
L 1178 0
L 603 0
L 603 4863
z
" transform="scale(0.015625)"/>
      <path id="DejaVuSans-65" d="M 3597 1894
L 3597 1613
L 953 1613
Q 991 1019 1311 708
Q 1631 397 2203 397
Q 2534 397 2845 478
Q 3156 559 3463 722
L 3463 178
Q 3153 47 2828 -22
Q 2503 -91 2169 -91
Q 1331 -91 842 396
Q 353 884 353 1716
Q 353 2575 817 3079
Q 1281 3584 2069 3584
Q 2775 3584 3186 3129
Q 3597 2675 3597 1894
z
M 3022 2063
Q 3016 2534 2758 2815
Q 2500 3097 2075 3097
Q 1594 3097 1305 2825
Q 1016 2553 972 2059
L 3022 2063
z
" transform="scale(0.015625)"/>
      <path id="DejaVuSans-72" d="M 2631 2963
Q 2534 3019 2420 3045
Q 2306 3072 2169 3072
Q 1681 3072 1420 2755
Q 1159 2438 1159 1844
L 1159 0
L 581 0
L 581 3500
L 1159 3500
L 1159 2956
Q 1341 3275 1631 3429
Q 1922 3584 2338 3584
Q 2397 3584 2469 3576
Q 2541 3569 2628 3553
L 2631 2963
z
" transform="scale(0.015625)"/>
      <path id="DejaVuSans-74" d="M 1172 4494
L 1172 3500
L 2356 3500
L 2356 3053
L 1172 3053
L 1172 1153
Q 1172 725 1289 603
Q 1406 481 1766 481
L 2356 481
L 2356 0
L 1766 0
Q 1100 0 847 248
Q 594 497 594 1153
L 594 3053
L 172 3053
L 172 3500
L 594 3500
L 594 4494
L 1172 4494
z
" transform="scale(0.015625)"/>
      <path id="DejaVuSans-69" d="M 603 3500
L 1178 3500
L 1178 0
L 603 0
L 603 3500
z
M 603 4863
L 1178 4863
L 1178 4134
L 603 4134
L 603 4863
z
" transform="scale(0.015625)"/>
      <path id="DejaVuSans-6e" d="M 3513 2113
L 3513 0
L 2938 0
L 2938 2094
Q 2938 2591 2744 2837
Q 2550 3084 2163 3084
Q 1697 3084 1428 2787
Q 1159 2491 1159 1978
L 1159 0
L 581 0
L 581 3500
L 1159 3500
L 1159 2956
Q 1366 3272 1645 3428
Q 1925 3584 2291 3584
Q 2894 3584 3203 3211
Q 3513 2838 3513 2113
z
" transform="scale(0.015625)"/>
      <path id="DejaVuSans-67" d="M 2906 1791
Q 2906 2416 2648 2759
Q 2391 3103 1925 3103
Q 1463 3103 1205 2759
Q 947 2416 947 1791
Q 947 1169 1205 825
Q 1463 481 1925 481
Q 2391 481 2648 825
Q 2906 1169 2906 1791
z
M 3481 434
Q 3481 -459 3084 -895
Q 2688 -1331 1869 -1331
Q 1566 -1331 1297 -1286
Q 1028 -1241 775 -1147
L 775 -588
Q 1028 -725 1275 -790
Q 1522 -856 1778 -856
Q 2344 -856 2625 -561
Q 2906 -266 2906 331
L 2906 616
Q 2728 306 2450 153
Q 2172 0 1784 0
Q 1141 0 747 490
Q 353 981 353 1791
Q 353 2603 747 3093
Q 1141 3584 1784 3584
Q 2172 3584 2450 3431
Q 2728 3278 2906 2969
L 2906 3500
L 3481 3500
L 3481 434
z
" transform="scale(0.015625)"/>
      <path id="DejaVuSans-20" transform="scale(0.015625)"/>
      <path id="DejaVuSans-68" d="M 3513 2113
L 3513 0
L 2938 0
L 2938 2094
Q 2938 2591 2744 2837
Q 2550 3084 2163 3084
Q 1697 3084 1428 2787
Q 1159 2491 1159 1978
L 1159 0
L 581 0
L 581 4863
L 1159 4863
L 1159 2956
Q 1366 3272 1645 3428
Q 1925 3584 2291 3584
Q 2894 3584 3203 3211
Q 3513 2838 3513 2113
z
" transform="scale(0.015625)"/>
      <path id="DejaVuSans-66" d="M 2375 4863
L 2375 4384
L 1825 4384
Q 1516 4384 1395 4259
Q 1275 4134 1275 3809
L 1275 3500
L 2222 3500
L 2222 3053
L 1275 3053
L 1275 0
L 697 0
L 697 3053
L 147 3053
L 147 3500
L 697 3500
L 697 3744
Q 697 4328 969 4595
Q 1241 4863 1831 4863
L 2375 4863
z
" transform="scale(0.015625)"/>
      <path id="DejaVuSans-3a" d="M 750 794
L 1409 794
L 1409 0
L 750 0
L 750 794
z
M 750 3309
L 1409 3309
L 1409 2516
L 750 2516
L 750 3309
z
" transform="scale(0.015625)"/>
      <path id="DejaVuSans-63" d="M 3122 3366
L 3122 2828
Q 2878 2963 2633 3030
Q 2388 3097 2138 3097
Q 1578 3097 1268 2742
Q 959 2388 959 1747
Q 959 1106 1268 751
Q 1578 397 2138 397
Q 2388 397 2633 464
Q 2878 531 3122 666
L 3122 134
Q 2881 22 2623 -34
Q 2366 -91 2075 -91
Q 1284 -91 818 406
Q 353 903 353 1747
Q 353 2603 823 3093
Q 1294 3584 2113 3584
Q 2378 3584 2631 3529
Q 2884 3475 3122 3366
z
" transform="scale(0.015625)"/>
      <path id="DejaVuSans-6f" d="M 1959 3097
Q 1497 3097 1228 2736
Q 959 2375 959 1747
Q 959 1119 1226 758
Q 1494 397 1959 397
Q 2419 397 2687 759
Q 2956 1122 2956 1747
Q 2956 2369 2687 2733
Q 2419 3097 1959 3097
z
M 1959 3584
Q 2709 3584 3137 3096
Q 3566 2609 3566 1747
Q 3566 888 3137 398
Q 2709 -91 1959 -91
Q 1206 -91 779 398
Q 353 888 353 1747
Q 353 2609 779 3096
Q 1206 3584 1959 3584
z
" transform="scale(0.015625)"/>
      <path id="DejaVuSans-6d" d="M 3328 2828
Q 3544 3216 3844 3400
Q 4144 3584 4550 3584
Q 5097 3584 5394 3201
Q 5691 2819 5691 2113
L 5691 0
L 5113 0
L 5113 2094
Q 5113 2597 4934 2840
Q 4756 3084 4391 3084
Q 3944 3084 3684 2787
Q 3425 2491 3425 1978
L 3425 0
L 2847 0
L 2847 2094
Q 2847 2600 2669 2842
Q 2491 3084 2119 3084
Q 1678 3084 1418 2786
Q 1159 2488 1159 1978
L 1159 0
L 581 0
L 581 3500
L 1159 3500
L 1159 2956
Q 1356 3278 1631 3431
Q 1906 3584 2284 3584
Q 2666 3584 2933 3390
Q 3200 3197 3328 2828
z
" transform="scale(0.015625)"/>
      <path id="DejaVuSans-64" d="M 2906 2969
L 2906 4863
L 3481 4863
L 3481 0
L 2906 0
L 2906 525
Q 2725 213 2448 61
Q 2172 -91 1784 -91
Q 1150 -91 751 415
Q 353 922 353 1747
Q 353 2572 751 3078
Q 1150 3584 1784 3584
Q 2172 3584 2448 3432
Q 2725 3281 2906 2969
z
M 947 1747
Q 947 1113 1208 752
Q 1469 391 1925 391
Q 2381 391 2643 752
Q 2906 1113 2906 1747
Q 2906 2381 2643 2742
Q 2381 3103 1925 3103
Q 1469 3103 1208 2742
Q 947 2381 947 1747
z
" transform="scale(0.015625)"/>
      <path id="DejaVuSans-61" d="M 2194 1759
Q 1497 1759 1228 1600
Q 959 1441 959 1056
Q 959 750 1161 570
Q 1363 391 1709 391
Q 2188 391 2477 730
Q 2766 1069 2766 1631
L 2766 1759
L 2194 1759
z
M 3341 1997
L 3341 0
L 2766 0
L 2766 531
Q 2569 213 2275 61
Q 1981 -91 1556 -91
Q 1019 -91 701 211
Q 384 513 384 1019
Q 384 1609 779 1909
Q 1175 2209 1959 2209
L 2766 2209
L 2766 2266
Q 2766 2663 2505 2880
Q 2244 3097 1772 3097
Q 1472 3097 1187 3025
Q 903 2953 641 2809
L 641 3341
Q 956 3463 1253 3523
Q 1550 3584 1831 3584
Q 2591 3584 2966 3190
Q 3341 2797 3341 1997
z
" transform="scale(0.015625)"/>
      <path id="DejaVuSans-2c" d="M 750 794
L 1409 794
L 1409 256
L 897 -744
L 494 -744
L 750 256
L 750 794
z
" transform="scale(0.015625)"/>
      <path id="DejaVuSans-70" d="M 1159 525
L 1159 -1331
L 581 -1331
L 581 3500
L 1159 3500
L 1159 2969
Q 1341 3281 1617 3432
Q 1894 3584 2278 3584
Q 2916 3584 3314 3078
Q 3713 2572 3713 1747
Q 3713 922 3314 415
Q 2916 -91 2278 -91
Q 1894 -91 1617 61
Q 1341 213 1159 525
z
M 3116 1747
Q 3116 2381 2855 2742
Q 2594 3103 2138 3103
Q 1681 3103 1420 2742
Q 1159 2381 1159 1747
Q 1159 1113 1420 752
Q 1681 391 2138 391
Q 2594 391 2855 752
Q 3116 1113 3116 1747
z
" transform="scale(0.015625)"/>
     </defs>
     <use xlink:href="#DejaVuSans-41"/>
     <use xlink:href="#DejaVuSans-6c" transform="translate(68.408203 0)"/>
     <use xlink:href="#DejaVuSans-65" transform="translate(96.191406 0)"/>
     <use xlink:href="#DejaVuSans-72" transform="translate(157.714844 0)"/>
     <use xlink:href="#DejaVuSans-74" transform="translate(198.828125 0)"/>
     <use xlink:href="#DejaVuSans-69" transform="translate(238.037109 0)"/>
     <use xlink:href="#DejaVuSans-6e" transform="translate(265.820312 0)"/>
     <use xlink:href="#DejaVuSans-67" transform="translate(329.199219 0)"/>
     <use xlink:href="#DejaVuSans-20" transform="translate(392.675781 0)"/>
     <use xlink:href="#DejaVuSans-74" transform="translate(424.462891 0)"/>
     <use xlink:href="#DejaVuSans-68" transform="translate(463.671875 0)"/>
     <use xlink:href="#DejaVuSans-65" transform="translate(527.050781 0)"/>
     <use xlink:href="#DejaVuSans-20" transform="translate(588.574219 0)"/>
     <use xlink:href="#DejaVuSans-72" transform="translate(620.361328 0)"/>
     <use xlink:href="#DejaVuSans-65" transform="translate(659.224609 0)"/>
     <use xlink:href="#DejaVuSans-66" transform="translate(720.748047 0)"/>
     <use xlink:href="#DejaVuSans-65" transform="translate(755.953125 0)"/>
     <use xlink:href="#DejaVuSans-72" transform="translate(817.476562 0)"/>
     <use xlink:href="#DejaVuSans-65" transform="translate(856.339844 0)"/>
     <use xlink:href="#DejaVuSans-65" transform="translate(917.863281 0)"/>
     <use xlink:href="#DejaVuSans-3a" transform="translate(979.386719 0)"/>
     <use xlink:href="#DejaVuSans-20" transform="translate(1013.078125 0)"/>
     <use xlink:href="#DejaVuSans-72" transform="translate(1044.865234 0)"/>
     <use xlink:href="#DejaVuSans-65" transform="translate(1083.728516 0)"/>
     <use xlink:href="#DejaVuSans-63" transform="translate(1145.251953 0)"/>
     <use xlink:href="#DejaVuSans-6f" transform="translate(1200.232422 0)"/>
     <use xlink:href="#DejaVuSans-6d" transform="translate(1261.414062 0)"/>
     <use xlink:href="#DejaVuSans-6d" transform="translate(1358.826172 0)"/>
     <use xlink:href="#DejaVuSans-65" transform="translate(1456.238281 0)"/>
     <use xlink:href="#DejaVuSans-6e" transform="translate(1517.761719 0)"/>
     <use xlink:href="#DejaVuSans-64" transform="translate(1581.140625 0)"/>
     <use xlink:href="#DejaVuSans-61" transform="translate(1644.617188 0)"/>
     <use xlink:href="#DejaVuSans-74" transform="translate(1705.896484 0)"/>
     <use xlink:href="#DejaVuSans-69" transform="translate(1745.105469 0)"/>
     <use xlink:href="#DejaVuSans-6f" transform="translate(1772.888672 0)"/>
     <use xlink:href="#DejaVuSans-6e" transform="translate(1834.070312 0)"/>
     <use xlink:href="#DejaVuSans-2c" transform="translate(1897.449219 0)"/>
     <use xlink:href="#DejaVuSans-20" transform="translate(1929.236328 0)"/>
     <use xlink:href="#DejaVuSans-6e" transform="translate(1961.023438 0)"/>
     <use xlink:href="#DejaVuSans-6f" transform="translate(2024.402344 0)"/>
     <use xlink:href="#DejaVuSans-74" transform="translate(2085.583984 0)"/>
     <use xlink:href="#DejaVuSans-20" transform="translate(2124.792969 0)"/>
     <use xlink:href="#DejaVuSans-61" transform="translate(2156.580078 0)"/>
     <use xlink:href="#DejaVuSans-20" transform="translate(2217.859375 0)"/>
     <use xlink:href="#DejaVuSans-72" transform="translate(2249.646484 0)"/>
     <use xlink:href="#DejaVuSans-65" transform="translate(2288.509766 0)"/>
     <use xlink:href="#DejaVuSans-70" transform="translate(2350.033203 0)"/>
     <use xlink:href="#DejaVuSans-6c" transform="translate(2413.509766 0)"/>
     <use xlink:href="#DejaVuSans-61" transform="translate(2441.292969 0)"/>
     <use xlink:href="#DejaVuSans-63" transform="translate(2502.572266 0)"/>
     <use xlink:href="#DejaVuSans-65" transform="translate(2557.552734 0)"/>
     <use xlink:href="#DejaVuSans-6d" transform="translate(2619.076172 0)"/>
     <use xlink:href="#DejaVuSans-65" transform="translate(2716.488281 0)"/>
     <use xlink:href="#DejaVuSans-6e" transform="translate(2778.011719 0)"/>
     <use xlink:href="#DejaVuSans-74" transform="translate(2841.390625 0)"/>
    </g>
   </g>
   <g id="text_2">
    <!-- Algorithmic -->
    <g style="fill: #2b2d42" transform="translate(105.548704 100.201583) scale(0.09 -0.09)">
     <use xlink:href="#DejaVuSans-41"/>
     <use xlink:href="#DejaVuSans-6c" transform="translate(68.408203 0)"/>
     <use xlink:href="#DejaVuSans-67" transform="translate(96.191406 0)"/>
     <use xlink:href="#DejaVuSans-6f" transform="translate(159.667969 0)"/>
     <use xlink:href="#DejaVuSans-72" transform="translate(220.849609 0)"/>
     <use xlink:href="#DejaVuSans-69" transform="translate(261.962891 0)"/>
     <use xlink:href="#DejaVuSans-74" transform="translate(289.746094 0)"/>
     <use xlink:href="#DejaVuSans-68" transform="translate(328.955078 0)"/>
     <use xlink:href="#DejaVuSans-6d" transform="translate(392.333984 0)"/>
     <use xlink:href="#DejaVuSans-69" transform="translate(489.746094 0)"/>
     <use xlink:href="#DejaVuSans-63" transform="translate(517.529297 0)"/>
    </g>
    <!-- safety &amp; fusion -->
    <g style="fill: #2b2d42" transform="translate(97.423391 110.279614) scale(0.09 -0.09)">
     <defs>
      <path id="DejaVuSans-73" d="M 2834 3397
L 2834 2853
Q 2591 2978 2328 3040
Q 2066 3103 1784 3103
Q 1356 3103 1142 2972
Q 928 2841 928 2578
Q 928 2378 1081 2264
Q 1234 2150 1697 2047
L 1894 2003
Q 2506 1872 2764 1633
Q 3022 1394 3022 966
Q 3022 478 2636 193
Q 2250 -91 1575 -91
Q 1294 -91 989 -36
Q 684 19 347 128
L 347 722
Q 666 556 975 473
Q 1284 391 1588 391
Q 1994 391 2212 530
Q 2431 669 2431 922
Q 2431 1156 2273 1281
Q 2116 1406 1581 1522
L 1381 1569
Q 847 1681 609 1914
Q 372 2147 372 2553
Q 372 3047 722 3315
Q 1072 3584 1716 3584
Q 2034 3584 2315 3537
Q 2597 3491 2834 3397
z
" transform="scale(0.015625)"/>
      <path id="DejaVuSans-79" d="M 2059 -325
Q 1816 -950 1584 -1140
Q 1353 -1331 966 -1331
L 506 -1331
L 506 -850
L 844 -850
Q 1081 -850 1212 -737
Q 1344 -625 1503 -206
L 1606 56
L 191 3500
L 800 3500
L 1894 763
L 2988 3500
L 3597 3500
L 2059 -325
z
" transform="scale(0.015625)"/>
      <path id="DejaVuSans-26" d="M 1556 2509
Q 1272 2256 1139 2004
Q 1006 1753 1006 1478
Q 1006 1022 1337 719
Q 1669 416 2169 416
Q 2466 416 2725 514
Q 2984 613 3213 813
L 1556 2509
z
M 1997 2859
L 3584 1234
Q 3769 1513 3872 1830
Q 3975 2147 3994 2503
L 4575 2503
Q 4538 2091 4375 1687
Q 4213 1284 3922 891
L 4794 0
L 4006 0
L 3559 459
Q 3234 181 2878 45
Q 2522 -91 2113 -91
Q 1359 -91 881 339
Q 403 769 403 1441
Q 403 1841 612 2192
Q 822 2544 1241 2853
Q 1091 3050 1012 3245
Q 934 3441 934 3628
Q 934 4134 1281 4442
Q 1628 4750 2203 4750
Q 2463 4750 2720 4694
Q 2978 4638 3244 4525
L 3244 3956
Q 2972 4103 2725 4179
Q 2478 4256 2266 4256
Q 1938 4256 1733 4082
Q 1528 3909 1528 3634
Q 1528 3475 1620 3314
Q 1713 3153 1997 2859
z
" transform="scale(0.015625)"/>
      <path id="DejaVuSans-75" d="M 544 1381
L 544 3500
L 1119 3500
L 1119 1403
Q 1119 906 1312 657
Q 1506 409 1894 409
Q 2359 409 2629 706
Q 2900 1003 2900 1516
L 2900 3500
L 3475 3500
L 3475 0
L 2900 0
L 2900 538
Q 2691 219 2414 64
Q 2138 -91 1772 -91
Q 1169 -91 856 284
Q 544 659 544 1381
z
M 1991 3584
L 1991 3584
z
" transform="scale(0.015625)"/>
     </defs>
     <use xlink:href="#DejaVuSans-73"/>
     <use xlink:href="#DejaVuSans-61" transform="translate(52.099609 0)"/>
     <use xlink:href="#DejaVuSans-66" transform="translate(113.378906 0)"/>
     <use xlink:href="#DejaVuSans-65" transform="translate(148.583984 0)"/>
     <use xlink:href="#DejaVuSans-74" transform="translate(210.107422 0)"/>
     <use xlink:href="#DejaVuSans-79" transform="translate(249.316406 0)"/>
     <use xlink:href="#DejaVuSans-20" transform="translate(308.496094 0)"/>
     <use xlink:href="#DejaVuSans-26" transform="translate(340.283203 0)"/>
     <use xlink:href="#DejaVuSans-20" transform="translate(418.261719 0)"/>
     <use xlink:href="#DejaVuSans-66" transform="translate(450.048828 0)"/>
     <use xlink:href="#DejaVuSans-75" transform="translate(485.253906 0)"/>
     <use xlink:href="#DejaVuSans-73" transform="translate(548.632812 0)"/>
     <use xlink:href="#DejaVuSans-69" transform="translate(600.732422 0)"/>
     <use xlink:href="#DejaVuSans-6f" transform="translate(628.515625 0)"/>
     <use xlink:href="#DejaVuSans-6e" transform="translate(689.697266 0)"/>
    </g>
    <!-- output -->
    <g style="fill: #2b2d42" transform="translate(116.468938 120.357645) scale(0.09 -0.09)">
     <use xlink:href="#DejaVuSans-6f"/>
     <use xlink:href="#DejaVuSans-75" transform="translate(61.181641 0)"/>
     <use xlink:href="#DejaVuSans-74" transform="translate(124.560547 0)"/>
     <use xlink:href="#DejaVuSans-70" transform="translate(163.769531 0)"/>
     <use xlink:href="#DejaVuSans-75" transform="translate(227.246094 0)"/>
     <use xlink:href="#DejaVuSans-74" transform="translate(290.625 0)"/>
    </g>
   </g>
   <g id="text_3">
    <!-- Referee-oriented -->
    <g style="fill: #2b2d42" transform="translate(222.074946 101.817207) scale(0.09 -0.09)">
     <defs>
      <path id="DejaVuSans-52" d="M 2841 2188
Q 3044 2119 3236 1894
Q 3428 1669 3622 1275
L 4263 0
L 3584 0
L 2988 1197
Q 2756 1666 2539 1819
Q 2322 1972 1947 1972
L 1259 1972
L 1259 0
L 628 0
L 628 4666
L 2053 4666
Q 2853 4666 3247 4331
Q 3641 3997 3641 3322
Q 3641 2881 3436 2590
Q 3231 2300 2841 2188
z
M 1259 4147
L 1259 2491
L 2053 2491
Q 2509 2491 2742 2702
Q 2975 2913 2975 3322
Q 2975 3731 2742 3939
Q 2509 4147 2053 4147
L 1259 4147
z
" transform="scale(0.015625)"/>
      <path id="DejaVuSans-2d" d="M 313 2009
L 1997 2009
L 1997 1497
L 313 1497
L 313 2009
z
" transform="scale(0.015625)"/>
     </defs>
     <use xlink:href="#DejaVuSans-52"/>
     <use xlink:href="#DejaVuSans-65" transform="translate(64.982422 0)"/>
     <use xlink:href="#DejaVuSans-66" transform="translate(126.505859 0)"/>
     <use xlink:href="#DejaVuSans-65" transform="translate(161.710938 0)"/>
     <use xlink:href="#DejaVuSans-72" transform="translate(223.234375 0)"/>
     <use xlink:href="#DejaVuSans-65" transform="translate(262.097656 0)"/>
     <use xlink:href="#DejaVuSans-65" transform="translate(323.621094 0)"/>
     <use xlink:href="#DejaVuSans-2d" transform="translate(385.144531 0)"/>
     <use xlink:href="#DejaVuSans-6f" transform="translate(423.103516 0)"/>
     <use xlink:href="#DejaVuSans-72" transform="translate(484.285156 0)"/>
     <use xlink:href="#DejaVuSans-69" transform="translate(525.398438 0)"/>
     <use xlink:href="#DejaVuSans-65" transform="translate(553.181641 0)"/>
     <use xlink:href="#DejaVuSans-6e" transform="translate(614.705078 0)"/>
     <use xlink:href="#DejaVuSans-74" transform="translate(678.083984 0)"/>
     <use xlink:href="#DejaVuSans-65" transform="translate(717.292969 0)"/>
     <use xlink:href="#DejaVuSans-64" transform="translate(778.816406 0)"/>
    </g>
    <!-- alerts (INFO…STOP_REC.) -->
    <g style="fill: #2b2d42" transform="translate(202.324868 111.895238) scale(0.09 -0.09)">
     <defs>
      <path id="DejaVuSans-28" d="M 1984 4856
Q 1566 4138 1362 3434
Q 1159 2731 1159 2009
Q 1159 1288 1364 580
Q 1569 -128 1984 -844
L 1484 -844
Q 1016 -109 783 600
Q 550 1309 550 2009
Q 550 2706 781 3412
Q 1013 4119 1484 4856
L 1984 4856
z
" transform="scale(0.015625)"/>
      <path id="DejaVuSans-49" d="M 628 4666
L 1259 4666
L 1259 0
L 628 0
L 628 4666
z
" transform="scale(0.015625)"/>
      <path id="DejaVuSans-4e" d="M 628 4666
L 1478 4666
L 3547 763
L 3547 4666
L 4159 4666
L 4159 0
L 3309 0
L 1241 3903
L 1241 0
L 628 0
L 628 4666
z
" transform="scale(0.015625)"/>
      <path id="DejaVuSans-46" d="M 628 4666
L 3309 4666
L 3309 4134
L 1259 4134
L 1259 2759
L 3109 2759
L 3109 2228
L 1259 2228
L 1259 0
L 628 0
L 628 4666
z
" transform="scale(0.015625)"/>
      <path id="DejaVuSans-4f" d="M 2522 4238
Q 1834 4238 1429 3725
Q 1025 3213 1025 2328
Q 1025 1447 1429 934
Q 1834 422 2522 422
Q 3209 422 3611 934
Q 4013 1447 4013 2328
Q 4013 3213 3611 3725
Q 3209 4238 2522 4238
z
M 2522 4750
Q 3503 4750 4090 4092
Q 4678 3434 4678 2328
Q 4678 1225 4090 567
Q 3503 -91 2522 -91
Q 1538 -91 948 565
Q 359 1222 359 2328
Q 359 3434 948 4092
Q 1538 4750 2522 4750
z
" transform="scale(0.015625)"/>
      <path id="DejaVuSans-2026" d="M 2869 794
L 3531 794
L 3531 0
L 2869 0
L 2869 794
z
M 4997 794
L 5663 794
L 5663 0
L 4997 0
L 4997 794
z
M 738 794
L 1403 794
L 1403 0
L 738 0
L 738 794
z
" transform="scale(0.015625)"/>
      <path id="DejaVuSans-53" d="M 3425 4513
L 3425 3897
Q 3066 4069 2747 4153
Q 2428 4238 2131 4238
Q 1616 4238 1336 4038
Q 1056 3838 1056 3469
Q 1056 3159 1242 3001
Q 1428 2844 1947 2747
L 2328 2669
Q 3034 2534 3370 2195
Q 3706 1856 3706 1288
Q 3706 609 3251 259
Q 2797 -91 1919 -91
Q 1588 -91 1214 -16
Q 841 59 441 206
L 441 856
Q 825 641 1194 531
Q 1563 422 1919 422
Q 2459 422 2753 634
Q 3047 847 3047 1241
Q 3047 1584 2836 1778
Q 2625 1972 2144 2069
L 1759 2144
Q 1053 2284 737 2584
Q 422 2884 422 3419
Q 422 4038 858 4394
Q 1294 4750 2059 4750
Q 2388 4750 2728 4690
Q 3069 4631 3425 4513
z
" transform="scale(0.015625)"/>
      <path id="DejaVuSans-54" d="M -19 4666
L 3928 4666
L 3928 4134
L 2272 4134
L 2272 0
L 1638 0
L 1638 4134
L -19 4134
L -19 4666
z
" transform="scale(0.015625)"/>
      <path id="DejaVuSans-50" d="M 1259 4147
L 1259 2394
L 2053 2394
Q 2494 2394 2734 2622
Q 2975 2850 2975 3272
Q 2975 3691 2734 3919
Q 2494 4147 2053 4147
L 1259 4147
z
M 628 4666
L 2053 4666
Q 2838 4666 3239 4311
Q 3641 3956 3641 3272
Q 3641 2581 3239 2228
Q 2838 1875 2053 1875
L 1259 1875
L 1259 0
L 628 0
L 628 4666
z
" transform="scale(0.015625)"/>
      <path id="DejaVuSans-5f" d="M 3263 -1063
L 3263 -1509
L -63 -1509
L -63 -1063
L 3263 -1063
z
" transform="scale(0.015625)"/>
      <path id="DejaVuSans-45" d="M 628 4666
L 3578 4666
L 3578 4134
L 1259 4134
L 1259 2753
L 3481 2753
L 3481 2222
L 1259 2222
L 1259 531
L 3634 531
L 3634 0
L 628 0
L 628 4666
z
" transform="scale(0.015625)"/>
      <path id="DejaVuSans-43" d="M 4122 4306
L 4122 3641
Q 3803 3938 3442 4084
Q 3081 4231 2675 4231
Q 1875 4231 1450 3742
Q 1025 3253 1025 2328
Q 1025 1406 1450 917
Q 1875 428 2675 428
Q 3081 428 3442 575
Q 3803 722 4122 1019
L 4122 359
Q 3791 134 3420 21
Q 3050 -91 2638 -91
Q 1578 -91 968 557
Q 359 1206 359 2328
Q 359 3453 968 4101
Q 1578 4750 2638 4750
Q 3056 4750 3426 4639
Q 3797 4528 4122 4306
z
" transform="scale(0.015625)"/>
      <path id="DejaVuSans-2e" d="M 684 794
L 1344 794
L 1344 0
L 684 0
L 684 794
z
" transform="scale(0.015625)"/>
      <path id="DejaVuSans-29" d="M 513 4856
L 1013 4856
Q 1481 4119 1714 3412
Q 1947 2706 1947 2009
Q 1947 1309 1714 600
Q 1481 -109 1013 -844
L 513 -844
Q 928 -128 1133 580
Q 1338 1288 1338 2009
Q 1338 2731 1133 3434
Q 928 4138 513 4856
z
" transform="scale(0.015625)"/>
     </defs>
     <use xlink:href="#DejaVuSans-61"/>
     <use xlink:href="#DejaVuSans-6c" transform="translate(61.279297 0)"/>
     <use xlink:href="#DejaVuSans-65" transform="translate(89.0625 0)"/>
     <use xlink:href="#DejaVuSans-72" transform="translate(150.585938 0)"/>
     <use xlink:href="#DejaVuSans-74" transform="translate(191.699219 0)"/>
     <use xlink:href="#DejaVuSans-73" transform="translate(230.908203 0)"/>
     <use xlink:href="#DejaVuSans-20" transform="translate(283.007812 0)"/>
     <use xlink:href="#DejaVuSans-28" transform="translate(314.794922 0)"/>
     <use xlink:href="#DejaVuSans-49" transform="translate(353.808594 0)"/>
     <use xlink:href="#DejaVuSans-4e" transform="translate(383.300781 0)"/>
     <use xlink:href="#DejaVuSans-46" transform="translate(458.105469 0)"/>
     <use xlink:href="#DejaVuSans-4f" transform="translate(515.625 0)"/>
     <use xlink:href="#DejaVuSans-2026" transform="translate(594.335938 0)"/>
     <use xlink:href="#DejaVuSans-53" transform="translate(694.335938 0)"/>
     <use xlink:href="#DejaVuSans-54" transform="translate(757.8125 0)"/>
     <use xlink:href="#DejaVuSans-4f" transform="translate(818.896484 0)"/>
     <use xlink:href="#DejaVuSans-50" transform="translate(897.607422 0)"/>
     <use xlink:href="#DejaVuSans-5f" transform="translate(957.910156 0)"/>
     <use xlink:href="#DejaVuSans-52" transform="translate(1007.910156 0)"/>
     <use xlink:href="#DejaVuSans-45" transform="translate(1077.392578 0)"/>
     <use xlink:href="#DejaVuSans-43" transform="translate(1140.576172 0)"/>
     <use xlink:href="#DejaVuSans-2e" transform="translate(1210.400391 0)"/>
     <use xlink:href="#DejaVuSans-29" transform="translate(1242.1875 0)"/>
    </g>
   </g>
   <g id="text_4">
    <!-- Human referee / -->
    <g style="fill: #2b2d42" transform="translate(369.577952 105.570422) scale(0.09 -0.09)">
     <defs>
      <path id="DejaVuSans-48" d="M 628 4666
L 1259 4666
L 1259 2753
L 3553 2753
L 3553 4666
L 4184 4666
L 4184 0
L 3553 0
L 3553 2222
L 1259 2222
L 1259 0
L 628 0
L 628 4666
z
" transform="scale(0.015625)"/>
      <path id="DejaVuSans-2f" d="M 1625 4666
L 2156 4666
L 531 -594
L 0 -594
L 1625 4666
z
" transform="scale(0.015625)"/>
     </defs>
     <use xlink:href="#DejaVuSans-48"/>
     <use xlink:href="#DejaVuSans-75" transform="translate(75.195312 0)"/>
     <use xlink:href="#DejaVuSans-6d" transform="translate(138.574219 0)"/>
     <use xlink:href="#DejaVuSans-61" transform="translate(235.986328 0)"/>
     <use xlink:href="#DejaVuSans-6e" transform="translate(297.265625 0)"/>
     <use xlink:href="#DejaVuSans-20" transform="translate(360.644531 0)"/>
     <use xlink:href="#DejaVuSans-72" transform="translate(392.431641 0)"/>
     <use xlink:href="#DejaVuSans-65" transform="translate(431.294922 0)"/>
     <use xlink:href="#DejaVuSans-66" transform="translate(492.818359 0)"/>
     <use xlink:href="#DejaVuSans-65" transform="translate(528.023438 0)"/>
     <use xlink:href="#DejaVuSans-72" transform="translate(589.546875 0)"/>
     <use xlink:href="#DejaVuSans-65" transform="translate(628.410156 0)"/>
     <use xlink:href="#DejaVuSans-65" transform="translate(689.933594 0)"/>
     <use xlink:href="#DejaVuSans-20" transform="translate(751.457031 0)"/>
     <use xlink:href="#DejaVuSans-2f" transform="translate(783.244141 0)"/>
    </g>
    <!-- safety review -->
    <g style="fill: #2b2d42" transform="translate(376.147249 115.648453) scale(0.09 -0.09)">
     <defs>
      <path id="DejaVuSans-76" d="M 191 3500
L 800 3500
L 1894 563
L 2988 3500
L 3597 3500
L 2284 0
L 1503 0
L 191 3500
z
" transform="scale(0.015625)"/>
      <path id="DejaVuSans-77" d="M 269 3500
L 844 3500
L 1563 769
L 2278 3500
L 2956 3500
L 3675 769
L 4391 3500
L 4966 3500
L 4050 0
L 3372 0
L 2619 2869
L 1863 0
L 1184 0
L 269 3500
z
" transform="scale(0.015625)"/>
     </defs>
     <use xlink:href="#DejaVuSans-73"/>
     <use xlink:href="#DejaVuSans-61" transform="translate(52.099609 0)"/>
     <use xlink:href="#DejaVuSans-66" transform="translate(113.378906 0)"/>
     <use xlink:href="#DejaVuSans-65" transform="translate(148.583984 0)"/>
     <use xlink:href="#DejaVuSans-74" transform="translate(210.107422 0)"/>
     <use xlink:href="#DejaVuSans-79" transform="translate(249.316406 0)"/>
     <use xlink:href="#DejaVuSans-20" transform="translate(308.496094 0)"/>
     <use xlink:href="#DejaVuSans-72" transform="translate(340.283203 0)"/>
     <use xlink:href="#DejaVuSans-65" transform="translate(379.146484 0)"/>
     <use xlink:href="#DejaVuSans-76" transform="translate(440.669922 0)"/>
     <use xlink:href="#DejaVuSans-69" transform="translate(499.849609 0)"/>
     <use xlink:href="#DejaVuSans-65" transform="translate(527.632812 0)"/>
     <use xlink:href="#DejaVuSans-77" transform="translate(589.15625 0)"/>
    </g>
   </g>
   <g id="text_5">
    <!-- Not medical diagnosis. Not an autonomous stoppage command. -->
    <g style="fill: #6b3a3a" transform="translate(7.2 194.403864) scale(0.092 -0.092)">
     <defs>
      <path id="DejaVuSans-Bold-4e" d="M 588 4666
L 1931 4666
L 3628 1466
L 3628 4666
L 4769 4666
L 4769 0
L 3425 0
L 1728 3200
L 1728 0
L 588 0
L 588 4666
z
" transform="scale(0.015625)"/>
      <path id="DejaVuSans-Bold-6f" d="M 2203 2784
Q 1831 2784 1636 2517
Q 1441 2250 1441 1747
Q 1441 1244 1636 976
Q 1831 709 2203 709
Q 2569 709 2762 976
Q 2956 1244 2956 1747
Q 2956 2250 2762 2517
Q 2569 2784 2203 2784
z
M 2203 3584
Q 3106 3584 3614 3096
Q 4122 2609 4122 1747
Q 4122 884 3614 396
Q 3106 -91 2203 -91
Q 1297 -91 786 396
Q 275 884 275 1747
Q 275 2609 786 3096
Q 1297 3584 2203 3584
z
" transform="scale(0.015625)"/>
      <path id="DejaVuSans-Bold-74" d="M 1759 4494
L 1759 3500
L 2913 3500
L 2913 2700
L 1759 2700
L 1759 1216
Q 1759 972 1856 886
Q 1953 800 2241 800
L 2816 800
L 2816 0
L 1856 0
Q 1194 0 917 276
Q 641 553 641 1216
L 641 2700
L 84 2700
L 84 3500
L 641 3500
L 641 4494
L 1759 4494
z
" transform="scale(0.015625)"/>
      <path id="DejaVuSans-Bold-20" transform="scale(0.015625)"/>
      <path id="DejaVuSans-Bold-6d" d="M 3781 2919
Q 3994 3244 4286 3414
Q 4578 3584 4928 3584
Q 5531 3584 5847 3212
Q 6163 2841 6163 2131
L 6163 0
L 5038 0
L 5038 1825
Q 5041 1866 5042 1909
Q 5044 1953 5044 2034
Q 5044 2406 4934 2573
Q 4825 2741 4581 2741
Q 4263 2741 4089 2478
Q 3916 2216 3909 1719
L 3909 0
L 2784 0
L 2784 1825
Q 2784 2406 2684 2573
Q 2584 2741 2328 2741
Q 2006 2741 1831 2477
Q 1656 2213 1656 1722
L 1656 0
L 531 0
L 531 3500
L 1656 3500
L 1656 2988
Q 1863 3284 2130 3434
Q 2397 3584 2719 3584
Q 3081 3584 3359 3409
Q 3638 3234 3781 2919
z
" transform="scale(0.015625)"/>
      <path id="DejaVuSans-Bold-65" d="M 4031 1759
L 4031 1441
L 1416 1441
Q 1456 1047 1700 850
Q 1944 653 2381 653
Q 2734 653 3104 758
Q 3475 863 3866 1075
L 3866 213
Q 3469 63 3072 -14
Q 2675 -91 2278 -91
Q 1328 -91 801 392
Q 275 875 275 1747
Q 275 2603 792 3093
Q 1309 3584 2216 3584
Q 3041 3584 3536 3087
Q 4031 2591 4031 1759
z
M 2881 2131
Q 2881 2450 2695 2645
Q 2509 2841 2209 2841
Q 1884 2841 1681 2658
Q 1478 2475 1428 2131
L 2881 2131
z
" transform="scale(0.015625)"/>
      <path id="DejaVuSans-Bold-64" d="M 2919 2988
L 2919 4863
L 4044 4863
L 4044 0
L 2919 0
L 2919 506
Q 2688 197 2409 53
Q 2131 -91 1766 -91
Q 1119 -91 703 423
Q 288 938 288 1747
Q 288 2556 703 3070
Q 1119 3584 1766 3584
Q 2128 3584 2408 3439
Q 2688 3294 2919 2988
z
M 2181 722
Q 2541 722 2730 984
Q 2919 1247 2919 1747
Q 2919 2247 2730 2509
Q 2541 2772 2181 2772
Q 1825 2772 1636 2509
Q 1447 2247 1447 1747
Q 1447 1247 1636 984
Q 1825 722 2181 722
z
" transform="scale(0.015625)"/>
      <path id="DejaVuSans-Bold-69" d="M 538 3500
L 1656 3500
L 1656 0
L 538 0
L 538 3500
z
M 538 4863
L 1656 4863
L 1656 3950
L 538 3950
L 538 4863
z
" transform="scale(0.015625)"/>
      <path id="DejaVuSans-Bold-63" d="M 3366 3391
L 3366 2478
Q 3138 2634 2908 2709
Q 2678 2784 2431 2784
Q 1963 2784 1702 2511
Q 1441 2238 1441 1747
Q 1441 1256 1702 982
Q 1963 709 2431 709
Q 2694 709 2930 787
Q 3166 866 3366 1019
L 3366 103
Q 3103 6 2833 -42
Q 2563 -91 2291 -91
Q 1344 -91 809 395
Q 275 881 275 1747
Q 275 2613 809 3098
Q 1344 3584 2291 3584
Q 2566 3584 2833 3536
Q 3100 3488 3366 3391
z
" transform="scale(0.015625)"/>
      <path id="DejaVuSans-Bold-61" d="M 2106 1575
Q 1756 1575 1579 1456
Q 1403 1338 1403 1106
Q 1403 894 1545 773
Q 1688 653 1941 653
Q 2256 653 2472 879
Q 2688 1106 2688 1447
L 2688 1575
L 2106 1575
z
M 3816 1997
L 3816 0
L 2688 0
L 2688 519
Q 2463 200 2181 54
Q 1900 -91 1497 -91
Q 953 -91 614 226
Q 275 544 275 1050
Q 275 1666 698 1953
Q 1122 2241 2028 2241
L 2688 2241
L 2688 2328
Q 2688 2594 2478 2717
Q 2269 2841 1825 2841
Q 1466 2841 1156 2769
Q 847 2697 581 2553
L 581 3406
Q 941 3494 1303 3539
Q 1666 3584 2028 3584
Q 2975 3584 3395 3211
Q 3816 2838 3816 1997
z
" transform="scale(0.015625)"/>
      <path id="DejaVuSans-Bold-6c" d="M 538 4863
L 1656 4863
L 1656 0
L 538 0
L 538 4863
z
" transform="scale(0.015625)"/>
      <path id="DejaVuSans-Bold-67" d="M 2919 594
Q 2688 288 2409 144
Q 2131 0 1766 0
Q 1125 0 706 504
Q 288 1009 288 1791
Q 288 2575 706 3076
Q 1125 3578 1766 3578
Q 2131 3578 2409 3434
Q 2688 3291 2919 2981
L 2919 3500
L 4044 3500
L 4044 353
Q 4044 -491 3511 -936
Q 2978 -1381 1966 -1381
Q 1638 -1381 1331 -1331
Q 1025 -1281 716 -1178
L 716 -306
Q 1009 -475 1290 -558
Q 1572 -641 1856 -641
Q 2406 -641 2662 -400
Q 2919 -159 2919 353
L 2919 594
z
M 2181 2772
Q 1834 2772 1640 2515
Q 1447 2259 1447 1791
Q 1447 1309 1634 1061
Q 1822 813 2181 813
Q 2531 813 2725 1069
Q 2919 1325 2919 1791
Q 2919 2259 2725 2515
Q 2531 2772 2181 2772
z
" transform="scale(0.015625)"/>
      <path id="DejaVuSans-Bold-6e" d="M 4056 2131
L 4056 0
L 2931 0
L 2931 347
L 2931 1631
Q 2931 2084 2911 2256
Q 2891 2428 2841 2509
Q 2775 2619 2662 2680
Q 2550 2741 2406 2741
Q 2056 2741 1856 2470
Q 1656 2200 1656 1722
L 1656 0
L 538 0
L 538 3500
L 1656 3500
L 1656 2988
Q 1909 3294 2193 3439
Q 2478 3584 2822 3584
Q 3428 3584 3742 3212
Q 4056 2841 4056 2131
z
" transform="scale(0.015625)"/>
      <path id="DejaVuSans-Bold-73" d="M 3272 3391
L 3272 2541
Q 2913 2691 2578 2766
Q 2244 2841 1947 2841
Q 1628 2841 1473 2761
Q 1319 2681 1319 2516
Q 1319 2381 1436 2309
Q 1553 2238 1856 2203
L 2053 2175
Q 2913 2066 3209 1816
Q 3506 1566 3506 1031
Q 3506 472 3093 190
Q 2681 -91 1863 -91
Q 1516 -91 1145 -36
Q 775 19 384 128
L 384 978
Q 719 816 1070 734
Q 1422 653 1784 653
Q 2113 653 2278 743
Q 2444 834 2444 1013
Q 2444 1163 2330 1236
Q 2216 1309 1875 1350
L 1678 1375
Q 931 1469 631 1722
Q 331 1975 331 2491
Q 331 3047 712 3315
Q 1094 3584 1881 3584
Q 2191 3584 2531 3537
Q 2872 3491 3272 3391
z
" transform="scale(0.015625)"/>
      <path id="DejaVuSans-Bold-2e" d="M 653 1209
L 1778 1209
L 1778 0
L 653 0
L 653 1209
z
" transform="scale(0.015625)"/>
      <path id="DejaVuSans-Bold-75" d="M 500 1363
L 500 3500
L 1625 3500
L 1625 3150
Q 1625 2866 1622 2436
Q 1619 2006 1619 1863
Q 1619 1441 1641 1255
Q 1663 1069 1716 984
Q 1784 875 1895 815
Q 2006 756 2150 756
Q 2500 756 2700 1025
Q 2900 1294 2900 1772
L 2900 3500
L 4019 3500
L 4019 0
L 2900 0
L 2900 506
Q 2647 200 2364 54
Q 2081 -91 1741 -91
Q 1134 -91 817 281
Q 500 653 500 1363
z
" transform="scale(0.015625)"/>
      <path id="DejaVuSans-Bold-70" d="M 1656 506
L 1656 -1331
L 538 -1331
L 538 3500
L 1656 3500
L 1656 2988
Q 1888 3294 2169 3439
Q 2450 3584 2816 3584
Q 3463 3584 3878 3070
Q 4294 2556 4294 1747
Q 4294 938 3878 423
Q 3463 -91 2816 -91
Q 2450 -91 2169 54
Q 1888 200 1656 506
z
M 2400 2772
Q 2041 2772 1848 2508
Q 1656 2244 1656 1747
Q 1656 1250 1848 986
Q 2041 722 2400 722
Q 2759 722 2948 984
Q 3138 1247 3138 1747
Q 3138 2247 2948 2509
Q 2759 2772 2400 2772
z
" transform="scale(0.015625)"/>
     </defs>
     <use xlink:href="#DejaVuSans-Bold-4e"/>
     <use xlink:href="#DejaVuSans-Bold-6f" transform="translate(83.691406 0)"/>
     <use xlink:href="#DejaVuSans-Bold-74" transform="translate(152.392578 0)"/>
     <use xlink:href="#DejaVuSans-Bold-20" transform="translate(200.195312 0)"/>
     <use xlink:href="#DejaVuSans-Bold-6d" transform="translate(235.009766 0)"/>
     <use xlink:href="#DejaVuSans-Bold-65" transform="translate(339.208984 0)"/>
     <use xlink:href="#DejaVuSans-Bold-64" transform="translate(407.03125 0)"/>
     <use xlink:href="#DejaVuSans-Bold-69" transform="translate(478.613281 0)"/>
     <use xlink:href="#DejaVuSans-Bold-63" transform="translate(512.890625 0)"/>
     <use xlink:href="#DejaVuSans-Bold-61" transform="translate(572.167969 0)"/>
     <use xlink:href="#DejaVuSans-Bold-6c" transform="translate(639.648438 0)"/>
     <use xlink:href="#DejaVuSans-Bold-20" transform="translate(673.925781 0)"/>
     <use xlink:href="#DejaVuSans-Bold-64" transform="translate(708.740234 0)"/>
     <use xlink:href="#DejaVuSans-Bold-69" transform="translate(780.322266 0)"/>
     <use xlink:href="#DejaVuSans-Bold-61" transform="translate(814.599609 0)"/>
     <use xlink:href="#DejaVuSans-Bold-67" transform="translate(882.080078 0)"/>
     <use xlink:href="#DejaVuSans-Bold-6e" transform="translate(953.662109 0)"/>
     <use xlink:href="#DejaVuSans-Bold-6f" transform="translate(1024.853516 0)"/>
     <use xlink:href="#DejaVuSans-Bold-73" transform="translate(1093.554688 0)"/>
     <use xlink:href="#DejaVuSans-Bold-69" transform="translate(1153.076172 0)"/>
     <use xlink:href="#DejaVuSans-Bold-73" transform="translate(1187.353516 0)"/>
     <use xlink:href="#DejaVuSans-Bold-2e" transform="translate(1246.875 0)"/>
     <use xlink:href="#DejaVuSans-Bold-20" transform="translate(1284.863281 0)"/>
     <use xlink:href="#DejaVuSans-Bold-4e" transform="translate(1319.677734 0)"/>
     <use xlink:href="#DejaVuSans-Bold-6f" transform="translate(1403.369141 0)"/>
     <use xlink:href="#DejaVuSans-Bold-74" transform="translate(1472.070312 0)"/>
     <use xlink:href="#DejaVuSans-Bold-20" transform="translate(1519.873047 0)"/>
     <use xlink:href="#DejaVuSans-Bold-61" transform="translate(1554.6875 0)"/>
     <use xlink:href="#DejaVuSans-Bold-6e" transform="translate(1622.167969 0)"/>
     <use xlink:href="#DejaVuSans-Bold-20" transform="translate(1693.359375 0)"/>
     <use xlink:href="#DejaVuSans-Bold-61" transform="translate(1728.173828 0)"/>
     <use xlink:href="#DejaVuSans-Bold-75" transform="translate(1795.654297 0)"/>
     <use xlink:href="#DejaVuSans-Bold-74" transform="translate(1866.845703 0)"/>
     <use xlink:href="#DejaVuSans-Bold-6f" transform="translate(1914.648438 0)"/>
     <use xlink:href="#DejaVuSans-Bold-6e" transform="translate(1983.349609 0)"/>
     <use xlink:href="#DejaVuSans-Bold-6f" transform="translate(2054.541016 0)"/>
     <use xlink:href="#DejaVuSans-Bold-6d" transform="translate(2123.242188 0)"/>
     <use xlink:href="#DejaVuSans-Bold-6f" transform="translate(2227.441406 0)"/>
     <use xlink:href="#DejaVuSans-Bold-75" transform="translate(2296.142578 0)"/>
     <use xlink:href="#DejaVuSans-Bold-73" transform="translate(2367.333984 0)"/>
     <use xlink:href="#DejaVuSans-Bold-20" transform="translate(2426.855469 0)"/>
     <use xlink:href="#DejaVuSans-Bold-73" transform="translate(2461.669922 0)"/>
     <use xlink:href="#DejaVuSans-Bold-74" transform="translate(2521.191406 0)"/>
     <use xlink:href="#DejaVuSans-Bold-6f" transform="translate(2568.994141 0)"/>
     <use xlink:href="#DejaVuSans-Bold-70" transform="translate(2637.695312 0)"/>
     <use xlink:href="#DejaVuSans-Bold-70" transform="translate(2709.277344 0)"/>
     <use xlink:href="#DejaVuSans-Bold-61" transform="translate(2780.859375 0)"/>
     <use xlink:href="#DejaVuSans-Bold-67" transform="translate(2848.339844 0)"/>
     <use xlink:href="#DejaVuSans-Bold-65" transform="translate(2919.921875 0)"/>
     <use xlink:href="#DejaVuSans-Bold-20" transform="translate(2987.744141 0)"/>
     <use xlink:href="#DejaVuSans-Bold-63" transform="translate(3022.558594 0)"/>
     <use xlink:href="#DejaVuSans-Bold-6f" transform="translate(3081.835938 0)"/>
     <use xlink:href="#DejaVuSans-Bold-6d" transform="translate(3150.537109 0)"/>
     <use xlink:href="#DejaVuSans-Bold-6d" transform="translate(3254.736328 0)"/>
     <use xlink:href="#DejaVuSans-Bold-61" transform="translate(3358.935547 0)"/>
     <use xlink:href="#DejaVuSans-Bold-6e" transform="translate(3426.416016 0)"/>
     <use xlink:href="#DejaVuSans-Bold-64" transform="translate(3497.607422 0)"/>
     <use xlink:href="#DejaVuSans-Bold-2e" transform="translate(3569.189453 0)"/>
    </g>
   </g>
   <g id="text_6">
    <!-- Dotted boundary: the system may highlight time spans and cues; the official applies rules and judgment. -->
    <g style="fill: #2b2d42; opacity: 0.8" transform="translate(77.315961 214.988824) scale(0.085 -0.085)">
     <defs>
      <path id="DejaVuSans-Oblique-44" d="M 1081 4666
L 2438 4666
Q 3519 4666 4070 4208
Q 4622 3750 4622 2847
Q 4622 2250 4412 1698
Q 4203 1147 3834 769
Q 3463 381 2891 190
Q 2319 0 1538 0
L 172 0
L 1081 4666
z
M 1613 4147
L 909 519
L 1734 519
Q 2794 519 3375 1128
Q 3956 1738 3956 2847
Q 3956 3519 3581 3833
Q 3206 4147 2406 4147
L 1613 4147
z
" transform="scale(0.015625)"/>
      <path id="DejaVuSans-Oblique-6f" d="M 1625 -91
Q 1009 -91 651 289
Q 294 669 294 1325
Q 294 1706 417 2101
Q 541 2497 738 2766
Q 1047 3184 1428 3384
Q 1809 3584 2291 3584
Q 2888 3584 3255 3212
Q 3622 2841 3622 2241
Q 3622 1825 3500 1412
Q 3378 1000 3181 728
Q 2875 309 2494 109
Q 2113 -91 1625 -91
z
M 891 1344
Q 891 869 1089 633
Q 1288 397 1691 397
Q 2269 397 2648 901
Q 3028 1406 3028 2181
Q 3028 2634 2825 2865
Q 2622 3097 2228 3097
Q 1903 3097 1650 2945
Q 1397 2794 1197 2484
Q 1050 2253 970 1956
Q 891 1659 891 1344
z
" transform="scale(0.015625)"/>
      <path id="DejaVuSans-Oblique-74" d="M 2706 3500
L 2619 3053
L 1472 3053
L 1100 1153
Q 1081 1047 1072 975
Q 1063 903 1063 863
Q 1063 663 1183 572
Q 1303 481 1569 481
L 2150 481
L 2053 0
L 1503 0
Q 991 0 739 200
Q 488 400 488 806
Q 488 878 497 964
Q 506 1050 525 1153
L 897 3053
L 409 3053
L 500 3500
L 978 3500
L 1172 4494
L 1747 4494
L 1556 3500
L 2706 3500
z
" transform="scale(0.015625)"/>
      <path id="DejaVuSans-Oblique-65" d="M 3078 2063
Q 3088 2113 3092 2166
Q 3097 2219 3097 2272
Q 3097 2653 2873 2875
Q 2650 3097 2266 3097
Q 1838 3097 1509 2826
Q 1181 2556 1013 2059
L 3078 2063
z
M 3578 1613
L 903 1613
Q 884 1494 878 1425
Q 872 1356 872 1306
Q 872 872 1139 634
Q 1406 397 1894 397
Q 2269 397 2603 481
Q 2938 566 3225 728
L 3116 159
Q 2806 34 2476 -28
Q 2147 -91 1806 -91
Q 1078 -91 686 257
Q 294 606 294 1247
Q 294 1794 489 2264
Q 684 2734 1063 3103
Q 1306 3334 1642 3459
Q 1978 3584 2356 3584
Q 2950 3584 3301 3228
Q 3653 2872 3653 2272
Q 3653 2128 3634 1964
Q 3616 1800 3578 1613
z
" transform="scale(0.015625)"/>
      <path id="DejaVuSans-Oblique-64" d="M 2675 525
Q 2444 222 2128 65
Q 1813 -91 1428 -91
Q 903 -91 598 267
Q 294 625 294 1247
Q 294 1766 478 2236
Q 663 2706 1013 3078
Q 1244 3325 1534 3454
Q 1825 3584 2144 3584
Q 2481 3584 2739 3421
Q 2997 3259 3138 2956
L 3513 4863
L 4091 4863
L 3144 0
L 2566 0
L 2675 525
z
M 891 1350
Q 891 897 1095 644
Q 1300 391 1663 391
Q 1931 391 2161 520
Q 2391 650 2566 903
Q 2750 1166 2856 1509
Q 2963 1853 2963 2188
Q 2963 2622 2758 2865
Q 2553 3109 2194 3109
Q 1922 3109 1687 2981
Q 1453 2853 1288 2613
Q 1106 2353 998 2009
Q 891 1666 891 1350
z
" transform="scale(0.015625)"/>
      <path id="DejaVuSans-Oblique-20" transform="scale(0.015625)"/>
      <path id="DejaVuSans-Oblique-62" d="M 3169 2138
Q 3169 2591 2961 2847
Q 2753 3103 2388 3103
Q 2122 3103 1889 2973
Q 1656 2844 1484 2597
Q 1303 2338 1198 1995
Q 1094 1653 1094 1313
Q 1094 881 1298 636
Q 1503 391 1863 391
Q 2134 391 2365 517
Q 2597 644 2772 891
Q 2950 1147 3059 1487
Q 3169 1828 3169 2138
z
M 1381 2969
Q 1594 3256 1914 3420
Q 2234 3584 2584 3584
Q 3122 3584 3439 3221
Q 3756 2859 3756 2241
Q 3756 1734 3570 1259
Q 3384 784 3041 416
Q 2816 172 2522 40
Q 2228 -91 1906 -91
Q 1566 -91 1316 65
Q 1066 222 909 531
L 806 0
L 231 0
L 1178 4863
L 1753 4863
L 1381 2969
z
" transform="scale(0.015625)"/>
      <path id="DejaVuSans-Oblique-75" d="M 428 1388
L 838 3500
L 1416 3500
L 1006 1409
Q 975 1256 961 1147
Q 947 1038 947 966
Q 947 700 1109 554
Q 1272 409 1569 409
Q 2031 409 2368 721
Q 2706 1034 2809 1563
L 3194 3500
L 3769 3500
L 3091 0
L 2516 0
L 2631 550
Q 2388 244 2052 76
Q 1716 -91 1338 -91
Q 878 -91 622 161
Q 366 413 366 863
Q 366 956 381 1097
Q 397 1238 428 1388
z
" transform="scale(0.015625)"/>
      <path id="DejaVuSans-Oblique-6e" d="M 3566 2113
L 3156 0
L 2578 0
L 2988 2091
Q 3016 2238 3031 2350
Q 3047 2463 3047 2528
Q 3047 2791 2881 2937
Q 2716 3084 2419 3084
Q 1956 3084 1622 2776
Q 1288 2469 1184 1941
L 800 0
L 225 0
L 903 3500
L 1478 3500
L 1363 2950
Q 1603 3253 1940 3418
Q 2278 3584 2650 3584
Q 3113 3584 3367 3334
Q 3622 3084 3622 2631
Q 3622 2519 3608 2391
Q 3594 2263 3566 2113
z
" transform="scale(0.015625)"/>
      <path id="DejaVuSans-Oblique-61" d="M 3438 1997
L 3047 0
L 2472 0
L 2578 531
Q 2325 219 2001 64
Q 1678 -91 1281 -91
Q 834 -91 548 182
Q 263 456 263 884
Q 263 1497 752 1853
Q 1241 2209 2100 2209
L 2900 2209
L 2931 2363
Q 2938 2388 2941 2417
Q 2944 2447 2944 2509
Q 2944 2788 2717 2942
Q 2491 3097 2081 3097
Q 1800 3097 1504 3025
Q 1209 2953 897 2809
L 997 3341
Q 1322 3463 1633 3523
Q 1944 3584 2234 3584
Q 2853 3584 3176 3315
Q 3500 3047 3500 2534
Q 3500 2431 3484 2292
Q 3469 2153 3438 1997
z
M 2816 1759
L 2241 1759
Q 1534 1759 1195 1570
Q 856 1381 856 984
Q 856 709 1029 553
Q 1203 397 1509 397
Q 1978 397 2328 733
Q 2678 1069 2791 1631
L 2816 1759
z
" transform="scale(0.015625)"/>
      <path id="DejaVuSans-Oblique-72" d="M 2853 2969
Q 2766 3016 2653 3041
Q 2541 3066 2413 3066
Q 1953 3066 1609 2717
Q 1266 2369 1153 1784
L 800 0
L 225 0
L 909 3500
L 1484 3500
L 1375 2956
Q 1603 3259 1920 3421
Q 2238 3584 2597 3584
Q 2691 3584 2781 3573
Q 2872 3563 2963 3538
L 2853 2969
z
" transform="scale(0.015625)"/>
      <path id="DejaVuSans-Oblique-79" d="M 1588 -325
Q 1188 -997 936 -1164
Q 684 -1331 294 -1331
L -159 -1331
L -63 -850
L 269 -850
Q 509 -850 678 -719
Q 847 -588 1056 -206
L 1234 128
L 459 3500
L 1069 3500
L 1650 819
L 3256 3500
L 3859 3500
L 1588 -325
z
" transform="scale(0.015625)"/>
      <path id="DejaVuSans-Oblique-3a" d="M 978 3309
L 1638 3309
L 1484 2516
L 825 2516
L 978 3309
z
M 488 794
L 1147 794
L 991 0
L 331 0
L 488 794
z
" transform="scale(0.015625)"/>
      <path id="DejaVuSans-Oblique-68" d="M 3566 2113
L 3156 0
L 2578 0
L 2988 2091
Q 3016 2238 3031 2350
Q 3047 2463 3047 2528
Q 3047 2791 2881 2937
Q 2716 3084 2419 3084
Q 1956 3084 1617 2771
Q 1278 2459 1178 1941
L 800 0
L 225 0
L 1172 4863
L 1747 4863
L 1375 2950
Q 1594 3244 1934 3414
Q 2275 3584 2650 3584
Q 3113 3584 3367 3334
Q 3622 3084 3622 2631
Q 3622 2519 3608 2391
Q 3594 2263 3566 2113
z
" transform="scale(0.015625)"/>
      <path id="DejaVuSans-Oblique-73" d="M 3200 3397
L 3091 2853
Q 2863 2978 2609 3040
Q 2356 3103 2088 3103
Q 1634 3103 1373 2948
Q 1113 2794 1113 2528
Q 1113 2219 1719 2053
Q 1766 2041 1788 2034
L 1972 1978
Q 2547 1819 2739 1644
Q 2931 1469 2931 1166
Q 2931 609 2489 259
Q 2047 -91 1331 -91
Q 1053 -91 747 -37
Q 441 16 72 128
L 184 722
Q 500 559 806 475
Q 1113 391 1394 391
Q 1816 391 2080 572
Q 2344 753 2344 1031
Q 2344 1331 1650 1516
L 1591 1531
L 1394 1581
Q 956 1697 753 1886
Q 550 2075 550 2369
Q 550 2928 970 3256
Q 1391 3584 2113 3584
Q 2397 3584 2667 3537
Q 2938 3491 3200 3397
z
" transform="scale(0.015625)"/>
      <path id="DejaVuSans-Oblique-6d" d="M 5747 2113
L 5338 0
L 4763 0
L 5166 2094
Q 5191 2228 5203 2325
Q 5216 2422 5216 2491
Q 5216 2772 5059 2928
Q 4903 3084 4622 3084
Q 4203 3084 3875 2770
Q 3547 2456 3450 1953
L 3066 0
L 2491 0
L 2900 2094
Q 2925 2209 2937 2307
Q 2950 2406 2950 2484
Q 2950 2769 2794 2926
Q 2638 3084 2363 3084
Q 1938 3084 1609 2770
Q 1281 2456 1184 1953
L 800 0
L 225 0
L 909 3500
L 1484 3500
L 1375 2956
Q 1609 3263 1923 3423
Q 2238 3584 2597 3584
Q 2978 3584 3223 3384
Q 3469 3184 3519 2828
Q 3781 3197 4126 3390
Q 4472 3584 4856 3584
Q 5306 3584 5551 3325
Q 5797 3066 5797 2591
Q 5797 2488 5784 2364
Q 5772 2241 5747 2113
z
" transform="scale(0.015625)"/>
      <path id="DejaVuSans-Oblique-69" d="M 1172 4863
L 1747 4863
L 1606 4134
L 1031 4134
L 1172 4863
z
M 909 3500
L 1484 3500
L 800 0
L 225 0
L 909 3500
z
" transform="scale(0.015625)"/>
      <path id="DejaVuSans-Oblique-67" d="M 3816 3500
L 3219 434
Q 3047 -456 2561 -893
Q 2075 -1331 1253 -1331
Q 950 -1331 690 -1286
Q 431 -1241 206 -1147
L 313 -588
Q 525 -725 762 -790
Q 1000 -856 1269 -856
Q 1816 -856 2167 -557
Q 2519 -259 2631 300
L 2681 563
Q 2441 288 2122 144
Q 1803 0 1434 0
Q 903 0 598 351
Q 294 703 294 1319
Q 294 1803 478 2267
Q 663 2731 997 3091
Q 1219 3328 1514 3456
Q 1809 3584 2131 3584
Q 2484 3584 2746 3420
Q 3009 3256 3138 2956
L 3238 3500
L 3816 3500
z
M 2950 2216
Q 2950 2641 2750 2872
Q 2550 3103 2181 3103
Q 1953 3103 1747 3012
Q 1541 2922 1394 2759
Q 1156 2491 1023 2127
Q 891 1763 891 1375
Q 891 944 1092 712
Q 1294 481 1672 481
Q 2219 481 2584 976
Q 2950 1472 2950 2216
z
" transform="scale(0.015625)"/>
      <path id="DejaVuSans-Oblique-6c" d="M 1172 4863
L 1747 4863
L 800 0
L 225 0
L 1172 4863
z
" transform="scale(0.015625)"/>
      <path id="DejaVuSans-Oblique-70" d="M 3175 2156
Q 3175 2616 2975 2859
Q 2775 3103 2400 3103
Q 2144 3103 1911 2972
Q 1678 2841 1497 2591
Q 1319 2344 1212 1994
Q 1106 1644 1106 1300
Q 1106 863 1306 627
Q 1506 391 1875 391
Q 2147 391 2380 519
Q 2613 647 2778 891
Q 2956 1147 3065 1494
Q 3175 1841 3175 2156
z
M 1394 2969
Q 1625 3272 1939 3428
Q 2253 3584 2638 3584
Q 3175 3584 3472 3232
Q 3769 2881 3769 2247
Q 3769 1728 3584 1258
Q 3400 788 3053 416
Q 2822 169 2531 39
Q 2241 -91 1919 -91
Q 1547 -91 1294 64
Q 1041 219 916 525
L 556 -1331
L -19 -1331
L 922 3500
L 1497 3500
L 1394 2969
z
" transform="scale(0.015625)"/>
      <path id="DejaVuSans-Oblique-63" d="M 3431 3366
L 3316 2797
Q 3109 2947 2876 3022
Q 2644 3097 2394 3097
Q 2119 3097 1870 3000
Q 1622 2903 1453 2725
Q 1184 2453 1037 2087
Q 891 1722 891 1331
Q 891 859 1127 628
Q 1363 397 1844 397
Q 2081 397 2348 469
Q 2616 541 2906 684
L 2797 116
Q 2547 13 2283 -39
Q 2019 -91 1741 -91
Q 1044 -91 669 257
Q 294 606 294 1253
Q 294 1797 489 2255
Q 684 2713 1069 3078
Q 1331 3328 1684 3456
Q 2038 3584 2456 3584
Q 2700 3584 2940 3529
Q 3181 3475 3431 3366
z
" transform="scale(0.015625)"/>
      <path id="DejaVuSans-Oblique-3b" d="M 563 794
L 1222 794
L 1113 256
L 409 -744
L 6 -744
L 453 256
L 563 794
z
M 1050 3309
L 1709 3309
L 1556 2516
L 897 2516
L 1050 3309
z
" transform="scale(0.015625)"/>
      <path id="DejaVuSans-Oblique-66" d="M 3059 4863
L 2969 4384
L 2419 4384
Q 2106 4384 1964 4261
Q 1822 4138 1753 3809
L 1691 3500
L 2638 3500
L 2553 3053
L 1606 3053
L 1013 0
L 434 0
L 1031 3053
L 481 3053
L 563 3500
L 1113 3500
L 1159 3744
Q 1278 4363 1576 4613
Q 1875 4863 2516 4863
L 3059 4863
z
" transform="scale(0.015625)"/>
      <path id="DejaVuSans-Oblique-6a" d="M 928 3500
L 1503 3500
L 813 -63
L 809 -78
Q 694 -675 544 -897
Q 403 -1106 132 -1218
Q -138 -1331 -506 -1331
L -722 -1331
L -628 -844
L -481 -844
Q -144 -844 -1 -703
Q 141 -563 238 -63
L 928 3500
z
M 1197 4863
L 1772 4863
L 1631 4134
L 1056 4134
L 1197 4863
z
" transform="scale(0.015625)"/>
      <path id="DejaVuSans-Oblique-2e" d="M 525 794
L 1184 794
L 1031 0
L 372 0
L 525 794
z
" transform="scale(0.015625)"/>
     </defs>
     <use xlink:href="#DejaVuSans-Oblique-44"/>
     <use xlink:href="#DejaVuSans-Oblique-6f" transform="translate(77.001953 0)"/>
     <use xlink:href="#DejaVuSans-Oblique-74" transform="translate(138.183594 0)"/>
     <use xlink:href="#DejaVuSans-Oblique-74" transform="translate(177.392578 0)"/>
     <use xlink:href="#DejaVuSans-Oblique-65" transform="translate(216.601562 0)"/>
     <use xlink:href="#DejaVuSans-Oblique-64" transform="translate(278.125 0)"/>
     <use xlink:href="#DejaVuSans-Oblique-20" transform="translate(341.601562 0)"/>
     <use xlink:href="#DejaVuSans-Oblique-62" transform="translate(373.388672 0)"/>
     <use xlink:href="#DejaVuSans-Oblique-6f" transform="translate(436.865234 0)"/>
     <use xlink:href="#DejaVuSans-Oblique-75" transform="translate(498.046875 0)"/>
     <use xlink:href="#DejaVuSans-Oblique-6e" transform="translate(561.425781 0)"/>
     <use xlink:href="#DejaVuSans-Oblique-64" transform="translate(624.804688 0)"/>
     <use xlink:href="#DejaVuSans-Oblique-61" transform="translate(688.28125 0)"/>
     <use xlink:href="#DejaVuSans-Oblique-72" transform="translate(749.560547 0)"/>
     <use xlink:href="#DejaVuSans-Oblique-79" transform="translate(790.673828 0)"/>
     <use xlink:href="#DejaVuSans-Oblique-3a" transform="translate(849.853516 0)"/>
     <use xlink:href="#DejaVuSans-Oblique-20" transform="translate(883.544922 0)"/>
     <use xlink:href="#DejaVuSans-Oblique-74" transform="translate(915.332031 0)"/>
     <use xlink:href="#DejaVuSans-Oblique-68" transform="translate(954.541016 0)"/>
     <use xlink:href="#DejaVuSans-Oblique-65" transform="translate(1017.919922 0)"/>
     <use xlink:href="#DejaVuSans-Oblique-20" transform="translate(1079.443359 0)"/>
     <use xlink:href="#DejaVuSans-Oblique-73" transform="translate(1111.230469 0)"/>
     <use xlink:href="#DejaVuSans-Oblique-79" transform="translate(1163.330078 0)"/>
     <use xlink:href="#DejaVuSans-Oblique-73" transform="translate(1222.509766 0)"/>
     <use xlink:href="#DejaVuSans-Oblique-74" transform="translate(1274.609375 0)"/>
     <use xlink:href="#DejaVuSans-Oblique-65" transform="translate(1313.818359 0)"/>
     <use xlink:href="#DejaVuSans-Oblique-6d" transform="translate(1375.341797 0)"/>
     <use xlink:href="#DejaVuSans-Oblique-20" transform="translate(1472.753906 0)"/>
     <use xlink:href="#DejaVuSans-Oblique-6d" transform="translate(1504.541016 0)"/>
     <use xlink:href="#DejaVuSans-Oblique-61" transform="translate(1601.953125 0)"/>
     <use xlink:href="#DejaVuSans-Oblique-79" transform="translate(1663.232422 0)"/>
     <use xlink:href="#DejaVuSans-Oblique-20" transform="translate(1722.412109 0)"/>
     <use xlink:href="#DejaVuSans-Oblique-68" transform="translate(1754.199219 0)"/>
     <use xlink:href="#DejaVuSans-Oblique-69" transform="translate(1817.578125 0)"/>
     <use xlink:href="#DejaVuSans-Oblique-67" transform="translate(1845.361328 0)"/>
     <use xlink:href="#DejaVuSans-Oblique-68" transform="translate(1908.837891 0)"/>
     <use xlink:href="#DejaVuSans-Oblique-6c" transform="translate(1972.216797 0)"/>
     <use xlink:href="#DejaVuSans-Oblique-69" transform="translate(2000 0)"/>
     <use xlink:href="#DejaVuSans-Oblique-67" transform="translate(2027.783203 0)"/>
     <use xlink:href="#DejaVuSans-Oblique-68" transform="translate(2091.259766 0)"/>
     <use xlink:href="#DejaVuSans-Oblique-74" transform="translate(2154.638672 0)"/>
     <use xlink:href="#DejaVuSans-Oblique-20" transform="translate(2193.847656 0)"/>
     <use xlink:href="#DejaVuSans-Oblique-74" transform="translate(2225.634766 0)"/>
     <use xlink:href="#DejaVuSans-Oblique-69" transform="translate(2264.84375 0)"/>
     <use xlink:href="#DejaVuSans-Oblique-6d" transform="translate(2292.626953 0)"/>
     <use xlink:href="#DejaVuSans-Oblique-65" transform="translate(2390.039062 0)"/>
     <use xlink:href="#DejaVuSans-Oblique-20" transform="translate(2451.5625 0)"/>
     <use xlink:href="#DejaVuSans-Oblique-73" transform="translate(2483.349609 0)"/>
     <use xlink:href="#DejaVuSans-Oblique-70" transform="translate(2535.449219 0)"/>
     <use xlink:href="#DejaVuSans-Oblique-61" transform="translate(2598.925781 0)"/>
     <use xlink:href="#DejaVuSans-Oblique-6e" transform="translate(2660.205078 0)"/>
     <use xlink:href="#DejaVuSans-Oblique-73" transform="translate(2723.583984 0)"/>
     <use xlink:href="#DejaVuSans-Oblique-20" transform="translate(2775.683594 0)"/>
     <use xlink:href="#DejaVuSans-Oblique-61" transform="translate(2807.470703 0)"/>
     <use xlink:href="#DejaVuSans-Oblique-6e" transform="translate(2868.75 0)"/>
     <use xlink:href="#DejaVuSans-Oblique-64" transform="translate(2932.128906 0)"/>
     <use xlink:href="#DejaVuSans-Oblique-20" transform="translate(2995.605469 0)"/>
     <use xlink:href="#DejaVuSans-Oblique-63" transform="translate(3027.392578 0)"/>
     <use xlink:href="#DejaVuSans-Oblique-75" transform="translate(3082.373047 0)"/>
     <use xlink:href="#DejaVuSans-Oblique-65" transform="translate(3145.751953 0)"/>
     <use xlink:href="#DejaVuSans-Oblique-73" transform="translate(3207.275391 0)"/>
     <use xlink:href="#DejaVuSans-Oblique-3b" transform="translate(3259.375 0)"/>
     <use xlink:href="#DejaVuSans-Oblique-20" transform="translate(3293.066406 0)"/>
     <use xlink:href="#DejaVuSans-Oblique-74" transform="translate(3324.853516 0)"/>
     <use xlink:href="#DejaVuSans-Oblique-68" transform="translate(3364.0625 0)"/>
     <use xlink:href="#DejaVuSans-Oblique-65" transform="translate(3427.441406 0)"/>
     <use xlink:href="#DejaVuSans-Oblique-20" transform="translate(3488.964844 0)"/>
     <use xlink:href="#DejaVuSans-Oblique-6f" transform="translate(3520.751953 0)"/>
     <use xlink:href="#DejaVuSans-Oblique-66" transform="translate(3581.933594 0)"/>
     <use xlink:href="#DejaVuSans-Oblique-66" transform="translate(3617.138672 0)"/>
     <use xlink:href="#DejaVuSans-Oblique-69" transform="translate(3652.34375 0)"/>
     <use xlink:href="#DejaVuSans-Oblique-63" transform="translate(3680.126953 0)"/>
     <use xlink:href="#DejaVuSans-Oblique-69" transform="translate(3735.107422 0)"/>
     <use xlink:href="#DejaVuSans-Oblique-61" transform="translate(3762.890625 0)"/>
     <use xlink:href="#DejaVuSans-Oblique-6c" transform="translate(3824.169922 0)"/>
     <use xlink:href="#DejaVuSans-Oblique-20" transform="translate(3851.953125 0)"/>
     <use xlink:href="#DejaVuSans-Oblique-61" transform="translate(3883.740234 0)"/>
     <use xlink:href="#DejaVuSans-Oblique-70" transform="translate(3945.019531 0)"/>
     <use xlink:href="#DejaVuSans-Oblique-70" transform="translate(4008.496094 0)"/>
     <use xlink:href="#DejaVuSans-Oblique-6c" transform="translate(4071.972656 0)"/>
     <use xlink:href="#DejaVuSans-Oblique-69" transform="translate(4099.755859 0)"/>
     <use xlink:href="#DejaVuSans-Oblique-65" transform="translate(4127.539062 0)"/>
     <use xlink:href="#DejaVuSans-Oblique-73" transform="translate(4189.0625 0)"/>
     <use xlink:href="#DejaVuSans-Oblique-20" transform="translate(4241.162109 0)"/>
     <use xlink:href="#DejaVuSans-Oblique-72" transform="translate(4272.949219 0)"/>
     <use xlink:href="#DejaVuSans-Oblique-75" transform="translate(4314.0625 0)"/>
     <use xlink:href="#DejaVuSans-Oblique-6c" transform="translate(4377.441406 0)"/>
     <use xlink:href="#DejaVuSans-Oblique-65" transform="translate(4405.224609 0)"/>
     <use xlink:href="#DejaVuSans-Oblique-73" transform="translate(4466.748047 0)"/>
     <use xlink:href="#DejaVuSans-Oblique-20" transform="translate(4518.847656 0)"/>
     <use xlink:href="#DejaVuSans-Oblique-61" transform="translate(4550.634766 0)"/>
     <use xlink:href="#DejaVuSans-Oblique-6e" transform="translate(4611.914062 0)"/>
     <use xlink:href="#DejaVuSans-Oblique-64" transform="translate(4675.292969 0)"/>
     <use xlink:href="#DejaVuSans-Oblique-20" transform="translate(4738.769531 0)"/>
     <use xlink:href="#DejaVuSans-Oblique-6a" transform="translate(4770.556641 0)"/>
     <use xlink:href="#DejaVuSans-Oblique-75" transform="translate(4798.339844 0)"/>
     <use xlink:href="#DejaVuSans-Oblique-64" transform="translate(4861.71875 0)"/>
     <use xlink:href="#DejaVuSans-Oblique-67" transform="translate(4925.195312 0)"/>
     <use xlink:href="#DejaVuSans-Oblique-6d" transform="translate(4988.671875 0)"/>
     <use xlink:href="#DejaVuSans-Oblique-65" transform="translate(5086.083984 0)"/>
     <use xlink:href="#DejaVuSans-Oblique-6e" transform="translate(5147.607422 0)"/>
     <use xlink:href="#DejaVuSans-Oblique-74" transform="translate(5210.986328 0)"/>
     <use xlink:href="#DejaVuSans-Oblique-2e" transform="translate(5250.195312 0)"/>
    </g>
   </g>
   <g id="text_7">
    <!-- × -->
    <g style="fill: #6b3a3a" transform="translate(479.283819 195.764301) scale(0.14 -0.14)">
     <defs>
      <path id="DejaVuSans-d7" d="M 4488 3438
L 3059 2003
L 4488 575
L 4116 197
L 2681 1631
L 1247 197
L 878 575
L 2303 2003
L 878 3438
L 1247 3816
L 2681 2381
L 4116 3816
L 4488 3438
z
" transform="scale(0.015625)"/>
     </defs>
     <use xlink:href="#DejaVuSans-d7"/>
    </g>
   </g>
   <g id="text_8">
    <!-- autonomous -->
    <g style="fill: #2b2d42" transform="translate(501.921637 189.913505) scale(0.07 -0.07)">
     <use xlink:href="#DejaVuSans-61"/>
     <use xlink:href="#DejaVuSans-75" transform="translate(61.279297 0)"/>
     <use xlink:href="#DejaVuSans-74" transform="translate(124.658203 0)"/>
     <use xlink:href="#DejaVuSans-6f" transform="translate(163.867188 0)"/>
     <use xlink:href="#DejaVuSans-6e" transform="translate(225.048828 0)"/>
     <use xlink:href="#DejaVuSans-6f" transform="translate(288.427734 0)"/>
     <use xlink:href="#DejaVuSans-6d" transform="translate(349.609375 0)"/>
     <use xlink:href="#DejaVuSans-6f" transform="translate(447.021484 0)"/>
     <use xlink:href="#DejaVuSans-75" transform="translate(508.203125 0)"/>
     <use xlink:href="#DejaVuSans-73" transform="translate(571.582031 0)"/>
    </g>
    <!-- fight outcome -->
    <g style="fill: #2b2d42" transform="translate(499.260543 197.751973) scale(0.07 -0.07)">
     <use xlink:href="#DejaVuSans-66"/>
     <use xlink:href="#DejaVuSans-69" transform="translate(35.205078 0)"/>
     <use xlink:href="#DejaVuSans-67" transform="translate(62.988281 0)"/>
     <use xlink:href="#DejaVuSans-68" transform="translate(126.464844 0)"/>
     <use xlink:href="#DejaVuSans-74" transform="translate(189.84375 0)"/>
     <use xlink:href="#DejaVuSans-20" transform="translate(229.052734 0)"/>
     <use xlink:href="#DejaVuSans-6f" transform="translate(260.839844 0)"/>
     <use xlink:href="#DejaVuSans-75" transform="translate(322.021484 0)"/>
     <use xlink:href="#DejaVuSans-74" transform="translate(385.400391 0)"/>
     <use xlink:href="#DejaVuSans-63" transform="translate(424.609375 0)"/>
     <use xlink:href="#DejaVuSans-6f" transform="translate(479.589844 0)"/>
     <use xlink:href="#DejaVuSans-6d" transform="translate(540.771484 0)"/>
     <use xlink:href="#DejaVuSans-65" transform="translate(638.183594 0)"/>
    </g>
   </g>
  </g>
 </g>
 <defs>
  <clipPath id="pae87b20fee">
   <rect x="44.459961" y="7.2" width="514.674031" height="224.28"/>
  </clipPath>
 </defs>
</svg>
