<?xml version="1.0" encoding="utf-8" standalone="no"?>
<!DOCTYPE svg PUBLIC "-//W3C//DTD SVG 1.1//EN"
  "http://www.w3.org/Graphics/SVG/1.1/DTD/svg11.dtd">
<svg xmlns:xlink="http://www.w3.org/1999/xlink" width="497.88pt" height="188.28pt" viewBox="0 0 497.88 188.28" xmlns="http://www.w3.org/2000/svg" version="1.1">
 <metadata>
  <rdf:RDF xmlns:dc="http://purl.org/dc/elements/1.1/" xmlns:cc="http://creativecommons.org/ns#" xmlns:rdf="http://www.w3.org/1999/02/22-rdf-syntax-ns#">
   <cc:Work>
    <dc:type rdf:resource="http://purl.org/dc/dcmitype/StillImage"/>
    <dc:date>2026-04-29T21:41:22.806107</dc:date>
    <dc:format>image/svg+xml</dc:format>
    <dc:creator>
     <cc:Agent>
      <dc:title>Matplotlib v3.10.9, https://matplotlib.org/</dc:title>
     </cc:Agent>
    </dc:creator>
   </cc:Work>
  </rdf:RDF>
 </metadata>
 <defs>
  <style type="text/css">*{stroke-linejoin: round; stroke-linecap: butt}</style>
 </defs>
 <g id="figure_1">
  <g id="patch_1">
   <path d="M 0 188.28
L 497.88 188.28
L 497.88 0
L 0 0
z
" style="fill: #ffffff"/>
  </g>
  <g id="axes_1">
   <g id="patch_2">
    <path d="M 48.062656 152.175469
L 480.103828 152.175469
L 480.103828 23.558281
L 48.062656 23.558281
z
" style="fill: #ffffff"/>
   </g>
   <g id="patch_3">
    <path d="M 48.062656 152.175469
L 480.103828 152.175469
L 480.103828 82.823064
L 48.062656 82.823064
z
" clip-path="url(#pec0080e83d)" style="fill: #ebeef0; opacity: 0.4"/>
   </g>
   <g id="patch_4">
    <path d="M 48.062656 82.823064
L 480.103828 82.823064
L 480.103828 57.604007
L 48.062656 57.604007
z
" clip-path="url(#pec0080e83d)" style="fill: #d4c4a8; opacity: 0.45"/>
   </g>
   <g id="patch_5">
    <path d="M 48.062656 57.604007
L 480.103828 57.604007
L 480.103828 26.080187
L 48.062656 26.080187
z
" clip-path="url(#pec0080e83d)" style="fill: #c4a5a5; opacity: 0.4"/>
   </g>
   <g id="matplotlib.axis_1">
    <g id="xtick_1">
     <g id="line2d_1">
      <defs>
       <path id="mba8cfb77e1" d="M 0 0
L 0 3.5
" style="stroke: #2b2d42; stroke-width: 0.8"/>
      </defs>
      <g>
       <use xlink:href="#mba8cfb77e1" x="48.062656" y="152.175469" style="fill: #2b2d42; stroke: #2b2d42; stroke-width: 0.8"/>
      </g>
     </g>
     <g id="text_1">
      <!-- 0.0 -->
      <g style="fill: #2b2d42" transform="translate(40.508672 166.393984) scale(0.095 -0.095)">
       <defs>
        <path id="DejaVuSans-30" d="M 2034 4250
Q 1547 4250 1301 3770
Q 1056 3291 1056 2328
Q 1056 1369 1301 889
Q 1547 409 2034 409
Q 2525 409 2770 889
Q 3016 1369 3016 2328
Q 3016 3291 2770 3770
Q 2525 4250 2034 4250
z
M 2034 4750
Q 2819 4750 3233 4129
Q 3647 3509 3647 2328
Q 3647 1150 3233 529
Q 2819 -91 2034 -91
Q 1250 -91 836 529
Q 422 1150 422 2328
Q 422 3509 836 4129
Q 1250 4750 2034 4750
z
" transform="scale(0.015625)"/>
        <path id="DejaVuSans-2e" d="M 684 794
L 1344 794
L 1344 0
L 684 0
L 684 794
z
" transform="scale(0.015625)"/>
       </defs>
       <use xlink:href="#DejaVuSans-30"/>
       <use xlink:href="#DejaVuSans-2e" transform="translate(63.623047 0)"/>
       <use xlink:href="#DejaVuSans-30" transform="translate(95.410156 0)"/>
      </g>
     </g>
    </g>
    <g id="xtick_2">
     <g id="line2d_2">
      <g>
       <use xlink:href="#mba8cfb77e1" x="102.067803" y="152.175469" style="fill: #2b2d42; stroke: #2b2d42; stroke-width: 0.8"/>
      </g>
     </g>
     <g id="text_2">
      <!-- 2.5 -->
      <g style="fill: #2b2d42" transform="translate(94.513818 166.393984) scale(0.095 -0.095)">
       <defs>
        <path id="DejaVuSans-32" d="M 1228 531
L 3431 531
L 3431 0
L 469 0
L 469 531
Q 828 903 1448 1529
Q 2069 2156 2228 2338
Q 2531 2678 2651 2914
Q 2772 3150 2772 3378
Q 2772 3750 2511 3984
Q 2250 4219 1831 4219
Q 1534 4219 1204 4116
Q 875 4013 500 3803
L 500 4441
Q 881 4594 1212 4672
Q 1544 4750 1819 4750
Q 2544 4750 2975 4387
Q 3406 4025 3406 3419
Q 3406 3131 3298 2873
Q 3191 2616 2906 2266
Q 2828 2175 2409 1742
Q 1991 1309 1228 531
z
" transform="scale(0.015625)"/>
        <path id="DejaVuSans-35" d="M 691 4666
L 3169 4666
L 3169 4134
L 1269 4134
L 1269 2991
Q 1406 3038 1543 3061
Q 1681 3084 1819 3084
Q 2600 3084 3056 2656
Q 3513 2228 3513 1497
Q 3513 744 3044 326
Q 2575 -91 1722 -91
Q 1428 -91 1123 -41
Q 819 9 494 109
L 494 744
Q 775 591 1075 516
Q 1375 441 1709 441
Q 2250 441 2565 725
Q 2881 1009 2881 1497
Q 2881 1984 2565 2268
Q 2250 2553 1709 2553
Q 1456 2553 1204 2497
Q 953 2441 691 2322
L 691 4666
z
" transform="scale(0.015625)"/>
       </defs>
       <use xlink:href="#DejaVuSans-32"/>
       <use xlink:href="#DejaVuSans-2e" transform="translate(63.623047 0)"/>
       <use xlink:href="#DejaVuSans-35" transform="translate(95.410156 0)"/>
      </g>
     </g>
    </g>
    <g id="xtick_3">
     <g id="line2d_3">
      <g>
       <use xlink:href="#mba8cfb77e1" x="156.072949" y="152.175469" style="fill: #2b2d42; stroke: #2b2d42; stroke-width: 0.8"/>
      </g>
     </g>
     <g id="text_3">
      <!-- 5.0 -->
      <g style="fill: #2b2d42" transform="translate(148.518965 166.393984) scale(0.095 -0.095)">
       <use xlink:href="#DejaVuSans-35"/>
       <use xlink:href="#DejaVuSans-2e" transform="translate(63.623047 0)"/>
       <use xlink:href="#DejaVuSans-30" transform="translate(95.410156 0)"/>
      </g>
     </g>
    </g>
    <g id="xtick_4">
     <g id="line2d_4">
      <g>
       <use xlink:href="#mba8cfb77e1" x="210.078096" y="152.175469" style="fill: #2b2d42; stroke: #2b2d42; stroke-width: 0.8"/>
      </g>
     </g>
     <g id="text_4">
      <!-- 7.5 -->
      <g style="fill: #2b2d42" transform="translate(202.524111 166.393984) scale(0.095 -0.095)">
       <defs>
        <path id="DejaVuSans-37" d="M 525 4666
L 3525 4666
L 3525 4397
L 1831 0
L 1172 0
L 2766 4134
L 525 4134
L 525 4666
z
" transform="scale(0.015625)"/>
       </defs>
       <use xlink:href="#DejaVuSans-37"/>
       <use xlink:href="#DejaVuSans-2e" transform="translate(63.623047 0)"/>
       <use xlink:href="#DejaVuSans-35" transform="translate(95.410156 0)"/>
      </g>
     </g>
    </g>
    <g id="xtick_5">
     <g id="line2d_5">
      <g>
       <use xlink:href="#mba8cfb77e1" x="264.083242" y="152.175469" style="fill: #2b2d42; stroke: #2b2d42; stroke-width: 0.8"/>
      </g>
     </g>
     <g id="text_5">
      <!-- 10.0 -->
      <g style="fill: #2b2d42" transform="translate(253.50707 166.393984) scale(0.095 -0.095)">
       <defs>
        <path id="DejaVuSans-31" d="M 794 531
L 1825 531
L 1825 4091
L 703 3866
L 703 4441
L 1819 4666
L 2450 4666
L 2450 531
L 3481 531
L 3481 0
L 794 0
L 794 531
z
" transform="scale(0.015625)"/>
       </defs>
       <use xlink:href="#DejaVuSans-31"/>
       <use xlink:href="#DejaVuSans-30" transform="translate(63.623047 0)"/>
       <use xlink:href="#DejaVuSans-2e" transform="translate(127.246094 0)"/>
       <use xlink:href="#DejaVuSans-30" transform="translate(159.033203 0)"/>
      </g>
     </g>
    </g>
    <g id="xtick_6">
     <g id="line2d_6">
      <g>
       <use xlink:href="#mba8cfb77e1" x="318.088389" y="152.175469" style="fill: #2b2d42; stroke: #2b2d42; stroke-width: 0.8"/>
      </g>
     </g>
     <g id="text_6">
      <!-- 12.5 -->
      <g style="fill: #2b2d42" transform="translate(307.512217 166.393984) scale(0.095 -0.095)">
       <use xlink:href="#DejaVuSans-31"/>
       <use xlink:href="#DejaVuSans-32" transform="translate(63.623047 0)"/>
       <use xlink:href="#DejaVuSans-2e" transform="translate(127.246094 0)"/>
       <use xlink:href="#DejaVuSans-35" transform="translate(159.033203 0)"/>
      </g>
     </g>
    </g>
    <g id="xtick_7">
     <g id="line2d_7">
      <g>
       <use xlink:href="#mba8cfb77e1" x="372.093535" y="152.175469" style="fill: #2b2d42; stroke: #2b2d42; stroke-width: 0.8"/>
      </g>
     </g>
     <g id="text_7">
      <!-- 15.0 -->
      <g style="fill: #2b2d42" transform="translate(361.517363 166.393984) scale(0.095 -0.095)">
       <use xlink:href="#DejaVuSans-31"/>
       <use xlink:href="#DejaVuSans-35" transform="translate(63.623047 0)"/>
       <use xlink:href="#DejaVuSans-2e" transform="translate(127.246094 0)"/>
       <use xlink:href="#DejaVuSans-30" transform="translate(159.033203 0)"/>
      </g>
     </g>
    </g>
    <g id="xtick_8">
     <g id="line2d_8">
      <g>
       <use xlink:href="#mba8cfb77e1" x="426.098682" y="152.175469" style="fill: #2b2d42; stroke: #2b2d42; stroke-width: 0.8"/>
      </g>
     </g>
     <g id="text_8">
      <!-- 17.5 -->
      <g style="fill: #2b2d42" transform="translate(415.52251 166.393984) scale(0.095 -0.095)">
       <use xlink:href="#DejaVuSans-31"/>
       <use xlink:href="#DejaVuSans-37" transform="translate(63.623047 0)"/>
       <use xlink:href="#DejaVuSans-2e" transform="translate(127.246094 0)"/>
       <use xlink:href="#DejaVuSans-35" transform="translate(159.033203 0)"/>
      </g>
     </g>
    </g>
    <g id="xtick_9">
     <g id="line2d_9">
      <g>
       <use xlink:href="#mba8cfb77e1" x="480.103828" y="152.175469" style="fill: #2b2d42; stroke: #2b2d42; stroke-width: 0.8"/>
      </g>
     </g>
     <g id="text_9">
      <!-- 20.0 -->
      <g style="fill: #2b2d42" transform="translate(469.527656 166.393984) scale(0.095 -0.095)">
       <use xlink:href="#DejaVuSans-32"/>
       <use xlink:href="#DejaVuSans-30" transform="translate(63.623047 0)"/>
       <use xlink:href="#DejaVuSans-2e" transform="translate(127.246094 0)"/>
       <use xlink:href="#DejaVuSans-30" transform="translate(159.033203 0)"/>
      </g>
     </g>
    </g>
    <g id="text_10">
     <!-- Time (s) -->
     <g style="fill: #2b2d42" transform="translate(245.787227 179.208281) scale(0.09 -0.09)">
      <defs>
       <path id="DejaVuSans-54" d="M -19 4666
L 3928 4666
L 3928 4134
L 2272 4134
L 2272 0
L 1638 0
L 1638 4134
L -19 4134
L -19 4666
z
" transform="scale(0.015625)"/>
       <path id="DejaVuSans-69" d="M 603 3500
L 1178 3500
L 1178 0
L 603 0
L 603 3500
z
M 603 4863
L 1178 4863
L 1178 4134
L 603 4134
L 603 4863
z
" transform="scale(0.015625)"/>
       <path id="DejaVuSans-6d" d="M 3328 2828
Q 3544 3216 3844 3400
Q 4144 3584 4550 3584
Q 5097 3584 5394 3201
Q 5691 2819 5691 2113
L 5691 0
L 5113 0
L 5113 2094
Q 5113 2597 4934 2840
Q 4756 3084 4391 3084
Q 3944 3084 3684 2787
Q 3425 2491 3425 1978
L 3425 0
L 2847 0
L 2847 2094
Q 2847 2600 2669 2842
Q 2491 3084 2119 3084
Q 1678 3084 1418 2786
Q 1159 2488 1159 1978
L 1159 0
L 581 0
L 581 3500
L 1159 3500
L 1159 2956
Q 1356 3278 1631 3431
Q 1906 3584 2284 3584
Q 2666 3584 2933 3390
Q 3200 3197 3328 2828
z
" transform="scale(0.015625)"/>
       <path id="DejaVuSans-65" d="M 3597 1894
L 3597 1613
L 953 1613
Q 991 1019 1311 708
Q 1631 397 2203 397
Q 2534 397 2845 478
Q 3156 559 3463 722
L 3463 178
Q 3153 47 2828 -22
Q 2503 -91 2169 -91
Q 1331 -91 842 396
Q 353 884 353 1716
Q 353 2575 817 3079
Q 1281 3584 2069 3584
Q 2775 3584 3186 3129
Q 3597 2675 3597 1894
z
M 3022 2063
Q 3016 2534 2758 2815
Q 2500 3097 2075 3097
Q 1594 3097 1305 2825
Q 1016 2553 972 2059
L 3022 2063
z
" transform="scale(0.015625)"/>
       <path id="DejaVuSans-20" transform="scale(0.015625)"/>
       <path id="DejaVuSans-28" d="M 1984 4856
Q 1566 4138 1362 3434
Q 1159 2731 1159 2009
Q 1159 1288 1364 580
Q 1569 -128 1984 -844
L 1484 -844
Q 1016 -109 783 600
Q 550 1309 550 2009
Q 550 2706 781 3412
Q 1013 4119 1484 4856
L 1984 4856
z
" transform="scale(0.015625)"/>
       <path id="DejaVuSans-73" d="M 2834 3397
L 2834 2853
Q 2591 2978 2328 3040
Q 2066 3103 1784 3103
Q 1356 3103 1142 2972
Q 928 2841 928 2578
Q 928 2378 1081 2264
Q 1234 2150 1697 2047
L 1894 2003
Q 2506 1872 2764 1633
Q 3022 1394 3022 966
Q 3022 478 2636 193
Q 2250 -91 1575 -91
Q 1294 -91 989 -36
Q 684 19 347 128
L 347 722
Q 666 556 975 473
Q 1284 391 1588 391
Q 1994 391 2212 530
Q 2431 669 2431 922
Q 2431 1156 2273 1281
Q 2116 1406 1581 1522
L 1381 1569
Q 847 1681 609 1914
Q 372 2147 372 2553
Q 372 3047 722 3315
Q 1072 3584 1716 3584
Q 2034 3584 2315 3537
Q 2597 3491 2834 3397
z
" transform="scale(0.015625)"/>
       <path id="DejaVuSans-29" d="M 513 4856
L 1013 4856
Q 1481 4119 1714 3412
Q 1947 2706 1947 2009
Q 1947 1309 1714 600
Q 1481 -109 1013 -844
L 513 -844
Q 928 -128 1133 580
Q 1338 1288 1338 2009
Q 1338 2731 1133 3434
Q 928 4138 513 4856
z
" transform="scale(0.015625)"/>
      </defs>
      <use xlink:href="#DejaVuSans-54"/>
      <use xlink:href="#DejaVuSans-69" transform="translate(57.958984 0)"/>
      <use xlink:href="#DejaVuSans-6d" transform="translate(85.742188 0)"/>
      <use xlink:href="#DejaVuSans-65" transform="translate(183.154297 0)"/>
      <use xlink:href="#DejaVuSans-20" transform="translate(244.677734 0)"/>
      <use xlink:href="#DejaVuSans-28" transform="translate(276.464844 0)"/>
      <use xlink:href="#DejaVuSans-73" transform="translate(315.478516 0)"/>
      <use xlink:href="#DejaVuSans-29" transform="translate(367.578125 0)"/>
     </g>
    </g>
   </g>
   <g id="matplotlib.axis_2">
    <g id="ytick_1">
     <g id="line2d_10">
      <defs>
       <path id="m34487e22ff" d="M 0 0
L -3.5 0
" style="stroke: #2b2d42; stroke-width: 0.8"/>
      </defs>
      <g>
       <use xlink:href="#m34487e22ff" x="48.062656" y="152.175469" style="fill: #2b2d42; stroke: #2b2d42; stroke-width: 0.8"/>
      </g>
     </g>
     <g id="text_11">
      <!-- 0.00 -->
      <g style="fill: #2b2d42" transform="translate(19.910313 155.784727) scale(0.095 -0.095)">
       <use xlink:href="#DejaVuSans-30"/>
       <use xlink:href="#DejaVuSans-2e" transform="translate(63.623047 0)"/>
       <use xlink:href="#DejaVuSans-30" transform="translate(95.410156 0)"/>
       <use xlink:href="#DejaVuSans-30" transform="translate(159.033203 0)"/>
      </g>
     </g>
    </g>
    <g id="ytick_2">
     <g id="line2d_11">
      <g>
       <use xlink:href="#m34487e22ff" x="48.062656" y="120.651648" style="fill: #2b2d42; stroke: #2b2d42; stroke-width: 0.8"/>
      </g>
     </g>
     <g id="text_12">
      <!-- 0.25 -->
      <g style="fill: #2b2d42" transform="translate(19.910313 124.260906) scale(0.095 -0.095)">
       <use xlink:href="#DejaVuSans-30"/>
       <use xlink:href="#DejaVuSans-2e" transform="translate(63.623047 0)"/>
       <use xlink:href="#DejaVuSans-32" transform="translate(95.410156 0)"/>
       <use xlink:href="#DejaVuSans-35" transform="translate(159.033203 0)"/>
      </g>
     </g>
    </g>
    <g id="ytick_3">
     <g id="line2d_12">
      <g>
       <use xlink:href="#m34487e22ff" x="48.062656" y="89.127828" style="fill: #2b2d42; stroke: #2b2d42; stroke-width: 0.8"/>
      </g>
     </g>
     <g id="text_13">
      <!-- 0.50 -->
      <g style="fill: #2b2d42" transform="translate(19.910313 92.737086) scale(0.095 -0.095)">
       <use xlink:href="#DejaVuSans-30"/>
       <use xlink:href="#DejaVuSans-2e" transform="translate(63.623047 0)"/>
       <use xlink:href="#DejaVuSans-35" transform="translate(95.410156 0)"/>
       <use xlink:href="#DejaVuSans-30" transform="translate(159.033203 0)"/>
      </g>
     </g>
    </g>
    <g id="ytick_4">
     <g id="line2d_13">
      <g>
       <use xlink:href="#m34487e22ff" x="48.062656" y="57.604007" style="fill: #2b2d42; stroke: #2b2d42; stroke-width: 0.8"/>
      </g>
     </g>
     <g id="text_14">
      <!-- 0.75 -->
      <g style="fill: #2b2d42" transform="translate(19.910313 61.213265) scale(0.095 -0.095)">
       <use xlink:href="#DejaVuSans-30"/>
       <use xlink:href="#DejaVuSans-2e" transform="translate(63.623047 0)"/>
       <use xlink:href="#DejaVuSans-37" transform="translate(95.410156 0)"/>
       <use xlink:href="#DejaVuSans-35" transform="translate(159.033203 0)"/>
      </g>
     </g>
    </g>
    <g id="ytick_5">
     <g id="line2d_14">
      <g>
       <use xlink:href="#m34487e22ff" x="48.062656" y="26.080187" style="fill: #2b2d42; stroke: #2b2d42; stroke-width: 0.8"/>
      </g>
     </g>
     <g id="text_15">
      <!-- 1.00 -->
      <g style="fill: #2b2d42" transform="translate(19.910313 29.689445) scale(0.095 -0.095)">
       <use xlink:href="#DejaVuSans-31"/>
       <use xlink:href="#DejaVuSans-2e" transform="translate(63.623047 0)"/>
       <use xlink:href="#DejaVuSans-30" transform="translate(95.410156 0)"/>
       <use xlink:href="#DejaVuSans-30" transform="translate(159.033203 0)"/>
      </g>
     </g>
    </g>
    <g id="text_16">
     <!-- Risk score (0–1) -->
     <g style="fill: #2b2d42" transform="translate(14.038594 123.631328) rotate(-90) scale(0.09 -0.09)">
      <defs>
       <path id="DejaVuSans-52" d="M 2841 2188
Q 3044 2119 3236 1894
Q 3428 1669 3622 1275
L 4263 0
L 3584 0
L 2988 1197
Q 2756 1666 2539 1819
Q 2322 1972 1947 1972
L 1259 1972
L 1259 0
L 628 0
L 628 4666
L 2053 4666
Q 2853 4666 3247 4331
Q 3641 3997 3641 3322
Q 3641 2881 3436 2590
Q 3231 2300 2841 2188
z
M 1259 4147
L 1259 2491
L 2053 2491
Q 2509 2491 2742 2702
Q 2975 2913 2975 3322
Q 2975 3731 2742 3939
Q 2509 4147 2053 4147
L 1259 4147
z
" transform="scale(0.015625)"/>
       <path id="DejaVuSans-6b" d="M 581 4863
L 1159 4863
L 1159 1991
L 2875 3500
L 3609 3500
L 1753 1863
L 3688 0
L 2938 0
L 1159 1709
L 1159 0
L 581 0
L 581 4863
z
" transform="scale(0.015625)"/>
       <path id="DejaVuSans-63" d="M 3122 3366
L 3122 2828
Q 2878 2963 2633 3030
Q 2388 3097 2138 3097
Q 1578 3097 1268 2742
Q 959 2388 959 1747
Q 959 1106 1268 751
Q 1578 397 2138 397
Q 2388 397 2633 464
Q 2878 531 3122 666
L 3122 134
Q 2881 22 2623 -34
Q 2366 -91 2075 -91
Q 1284 -91 818 406
Q 353 903 353 1747
Q 353 2603 823 3093
Q 1294 3584 2113 3584
Q 2378 3584 2631 3529
Q 2884 3475 3122 3366
z
" transform="scale(0.015625)"/>
       <path id="DejaVuSans-6f" d="M 1959 3097
Q 1497 3097 1228 2736
Q 959 2375 959 1747
Q 959 1119 1226 758
Q 1494 397 1959 397
Q 2419 397 2687 759
Q 2956 1122 2956 1747
Q 2956 2369 2687 2733
Q 2419 3097 1959 3097
z
M 1959 3584
Q 2709 3584 3137 3096
Q 3566 2609 3566 1747
Q 3566 888 3137 398
Q 2709 -91 1959 -91
Q 1206 -91 779 398
Q 353 888 353 1747
Q 353 2609 779 3096
Q 1206 3584 1959 3584
z
" transform="scale(0.015625)"/>
       <path id="DejaVuSans-72" d="M 2631 2963
Q 2534 3019 2420 3045
Q 2306 3072 2169 3072
Q 1681 3072 1420 2755
Q 1159 2438 1159 1844
L 1159 0
L 581 0
L 581 3500
L 1159 3500
L 1159 2956
Q 1341 3275 1631 3429
Q 1922 3584 2338 3584
Q 2397 3584 2469 3576
Q 2541 3569 2628 3553
L 2631 2963
z
" transform="scale(0.015625)"/>
       <path id="DejaVuSans-2013" d="M 313 1978
L 2888 1978
L 2888 1528
L 313 1528
L 313 1978
z
" transform="scale(0.015625)"/>
      </defs>
      <use xlink:href="#DejaVuSans-52"/>
      <use xlink:href="#DejaVuSans-69" transform="translate(69.482422 0)"/>
      <use xlink:href="#DejaVuSans-73" transform="translate(97.265625 0)"/>
      <use xlink:href="#DejaVuSans-6b" transform="translate(149.365234 0)"/>
      <use xlink:href="#DejaVuSans-20" transform="translate(207.275391 0)"/>
      <use xlink:href="#DejaVuSans-73" transform="translate(239.0625 0)"/>
      <use xlink:href="#DejaVuSans-63" transform="translate(291.162109 0)"/>
      <use xlink:href="#DejaVuSans-6f" transform="translate(346.142578 0)"/>
      <use xlink:href="#DejaVuSans-72" transform="translate(407.324219 0)"/>
      <use xlink:href="#DejaVuSans-65" transform="translate(446.1875 0)"/>
      <use xlink:href="#DejaVuSans-20" transform="translate(507.710938 0)"/>
      <use xlink:href="#DejaVuSans-28" transform="translate(539.498047 0)"/>
      <use xlink:href="#DejaVuSans-30" transform="translate(578.511719 0)"/>
      <use xlink:href="#DejaVuSans-2013" transform="translate(642.134766 0)"/>
      <use xlink:href="#DejaVuSans-31" transform="translate(692.134766 0)"/>
      <use xlink:href="#DejaVuSans-29" transform="translate(755.757812 0)"/>
     </g>
    </g>
   </g>
   <g id="line2d_15">
    <path d="M 130.150479 152.175469
L 130.150479 23.558281
" clip-path="url(#pec0080e83d)" style="fill: none; stroke-dasharray: 3.33,1.44; stroke-dashoffset: 0; stroke: #3d5a73; stroke-opacity: 0.85; stroke-width: 0.9"/>
   </g>
   <g id="line2d_16">
    <path d="M 242.481184 152.175469
L 242.481184 23.558281
" clip-path="url(#pec0080e83d)" style="fill: none; stroke-dasharray: 3.33,1.44; stroke-dashoffset: 0; stroke: #3d5a73; stroke-opacity: 0.85; stroke-width: 0.9"/>
   </g>
   <g id="line2d_17">
    <path d="M 376.413947 152.175469
L 376.413947 23.558281
" clip-path="url(#pec0080e83d)" style="fill: none; stroke-dasharray: 3.33,1.44; stroke-dashoffset: 0; stroke: #3d5a73; stroke-opacity: 0.85; stroke-width: 0.9"/>
   </g>
   <g id="patch_6">
    <path d="M 48.062656 152.175469
L 48.062656 23.558281
" style="fill: none; stroke: #2b2d42; stroke-width: 0.5; stroke-linejoin: miter; stroke-linecap: square"/>
   </g>
   <g id="patch_7">
    <path d="M 480.103828 152.175469
L 480.103828 23.558281
" style="fill: none; stroke: #2b2d42; stroke-width: 0.5; stroke-linejoin: miter; stroke-linecap: square"/>
   </g>
   <g id="patch_8">
    <path d="M 48.062656 152.175469
L 480.103828 152.175469
" style="fill: none; stroke: #2b2d42; stroke-width: 0.5; stroke-linejoin: miter; stroke-linecap: square"/>
   </g>
   <g id="patch_9">
    <path d="M 48.062656 23.558281
L 480.103828 23.558281
" style="fill: none; stroke: #2b2d42; stroke-width: 0.5; stroke-linejoin: miter; stroke-linecap: square"/>
   </g>
   <g id="line2d_18">
    <path d="M 48.062656 138.690789
L 50.225566 128.355944
L 51.30702 122.753007
L 51.847748 122.15568
L 52.388475 121.838793
L 52.929203 121.212618
L 53.46993 120.305418
L 54.010657 119.919543
L 54.551385 119.235865
L 55.092112 119.078275
L 55.632839 119.063089
L 56.173567 118.781066
L 56.714294 118.13692
L 57.255022 117.945828
L 58.336476 116.841533
L 58.877204 116.134687
L 59.417931 116.110648
L 59.958658 115.827191
L 61.040113 114.36232
L 62.121568 113.060003
L 62.662295 112.359345
L 63.203023 111.966035
L 63.74375 110.968383
L 64.284477 110.692527
L 64.825205 110.235671
L 66.447387 108.062043
L 68.610296 106.015255
L 69.151024 105.080865
L 70.232479 104.414075
L 70.773206 103.798379
L 71.313933 103.513087
L 72.395388 102.192428
L 72.936115 102.03115
L 74.01757 101.175154
L 75.099025 100.106368
L 75.639752 100.056384
L 76.18048 99.249662
L 76.721207 98.794808
L 77.261934 98.636967
L 77.802662 98.142774
L 78.343389 98.352086
L 78.884117 98.185297
L 79.424844 97.890725
L 80.506299 97.631034
L 81.587753 96.778282
L 84.29139 96.754736
L 84.832118 96.465589
L 85.372845 96.023548
L 85.913572 95.43207
L 86.995027 95.043296
L 87.535755 95.109623
L 89.698664 94.169872
L 90.239391 93.635687
L 90.780119 93.445441
L 92.402301 93.798169
L 93.483756 93.055593
L 94.024483 92.909544
L 94.56521 92.996157
L 95.105938 92.889806
L 95.646665 92.522165
L 96.187393 92.519648
L 96.72812 92.298702
L 97.268847 92.460193
L 97.809575 92.089318
L 99.972484 93.197228
L 100.513212 93.113494
L 101.053939 92.741446
L 101.594666 92.807304
L 102.135394 93.125112
L 103.216848 93.039476
L 103.757576 92.77902
L 104.298303 92.871307
L 105.379758 91.790671
L 105.920485 91.926219
L 106.461213 91.737749
L 107.00194 91.750377
L 107.542667 92.430697
L 108.083395 92.189477
L 108.624122 92.227905
L 109.16485 92.056944
L 109.705577 92.110963
L 110.246304 92.046639
L 111.327759 92.284378
L 111.868486 92.805927
L 112.409214 92.81893
L 112.949941 92.718381
L 113.490669 93.165227
L 114.031396 92.757404
L 114.572123 93.170164
L 115.112851 92.821378
L 115.653578 93.19315
L 116.735033 93.038032
L 117.27576 93.223619
L 117.816488 92.921777
L 118.357215 92.183235
L 118.897942 91.942163
L 119.43867 92.057345
L 119.979397 91.623365
L 120.520124 91.984294
L 121.060852 91.362755
L 121.601579 91.610326
L 122.142306 91.41591
L 122.683034 91.716855
L 123.223761 91.844399
L 124.305216 91.718735
L 124.845943 92.015999
L 125.386671 91.758776
L 125.927398 91.655678
L 126.468125 91.722907
L 127.008853 91.539106
L 127.54958 91.837756
L 128.090308 91.669552
L 128.631035 91.682726
L 129.171762 91.52159
L 129.71249 91.619758
L 130.793944 91.309787
L 131.334672 91.35086
L 131.875399 91.70523
L 132.416127 91.564446
L 132.956854 91.047543
L 133.497581 91.206735
L 134.038309 91.052602
L 134.579036 91.104421
L 135.119763 91.310526
L 136.741946 90.354019
L 137.282673 90.765229
L 138.364128 90.224727
L 138.904855 90.2246
L 139.445582 90.650146
L 139.98631 90.495029
L 140.527037 90.063485
L 141.067765 89.92832
L 141.608492 89.386237
L 142.689947 89.409166
L 143.230674 89.415385
L 143.771401 89.007871
L 144.312129 89.048548
L 145.393584 88.691996
L 146.475038 87.568715
L 147.015766 87.645417
L 147.556493 87.533001
L 148.09722 87.759849
L 149.719403 86.803141
L 150.26013 86.695606
L 151.882312 85.694913
L 152.423039 85.912739
L 152.963767 85.612755
L 153.504494 85.831238
L 154.585949 84.892346
L 155.126676 84.787383
L 155.667404 84.475976
L 156.208131 84.016254
L 156.748858 84.254219
L 157.289586 84.658498
L 157.830313 84.548568
L 158.371041 84.844643
L 158.911768 84.642838
L 159.993223 84.658181
L 160.53395 85.181647
L 161.074677 85.132742
L 161.615405 85.211808
L 162.156132 85.566321
L 162.69686 85.781487
L 163.778314 85.518066
L 164.319042 85.647008
L 164.859769 85.564117
L 165.400496 85.837237
L 165.941224 85.842057
L 166.481951 85.448558
L 167.022679 84.863341
L 168.104133 85.175063
L 169.185588 85.449691
L 170.267043 85.017531
L 170.80777 84.887694
L 171.348498 84.59787
L 171.889225 83.818575
L 172.429952 84.215304
L 172.97068 84.019727
L 173.511407 84.134203
L 174.052134 83.945909
L 174.592862 84.135535
L 175.133589 84.052186
L 175.674317 83.746345
L 176.215044 83.848328
L 176.755771 83.717335
L 177.296499 83.910963
L 177.837226 83.804632
L 178.377953 84.306963
L 178.918681 84.556299
L 180.000136 85.465027
L 180.540863 86.247674
L 181.08159 86.164364
L 181.622318 85.905143
L 182.703772 86.539564
L 183.2445 86.895694
L 183.785227 86.746364
L 184.325955 87.113269
L 184.866682 87.264103
L 185.407409 86.986408
L 185.948137 87.01449
L 186.488864 86.621169
L 187.029591 86.019539
L 187.570319 86.068728
L 188.111046 86.782194
L 189.192501 87.034419
L 189.733228 86.845117
L 190.273956 87.596152
L 191.35541 88.186371
L 191.896138 88.723662
L 192.436865 88.647827
L 192.977592 88.795936
L 193.51832 89.302963
L 194.059047 89.487221
L 194.599775 89.497135
L 195.140502 90.469942
L 195.681229 90.59702
L 196.221957 91.170567
L 196.762684 91.223894
L 197.844139 92.173256
L 198.384866 92.291062
L 200.007048 93.659322
L 200.547776 93.884766
L 201.088503 94.471718
L 201.62923 94.400911
L 202.169958 95.237723
L 202.710685 95.30305
L 203.251413 95.53128
L 203.79214 95.530929
L 204.332867 95.757455
L 204.873595 96.125417
L 205.955049 97.324035
L 206.495777 97.807653
L 207.036504 98.563629
L 207.577232 98.579132
L 208.117959 98.834065
L 208.658686 98.921523
L 209.740141 100.6325
L 210.280868 100.954267
L 211.903051 102.527239
L 212.443778 103.181925
L 213.525233 103.934605
L 214.06596 104.813382
L 215.147415 105.971484
L 215.688142 106.307032
L 216.22887 106.988812
L 217.310324 108.621348
L 217.851052 108.928897
L 218.391779 109.496453
L 219.473234 109.76072
L 220.013961 110.484415
L 221.095416 111.382817
L 221.636143 111.804575
L 222.176871 112.501585
L 223.258325 112.518372
L 223.799053 112.848907
L 224.880508 114.035828
L 225.421235 114.534454
L 225.961962 115.557033
L 226.50269 116.159405
L 227.043417 116.19497
L 227.584144 116.851478
L 228.124872 117.044628
L 228.665599 116.930922
L 229.206327 117.383183
L 229.747054 118.094578
L 230.287781 118.028191
L 231.369236 118.709494
L 231.909963 119.44
L 232.450691 119.541494
L 232.991418 119.363422
L 234.072873 120.147812
L 235.154328 121.660951
L 235.695055 121.982438
L 236.235782 122.462441
L 236.77651 123.140216
L 237.857965 123.575297
L 238.398692 123.587163
L 238.939419 123.831844
L 239.480147 124.431089
L 240.020874 124.78899
L 240.561601 124.45109
L 241.102329 124.391318
L 241.643056 124.509084
L 242.183784 125.151289
L 242.724511 125.24395
L 243.805966 126.463809
L 244.88742 126.43478
L 245.428148 126.680879
L 245.968875 127.184448
L 246.509603 127.520807
L 247.05033 128.199778
L 247.591057 128.324145
L 248.672512 127.701033
L 249.213239 128.052171
L 249.753967 127.985616
L 250.294694 127.788606
L 250.835422 128.083507
L 251.376149 128.542934
L 252.457604 128.48034
L 253.539058 127.877794
L 254.079786 127.808089
L 254.620513 128.397977
L 255.701968 128.205473
L 256.242695 128.031701
L 256.783423 128.073532
L 257.32415 128.283834
L 257.864877 128.311693
L 258.946332 127.877308
L 259.48706 128.009226
L 260.027787 127.958471
L 260.568514 128.480047
L 261.649969 128.454792
L 263.272151 127.763892
L 263.812879 127.33762
L 264.353606 127.174635
L 264.894333 127.417218
L 265.435061 127.082616
L 265.975788 126.900547
L 266.516515 127.3754
L 267.057243 126.588714
L 268.138697 125.762009
L 268.679425 125.774021
L 269.220152 125.60248
L 269.76088 125.897924
L 270.301607 125.248532
L 270.842334 124.867358
L 271.383062 124.172758
L 271.923789 124.31068
L 273.005244 123.98614
L 273.545971 124.178072
L 274.086699 123.924364
L 274.627426 124.296515
L 275.168153 123.817018
L 276.249608 123.319923
L 276.790335 123.785874
L 277.331063 123.673748
L 277.87179 123.847249
L 278.412518 123.654836
L 278.953245 123.695858
L 279.493972 123.243425
L 280.0347 123.215947
L 280.575427 123.533535
L 281.116154 123.123386
L 281.656882 123.009213
L 282.197609 123.251058
L 282.738337 122.884297
L 283.819791 122.743654
L 284.360519 122.420368
L 284.901246 122.287982
L 285.441973 121.675811
L 285.982701 121.657703
L 287.064156 120.918807
L 288.14561 120.935358
L 288.686338 120.559503
L 289.767792 120.153736
L 290.30852 120.110952
L 290.849247 120.253701
L 291.389975 120.083593
L 293.012157 120.210774
L 293.552884 120.507556
L 294.093611 120.203533
L 295.175066 120.91076
L 295.715794 121.068296
L 296.256521 120.853575
L 296.797248 120.982736
L 297.878703 121.459655
L 298.41943 121.964269
L 298.960158 121.769681
L 299.500885 122.016581
L 300.041613 121.901786
L 301.123067 122.068565
L 301.663795 121.723595
L 302.204522 122.051028
L 302.745249 122.684022
L 303.285977 122.905424
L 303.826704 122.451817
L 304.367432 122.539268
L 304.908159 122.437111
L 305.448886 122.719959
L 307.071068 122.726045
L 307.611796 123.022087
L 308.152523 123.686635
L 309.233978 124.242509
L 309.774705 123.97489
L 311.937615 125.932714
L 312.478342 125.994583
L 313.01907 126.92683
L 313.559797 127.554895
L 314.100524 127.908626
L 314.641252 127.716745
L 315.181979 128.092568
L 315.722706 128.241683
L 316.804161 129.854415
L 317.885616 129.685849
L 318.426343 130.100265
L 318.967071 130.986307
L 319.507798 131.208544
L 320.048525 131.824456
L 320.589253 132.032812
L 321.12998 132.702214
L 321.670708 132.933348
L 322.211435 133.551651
L 323.29289 133.949326
L 323.833617 134.423763
L 324.374344 134.661658
L 325.455799 135.508451
L 325.996527 135.589949
L 327.618709 137.187548
L 328.159436 137.859092
L 328.700163 137.968645
L 329.781618 138.861974
L 330.322346 139.644352
L 330.863073 140.661527
L 331.4038 141.302955
L 331.944528 141.661394
L 332.485255 142.230961
L 333.56671 142.828253
L 334.107437 143.562885
L 334.648165 143.787077
L 335.188892 144.650787
L 336.270347 145.769473
L 336.811074 146.576371
L 338.433256 147.452057
L 338.973983 147.846628
L 340.055438 149.001555
L 340.596166 149.173555
L 341.136893 149.698444
L 341.67762 149.784342
L 342.759075 150.388382
L 343.299802 150.318594
L 344.381257 151.075562
L 346.003439 151.590712
L 346.544167 151.594712
L 348.166349 151.891067
L 348.707076 151.891067
L 349.788531 152.076391
L 374.66199 152.013686
L 375.743445 151.413801
L 376.8249 151.163582
L 377.365627 150.742986
L 377.906354 150.788996
L 378.447082 150.49654
L 379.528537 149.514271
L 380.609991 148.074951
L 381.150719 147.598279
L 381.691446 147.378573
L 382.772901 146.579334
L 383.854356 145.839329
L 384.395083 144.77706
L 385.476538 144.1803
L 387.09872 143.498359
L 387.639447 142.88575
L 388.720902 142.617398
L 390.343084 141.237361
L 390.883811 141.599803
L 391.424539 141.394184
L 391.965266 140.950756
L 392.505994 140.770752
L 393.046721 141.015471
L 393.587448 140.436271
L 394.128176 140.289911
L 394.668903 139.635303
L 395.20963 139.352146
L 395.750358 138.754402
L 396.291085 138.634673
L 398.994722 136.920921
L 399.535449 136.155717
L 400.076177 136.022259
L 400.616904 136.029495
L 401.698359 135.531058
L 402.779814 135.105366
L 403.320541 135.173395
L 403.861268 134.480352
L 404.401996 133.591478
L 404.942723 132.98364
L 405.483451 132.600357
L 406.024178 132.482433
L 407.105633 131.645406
L 407.64636 131.678487
L 408.187087 131.40178
L 409.268542 131.211831
L 409.809269 131.315207
L 410.349997 131.730953
L 410.890724 131.930463
L 411.431452 132.388571
L 412.512906 132.219578
L 413.053634 132.319921
L 413.594361 132.282303
L 414.135088 131.900452
L 415.216543 132.169353
L 415.757271 132.168646
L 416.297998 131.553127
L 416.838725 131.235216
L 417.379453 131.518787
L 418.460907 131.45698
L 419.001635 131.372616
L 419.542362 131.866098
L 420.623817 132.28327
L 421.164544 131.621145
L 422.245999 131.295107
L 422.786726 131.468685
L 423.327454 131.125149
L 423.868181 131.1225
L 424.408909 131.237967
L 424.949636 131.057955
L 425.490363 131.231221
L 426.031091 130.89315
L 426.571818 130.928612
L 427.112545 130.599493
L 428.194 131.187304
L 428.734728 131.197946
L 429.275455 131.958803
L 429.816182 132.449434
L 430.35691 132.640227
L 430.897637 132.677784
L 431.979092 133.39507
L 432.519819 134.115606
L 433.060547 134.161304
L 434.142001 135.625665
L 435.223456 136.582041
L 435.764183 136.895302
L 437.386366 137.32166
L 437.927093 137.317075
L 439.008548 137.808299
L 439.549275 138.348947
L 440.63073 139.039028
L 441.171457 139.175299
L 441.712185 139.805229
L 442.252912 139.529387
L 442.793639 140.38429
L 443.334367 140.656686
L 443.875094 141.194498
L 444.415821 141.956979
L 444.956549 142.256496
L 445.497276 142.269158
L 446.038004 142.486311
L 446.578731 142.860561
L 447.119458 143.033182
L 447.660186 142.931234
L 448.200913 142.360383
L 448.74164 142.417367
L 449.282368 142.210761
L 449.823095 142.670584
L 450.363823 142.595235
L 452.526732 143.294367
L 453.067459 143.25701
L 453.608187 143.487117
L 454.689642 145.015675
L 455.230369 145.01292
L 455.771096 145.367397
L 456.311824 145.459429
L 456.852551 145.827059
L 457.393278 145.834763
L 457.934006 146.21444
L 458.474733 146.348381
L 459.556188 146.303424
L 460.096915 146.385007
L 460.637643 145.94594
L 461.17837 146.11575
L 461.719097 146.673782
L 462.259825 146.854651
L 462.800552 146.567371
L 463.34128 147.131748
L 463.882007 147.47674
L 466.044916 147.1139
L 466.585644 147.471314
L 467.126371 147.629948
L 467.667099 147.527586
L 468.207826 147.651899
L 468.748553 147.384762
L 469.289281 147.835342
L 469.830008 147.817515
L 470.370735 147.675227
L 471.45219 147.961007
L 471.992918 147.895942
L 472.533645 147.997452
L 473.074372 147.195288
L 474.155827 147.344703
L 474.696554 147.190772
L 475.237282 147.312823
L 475.778009 147.17926
L 476.318737 146.443662
L 477.400191 146.152828
L 477.940919 146.509662
L 479.022373 147.685471
L 479.563101 148.559853
L 480.103828 149.076593
L 480.103828 149.076593
" clip-path="url(#pec0080e83d)" style="fill: none; stroke: #2f3a44; stroke-width: 1.3; stroke-linecap: square"/>
   </g>
   <g id="text_17">
    <!-- Risk signal and detected events (synthetic example) -->
    <g style="fill: #2b2d42" transform="translate(119.269102 15.558281) scale(0.11 -0.11)">
     <defs>
      <path id="DejaVuSans-67" d="M 2906 1791
Q 2906 2416 2648 2759
Q 2391 3103 1925 3103
Q 1463 3103 1205 2759
Q 947 2416 947 1791
Q 947 1169 1205 825
Q 1463 481 1925 481
Q 2391 481 2648 825
Q 2906 1169 2906 1791
z
M 3481 434
Q 3481 -459 3084 -895
Q 2688 -1331 1869 -1331
Q 1566 -1331 1297 -1286
Q 1028 -1241 775 -1147
L 775 -588
Q 1028 -725 1275 -790
Q 1522 -856 1778 -856
Q 2344 -856 2625 -561
Q 2906 -266 2906 331
L 2906 616
Q 2728 306 2450 153
Q 2172 0 1784 0
Q 1141 0 747 490
Q 353 981 353 1791
Q 353 2603 747 3093
Q 1141 3584 1784 3584
Q 2172 3584 2450 3431
Q 2728 3278 2906 2969
L 2906 3500
L 3481 3500
L 3481 434
z
" transform="scale(0.015625)"/>
      <path id="DejaVuSans-6e" d="M 3513 2113
L 3513 0
L 2938 0
L 2938 2094
Q 2938 2591 2744 2837
Q 2550 3084 2163 3084
Q 1697 3084 1428 2787
Q 1159 2491 1159 1978
L 1159 0
L 581 0
L 581 3500
L 1159 3500
L 1159 2956
Q 1366 3272 1645 3428
Q 1925 3584 2291 3584
Q 2894 3584 3203 3211
Q 3513 2838 3513 2113
z
" transform="scale(0.015625)"/>
      <path id="DejaVuSans-61" d="M 2194 1759
Q 1497 1759 1228 1600
Q 959 1441 959 1056
Q 959 750 1161 570
Q 1363 391 1709 391
Q 2188 391 2477 730
Q 2766 1069 2766 1631
L 2766 1759
L 2194 1759
z
M 3341 1997
L 3341 0
L 2766 0
L 2766 531
Q 2569 213 2275 61
Q 1981 -91 1556 -91
Q 1019 -91 701 211
Q 384 513 384 1019
Q 384 1609 779 1909
Q 1175 2209 1959 2209
L 2766 2209
L 2766 2266
Q 2766 2663 2505 2880
Q 2244 3097 1772 3097
Q 1472 3097 1187 3025
Q 903 2953 641 2809
L 641 3341
Q 956 3463 1253 3523
Q 1550 3584 1831 3584
Q 2591 3584 2966 3190
Q 3341 2797 3341 1997
z
" transform="scale(0.015625)"/>
      <path id="DejaVuSans-6c" d="M 603 4863
L 1178 4863
L 1178 0
L 603 0
L 603 4863
z
" transform="scale(0.015625)"/>
      <path id="DejaVuSans-64" d="M 2906 2969
L 2906 4863
L 3481 4863
L 3481 0
L 2906 0
L 2906 525
Q 2725 213 2448 61
Q 2172 -91 1784 -91
Q 1150 -91 751 415
Q 353 922 353 1747
Q 353 2572 751 3078
Q 1150 3584 1784 3584
Q 2172 3584 2448 3432
Q 2725 3281 2906 2969
z
M 947 1747
Q 947 1113 1208 752
Q 1469 391 1925 391
Q 2381 391 2643 752
Q 2906 1113 2906 1747
Q 2906 2381 2643 2742
Q 2381 3103 1925 3103
Q 1469 3103 1208 2742
Q 947 2381 947 1747
z
" transform="scale(0.015625)"/>
      <path id="DejaVuSans-74" d="M 1172 4494
L 1172 3500
L 2356 3500
L 2356 3053
L 1172 3053
L 1172 1153
Q 1172 725 1289 603
Q 1406 481 1766 481
L 2356 481
L 2356 0
L 1766 0
Q 1100 0 847 248
Q 594 497 594 1153
L 594 3053
L 172 3053
L 172 3500
L 594 3500
L 594 4494
L 1172 4494
z
" transform="scale(0.015625)"/>
      <path id="DejaVuSans-76" d="M 191 3500
L 800 3500
L 1894 563
L 2988 3500
L 3597 3500
L 2284 0
L 1503 0
L 191 3500
z
" transform="scale(0.015625)"/>
      <path id="DejaVuSans-79" d="M 2059 -325
Q 1816 -950 1584 -1140
Q 1353 -1331 966 -1331
L 506 -1331
L 506 -850
L 844 -850
Q 1081 -850 1212 -737
Q 1344 -625 1503 -206
L 1606 56
L 191 3500
L 800 3500
L 1894 763
L 2988 3500
L 3597 3500
L 2059 -325
z
" transform="scale(0.015625)"/>
      <path id="DejaVuSans-68" d="M 3513 2113
L 3513 0
L 2938 0
L 2938 2094
Q 2938 2591 2744 2837
Q 2550 3084 2163 3084
Q 1697 3084 1428 2787
Q 1159 2491 1159 1978
L 1159 0
L 581 0
L 581 4863
L 1159 4863
L 1159 2956
Q 1366 3272 1645 3428
Q 1925 3584 2291 3584
Q 2894 3584 3203 3211
Q 3513 2838 3513 2113
z
" transform="scale(0.015625)"/>
      <path id="DejaVuSans-78" d="M 3513 3500
L 2247 1797
L 3578 0
L 2900 0
L 1881 1375
L 863 0
L 184 0
L 1544 1831
L 300 3500
L 978 3500
L 1906 2253
L 2834 3500
L 3513 3500
z
" transform="scale(0.015625)"/>
      <path id="DejaVuSans-70" d="M 1159 525
L 1159 -1331
L 581 -1331
L 581 3500
L 1159 3500
L 1159 2969
Q 1341 3281 1617 3432
Q 1894 3584 2278 3584
Q 2916 3584 3314 3078
Q 3713 2572 3713 1747
Q 3713 922 3314 415
Q 2916 -91 2278 -91
Q 1894 -91 1617 61
Q 1341 213 1159 525
z
M 3116 1747
Q 3116 2381 2855 2742
Q 2594 3103 2138 3103
Q 1681 3103 1420 2742
Q 1159 2381 1159 1747
Q 1159 1113 1420 752
Q 1681 391 2138 391
Q 2594 391 2855 752
Q 3116 1113 3116 1747
z
" transform="scale(0.015625)"/>
     </defs>
     <use xlink:href="#DejaVuSans-52"/>
     <use xlink:href="#DejaVuSans-69" transform="translate(69.482422 0)"/>
     <use xlink:href="#DejaVuSans-73" transform="translate(97.265625 0)"/>
     <use xlink:href="#DejaVuSans-6b" transform="translate(149.365234 0)"/>
     <use xlink:href="#DejaVuSans-20" transform="translate(207.275391 0)"/>
     <use xlink:href="#DejaVuSans-73" transform="translate(239.0625 0)"/>
     <use xlink:href="#DejaVuSans-69" transform="translate(291.162109 0)"/>
     <use xlink:href="#DejaVuSans-67" transform="translate(318.945312 0)"/>
     <use xlink:href="#DejaVuSans-6e" transform="translate(382.421875 0)"/>
     <use xlink:href="#DejaVuSans-61" transform="translate(445.800781 0)"/>
     <use xlink:href="#DejaVuSans-6c" transform="translate(507.080078 0)"/>
     <use xlink:href="#DejaVuSans-20" transform="translate(534.863281 0)"/>
     <use xlink:href="#DejaVuSans-61" transform="translate(566.650391 0)"/>
     <use xlink:href="#DejaVuSans-6e" transform="translate(627.929688 0)"/>
     <use xlink:href="#DejaVuSans-64" transform="translate(691.308594 0)"/>
     <use xlink:href="#DejaVuSans-20" transform="translate(754.785156 0)"/>
     <use xlink:href="#DejaVuSans-64" transform="translate(786.572266 0)"/>
     <use xlink:href="#DejaVuSans-65" transform="translate(850.048828 0)"/>
     <use xlink:href="#DejaVuSans-74" transform="translate(911.572266 0)"/>
     <use xlink:href="#DejaVuSans-65" transform="translate(950.78125 0)"/>
     <use xlink:href="#DejaVuSans-63" transform="translate(1012.304688 0)"/>
     <use xlink:href="#DejaVuSans-74" transform="translate(1067.285156 0)"/>
     <use xlink:href="#DejaVuSans-65" transform="translate(1106.494141 0)"/>
     <use xlink:href="#DejaVuSans-64" transform="translate(1168.017578 0)"/>
     <use xlink:href="#DejaVuSans-20" transform="translate(1231.494141 0)"/>
     <use xlink:href="#DejaVuSans-65" transform="translate(1263.28125 0)"/>
     <use xlink:href="#DejaVuSans-76" transform="translate(1324.804688 0)"/>
     <use xlink:href="#DejaVuSans-65" transform="translate(1383.984375 0)"/>
     <use xlink:href="#DejaVuSans-6e" transform="translate(1445.507812 0)"/>
     <use xlink:href="#DejaVuSans-74" transform="translate(1508.886719 0)"/>
     <use xlink:href="#DejaVuSans-73" transform="translate(1548.095703 0)"/>
     <use xlink:href="#DejaVuSans-20" transform="translate(1600.195312 0)"/>
     <use xlink:href="#DejaVuSans-28" transform="translate(1631.982422 0)"/>
     <use xlink:href="#DejaVuSans-73" transform="translate(1670.996094 0)"/>
     <use xlink:href="#DejaVuSans-79" transform="translate(1723.095703 0)"/>
     <use xlink:href="#DejaVuSans-6e" transform="translate(1782.275391 0)"/>
     <use xlink:href="#DejaVuSans-74" transform="translate(1845.654297 0)"/>
     <use xlink:href="#DejaVuSans-68" transform="translate(1884.863281 0)"/>
     <use xlink:href="#DejaVuSans-65" transform="translate(1948.242188 0)"/>
     <use xlink:href="#DejaVuSans-74" transform="translate(2009.765625 0)"/>
     <use xlink:href="#DejaVuSans-69" transform="translate(2048.974609 0)"/>
     <use xlink:href="#DejaVuSans-63" transform="translate(2076.757812 0)"/>
     <use xlink:href="#DejaVuSans-20" transform="translate(2131.738281 0)"/>
     <use xlink:href="#DejaVuSans-65" transform="translate(2163.525391 0)"/>
     <use xlink:href="#DejaVuSans-78" transform="translate(2223.298828 0)"/>
     <use xlink:href="#DejaVuSans-61" transform="translate(2282.478516 0)"/>
     <use xlink:href="#DejaVuSans-6d" transform="translate(2343.757812 0)"/>
     <use xlink:href="#DejaVuSans-70" transform="translate(2441.169922 0)"/>
     <use xlink:href="#DejaVuSans-6c" transform="translate(2504.646484 0)"/>
     <use xlink:href="#DejaVuSans-65" transform="translate(2532.429688 0)"/>
     <use xlink:href="#DejaVuSans-29" transform="translate(2593.953125 0)"/>
    </g>
   </g>
   <g id="PathCollection_1">
    <defs>
     <path id="m16d3e69f99" d="M 0 3.24037
C 0.859356 3.24037 1.683631 2.898944 2.291288 2.291288
C 2.898944 1.683631 3.24037 0.859356 3.24037 0
C 3.24037 -0.859356 2.898944 -1.683631 2.291288 -2.291288
C 1.683631 -2.898944 0.859356 -3.24037 0 -3.24037
C -0.859356 -3.24037 -1.683631 -2.898944 -2.291288 -2.291288
C -2.898944 -1.683631 -3.24037 -0.859356 -3.24037 0
C -3.24037 0.859356 -2.898944 1.683631 -2.291288 2.291288
C -1.683631 2.898944 -0.859356 3.24037 0 3.24037
z
" style="stroke: #ffffff; stroke-width: 0.5"/>
    </defs>
    <g clip-path="url(#pec0080e83d)">
     <use xlink:href="#m16d3e69f99" x="130.150479" y="91.488961" style="fill: #3d5a73; stroke: #ffffff; stroke-width: 0.5"/>
    </g>
   </g>
   <g id="PathCollection_2">
    <g clip-path="url(#pec0080e83d)">
     <use xlink:href="#m16d3e69f99" x="242.481184" y="125.202253" style="fill: #3d5a73; stroke: #ffffff; stroke-width: 0.5"/>
    </g>
   </g>
   <g id="PathCollection_3">
    <g clip-path="url(#pec0080e83d)">
     <use xlink:href="#m16d3e69f99" x="376.413947" y="151.293145" style="fill: #3d5a73; stroke: #ffffff; stroke-width: 0.5"/>
    </g>
   </g>
   <g id="legend_1">
    <g id="patch_10">
     <path d="M 372.092734 59.982344
L 475.203828 59.982344
Q 476.603828 59.982344 476.603828 58.582344
L 476.603828 28.458281
Q 476.603828 27.058281 475.203828 27.058281
L 372.092734 27.058281
Q 370.692734 27.058281 370.692734 28.458281
L 370.692734 58.582344
Q 370.692734 59.982344 372.092734 59.982344
z
" style="fill: #ffffff; opacity: 0.92; stroke: #cccccc; stroke-linejoin: miter"/>
    </g>
    <g id="patch_11">
     <path d="M 373.492734 35.177188
L 387.492734 35.177188
L 387.492734 30.277188
L 373.492734 30.277188
z
" style="fill: #ebeef0; opacity: 0.6"/>
    </g>
    <g id="text_18">
     <!-- LOW -->
     <g transform="translate(393.092734 35.177188) scale(0.07 -0.07)">
      <defs>
       <path id="DejaVuSans-4c" d="M 628 4666
L 1259 4666
L 1259 531
L 3531 531
L 3531 0
L 628 0
L 628 4666
z
" transform="scale(0.015625)"/>
       <path id="DejaVuSans-4f" d="M 2522 4238
Q 1834 4238 1429 3725
Q 1025 3213 1025 2328
Q 1025 1447 1429 934
Q 1834 422 2522 422
Q 3209 422 3611 934
Q 4013 1447 4013 2328
Q 4013 3213 3611 3725
Q 3209 4238 2522 4238
z
M 2522 4750
Q 3503 4750 4090 4092
Q 4678 3434 4678 2328
Q 4678 1225 4090 567
Q 3503 -91 2522 -91
Q 1538 -91 948 565
Q 359 1222 359 2328
Q 359 3434 948 4092
Q 1538 4750 2522 4750
z
" transform="scale(0.015625)"/>
       <path id="DejaVuSans-57" d="M 213 4666
L 850 4666
L 1831 722
L 2809 4666
L 3519 4666
L 4500 722
L 5478 4666
L 6119 4666
L 4947 0
L 4153 0
L 3169 4050
L 2175 0
L 1381 0
L 213 4666
z
" transform="scale(0.015625)"/>
      </defs>
      <use xlink:href="#DejaVuSans-4c"/>
      <use xlink:href="#DejaVuSans-4f" transform="translate(52.087891 0)"/>
      <use xlink:href="#DejaVuSans-57" transform="translate(130.798828 0)"/>
     </g>
    </g>
    <g id="patch_12">
     <path d="M 373.492734 45.451875
L 387.492734 45.451875
L 387.492734 40.551875
L 373.492734 40.551875
z
" style="fill: #d4c4a8; stroke: #8b6f47; stroke-width: 0.3; stroke-linejoin: miter"/>
    </g>
    <g id="text_19">
     <!-- HIGH (band 0.55–0.75) -->
     <g transform="translate(393.092734 45.451875) scale(0.07 -0.07)">
      <defs>
       <path id="DejaVuSans-48" d="M 628 4666
L 1259 4666
L 1259 2753
L 3553 2753
L 3553 4666
L 4184 4666
L 4184 0
L 3553 0
L 3553 2222
L 1259 2222
L 1259 0
L 628 0
L 628 4666
z
" transform="scale(0.015625)"/>
       <path id="DejaVuSans-49" d="M 628 4666
L 1259 4666
L 1259 0
L 628 0
L 628 4666
z
" transform="scale(0.015625)"/>
       <path id="DejaVuSans-47" d="M 3809 666
L 3809 1919
L 2778 1919
L 2778 2438
L 4434 2438
L 4434 434
Q 4069 175 3628 42
Q 3188 -91 2688 -91
Q 1594 -91 976 548
Q 359 1188 359 2328
Q 359 3472 976 4111
Q 1594 4750 2688 4750
Q 3144 4750 3555 4637
Q 3966 4525 4313 4306
L 4313 3634
Q 3963 3931 3569 4081
Q 3175 4231 2741 4231
Q 1884 4231 1454 3753
Q 1025 3275 1025 2328
Q 1025 1384 1454 906
Q 1884 428 2741 428
Q 3075 428 3337 486
Q 3600 544 3809 666
z
" transform="scale(0.015625)"/>
       <path id="DejaVuSans-62" d="M 3116 1747
Q 3116 2381 2855 2742
Q 2594 3103 2138 3103
Q 1681 3103 1420 2742
Q 1159 2381 1159 1747
Q 1159 1113 1420 752
Q 1681 391 2138 391
Q 2594 391 2855 752
Q 3116 1113 3116 1747
z
M 1159 2969
Q 1341 3281 1617 3432
Q 1894 3584 2278 3584
Q 2916 3584 3314 3078
Q 3713 2572 3713 1747
Q 3713 922 3314 415
Q 2916 -91 2278 -91
Q 1894 -91 1617 61
Q 1341 213 1159 525
L 1159 0
L 581 0
L 581 4863
L 1159 4863
L 1159 2969
z
" transform="scale(0.015625)"/>
      </defs>
      <use xlink:href="#DejaVuSans-48"/>
      <use xlink:href="#DejaVuSans-49" transform="translate(75.195312 0)"/>
      <use xlink:href="#DejaVuSans-47" transform="translate(104.6875 0)"/>
      <use xlink:href="#DejaVuSans-48" transform="translate(182.177734 0)"/>
      <use xlink:href="#DejaVuSans-20" transform="translate(257.373047 0)"/>
      <use xlink:href="#DejaVuSans-28" transform="translate(289.160156 0)"/>
      <use xlink:href="#DejaVuSans-62" transform="translate(328.173828 0)"/>
      <use xlink:href="#DejaVuSans-61" transform="translate(391.650391 0)"/>
      <use xlink:href="#DejaVuSans-6e" transform="translate(452.929688 0)"/>
      <use xlink:href="#DejaVuSans-64" transform="translate(516.308594 0)"/>
      <use xlink:href="#DejaVuSans-20" transform="translate(579.785156 0)"/>
      <use xlink:href="#DejaVuSans-30" transform="translate(611.572266 0)"/>
      <use xlink:href="#DejaVuSans-2e" transform="translate(675.195312 0)"/>
      <use xlink:href="#DejaVuSans-35" transform="translate(706.982422 0)"/>
      <use xlink:href="#DejaVuSans-35" transform="translate(770.605469 0)"/>
      <use xlink:href="#DejaVuSans-2013" transform="translate(834.228516 0)"/>
      <use xlink:href="#DejaVuSans-30" transform="translate(884.228516 0)"/>
      <use xlink:href="#DejaVuSans-2e" transform="translate(947.851562 0)"/>
      <use xlink:href="#DejaVuSans-37" transform="translate(979.638672 0)"/>
      <use xlink:href="#DejaVuSans-35" transform="translate(1043.261719 0)"/>
      <use xlink:href="#DejaVuSans-29" transform="translate(1106.884766 0)"/>
     </g>
    </g>
    <g id="patch_13">
     <path d="M 373.492734 55.726562
L 387.492734 55.726562
L 387.492734 50.826563
L 373.492734 50.826563
z
" style="fill: #c4a5a5; stroke: #6b3a3a; stroke-width: 0.3; stroke-linejoin: miter"/>
    </g>
    <g id="text_20">
     <!-- CRITICAL (band ≥0.75) -->
     <g transform="translate(393.092734 55.726562) scale(0.07 -0.07)">
      <defs>
       <path id="DejaVuSans-43" d="M 4122 4306
L 4122 3641
Q 3803 3938 3442 4084
Q 3081 4231 2675 4231
Q 1875 4231 1450 3742
Q 1025 3253 1025 2328
Q 1025 1406 1450 917
Q 1875 428 2675 428
Q 3081 428 3442 575
Q 3803 722 4122 1019
L 4122 359
Q 3791 134 3420 21
Q 3050 -91 2638 -91
Q 1578 -91 968 557
Q 359 1206 359 2328
Q 359 3453 968 4101
Q 1578 4750 2638 4750
Q 3056 4750 3426 4639
Q 3797 4528 4122 4306
z
" transform="scale(0.015625)"/>
       <path id="DejaVuSans-41" d="M 2188 4044
L 1331 1722
L 3047 1722
L 2188 4044
z
M 1831 4666
L 2547 4666
L 4325 0
L 3669 0
L 3244 1197
L 1141 1197
L 716 0
L 50 0
L 1831 4666
z
" transform="scale(0.015625)"/>
       <path id="DejaVuSans-2265" d="M 678 3175
L 678 3725
L 4684 2578
L 4684 2047
L 678 897
L 678 1453
L 3681 2309
L 678 3175
z
M 4684 531
L 4684 0
L 678 0
L 678 531
L 4684 531
z
" transform="scale(0.015625)"/>
      </defs>
      <use xlink:href="#DejaVuSans-43"/>
      <use xlink:href="#DejaVuSans-52" transform="translate(69.824219 0)"/>
      <use xlink:href="#DejaVuSans-49" transform="translate(139.306641 0)"/>
      <use xlink:href="#DejaVuSans-54" transform="translate(168.798828 0)"/>
      <use xlink:href="#DejaVuSans-49" transform="translate(229.882812 0)"/>
      <use xlink:href="#DejaVuSans-43" transform="translate(259.375 0)"/>
      <use xlink:href="#DejaVuSans-41" transform="translate(329.199219 0)"/>
      <use xlink:href="#DejaVuSans-4c" transform="translate(397.607422 0)"/>
      <use xlink:href="#DejaVuSans-20" transform="translate(453.320312 0)"/>
      <use xlink:href="#DejaVuSans-28" transform="translate(485.107422 0)"/>
      <use xlink:href="#DejaVuSans-62" transform="translate(524.121094 0)"/>
      <use xlink:href="#DejaVuSans-61" transform="translate(587.597656 0)"/>
      <use xlink:href="#DejaVuSans-6e" transform="translate(648.876953 0)"/>
      <use xlink:href="#DejaVuSans-64" transform="translate(712.255859 0)"/>
      <use xlink:href="#DejaVuSans-20" transform="translate(775.732422 0)"/>
      <use xlink:href="#DejaVuSans-2265" transform="translate(807.519531 0)"/>
      <use xlink:href="#DejaVuSans-30" transform="translate(891.308594 0)"/>
      <use xlink:href="#DejaVuSans-2e" transform="translate(954.931641 0)"/>
      <use xlink:href="#DejaVuSans-37" transform="translate(986.71875 0)"/>
      <use xlink:href="#DejaVuSans-35" transform="translate(1050.341797 0)"/>
      <use xlink:href="#DejaVuSans-29" transform="translate(1113.964844 0)"/>
     </g>
    </g>
   </g>
  </g>
 </g>
 <defs>
  <clipPath id="pec0080e83d">
   <rect x="48.062656" y="23.558281" width="432.041172" height="128.617187"/>
  </clipPath>
 </defs>
</svg>
