<?xml version="1.0" encoding="utf-8" standalone="no"?>
<!DOCTYPE svg PUBLIC "-//W3C//DTD SVG 1.1//EN"
  "http://www.w3.org/Graphics/SVG/1.1/DTD/svg11.dtd">
<svg xmlns:xlink="http://www.w3.org/1999/xlink" width="541.08pt" height="199.08pt" viewBox="0 0 541.08 199.08" xmlns="http://www.w3.org/2000/svg" version="1.1">
 <metadata>
  <rdf:RDF xmlns:dc="http://purl.org/dc/elements/1.1/" xmlns:cc="http://creativecommons.org/ns#" xmlns:rdf="http://www.w3.org/1999/02/22-rdf-syntax-ns#">
   <cc:Work>
    <dc:type rdf:resource="http://purl.org/dc/dcmitype/StillImage"/>
    <dc:date>2026-04-29T21:41:22.907730</dc:date>
    <dc:format>image/svg+xml</dc:format>
    <dc:creator>
     <cc:Agent>
      <dc:title>Matplotlib v3.10.9, https://matplotlib.org/</dc:title>
     </cc:Agent>
    </dc:creator>
   </cc:Work>
  </rdf:RDF>
 </metadata>
 <defs>
  <style type="text/css">*{stroke-linejoin: round; stroke-linecap: butt}</style>
 </defs>
 <g id="figure_1">
  <g id="patch_1">
   <path d="M 0 199.08
L 541.08 199.08
L 541.08 0
L 0 0
z
" style="fill: #ffffff"/>
  </g>
  <g id="axes_1">
   <g id="patch_2">
    <path d="M 54.07452 128.35008
L 157.83048 128.35008
Q 160.99056 128.35008 160.99056 123.91776
L 160.99056 91.41408
Q 160.99056 86.98176 157.83048 86.98176
L 54.07452 86.98176
Q 50.91444 86.98176 50.91444 91.41408
L 50.91444 123.91776
Q 50.91444 128.35008 54.07452 128.35008
z
" clip-path="url(#p3f805027e6)" style="fill: #e8ecef; stroke: #5a6b78; stroke-width: 0.8; stroke-linejoin: miter"/>
   </g>
   <g id="patch_3">
    <path d="M 167.31072 128.35008
L 271.06668 128.35008
Q 274.22676 128.35008 274.22676 123.91776
L 274.22676 91.41408
Q 274.22676 86.98176 271.06668 86.98176
L 167.31072 86.98176
Q 164.15064 86.98176 164.15064 91.41408
L 164.15064 123.91776
Q 164.15064 128.35008 167.31072 128.35008
z
" clip-path="url(#p3f805027e6)" style="fill: #ddd6c8; stroke: #9a8b6e; stroke-width: 0.8; stroke-linejoin: miter"/>
   </g>
   <g id="patch_4">
    <path d="M 280.54692 128.35008
L 384.30288 128.35008
Q 387.46296 128.35008 387.46296 123.91776
L 387.46296 91.41408
Q 387.46296 86.98176 384.30288 86.98176
L 280.54692 86.98176
Q 277.38684 86.98176 277.38684 91.41408
L 277.38684 123.91776
Q 277.38684 128.35008 280.54692 128.35008
z
" clip-path="url(#p3f805027e6)" style="fill: #d4c4a8; stroke: #8b6f47; stroke-width: 0.8; stroke-linejoin: miter"/>
   </g>
   <g id="patch_5">
    <path d="M 393.78312 128.35008
L 497.53908 128.35008
Q 500.69916 128.35008 500.69916 123.91776
L 500.69916 91.41408
Q 500.69916 86.98176 497.53908 86.98176
L 393.78312 86.98176
Q 390.62304 86.98176 390.62304 91.41408
L 390.62304 123.91776
Q 390.62304 128.35008 393.78312 128.35008
z
" clip-path="url(#p3f805027e6)" style="fill: #c4a5a5; stroke: #6b3a3a; stroke-width: 0.8; stroke-linejoin: miter"/>
   </g>
   <g id="patch_6">
    <path d="M 41.4342 40.4424
Q 270.54 40.4424 498.639569 40.4424
" clip-path="url(#p3f805027e6)" style="fill: none; stroke: #4a5568; stroke-width: 0.9; stroke-linecap: round"/>
    <path d="M 493.839569 38.0424
L 498.639569 40.4424
L 493.839569 42.8424
z
" clip-path="url(#p3f805027e6)" style="fill: #4a5568; stroke: #4a5568; stroke-width: 0.9; stroke-linecap: round"/>
   </g>
   <g id="patch_7">
    <path d="M 160.99056 107.66592
Q 162.5706 107.66592 163.144409 107.66592
" clip-path="url(#p3f805027e6)" style="fill: none; stroke: #4a5568; stroke-width: 0.9; stroke-linecap: round"/>
    <path d="M 158.344409 105.26592
L 163.144409 107.66592
L 158.344409 110.06592
z
" clip-path="url(#p3f805027e6)" style="fill: #4a5568; stroke: #4a5568; stroke-width: 0.9; stroke-linecap: round"/>
   </g>
   <g id="patch_8">
    <path d="M 274.22676 107.66592
Q 275.8068 107.66592 276.380609 107.66592
" clip-path="url(#p3f805027e6)" style="fill: none; stroke: #4a5568; stroke-width: 0.9; stroke-linecap: round"/>
    <path d="M 271.580609 105.26592
L 276.380609 107.66592
L 271.580609 110.06592
z
" clip-path="url(#p3f805027e6)" style="fill: #4a5568; stroke: #4a5568; stroke-width: 0.9; stroke-linecap: round"/>
   </g>
   <g id="patch_9">
    <path d="M 387.46296 107.66592
Q 389.043 107.66592 389.616809 107.66592
" clip-path="url(#p3f805027e6)" style="fill: none; stroke: #4a5568; stroke-width: 0.9; stroke-linecap: round"/>
    <path d="M 384.816809 105.26592
L 389.616809 107.66592
L 384.816809 110.06592
z
" clip-path="url(#p3f805027e6)" style="fill: #4a5568; stroke: #4a5568; stroke-width: 0.9; stroke-linecap: round"/>
   </g>
   <g id="text_1">
    <!-- Multi-level risk bands and example interpretable signals (schematic, not normative) -->
    <g style="fill: #2b2d42" transform="translate(33.232937 24.650874) scale(0.113 -0.113)">
     <defs>
      <path id="DejaVuSans-4d" d="M 628 4666
L 1569 4666
L 2759 1491
L 3956 4666
L 4897 4666
L 4897 0
L 4281 0
L 4281 4097
L 3078 897
L 2444 897
L 1241 4097
L 1241 0
L 628 0
L 628 4666
z
" transform="scale(0.015625)"/>
      <path id="DejaVuSans-75" d="M 544 1381
L 544 3500
L 1119 3500
L 1119 1403
Q 1119 906 1312 657
Q 1506 409 1894 409
Q 2359 409 2629 706
Q 2900 1003 2900 1516
L 2900 3500
L 3475 3500
L 3475 0
L 2900 0
L 2900 538
Q 2691 219 2414 64
Q 2138 -91 1772 -91
Q 1169 -91 856 284
Q 544 659 544 1381
z
M 1991 3584
L 1991 3584
z
" transform="scale(0.015625)"/>
      <path id="DejaVuSans-6c" d="M 603 4863
L 1178 4863
L 1178 0
L 603 0
L 603 4863
z
" transform="scale(0.015625)"/>
      <path id="DejaVuSans-74" d="M 1172 4494
L 1172 3500
L 2356 3500
L 2356 3053
L 1172 3053
L 1172 1153
Q 1172 725 1289 603
Q 1406 481 1766 481
L 2356 481
L 2356 0
L 1766 0
Q 1100 0 847 248
Q 594 497 594 1153
L 594 3053
L 172 3053
L 172 3500
L 594 3500
L 594 4494
L 1172 4494
z
" transform="scale(0.015625)"/>
      <path id="DejaVuSans-69" d="M 603 3500
L 1178 3500
L 1178 0
L 603 0
L 603 3500
z
M 603 4863
L 1178 4863
L 1178 4134
L 603 4134
L 603 4863
z
" transform="scale(0.015625)"/>
      <path id="DejaVuSans-2d" d="M 313 2009
L 1997 2009
L 1997 1497
L 313 1497
L 313 2009
z
" transform="scale(0.015625)"/>
      <path id="DejaVuSans-65" d="M 3597 1894
L 3597 1613
L 953 1613
Q 991 1019 1311 708
Q 1631 397 2203 397
Q 2534 397 2845 478
Q 3156 559 3463 722
L 3463 178
Q 3153 47 2828 -22
Q 2503 -91 2169 -91
Q 1331 -91 842 396
Q 353 884 353 1716
Q 353 2575 817 3079
Q 1281 3584 2069 3584
Q 2775 3584 3186 3129
Q 3597 2675 3597 1894
z
M 3022 2063
Q 3016 2534 2758 2815
Q 2500 3097 2075 3097
Q 1594 3097 1305 2825
Q 1016 2553 972 2059
L 3022 2063
z
" transform="scale(0.015625)"/>
      <path id="DejaVuSans-76" d="M 191 3500
L 800 3500
L 1894 563
L 2988 3500
L 3597 3500
L 2284 0
L 1503 0
L 191 3500
z
" transform="scale(0.015625)"/>
      <path id="DejaVuSans-20" transform="scale(0.015625)"/>
      <path id="DejaVuSans-72" d="M 2631 2963
Q 2534 3019 2420 3045
Q 2306 3072 2169 3072
Q 1681 3072 1420 2755
Q 1159 2438 1159 1844
L 1159 0
L 581 0
L 581 3500
L 1159 3500
L 1159 2956
Q 1341 3275 1631 3429
Q 1922 3584 2338 3584
Q 2397 3584 2469 3576
Q 2541 3569 2628 3553
L 2631 2963
z
" transform="scale(0.015625)"/>
      <path id="DejaVuSans-73" d="M 2834 3397
L 2834 2853
Q 2591 2978 2328 3040
Q 2066 3103 1784 3103
Q 1356 3103 1142 2972
Q 928 2841 928 2578
Q 928 2378 1081 2264
Q 1234 2150 1697 2047
L 1894 2003
Q 2506 1872 2764 1633
Q 3022 1394 3022 966
Q 3022 478 2636 193
Q 2250 -91 1575 -91
Q 1294 -91 989 -36
Q 684 19 347 128
L 347 722
Q 666 556 975 473
Q 1284 391 1588 391
Q 1994 391 2212 530
Q 2431 669 2431 922
Q 2431 1156 2273 1281
Q 2116 1406 1581 1522
L 1381 1569
Q 847 1681 609 1914
Q 372 2147 372 2553
Q 372 3047 722 3315
Q 1072 3584 1716 3584
Q 2034 3584 2315 3537
Q 2597 3491 2834 3397
z
" transform="scale(0.015625)"/>
      <path id="DejaVuSans-6b" d="M 581 4863
L 1159 4863
L 1159 1991
L 2875 3500
L 3609 3500
L 1753 1863
L 3688 0
L 2938 0
L 1159 1709
L 1159 0
L 581 0
L 581 4863
z
" transform="scale(0.015625)"/>
      <path id="DejaVuSans-62" d="M 3116 1747
Q 3116 2381 2855 2742
Q 2594 3103 2138 3103
Q 1681 3103 1420 2742
Q 1159 2381 1159 1747
Q 1159 1113 1420 752
Q 1681 391 2138 391
Q 2594 391 2855 752
Q 3116 1113 3116 1747
z
M 1159 2969
Q 1341 3281 1617 3432
Q 1894 3584 2278 3584
Q 2916 3584 3314 3078
Q 3713 2572 3713 1747
Q 3713 922 3314 415
Q 2916 -91 2278 -91
Q 1894 -91 1617 61
Q 1341 213 1159 525
L 1159 0
L 581 0
L 581 4863
L 1159 4863
L 1159 2969
z
" transform="scale(0.015625)"/>
      <path id="DejaVuSans-61" d="M 2194 1759
Q 1497 1759 1228 1600
Q 959 1441 959 1056
Q 959 750 1161 570
Q 1363 391 1709 391
Q 2188 391 2477 730
Q 2766 1069 2766 1631
L 2766 1759
L 2194 1759
z
M 3341 1997
L 3341 0
L 2766 0
L 2766 531
Q 2569 213 2275 61
Q 1981 -91 1556 -91
Q 1019 -91 701 211
Q 384 513 384 1019
Q 384 1609 779 1909
Q 1175 2209 1959 2209
L 2766 2209
L 2766 2266
Q 2766 2663 2505 2880
Q 2244 3097 1772 3097
Q 1472 3097 1187 3025
Q 903 2953 641 2809
L 641 3341
Q 956 3463 1253 3523
Q 1550 3584 1831 3584
Q 2591 3584 2966 3190
Q 3341 2797 3341 1997
z
" transform="scale(0.015625)"/>
      <path id="DejaVuSans-6e" d="M 3513 2113
L 3513 0
L 2938 0
L 2938 2094
Q 2938 2591 2744 2837
Q 2550 3084 2163 3084
Q 1697 3084 1428 2787
Q 1159 2491 1159 1978
L 1159 0
L 581 0
L 581 3500
L 1159 3500
L 1159 2956
Q 1366 3272 1645 3428
Q 1925 3584 2291 3584
Q 2894 3584 3203 3211
Q 3513 2838 3513 2113
z
" transform="scale(0.015625)"/>
      <path id="DejaVuSans-64" d="M 2906 2969
L 2906 4863
L 3481 4863
L 3481 0
L 2906 0
L 2906 525
Q 2725 213 2448 61
Q 2172 -91 1784 -91
Q 1150 -91 751 415
Q 353 922 353 1747
Q 353 2572 751 3078
Q 1150 3584 1784 3584
Q 2172 3584 2448 3432
Q 2725 3281 2906 2969
z
M 947 1747
Q 947 1113 1208 752
Q 1469 391 1925 391
Q 2381 391 2643 752
Q 2906 1113 2906 1747
Q 2906 2381 2643 2742
Q 2381 3103 1925 3103
Q 1469 3103 1208 2742
Q 947 2381 947 1747
z
" transform="scale(0.015625)"/>
      <path id="DejaVuSans-78" d="M 3513 3500
L 2247 1797
L 3578 0
L 2900 0
L 1881 1375
L 863 0
L 184 0
L 1544 1831
L 300 3500
L 978 3500
L 1906 2253
L 2834 3500
L 3513 3500
z
" transform="scale(0.015625)"/>
      <path id="DejaVuSans-6d" d="M 3328 2828
Q 3544 3216 3844 3400
Q 4144 3584 4550 3584
Q 5097 3584 5394 3201
Q 5691 2819 5691 2113
L 5691 0
L 5113 0
L 5113 2094
Q 5113 2597 4934 2840
Q 4756 3084 4391 3084
Q 3944 3084 3684 2787
Q 3425 2491 3425 1978
L 3425 0
L 2847 0
L 2847 2094
Q 2847 2600 2669 2842
Q 2491 3084 2119 3084
Q 1678 3084 1418 2786
Q 1159 2488 1159 1978
L 1159 0
L 581 0
L 581 3500
L 1159 3500
L 1159 2956
Q 1356 3278 1631 3431
Q 1906 3584 2284 3584
Q 2666 3584 2933 3390
Q 3200 3197 3328 2828
z
" transform="scale(0.015625)"/>
      <path id="DejaVuSans-70" d="M 1159 525
L 1159 -1331
L 581 -1331
L 581 3500
L 1159 3500
L 1159 2969
Q 1341 3281 1617 3432
Q 1894 3584 2278 3584
Q 2916 3584 3314 3078
Q 3713 2572 3713 1747
Q 3713 922 3314 415
Q 2916 -91 2278 -91
Q 1894 -91 1617 61
Q 1341 213 1159 525
z
M 3116 1747
Q 3116 2381 2855 2742
Q 2594 3103 2138 3103
Q 1681 3103 1420 2742
Q 1159 2381 1159 1747
Q 1159 1113 1420 752
Q 1681 391 2138 391
Q 2594 391 2855 752
Q 3116 1113 3116 1747
z
" transform="scale(0.015625)"/>
      <path id="DejaVuSans-67" d="M 2906 1791
Q 2906 2416 2648 2759
Q 2391 3103 1925 3103
Q 1463 3103 1205 2759
Q 947 2416 947 1791
Q 947 1169 1205 825
Q 1463 481 1925 481
Q 2391 481 2648 825
Q 2906 1169 2906 1791
z
M 3481 434
Q 3481 -459 3084 -895
Q 2688 -1331 1869 -1331
Q 1566 -1331 1297 -1286
Q 1028 -1241 775 -1147
L 775 -588
Q 1028 -725 1275 -790
Q 1522 -856 1778 -856
Q 2344 -856 2625 -561
Q 2906 -266 2906 331
L 2906 616
Q 2728 306 2450 153
Q 2172 0 1784 0
Q 1141 0 747 490
Q 353 981 353 1791
Q 353 2603 747 3093
Q 1141 3584 1784 3584
Q 2172 3584 2450 3431
Q 2728 3278 2906 2969
L 2906 3500
L 3481 3500
L 3481 434
z
" transform="scale(0.015625)"/>
      <path id="DejaVuSans-28" d="M 1984 4856
Q 1566 4138 1362 3434
Q 1159 2731 1159 2009
Q 1159 1288 1364 580
Q 1569 -128 1984 -844
L 1484 -844
Q 1016 -109 783 600
Q 550 1309 550 2009
Q 550 2706 781 3412
Q 1013 4119 1484 4856
L 1984 4856
z
" transform="scale(0.015625)"/>
      <path id="DejaVuSans-63" d="M 3122 3366
L 3122 2828
Q 2878 2963 2633 3030
Q 2388 3097 2138 3097
Q 1578 3097 1268 2742
Q 959 2388 959 1747
Q 959 1106 1268 751
Q 1578 397 2138 397
Q 2388 397 2633 464
Q 2878 531 3122 666
L 3122 134
Q 2881 22 2623 -34
Q 2366 -91 2075 -91
Q 1284 -91 818 406
Q 353 903 353 1747
Q 353 2603 823 3093
Q 1294 3584 2113 3584
Q 2378 3584 2631 3529
Q 2884 3475 3122 3366
z
" transform="scale(0.015625)"/>
      <path id="DejaVuSans-68" d="M 3513 2113
L 3513 0
L 2938 0
L 2938 2094
Q 2938 2591 2744 2837
Q 2550 3084 2163 3084
Q 1697 3084 1428 2787
Q 1159 2491 1159 1978
L 1159 0
L 581 0
L 581 4863
L 1159 4863
L 1159 2956
Q 1366 3272 1645 3428
Q 1925 3584 2291 3584
Q 2894 3584 3203 3211
Q 3513 2838 3513 2113
z
" transform="scale(0.015625)"/>
      <path id="DejaVuSans-2c" d="M 750 794
L 1409 794
L 1409 256
L 897 -744
L 494 -744
L 750 256
L 750 794
z
" transform="scale(0.015625)"/>
      <path id="DejaVuSans-6f" d="M 1959 3097
Q 1497 3097 1228 2736
Q 959 2375 959 1747
Q 959 1119 1226 758
Q 1494 397 1959 397
Q 2419 397 2687 759
Q 2956 1122 2956 1747
Q 2956 2369 2687 2733
Q 2419 3097 1959 3097
z
M 1959 3584
Q 2709 3584 3137 3096
Q 3566 2609 3566 1747
Q 3566 888 3137 398
Q 2709 -91 1959 -91
Q 1206 -91 779 398
Q 353 888 353 1747
Q 353 2609 779 3096
Q 1206 3584 1959 3584
z
" transform="scale(0.015625)"/>
      <path id="DejaVuSans-29" d="M 513 4856
L 1013 4856
Q 1481 4119 1714 3412
Q 1947 2706 1947 2009
Q 1947 1309 1714 600
Q 1481 -109 1013 -844
L 513 -844
Q 928 -128 1133 580
Q 1338 1288 1338 2009
Q 1338 2731 1133 3434
Q 928 4138 513 4856
z
" transform="scale(0.015625)"/>
     </defs>
     <use xlink:href="#DejaVuSans-4d"/>
     <use xlink:href="#DejaVuSans-75" transform="translate(86.279297 0)"/>
     <use xlink:href="#DejaVuSans-6c" transform="translate(149.658203 0)"/>
     <use xlink:href="#DejaVuSans-74" transform="translate(177.441406 0)"/>
     <use xlink:href="#DejaVuSans-69" transform="translate(216.650391 0)"/>
     <use xlink:href="#DejaVuSans-2d" transform="translate(244.433594 0)"/>
     <use xlink:href="#DejaVuSans-6c" transform="translate(280.517578 0)"/>
     <use xlink:href="#DejaVuSans-65" transform="translate(308.300781 0)"/>
     <use xlink:href="#DejaVuSans-76" transform="translate(369.824219 0)"/>
     <use xlink:href="#DejaVuSans-65" transform="translate(429.003906 0)"/>
     <use xlink:href="#DejaVuSans-6c" transform="translate(490.527344 0)"/>
     <use xlink:href="#DejaVuSans-20" transform="translate(518.310547 0)"/>
     <use xlink:href="#DejaVuSans-72" transform="translate(550.097656 0)"/>
     <use xlink:href="#DejaVuSans-69" transform="translate(591.210938 0)"/>
     <use xlink:href="#DejaVuSans-73" transform="translate(618.994141 0)"/>
     <use xlink:href="#DejaVuSans-6b" transform="translate(671.09375 0)"/>
     <use xlink:href="#DejaVuSans-20" transform="translate(729.003906 0)"/>
     <use xlink:href="#DejaVuSans-62" transform="translate(760.791016 0)"/>
     <use xlink:href="#DejaVuSans-61" transform="translate(824.267578 0)"/>
     <use xlink:href="#DejaVuSans-6e" transform="translate(885.546875 0)"/>
     <use xlink:href="#DejaVuSans-64" transform="translate(948.925781 0)"/>
     <use xlink:href="#DejaVuSans-73" transform="translate(1012.402344 0)"/>
     <use xlink:href="#DejaVuSans-20" transform="translate(1064.501953 0)"/>
     <use xlink:href="#DejaVuSans-61" transform="translate(1096.289062 0)"/>
     <use xlink:href="#DejaVuSans-6e" transform="translate(1157.568359 0)"/>
     <use xlink:href="#DejaVuSans-64" transform="translate(1220.947266 0)"/>
     <use xlink:href="#DejaVuSans-20" transform="translate(1284.423828 0)"/>
     <use xlink:href="#DejaVuSans-65" transform="translate(1316.210938 0)"/>
     <use xlink:href="#DejaVuSans-78" transform="translate(1375.984375 0)"/>
     <use xlink:href="#DejaVuSans-61" transform="translate(1435.164062 0)"/>
     <use xlink:href="#DejaVuSans-6d" transform="translate(1496.443359 0)"/>
     <use xlink:href="#DejaVuSans-70" transform="translate(1593.855469 0)"/>
     <use xlink:href="#DejaVuSans-6c" transform="translate(1657.332031 0)"/>
     <use xlink:href="#DejaVuSans-65" transform="translate(1685.115234 0)"/>
     <use xlink:href="#DejaVuSans-20" transform="translate(1746.638672 0)"/>
     <use xlink:href="#DejaVuSans-69" transform="translate(1778.425781 0)"/>
     <use xlink:href="#DejaVuSans-6e" transform="translate(1806.208984 0)"/>
     <use xlink:href="#DejaVuSans-74" transform="translate(1869.587891 0)"/>
     <use xlink:href="#DejaVuSans-65" transform="translate(1908.796875 0)"/>
     <use xlink:href="#DejaVuSans-72" transform="translate(1970.320312 0)"/>
     <use xlink:href="#DejaVuSans-70" transform="translate(2011.433594 0)"/>
     <use xlink:href="#DejaVuSans-72" transform="translate(2074.910156 0)"/>
     <use xlink:href="#DejaVuSans-65" transform="translate(2113.773438 0)"/>
     <use xlink:href="#DejaVuSans-74" transform="translate(2175.296875 0)"/>
     <use xlink:href="#DejaVuSans-61" transform="translate(2214.505859 0)"/>
     <use xlink:href="#DejaVuSans-62" transform="translate(2275.785156 0)"/>
     <use xlink:href="#DejaVuSans-6c" transform="translate(2339.261719 0)"/>
     <use xlink:href="#DejaVuSans-65" transform="translate(2367.044922 0)"/>
     <use xlink:href="#DejaVuSans-20" transform="translate(2428.568359 0)"/>
     <use xlink:href="#DejaVuSans-73" transform="translate(2460.355469 0)"/>
     <use xlink:href="#DejaVuSans-69" transform="translate(2512.455078 0)"/>
     <use xlink:href="#DejaVuSans-67" transform="translate(2540.238281 0)"/>
     <use xlink:href="#DejaVuSans-6e" transform="translate(2603.714844 0)"/>
     <use xlink:href="#DejaVuSans-61" transform="translate(2667.09375 0)"/>
     <use xlink:href="#DejaVuSans-6c" transform="translate(2728.373047 0)"/>
     <use xlink:href="#DejaVuSans-73" transform="translate(2756.15625 0)"/>
     <use xlink:href="#DejaVuSans-20" transform="translate(2808.255859 0)"/>
     <use xlink:href="#DejaVuSans-28" transform="translate(2840.042969 0)"/>
     <use xlink:href="#DejaVuSans-73" transform="translate(2879.056641 0)"/>
     <use xlink:href="#DejaVuSans-63" transform="translate(2931.15625 0)"/>
     <use xlink:href="#DejaVuSans-68" transform="translate(2986.136719 0)"/>
     <use xlink:href="#DejaVuSans-65" transform="translate(3049.515625 0)"/>
     <use xlink:href="#DejaVuSans-6d" transform="translate(3111.039062 0)"/>
     <use xlink:href="#DejaVuSans-61" transform="translate(3208.451172 0)"/>
     <use xlink:href="#DejaVuSans-74" transform="translate(3269.730469 0)"/>
     <use xlink:href="#DejaVuSans-69" transform="translate(3308.939453 0)"/>
     <use xlink:href="#DejaVuSans-63" transform="translate(3336.722656 0)"/>
     <use xlink:href="#DejaVuSans-2c" transform="translate(3391.703125 0)"/>
     <use xlink:href="#DejaVuSans-20" transform="translate(3423.490234 0)"/>
     <use xlink:href="#DejaVuSans-6e" transform="translate(3455.277344 0)"/>
     <use xlink:href="#DejaVuSans-6f" transform="translate(3518.65625 0)"/>
     <use xlink:href="#DejaVuSans-74" transform="translate(3579.837891 0)"/>
     <use xlink:href="#DejaVuSans-20" transform="translate(3619.046875 0)"/>
     <use xlink:href="#DejaVuSans-6e" transform="translate(3650.833984 0)"/>
     <use xlink:href="#DejaVuSans-6f" transform="translate(3714.212891 0)"/>
     <use xlink:href="#DejaVuSans-72" transform="translate(3775.394531 0)"/>
     <use xlink:href="#DejaVuSans-6d" transform="translate(3814.757812 0)"/>
     <use xlink:href="#DejaVuSans-61" transform="translate(3912.169922 0)"/>
     <use xlink:href="#DejaVuSans-74" transform="translate(3973.449219 0)"/>
     <use xlink:href="#DejaVuSans-69" transform="translate(4012.658203 0)"/>
     <use xlink:href="#DejaVuSans-76" transform="translate(4040.441406 0)"/>
     <use xlink:href="#DejaVuSans-65" transform="translate(4099.621094 0)"/>
     <use xlink:href="#DejaVuSans-29" transform="translate(4161.144531 0)"/>
    </g>
   </g>
   <g id="text_2">
    <!-- Increasing concern → -->
    <g style="fill: #4a5568" transform="translate(225.21707 29.071306) scale(0.085 -0.085)">
     <defs>
      <path id="DejaVuSans-Oblique-49" d="M 1081 4666
L 1716 4666
L 806 0
L 172 0
L 1081 4666
z
" transform="scale(0.015625)"/>
      <path id="DejaVuSans-Oblique-6e" d="M 3566 2113
L 3156 0
L 2578 0
L 2988 2091
Q 3016 2238 3031 2350
Q 3047 2463 3047 2528
Q 3047 2791 2881 2937
Q 2716 3084 2419 3084
Q 1956 3084 1622 2776
Q 1288 2469 1184 1941
L 800 0
L 225 0
L 903 3500
L 1478 3500
L 1363 2950
Q 1603 3253 1940 3418
Q 2278 3584 2650 3584
Q 3113 3584 3367 3334
Q 3622 3084 3622 2631
Q 3622 2519 3608 2391
Q 3594 2263 3566 2113
z
" transform="scale(0.015625)"/>
      <path id="DejaVuSans-Oblique-63" d="M 3431 3366
L 3316 2797
Q 3109 2947 2876 3022
Q 2644 3097 2394 3097
Q 2119 3097 1870 3000
Q 1622 2903 1453 2725
Q 1184 2453 1037 2087
Q 891 1722 891 1331
Q 891 859 1127 628
Q 1363 397 1844 397
Q 2081 397 2348 469
Q 2616 541 2906 684
L 2797 116
Q 2547 13 2283 -39
Q 2019 -91 1741 -91
Q 1044 -91 669 257
Q 294 606 294 1253
Q 294 1797 489 2255
Q 684 2713 1069 3078
Q 1331 3328 1684 3456
Q 2038 3584 2456 3584
Q 2700 3584 2940 3529
Q 3181 3475 3431 3366
z
" transform="scale(0.015625)"/>
      <path id="DejaVuSans-Oblique-72" d="M 2853 2969
Q 2766 3016 2653 3041
Q 2541 3066 2413 3066
Q 1953 3066 1609 2717
Q 1266 2369 1153 1784
L 800 0
L 225 0
L 909 3500
L 1484 3500
L 1375 2956
Q 1603 3259 1920 3421
Q 2238 3584 2597 3584
Q 2691 3584 2781 3573
Q 2872 3563 2963 3538
L 2853 2969
z
" transform="scale(0.015625)"/>
      <path id="DejaVuSans-Oblique-65" d="M 3078 2063
Q 3088 2113 3092 2166
Q 3097 2219 3097 2272
Q 3097 2653 2873 2875
Q 2650 3097 2266 3097
Q 1838 3097 1509 2826
Q 1181 2556 1013 2059
L 3078 2063
z
M 3578 1613
L 903 1613
Q 884 1494 878 1425
Q 872 1356 872 1306
Q 872 872 1139 634
Q 1406 397 1894 397
Q 2269 397 2603 481
Q 2938 566 3225 728
L 3116 159
Q 2806 34 2476 -28
Q 2147 -91 1806 -91
Q 1078 -91 686 257
Q 294 606 294 1247
Q 294 1794 489 2264
Q 684 2734 1063 3103
Q 1306 3334 1642 3459
Q 1978 3584 2356 3584
Q 2950 3584 3301 3228
Q 3653 2872 3653 2272
Q 3653 2128 3634 1964
Q 3616 1800 3578 1613
z
" transform="scale(0.015625)"/>
      <path id="DejaVuSans-Oblique-61" d="M 3438 1997
L 3047 0
L 2472 0
L 2578 531
Q 2325 219 2001 64
Q 1678 -91 1281 -91
Q 834 -91 548 182
Q 263 456 263 884
Q 263 1497 752 1853
Q 1241 2209 2100 2209
L 2900 2209
L 2931 2363
Q 2938 2388 2941 2417
Q 2944 2447 2944 2509
Q 2944 2788 2717 2942
Q 2491 3097 2081 3097
Q 1800 3097 1504 3025
Q 1209 2953 897 2809
L 997 3341
Q 1322 3463 1633 3523
Q 1944 3584 2234 3584
Q 2853 3584 3176 3315
Q 3500 3047 3500 2534
Q 3500 2431 3484 2292
Q 3469 2153 3438 1997
z
M 2816 1759
L 2241 1759
Q 1534 1759 1195 1570
Q 856 1381 856 984
Q 856 709 1029 553
Q 1203 397 1509 397
Q 1978 397 2328 733
Q 2678 1069 2791 1631
L 2816 1759
z
" transform="scale(0.015625)"/>
      <path id="DejaVuSans-Oblique-73" d="M 3200 3397
L 3091 2853
Q 2863 2978 2609 3040
Q 2356 3103 2088 3103
Q 1634 3103 1373 2948
Q 1113 2794 1113 2528
Q 1113 2219 1719 2053
Q 1766 2041 1788 2034
L 1972 1978
Q 2547 1819 2739 1644
Q 2931 1469 2931 1166
Q 2931 609 2489 259
Q 2047 -91 1331 -91
Q 1053 -91 747 -37
Q 441 16 72 128
L 184 722
Q 500 559 806 475
Q 1113 391 1394 391
Q 1816 391 2080 572
Q 2344 753 2344 1031
Q 2344 1331 1650 1516
L 1591 1531
L 1394 1581
Q 956 1697 753 1886
Q 550 2075 550 2369
Q 550 2928 970 3256
Q 1391 3584 2113 3584
Q 2397 3584 2667 3537
Q 2938 3491 3200 3397
z
" transform="scale(0.015625)"/>
      <path id="DejaVuSans-Oblique-69" d="M 1172 4863
L 1747 4863
L 1606 4134
L 1031 4134
L 1172 4863
z
M 909 3500
L 1484 3500
L 800 0
L 225 0
L 909 3500
z
" transform="scale(0.015625)"/>
      <path id="DejaVuSans-Oblique-67" d="M 3816 3500
L 3219 434
Q 3047 -456 2561 -893
Q 2075 -1331 1253 -1331
Q 950 -1331 690 -1286
Q 431 -1241 206 -1147
L 313 -588
Q 525 -725 762 -790
Q 1000 -856 1269 -856
Q 1816 -856 2167 -557
Q 2519 -259 2631 300
L 2681 563
Q 2441 288 2122 144
Q 1803 0 1434 0
Q 903 0 598 351
Q 294 703 294 1319
Q 294 1803 478 2267
Q 663 2731 997 3091
Q 1219 3328 1514 3456
Q 1809 3584 2131 3584
Q 2484 3584 2746 3420
Q 3009 3256 3138 2956
L 3238 3500
L 3816 3500
z
M 2950 2216
Q 2950 2641 2750 2872
Q 2550 3103 2181 3103
Q 1953 3103 1747 3012
Q 1541 2922 1394 2759
Q 1156 2491 1023 2127
Q 891 1763 891 1375
Q 891 944 1092 712
Q 1294 481 1672 481
Q 2219 481 2584 976
Q 2950 1472 2950 2216
z
" transform="scale(0.015625)"/>
      <path id="DejaVuSans-Oblique-20" transform="scale(0.015625)"/>
      <path id="DejaVuSans-Oblique-6f" d="M 1625 -91
Q 1009 -91 651 289
Q 294 669 294 1325
Q 294 1706 417 2101
Q 541 2497 738 2766
Q 1047 3184 1428 3384
Q 1809 3584 2291 3584
Q 2888 3584 3255 3212
Q 3622 2841 3622 2241
Q 3622 1825 3500 1412
Q 3378 1000 3181 728
Q 2875 309 2494 109
Q 2113 -91 1625 -91
z
M 891 1344
Q 891 869 1089 633
Q 1288 397 1691 397
Q 2269 397 2648 901
Q 3028 1406 3028 2181
Q 3028 2634 2825 2865
Q 2622 3097 2228 3097
Q 1903 3097 1650 2945
Q 1397 2794 1197 2484
Q 1050 2253 970 1956
Q 891 1659 891 1344
z
" transform="scale(0.015625)"/>
      <path id="DejaVuSans-Oblique-2192" d="M 5050 2147
L 5050 1866
L 3822 638
L 3447 1013
L 4175 1741
L 366 1741
L 366 2272
L 4175 2272
L 3447 3000
L 3822 3375
L 5050 2147
z
" transform="scale(0.015625)"/>
     </defs>
     <use xlink:href="#DejaVuSans-Oblique-49"/>
     <use xlink:href="#DejaVuSans-Oblique-6e" transform="translate(29.492188 0)"/>
     <use xlink:href="#DejaVuSans-Oblique-63" transform="translate(92.871094 0)"/>
     <use xlink:href="#DejaVuSans-Oblique-72" transform="translate(147.851562 0)"/>
     <use xlink:href="#DejaVuSans-Oblique-65" transform="translate(188.964844 0)"/>
     <use xlink:href="#DejaVuSans-Oblique-61" transform="translate(250.488281 0)"/>
     <use xlink:href="#DejaVuSans-Oblique-73" transform="translate(311.767578 0)"/>
     <use xlink:href="#DejaVuSans-Oblique-69" transform="translate(363.867188 0)"/>
     <use xlink:href="#DejaVuSans-Oblique-6e" transform="translate(391.650391 0)"/>
     <use xlink:href="#DejaVuSans-Oblique-67" transform="translate(455.029297 0)"/>
     <use xlink:href="#DejaVuSans-Oblique-20" transform="translate(518.505859 0)"/>
     <use xlink:href="#DejaVuSans-Oblique-63" transform="translate(550.292969 0)"/>
     <use xlink:href="#DejaVuSans-Oblique-6f" transform="translate(605.273438 0)"/>
     <use xlink:href="#DejaVuSans-Oblique-6e" transform="translate(666.455078 0)"/>
     <use xlink:href="#DejaVuSans-Oblique-63" transform="translate(729.833984 0)"/>
     <use xlink:href="#DejaVuSans-Oblique-65" transform="translate(784.814453 0)"/>
     <use xlink:href="#DejaVuSans-Oblique-72" transform="translate(846.337891 0)"/>
     <use xlink:href="#DejaVuSans-Oblique-6e" transform="translate(887.451172 0)"/>
     <use xlink:href="#DejaVuSans-Oblique-20" transform="translate(950.830078 0)"/>
     <use xlink:href="#DejaVuSans-Oblique-2192" transform="translate(982.617188 0)"/>
    </g>
   </g>
   <g id="text_3">
    <!-- LOW -->
    <g style="fill: #2b2d42" transform="translate(93.182187 110.425295) scale(0.1 -0.1)">
     <defs>
      <path id="DejaVuSans-Bold-4c" d="M 588 4666
L 1791 4666
L 1791 909
L 3903 909
L 3903 0
L 588 0
L 588 4666
z
" transform="scale(0.015625)"/>
      <path id="DejaVuSans-Bold-4f" d="M 2719 3878
Q 2169 3878 1866 3472
Q 1563 3066 1563 2328
Q 1563 1594 1866 1187
Q 2169 781 2719 781
Q 3272 781 3575 1187
Q 3878 1594 3878 2328
Q 3878 3066 3575 3472
Q 3272 3878 2719 3878
z
M 2719 4750
Q 3844 4750 4481 4106
Q 5119 3463 5119 2328
Q 5119 1197 4481 553
Q 3844 -91 2719 -91
Q 1597 -91 958 553
Q 319 1197 319 2328
Q 319 3463 958 4106
Q 1597 4750 2719 4750
z
" transform="scale(0.015625)"/>
      <path id="DejaVuSans-Bold-57" d="M 191 4666
L 1344 4666
L 2150 1275
L 2950 4666
L 4109 4666
L 4909 1275
L 5716 4666
L 6859 4666
L 5759 0
L 4372 0
L 3525 3547
L 2688 0
L 1300 0
L 191 4666
z
" transform="scale(0.015625)"/>
     </defs>
     <use xlink:href="#DejaVuSans-Bold-4c"/>
     <use xlink:href="#DejaVuSans-Bold-4f" transform="translate(60.095703 0)"/>
     <use xlink:href="#DejaVuSans-Bold-57" transform="translate(145.105469 0)"/>
    </g>
   </g>
   <g id="text_4">
    <!-- Upright stance -->
    <g style="fill: #2b2d42" transform="translate(73.574 140.946465) scale(0.088 -0.088)">
     <defs>
      <path id="DejaVuSans-55" d="M 556 4666
L 1191 4666
L 1191 1831
Q 1191 1081 1462 751
Q 1734 422 2344 422
Q 2950 422 3222 751
Q 3494 1081 3494 1831
L 3494 4666
L 4128 4666
L 4128 1753
Q 4128 841 3676 375
Q 3225 -91 2344 -91
Q 1459 -91 1007 375
Q 556 841 556 1753
L 556 4666
z
" transform="scale(0.015625)"/>
     </defs>
     <use xlink:href="#DejaVuSans-55"/>
     <use xlink:href="#DejaVuSans-70" transform="translate(73.193359 0)"/>
     <use xlink:href="#DejaVuSans-72" transform="translate(136.669922 0)"/>
     <use xlink:href="#DejaVuSans-69" transform="translate(177.783203 0)"/>
     <use xlink:href="#DejaVuSans-67" transform="translate(205.566406 0)"/>
     <use xlink:href="#DejaVuSans-68" transform="translate(269.042969 0)"/>
     <use xlink:href="#DejaVuSans-74" transform="translate(332.421875 0)"/>
     <use xlink:href="#DejaVuSans-20" transform="translate(371.630859 0)"/>
     <use xlink:href="#DejaVuSans-73" transform="translate(403.417969 0)"/>
     <use xlink:href="#DejaVuSans-74" transform="translate(455.517578 0)"/>
     <use xlink:href="#DejaVuSans-61" transform="translate(494.726562 0)"/>
     <use xlink:href="#DejaVuSans-6e" transform="translate(556.005859 0)"/>
     <use xlink:href="#DejaVuSans-63" transform="translate(619.384766 0)"/>
     <use xlink:href="#DejaVuSans-65" transform="translate(674.365234 0)"/>
    </g>
   </g>
   <g id="text_5">
    <!-- MEDIUM -->
    <g style="fill: #2b2d42" transform="translate(195.750419 110.425295) scale(0.1 -0.1)">
     <defs>
      <path id="DejaVuSans-Bold-4d" d="M 588 4666
L 2119 4666
L 3181 2169
L 4250 4666
L 5778 4666
L 5778 0
L 4641 0
L 4641 3413
L 3566 897
L 2803 897
L 1728 3413
L 1728 0
L 588 0
L 588 4666
z
" transform="scale(0.015625)"/>
      <path id="DejaVuSans-Bold-45" d="M 588 4666
L 3834 4666
L 3834 3756
L 1791 3756
L 1791 2888
L 3713 2888
L 3713 1978
L 1791 1978
L 1791 909
L 3903 909
L 3903 0
L 588 0
L 588 4666
z
" transform="scale(0.015625)"/>
      <path id="DejaVuSans-Bold-44" d="M 1791 3756
L 1791 909
L 2222 909
Q 2959 909 3348 1275
Q 3738 1641 3738 2338
Q 3738 3031 3350 3393
Q 2963 3756 2222 3756
L 1791 3756
z
M 588 4666
L 1856 4666
Q 2919 4666 3439 4514
Q 3959 4363 4331 4000
Q 4659 3684 4818 3271
Q 4978 2859 4978 2338
Q 4978 1809 4818 1395
Q 4659 981 4331 666
Q 3956 303 3431 151
Q 2906 0 1856 0
L 588 0
L 588 4666
z
" transform="scale(0.015625)"/>
      <path id="DejaVuSans-Bold-49" d="M 588 4666
L 1791 4666
L 1791 0
L 588 0
L 588 4666
z
" transform="scale(0.015625)"/>
      <path id="DejaVuSans-Bold-55" d="M 588 4666
L 1791 4666
L 1791 1869
Q 1791 1291 1980 1042
Q 2169 794 2597 794
Q 3028 794 3217 1042
Q 3406 1291 3406 1869
L 3406 4666
L 4609 4666
L 4609 1869
Q 4609 878 4112 393
Q 3616 -91 2597 -91
Q 1581 -91 1084 393
Q 588 878 588 1869
L 588 4666
z
" transform="scale(0.015625)"/>
     </defs>
     <use xlink:href="#DejaVuSans-Bold-4d"/>
     <use xlink:href="#DejaVuSans-Bold-45" transform="translate(99.511719 0)"/>
     <use xlink:href="#DejaVuSans-Bold-44" transform="translate(167.822266 0)"/>
     <use xlink:href="#DejaVuSans-Bold-49" transform="translate(250.830078 0)"/>
     <use xlink:href="#DejaVuSans-Bold-55" transform="translate(288.037109 0)"/>
     <use xlink:href="#DejaVuSans-Bold-4d" transform="translate(369.238281 0)"/>
    </g>
   </g>
   <g id="text_6">
    <!-- Low guard -->
    <g style="fill: #2b2d42" transform="translate(196.321762 140.946465) scale(0.088 -0.088)">
     <defs>
      <path id="DejaVuSans-4c" d="M 628 4666
L 1259 4666
L 1259 531
L 3531 531
L 3531 0
L 628 0
L 628 4666
z
" transform="scale(0.015625)"/>
      <path id="DejaVuSans-77" d="M 269 3500
L 844 3500
L 1563 769
L 2278 3500
L 2956 3500
L 3675 769
L 4391 3500
L 4966 3500
L 4050 0
L 3372 0
L 2619 2869
L 1863 0
L 1184 0
L 269 3500
z
" transform="scale(0.015625)"/>
     </defs>
     <use xlink:href="#DejaVuSans-4c"/>
     <use xlink:href="#DejaVuSans-6f" transform="translate(53.962891 0)"/>
     <use xlink:href="#DejaVuSans-77" transform="translate(115.144531 0)"/>
     <use xlink:href="#DejaVuSans-20" transform="translate(196.931641 0)"/>
     <use xlink:href="#DejaVuSans-67" transform="translate(228.71875 0)"/>
     <use xlink:href="#DejaVuSans-75" transform="translate(292.195312 0)"/>
     <use xlink:href="#DejaVuSans-61" transform="translate(355.574219 0)"/>
     <use xlink:href="#DejaVuSans-72" transform="translate(416.853516 0)"/>
     <use xlink:href="#DejaVuSans-64" transform="translate(456.216797 0)"/>
    </g>
    <!-- Turning back -->
    <g style="fill: #2b2d42" transform="translate(191.198512 151.803534) scale(0.088 -0.088)">
     <defs>
      <path id="DejaVuSans-54" d="M -19 4666
L 3928 4666
L 3928 4134
L 2272 4134
L 2272 0
L 1638 0
L 1638 4134
L -19 4134
L -19 4666
z
" transform="scale(0.015625)"/>
     </defs>
     <use xlink:href="#DejaVuSans-54"/>
     <use xlink:href="#DejaVuSans-75" transform="translate(45.958984 0)"/>
     <use xlink:href="#DejaVuSans-72" transform="translate(109.337891 0)"/>
     <use xlink:href="#DejaVuSans-6e" transform="translate(148.701172 0)"/>
     <use xlink:href="#DejaVuSans-69" transform="translate(212.080078 0)"/>
     <use xlink:href="#DejaVuSans-6e" transform="translate(239.863281 0)"/>
     <use xlink:href="#DejaVuSans-67" transform="translate(303.242188 0)"/>
     <use xlink:href="#DejaVuSans-20" transform="translate(366.71875 0)"/>
     <use xlink:href="#DejaVuSans-62" transform="translate(398.505859 0)"/>
     <use xlink:href="#DejaVuSans-61" transform="translate(461.982422 0)"/>
     <use xlink:href="#DejaVuSans-63" transform="translate(523.261719 0)"/>
     <use xlink:href="#DejaVuSans-6b" transform="translate(578.242188 0)"/>
    </g>
   </g>
   <g id="text_7">
    <!-- HIGH -->
    <g style="fill: #2b2d42" transform="translate(318.092087 110.425295) scale(0.1 -0.1)">
     <defs>
      <path id="DejaVuSans-Bold-48" d="M 588 4666
L 1791 4666
L 1791 2888
L 3566 2888
L 3566 4666
L 4769 4666
L 4769 0
L 3566 0
L 3566 1978
L 1791 1978
L 1791 0
L 588 0
L 588 4666
z
" transform="scale(0.015625)"/>
      <path id="DejaVuSans-Bold-47" d="M 4781 347
Q 4331 128 3847 18
Q 3363 -91 2847 -91
Q 1681 -91 1000 561
Q 319 1213 319 2328
Q 319 3456 1012 4103
Q 1706 4750 2913 4750
Q 3378 4750 3804 4662
Q 4231 4575 4609 4403
L 4609 3438
Q 4219 3659 3833 3768
Q 3447 3878 3059 3878
Q 2341 3878 1952 3476
Q 1563 3075 1563 2328
Q 1563 1588 1938 1184
Q 2313 781 3003 781
Q 3191 781 3352 804
Q 3513 828 3641 878
L 3641 1784
L 2906 1784
L 2906 2591
L 4781 2591
L 4781 347
z
" transform="scale(0.015625)"/>
     </defs>
     <use xlink:href="#DejaVuSans-Bold-48"/>
     <use xlink:href="#DejaVuSans-Bold-49" transform="translate(83.691406 0)"/>
     <use xlink:href="#DejaVuSans-Bold-47" transform="translate(120.898438 0)"/>
     <use xlink:href="#DejaVuSans-Bold-48" transform="translate(202.978516 0)"/>
    </g>
   </g>
   <g id="text_8">
    <!-- Falling -->
    <g style="fill: #2b2d42" transform="translate(318.3504 140.946465) scale(0.088 -0.088)">
     <defs>
      <path id="DejaVuSans-46" d="M 628 4666
L 3309 4666
L 3309 4134
L 1259 4134
L 1259 2759
L 3109 2759
L 3109 2228
L 1259 2228
L 1259 0
L 628 0
L 628 4666
z
" transform="scale(0.015625)"/>
     </defs>
     <use xlink:href="#DejaVuSans-46"/>
     <use xlink:href="#DejaVuSans-61" transform="translate(48.394531 0)"/>
     <use xlink:href="#DejaVuSans-6c" transform="translate(109.673828 0)"/>
     <use xlink:href="#DejaVuSans-6c" transform="translate(137.457031 0)"/>
     <use xlink:href="#DejaVuSans-69" transform="translate(165.240234 0)"/>
     <use xlink:href="#DejaVuSans-6e" transform="translate(193.023438 0)"/>
     <use xlink:href="#DejaVuSans-67" transform="translate(256.402344 0)"/>
    </g>
    <!-- Instability -->
    <g style="fill: #2b2d42" transform="translate(310.835337 151.803534) scale(0.088 -0.088)">
     <defs>
      <path id="DejaVuSans-49" d="M 628 4666
L 1259 4666
L 1259 0
L 628 0
L 628 4666
z
" transform="scale(0.015625)"/>
      <path id="DejaVuSans-79" d="M 2059 -325
Q 1816 -950 1584 -1140
Q 1353 -1331 966 -1331
L 506 -1331
L 506 -850
L 844 -850
Q 1081 -850 1212 -737
Q 1344 -625 1503 -206
L 1606 56
L 191 3500
L 800 3500
L 1894 763
L 2988 3500
L 3597 3500
L 2059 -325
z
" transform="scale(0.015625)"/>
     </defs>
     <use xlink:href="#DejaVuSans-49"/>
     <use xlink:href="#DejaVuSans-6e" transform="translate(29.492188 0)"/>
     <use xlink:href="#DejaVuSans-73" transform="translate(92.871094 0)"/>
     <use xlink:href="#DejaVuSans-74" transform="translate(144.970703 0)"/>
     <use xlink:href="#DejaVuSans-61" transform="translate(184.179688 0)"/>
     <use xlink:href="#DejaVuSans-62" transform="translate(245.458984 0)"/>
     <use xlink:href="#DejaVuSans-69" transform="translate(308.935547 0)"/>
     <use xlink:href="#DejaVuSans-6c" transform="translate(336.71875 0)"/>
     <use xlink:href="#DejaVuSans-69" transform="translate(364.501953 0)"/>
     <use xlink:href="#DejaVuSans-74" transform="translate(392.285156 0)"/>
     <use xlink:href="#DejaVuSans-79" transform="translate(431.494141 0)"/>
    </g>
   </g>
   <g id="text_9">
    <!-- CRITICAL -->
    <g style="fill: #2b2d42" transform="translate(420.285319 110.425295) scale(0.1 -0.1)">
     <defs>
      <path id="DejaVuSans-Bold-43" d="M 4288 256
Q 3956 84 3597 -3
Q 3238 -91 2847 -91
Q 1681 -91 1000 561
Q 319 1213 319 2328
Q 319 3447 1000 4098
Q 1681 4750 2847 4750
Q 3238 4750 3597 4662
Q 3956 4575 4288 4403
L 4288 3438
Q 3953 3666 3628 3772
Q 3303 3878 2944 3878
Q 2300 3878 1931 3465
Q 1563 3053 1563 2328
Q 1563 1606 1931 1193
Q 2300 781 2944 781
Q 3303 781 3628 887
Q 3953 994 4288 1222
L 4288 256
z
" transform="scale(0.015625)"/>
      <path id="DejaVuSans-Bold-52" d="M 2297 2597
Q 2675 2597 2839 2737
Q 3003 2878 3003 3200
Q 3003 3519 2839 3656
Q 2675 3794 2297 3794
L 1791 3794
L 1791 2597
L 2297 2597
z
M 1791 1766
L 1791 0
L 588 0
L 588 4666
L 2425 4666
Q 3347 4666 3776 4356
Q 4206 4047 4206 3378
Q 4206 2916 3982 2619
Q 3759 2322 3309 2181
Q 3556 2125 3751 1926
Q 3947 1728 4147 1325
L 4800 0
L 3519 0
L 2950 1159
Q 2778 1509 2601 1637
Q 2425 1766 2131 1766
L 1791 1766
z
" transform="scale(0.015625)"/>
      <path id="DejaVuSans-Bold-54" d="M 31 4666
L 4331 4666
L 4331 3756
L 2784 3756
L 2784 0
L 1581 0
L 1581 3756
L 31 3756
L 31 4666
z
" transform="scale(0.015625)"/>
      <path id="DejaVuSans-Bold-41" d="M 3419 850
L 1538 850
L 1241 0
L 31 0
L 1759 4666
L 3194 4666
L 4922 0
L 3713 0
L 3419 850
z
M 1838 1716
L 3116 1716
L 2478 3572
L 1838 1716
z
" transform="scale(0.015625)"/>
     </defs>
     <use xlink:href="#DejaVuSans-Bold-43"/>
     <use xlink:href="#DejaVuSans-Bold-52" transform="translate(73.388672 0)"/>
     <use xlink:href="#DejaVuSans-Bold-49" transform="translate(150.390625 0)"/>
     <use xlink:href="#DejaVuSans-Bold-54" transform="translate(187.597656 0)"/>
     <use xlink:href="#DejaVuSans-Bold-49" transform="translate(255.810547 0)"/>
     <use xlink:href="#DejaVuSans-Bold-43" transform="translate(293.017578 0)"/>
     <use xlink:href="#DejaVuSans-Bold-41" transform="translate(366.40625 0)"/>
     <use xlink:href="#DejaVuSans-Bold-4c" transform="translate(443.798828 0)"/>
    </g>
   </g>
   <g id="text_10">
    <!-- No movement (near ground) -->
    <g style="fill: #2b2d42" transform="translate(382.685412 140.946465) scale(0.088 -0.088)">
     <defs>
      <path id="DejaVuSans-4e" d="M 628 4666
L 1478 4666
L 3547 763
L 3547 4666
L 4159 4666
L 4159 0
L 3309 0
L 1241 3903
L 1241 0
L 628 0
L 628 4666
z
" transform="scale(0.015625)"/>
     </defs>
     <use xlink:href="#DejaVuSans-4e"/>
     <use xlink:href="#DejaVuSans-6f" transform="translate(74.804688 0)"/>
     <use xlink:href="#DejaVuSans-20" transform="translate(135.986328 0)"/>
     <use xlink:href="#DejaVuSans-6d" transform="translate(167.773438 0)"/>
     <use xlink:href="#DejaVuSans-6f" transform="translate(265.185547 0)"/>
     <use xlink:href="#DejaVuSans-76" transform="translate(326.367188 0)"/>
     <use xlink:href="#DejaVuSans-65" transform="translate(385.546875 0)"/>
     <use xlink:href="#DejaVuSans-6d" transform="translate(447.070312 0)"/>
     <use xlink:href="#DejaVuSans-65" transform="translate(544.482422 0)"/>
     <use xlink:href="#DejaVuSans-6e" transform="translate(606.005859 0)"/>
     <use xlink:href="#DejaVuSans-74" transform="translate(669.384766 0)"/>
     <use xlink:href="#DejaVuSans-20" transform="translate(708.59375 0)"/>
     <use xlink:href="#DejaVuSans-28" transform="translate(740.380859 0)"/>
     <use xlink:href="#DejaVuSans-6e" transform="translate(779.394531 0)"/>
     <use xlink:href="#DejaVuSans-65" transform="translate(842.773438 0)"/>
     <use xlink:href="#DejaVuSans-61" transform="translate(904.296875 0)"/>
     <use xlink:href="#DejaVuSans-72" transform="translate(965.576172 0)"/>
     <use xlink:href="#DejaVuSans-20" transform="translate(1006.689453 0)"/>
     <use xlink:href="#DejaVuSans-67" transform="translate(1038.476562 0)"/>
     <use xlink:href="#DejaVuSans-72" transform="translate(1101.953125 0)"/>
     <use xlink:href="#DejaVuSans-6f" transform="translate(1140.816406 0)"/>
     <use xlink:href="#DejaVuSans-75" transform="translate(1201.998047 0)"/>
     <use xlink:href="#DejaVuSans-6e" transform="translate(1265.376953 0)"/>
     <use xlink:href="#DejaVuSans-64" transform="translate(1328.755859 0)"/>
     <use xlink:href="#DejaVuSans-29" transform="translate(1392.232422 0)"/>
    </g>
    <!-- Surrender (tap-out) -->
    <g style="fill: #2b2d42" transform="translate(402.910287 151.803534) scale(0.088 -0.088)">
     <defs>
      <path id="DejaVuSans-53" d="M 3425 4513
L 3425 3897
Q 3066 4069 2747 4153
Q 2428 4238 2131 4238
Q 1616 4238 1336 4038
Q 1056 3838 1056 3469
Q 1056 3159 1242 3001
Q 1428 2844 1947 2747
L 2328 2669
Q 3034 2534 3370 2195
Q 3706 1856 3706 1288
Q 3706 609 3251 259
Q 2797 -91 1919 -91
Q 1588 -91 1214 -16
Q 841 59 441 206
L 441 856
Q 825 641 1194 531
Q 1563 422 1919 422
Q 2459 422 2753 634
Q 3047 847 3047 1241
Q 3047 1584 2836 1778
Q 2625 1972 2144 2069
L 1759 2144
Q 1053 2284 737 2584
Q 422 2884 422 3419
Q 422 4038 858 4394
Q 1294 4750 2059 4750
Q 2388 4750 2728 4690
Q 3069 4631 3425 4513
z
" transform="scale(0.015625)"/>
     </defs>
     <use xlink:href="#DejaVuSans-53"/>
     <use xlink:href="#DejaVuSans-75" transform="translate(63.476562 0)"/>
     <use xlink:href="#DejaVuSans-72" transform="translate(126.855469 0)"/>
     <use xlink:href="#DejaVuSans-72" transform="translate(166.21875 0)"/>
     <use xlink:href="#DejaVuSans-65" transform="translate(205.082031 0)"/>
     <use xlink:href="#DejaVuSans-6e" transform="translate(266.605469 0)"/>
     <use xlink:href="#DejaVuSans-64" transform="translate(329.984375 0)"/>
     <use xlink:href="#DejaVuSans-65" transform="translate(393.460938 0)"/>
     <use xlink:href="#DejaVuSans-72" transform="translate(454.984375 0)"/>
     <use xlink:href="#DejaVuSans-20" transform="translate(496.097656 0)"/>
     <use xlink:href="#DejaVuSans-28" transform="translate(527.884766 0)"/>
     <use xlink:href="#DejaVuSans-74" transform="translate(566.898438 0)"/>
     <use xlink:href="#DejaVuSans-61" transform="translate(606.107422 0)"/>
     <use xlink:href="#DejaVuSans-70" transform="translate(667.386719 0)"/>
     <use xlink:href="#DejaVuSans-2d" transform="translate(730.863281 0)"/>
     <use xlink:href="#DejaVuSans-6f" transform="translate(768.822266 0)"/>
     <use xlink:href="#DejaVuSans-75" transform="translate(830.003906 0)"/>
     <use xlink:href="#DejaVuSans-74" transform="translate(893.382812 0)"/>
     <use xlink:href="#DejaVuSans-29" transform="translate(932.591797 0)"/>
    </g>
   </g>
   <g id="text_11">
    <!-- Examples map to project rule names in configuration; thresholds are tunable. Not a clinical model. -->
    <g style="fill: #2b2d42; opacity: 0.78" transform="translate(57.829078 181.226829) scale(0.086 -0.086)">
     <defs>
      <path id="DejaVuSans-Oblique-45" d="M 1081 4666
L 4031 4666
L 3928 4134
L 1606 4134
L 1338 2753
L 3566 2753
L 3463 2222
L 1234 2222
L 909 531
L 3284 531
L 3181 0
L 172 0
L 1081 4666
z
" transform="scale(0.015625)"/>
      <path id="DejaVuSans-Oblique-78" d="M 3841 3500
L 2234 1784
L 3219 0
L 2559 0
L 1819 1388
L 531 0
L -166 0
L 1556 1844
L 641 3500
L 1300 3500
L 1972 2234
L 3144 3500
L 3841 3500
z
" transform="scale(0.015625)"/>
      <path id="DejaVuSans-Oblique-6d" d="M 5747 2113
L 5338 0
L 4763 0
L 5166 2094
Q 5191 2228 5203 2325
Q 5216 2422 5216 2491
Q 5216 2772 5059 2928
Q 4903 3084 4622 3084
Q 4203 3084 3875 2770
Q 3547 2456 3450 1953
L 3066 0
L 2491 0
L 2900 2094
Q 2925 2209 2937 2307
Q 2950 2406 2950 2484
Q 2950 2769 2794 2926
Q 2638 3084 2363 3084
Q 1938 3084 1609 2770
Q 1281 2456 1184 1953
L 800 0
L 225 0
L 909 3500
L 1484 3500
L 1375 2956
Q 1609 3263 1923 3423
Q 2238 3584 2597 3584
Q 2978 3584 3223 3384
Q 3469 3184 3519 2828
Q 3781 3197 4126 3390
Q 4472 3584 4856 3584
Q 5306 3584 5551 3325
Q 5797 3066 5797 2591
Q 5797 2488 5784 2364
Q 5772 2241 5747 2113
z
" transform="scale(0.015625)"/>
      <path id="DejaVuSans-Oblique-70" d="M 3175 2156
Q 3175 2616 2975 2859
Q 2775 3103 2400 3103
Q 2144 3103 1911 2972
Q 1678 2841 1497 2591
Q 1319 2344 1212 1994
Q 1106 1644 1106 1300
Q 1106 863 1306 627
Q 1506 391 1875 391
Q 2147 391 2380 519
Q 2613 647 2778 891
Q 2956 1147 3065 1494
Q 3175 1841 3175 2156
z
M 1394 2969
Q 1625 3272 1939 3428
Q 2253 3584 2638 3584
Q 3175 3584 3472 3232
Q 3769 2881 3769 2247
Q 3769 1728 3584 1258
Q 3400 788 3053 416
Q 2822 169 2531 39
Q 2241 -91 1919 -91
Q 1547 -91 1294 64
Q 1041 219 916 525
L 556 -1331
L -19 -1331
L 922 3500
L 1497 3500
L 1394 2969
z
" transform="scale(0.015625)"/>
      <path id="DejaVuSans-Oblique-6c" d="M 1172 4863
L 1747 4863
L 800 0
L 225 0
L 1172 4863
z
" transform="scale(0.015625)"/>
      <path id="DejaVuSans-Oblique-74" d="M 2706 3500
L 2619 3053
L 1472 3053
L 1100 1153
Q 1081 1047 1072 975
Q 1063 903 1063 863
Q 1063 663 1183 572
Q 1303 481 1569 481
L 2150 481
L 2053 0
L 1503 0
Q 991 0 739 200
Q 488 400 488 806
Q 488 878 497 964
Q 506 1050 525 1153
L 897 3053
L 409 3053
L 500 3500
L 978 3500
L 1172 4494
L 1747 4494
L 1556 3500
L 2706 3500
z
" transform="scale(0.015625)"/>
      <path id="DejaVuSans-Oblique-6a" d="M 928 3500
L 1503 3500
L 813 -63
L 809 -78
Q 694 -675 544 -897
Q 403 -1106 132 -1218
Q -138 -1331 -506 -1331
L -722 -1331
L -628 -844
L -481 -844
Q -144 -844 -1 -703
Q 141 -563 238 -63
L 928 3500
z
M 1197 4863
L 1772 4863
L 1631 4134
L 1056 4134
L 1197 4863
z
" transform="scale(0.015625)"/>
      <path id="DejaVuSans-Oblique-75" d="M 428 1388
L 838 3500
L 1416 3500
L 1006 1409
Q 975 1256 961 1147
Q 947 1038 947 966
Q 947 700 1109 554
Q 1272 409 1569 409
Q 2031 409 2368 721
Q 2706 1034 2809 1563
L 3194 3500
L 3769 3500
L 3091 0
L 2516 0
L 2631 550
Q 2388 244 2052 76
Q 1716 -91 1338 -91
Q 878 -91 622 161
Q 366 413 366 863
Q 366 956 381 1097
Q 397 1238 428 1388
z
" transform="scale(0.015625)"/>
      <path id="DejaVuSans-Oblique-66" d="M 3059 4863
L 2969 4384
L 2419 4384
Q 2106 4384 1964 4261
Q 1822 4138 1753 3809
L 1691 3500
L 2638 3500
L 2553 3053
L 1606 3053
L 1013 0
L 434 0
L 1031 3053
L 481 3053
L 563 3500
L 1113 3500
L 1159 3744
Q 1278 4363 1576 4613
Q 1875 4863 2516 4863
L 3059 4863
z
" transform="scale(0.015625)"/>
      <path id="DejaVuSans-Oblique-3b" d="M 563 794
L 1222 794
L 1113 256
L 409 -744
L 6 -744
L 453 256
L 563 794
z
M 1050 3309
L 1709 3309
L 1556 2516
L 897 2516
L 1050 3309
z
" transform="scale(0.015625)"/>
      <path id="DejaVuSans-Oblique-68" d="M 3566 2113
L 3156 0
L 2578 0
L 2988 2091
Q 3016 2238 3031 2350
Q 3047 2463 3047 2528
Q 3047 2791 2881 2937
Q 2716 3084 2419 3084
Q 1956 3084 1617 2771
Q 1278 2459 1178 1941
L 800 0
L 225 0
L 1172 4863
L 1747 4863
L 1375 2950
Q 1594 3244 1934 3414
Q 2275 3584 2650 3584
Q 3113 3584 3367 3334
Q 3622 3084 3622 2631
Q 3622 2519 3608 2391
Q 3594 2263 3566 2113
z
" transform="scale(0.015625)"/>
      <path id="DejaVuSans-Oblique-64" d="M 2675 525
Q 2444 222 2128 65
Q 1813 -91 1428 -91
Q 903 -91 598 267
Q 294 625 294 1247
Q 294 1766 478 2236
Q 663 2706 1013 3078
Q 1244 3325 1534 3454
Q 1825 3584 2144 3584
Q 2481 3584 2739 3421
Q 2997 3259 3138 2956
L 3513 4863
L 4091 4863
L 3144 0
L 2566 0
L 2675 525
z
M 891 1350
Q 891 897 1095 644
Q 1300 391 1663 391
Q 1931 391 2161 520
Q 2391 650 2566 903
Q 2750 1166 2856 1509
Q 2963 1853 2963 2188
Q 2963 2622 2758 2865
Q 2553 3109 2194 3109
Q 1922 3109 1687 2981
Q 1453 2853 1288 2613
Q 1106 2353 998 2009
Q 891 1666 891 1350
z
" transform="scale(0.015625)"/>
      <path id="DejaVuSans-Oblique-62" d="M 3169 2138
Q 3169 2591 2961 2847
Q 2753 3103 2388 3103
Q 2122 3103 1889 2973
Q 1656 2844 1484 2597
Q 1303 2338 1198 1995
Q 1094 1653 1094 1313
Q 1094 881 1298 636
Q 1503 391 1863 391
Q 2134 391 2365 517
Q 2597 644 2772 891
Q 2950 1147 3059 1487
Q 3169 1828 3169 2138
z
M 1381 2969
Q 1594 3256 1914 3420
Q 2234 3584 2584 3584
Q 3122 3584 3439 3221
Q 3756 2859 3756 2241
Q 3756 1734 3570 1259
Q 3384 784 3041 416
Q 2816 172 2522 40
Q 2228 -91 1906 -91
Q 1566 -91 1316 65
Q 1066 222 909 531
L 806 0
L 231 0
L 1178 4863
L 1753 4863
L 1381 2969
z
" transform="scale(0.015625)"/>
      <path id="DejaVuSans-Oblique-2e" d="M 525 794
L 1184 794
L 1031 0
L 372 0
L 525 794
z
" transform="scale(0.015625)"/>
      <path id="DejaVuSans-Oblique-4e" d="M 1081 4666
L 1931 4666
L 3219 666
L 4000 4666
L 4616 4666
L 3706 0
L 2853 0
L 1569 4025
L 788 0
L 172 0
L 1081 4666
z
" transform="scale(0.015625)"/>
     </defs>
     <use xlink:href="#DejaVuSans-Oblique-45"/>
     <use xlink:href="#DejaVuSans-Oblique-78" transform="translate(63.183594 0)"/>
     <use xlink:href="#DejaVuSans-Oblique-61" transform="translate(122.363281 0)"/>
     <use xlink:href="#DejaVuSans-Oblique-6d" transform="translate(183.642578 0)"/>
     <use xlink:href="#DejaVuSans-Oblique-70" transform="translate(281.054688 0)"/>
     <use xlink:href="#DejaVuSans-Oblique-6c" transform="translate(344.53125 0)"/>
     <use xlink:href="#DejaVuSans-Oblique-65" transform="translate(372.314453 0)"/>
     <use xlink:href="#DejaVuSans-Oblique-73" transform="translate(433.837891 0)"/>
     <use xlink:href="#DejaVuSans-Oblique-20" transform="translate(485.9375 0)"/>
     <use xlink:href="#DejaVuSans-Oblique-6d" transform="translate(517.724609 0)"/>
     <use xlink:href="#DejaVuSans-Oblique-61" transform="translate(615.136719 0)"/>
     <use xlink:href="#DejaVuSans-Oblique-70" transform="translate(676.416016 0)"/>
     <use xlink:href="#DejaVuSans-Oblique-20" transform="translate(739.892578 0)"/>
     <use xlink:href="#DejaVuSans-Oblique-74" transform="translate(771.679688 0)"/>
     <use xlink:href="#DejaVuSans-Oblique-6f" transform="translate(810.888672 0)"/>
     <use xlink:href="#DejaVuSans-Oblique-20" transform="translate(872.070312 0)"/>
     <use xlink:href="#DejaVuSans-Oblique-70" transform="translate(903.857422 0)"/>
     <use xlink:href="#DejaVuSans-Oblique-72" transform="translate(967.333984 0)"/>
     <use xlink:href="#DejaVuSans-Oblique-6f" transform="translate(1008.447266 0)"/>
     <use xlink:href="#DejaVuSans-Oblique-6a" transform="translate(1069.628906 0)"/>
     <use xlink:href="#DejaVuSans-Oblique-65" transform="translate(1097.412109 0)"/>
     <use xlink:href="#DejaVuSans-Oblique-63" transform="translate(1158.935547 0)"/>
     <use xlink:href="#DejaVuSans-Oblique-74" transform="translate(1213.916016 0)"/>
     <use xlink:href="#DejaVuSans-Oblique-20" transform="translate(1253.125 0)"/>
     <use xlink:href="#DejaVuSans-Oblique-72" transform="translate(1284.912109 0)"/>
     <use xlink:href="#DejaVuSans-Oblique-75" transform="translate(1326.025391 0)"/>
     <use xlink:href="#DejaVuSans-Oblique-6c" transform="translate(1389.404297 0)"/>
     <use xlink:href="#DejaVuSans-Oblique-65" transform="translate(1417.1875 0)"/>
     <use xlink:href="#DejaVuSans-Oblique-20" transform="translate(1478.710938 0)"/>
     <use xlink:href="#DejaVuSans-Oblique-6e" transform="translate(1510.498047 0)"/>
     <use xlink:href="#DejaVuSans-Oblique-61" transform="translate(1573.876953 0)"/>
     <use xlink:href="#DejaVuSans-Oblique-6d" transform="translate(1635.15625 0)"/>
     <use xlink:href="#DejaVuSans-Oblique-65" transform="translate(1732.568359 0)"/>
     <use xlink:href="#DejaVuSans-Oblique-73" transform="translate(1794.091797 0)"/>
     <use xlink:href="#DejaVuSans-Oblique-20" transform="translate(1846.191406 0)"/>
     <use xlink:href="#DejaVuSans-Oblique-69" transform="translate(1877.978516 0)"/>
     <use xlink:href="#DejaVuSans-Oblique-6e" transform="translate(1905.761719 0)"/>
     <use xlink:href="#DejaVuSans-Oblique-20" transform="translate(1969.140625 0)"/>
     <use xlink:href="#DejaVuSans-Oblique-63" transform="translate(2000.927734 0)"/>
     <use xlink:href="#DejaVuSans-Oblique-6f" transform="translate(2055.908203 0)"/>
     <use xlink:href="#DejaVuSans-Oblique-6e" transform="translate(2117.089844 0)"/>
     <use xlink:href="#DejaVuSans-Oblique-66" transform="translate(2180.46875 0)"/>
     <use xlink:href="#DejaVuSans-Oblique-69" transform="translate(2215.673828 0)"/>
     <use xlink:href="#DejaVuSans-Oblique-67" transform="translate(2243.457031 0)"/>
     <use xlink:href="#DejaVuSans-Oblique-75" transform="translate(2306.933594 0)"/>
     <use xlink:href="#DejaVuSans-Oblique-72" transform="translate(2370.3125 0)"/>
     <use xlink:href="#DejaVuSans-Oblique-61" transform="translate(2411.425781 0)"/>
     <use xlink:href="#DejaVuSans-Oblique-74" transform="translate(2472.705078 0)"/>
     <use xlink:href="#DejaVuSans-Oblique-69" transform="translate(2511.914062 0)"/>
     <use xlink:href="#DejaVuSans-Oblique-6f" transform="translate(2539.697266 0)"/>
     <use xlink:href="#DejaVuSans-Oblique-6e" transform="translate(2600.878906 0)"/>
     <use xlink:href="#DejaVuSans-Oblique-3b" transform="translate(2664.257812 0)"/>
     <use xlink:href="#DejaVuSans-Oblique-20" transform="translate(2697.949219 0)"/>
     <use xlink:href="#DejaVuSans-Oblique-74" transform="translate(2729.736328 0)"/>
     <use xlink:href="#DejaVuSans-Oblique-68" transform="translate(2768.945312 0)"/>
     <use xlink:href="#DejaVuSans-Oblique-72" transform="translate(2832.324219 0)"/>
     <use xlink:href="#DejaVuSans-Oblique-65" transform="translate(2873.4375 0)"/>
     <use xlink:href="#DejaVuSans-Oblique-73" transform="translate(2934.960938 0)"/>
     <use xlink:href="#DejaVuSans-Oblique-68" transform="translate(2987.060547 0)"/>
     <use xlink:href="#DejaVuSans-Oblique-6f" transform="translate(3050.439453 0)"/>
     <use xlink:href="#DejaVuSans-Oblique-6c" transform="translate(3111.621094 0)"/>
     <use xlink:href="#DejaVuSans-Oblique-64" transform="translate(3139.404297 0)"/>
     <use xlink:href="#DejaVuSans-Oblique-73" transform="translate(3202.880859 0)"/>
     <use xlink:href="#DejaVuSans-Oblique-20" transform="translate(3254.980469 0)"/>
     <use xlink:href="#DejaVuSans-Oblique-61" transform="translate(3286.767578 0)"/>
     <use xlink:href="#DejaVuSans-Oblique-72" transform="translate(3348.046875 0)"/>
     <use xlink:href="#DejaVuSans-Oblique-65" transform="translate(3389.160156 0)"/>
     <use xlink:href="#DejaVuSans-Oblique-20" transform="translate(3450.683594 0)"/>
     <use xlink:href="#DejaVuSans-Oblique-74" transform="translate(3482.470703 0)"/>
     <use xlink:href="#DejaVuSans-Oblique-75" transform="translate(3521.679688 0)"/>
     <use xlink:href="#DejaVuSans-Oblique-6e" transform="translate(3585.058594 0)"/>
     <use xlink:href="#DejaVuSans-Oblique-61" transform="translate(3648.4375 0)"/>
     <use xlink:href="#DejaVuSans-Oblique-62" transform="translate(3709.716797 0)"/>
     <use xlink:href="#DejaVuSans-Oblique-6c" transform="translate(3773.193359 0)"/>
     <use xlink:href="#DejaVuSans-Oblique-65" transform="translate(3800.976562 0)"/>
     <use xlink:href="#DejaVuSans-Oblique-2e" transform="translate(3862.5 0)"/>
     <use xlink:href="#DejaVuSans-Oblique-20" transform="translate(3894.287109 0)"/>
     <use xlink:href="#DejaVuSans-Oblique-4e" transform="translate(3926.074219 0)"/>
     <use xlink:href="#DejaVuSans-Oblique-6f" transform="translate(4000.878906 0)"/>
     <use xlink:href="#DejaVuSans-Oblique-74" transform="translate(4062.060547 0)"/>
     <use xlink:href="#DejaVuSans-Oblique-20" transform="translate(4101.269531 0)"/>
     <use xlink:href="#DejaVuSans-Oblique-61" transform="translate(4133.056641 0)"/>
     <use xlink:href="#DejaVuSans-Oblique-20" transform="translate(4194.335938 0)"/>
     <use xlink:href="#DejaVuSans-Oblique-63" transform="translate(4226.123047 0)"/>
     <use xlink:href="#DejaVuSans-Oblique-6c" transform="translate(4281.103516 0)"/>
     <use xlink:href="#DejaVuSans-Oblique-69" transform="translate(4308.886719 0)"/>
     <use xlink:href="#DejaVuSans-Oblique-6e" transform="translate(4336.669922 0)"/>
     <use xlink:href="#DejaVuSans-Oblique-69" transform="translate(4400.048828 0)"/>
     <use xlink:href="#DejaVuSans-Oblique-63" transform="translate(4427.832031 0)"/>
     <use xlink:href="#DejaVuSans-Oblique-61" transform="translate(4482.8125 0)"/>
     <use xlink:href="#DejaVuSans-Oblique-6c" transform="translate(4544.091797 0)"/>
     <use xlink:href="#DejaVuSans-Oblique-20" transform="translate(4571.875 0)"/>
     <use xlink:href="#DejaVuSans-Oblique-6d" transform="translate(4603.662109 0)"/>
     <use xlink:href="#DejaVuSans-Oblique-6f" transform="translate(4701.074219 0)"/>
     <use xlink:href="#DejaVuSans-Oblique-64" transform="translate(4762.255859 0)"/>
     <use xlink:href="#DejaVuSans-Oblique-65" transform="translate(4825.732422 0)"/>
     <use xlink:href="#DejaVuSans-Oblique-6c" transform="translate(4887.255859 0)"/>
     <use xlink:href="#DejaVuSans-Oblique-2e" transform="translate(4915.039062 0)"/>
    </g>
   </g>
  </g>
 </g>
 <defs>
  <clipPath id="p3f805027e6">
   <rect x="7.2" y="7.2" width="526.68" height="184.68"/>
  </clipPath>
 </defs>
</svg>
