<?xml version="1.0" encoding="utf-8" standalone="no"?>
<!DOCTYPE svg PUBLIC "-//W3C//DTD SVG 1.1//EN"
  "http://www.w3.org/Graphics/SVG/1.1/DTD/svg11.dtd">
<svg xmlns:xlink="http://www.w3.org/1999/xlink" width="670.362813pt" height="224.28pt" viewBox="0 0 670.362813 224.28" xmlns="http://www.w3.org/2000/svg" version="1.1">
 <metadata>
  <rdf:RDF xmlns:dc="http://purl.org/dc/elements/1.1/" xmlns:cc="http://creativecommons.org/ns#" xmlns:rdf="http://www.w3.org/1999/02/22-rdf-syntax-ns#">
   <cc:Work>
    <dc:type rdf:resource="http://purl.org/dc/dcmitype/StillImage"/>
    <dc:date>2026-04-29T21:41:23.012187</dc:date>
    <dc:format>image/svg+xml</dc:format>
    <dc:creator>
     <cc:Agent>
      <dc:title>Matplotlib v3.10.9, https://matplotlib.org/</dc:title>
     </cc:Agent>
    </dc:creator>
   </cc:Work>
  </rdf:RDF>
 </metadata>
 <defs>
  <style type="text/css">*{stroke-linejoin: round; stroke-linecap: butt}</style>
 </defs>
 <g id="figure_1">
  <g id="patch_1">
   <path d="M 0 224.28
L 670.362813 224.28
L 670.362813 0
L 0 0
z
" style="fill: #ffffff"/>
  </g>
  <g id="axes_1">
   <g id="patch_2">
    <path d="M 21.678977 99.0225
L 121.772776 99.0225
Q 126.808942 99.0225 126.808942 93.7755
L 126.808942 41.961375
Q 126.808942 36.714375 121.772776 36.714375
L 21.678977 36.714375
Q 16.642811 36.714375 16.642811 41.961375
L 16.642811 93.7755
Q 16.642811 99.0225 21.678977 99.0225
z
" clip-path="url(#pfae84ff9bf)" style="fill: #f5f6f8; stroke: #5c6770; stroke-width: 0.8; stroke-linejoin: miter"/>
   </g>
   <g id="patch_3">
    <path d="M 106.664278 99.0225
L 206.758076 99.0225
Q 211.794242 99.0225 211.794242 93.7755
L 211.794242 41.961375
Q 211.794242 36.714375 206.758076 36.714375
L 106.664278 36.714375
Q 101.628112 36.714375 101.628112 41.961375
L 101.628112 93.7755
Q 101.628112 99.0225 106.664278 99.0225
z
" clip-path="url(#pfae84ff9bf)" style="fill: #f5f6f8; stroke: #5c6770; stroke-width: 0.8; stroke-linejoin: miter"/>
   </g>
   <g id="patch_4">
    <path d="M 191.649578 99.0225
L 291.743377 99.0225
Q 296.779543 99.0225 296.779543 93.7755
L 296.779543 41.961375
Q 296.779543 36.714375 291.743377 36.714375
L 191.649578 36.714375
Q 186.613412 36.714375 186.613412 41.961375
L 186.613412 93.7755
Q 186.613412 99.0225 191.649578 99.0225
z
" clip-path="url(#pfae84ff9bf)" style="fill: #f5f6f8; stroke: #5c6770; stroke-width: 0.8; stroke-linejoin: miter"/>
   </g>
   <g id="patch_5">
    <path d="M 276.634879 99.0225
L 376.728677 99.0225
Q 381.764843 99.0225 381.764843 93.7755
L 381.764843 41.961375
Q 381.764843 36.714375 376.728677 36.714375
L 276.634879 36.714375
Q 271.598713 36.714375 271.598713 41.961375
L 271.598713 93.7755
Q 271.598713 99.0225 276.634879 99.0225
z
" clip-path="url(#pfae84ff9bf)" style="fill: #f5f6f8; stroke: #5c6770; stroke-width: 0.8; stroke-linejoin: miter"/>
   </g>
   <g id="patch_6">
    <path d="M 122.402296 177.7275
L 247.676925 177.7275
Q 252.713091 177.7275 252.713091 172.4805
L 252.713091 94.431375
Q 252.713091 89.184375 247.676925 89.184375
L 122.402296 89.184375
Q 117.36613 89.184375 117.36613 94.431375
L 117.36613 172.4805
Q 117.36613 177.7275 122.402296 177.7275
z
" clip-path="url(#pfae84ff9bf)" style="fill: #f5f6f8; stroke: #5c6770; stroke-width: 0.8; stroke-linejoin: miter"/>
   </g>
   <g id="patch_7">
    <path d="M 323.219414 124.601625
L 405.686632 124.601625
Q 409.463756 124.601625 409.463756 120.666375
L 409.463756 95.743125
Q 409.463756 91.807875 405.686632 91.807875
L 323.219414 91.807875
Q 319.44229 91.807875 319.44229 95.743125
L 319.44229 120.666375
Q 319.44229 124.601625 323.219414 124.601625
z
" clip-path="url(#pfae84ff9bf)" style="fill: #e8ecef; stroke: #5a6b78; stroke-width: 0.8; stroke-linejoin: miter"/>
   </g>
   <g id="patch_8">
    <path d="M 414.499922 124.601625
L 496.96714 124.601625
Q 500.744264 124.601625 500.744264 120.666375
L 500.744264 95.743125
Q 500.744264 91.807875 496.96714 91.807875
L 414.499922 91.807875
Q 410.722798 91.807875 410.722798 95.743125
L 410.722798 120.666375
Q 410.722798 124.601625 414.499922 124.601625
z
" clip-path="url(#pfae84ff9bf)" style="fill: #ddd6c8; stroke: #9a8b6e; stroke-width: 0.8; stroke-linejoin: miter"/>
   </g>
   <g id="patch_9">
    <path d="M 505.78043 124.601625
L 588.247648 124.601625
Q 592.024772 124.601625 592.024772 120.666375
L 592.024772 95.743125
Q 592.024772 91.807875 588.247648 91.807875
L 505.78043 91.807875
Q 502.003306 91.807875 502.003306 95.743125
L 502.003306 120.666375
Q 502.003306 124.601625 505.78043 124.601625
z
" clip-path="url(#pfae84ff9bf)" style="fill: #d4c4a8; stroke: #8b6f47; stroke-width: 0.8; stroke-linejoin: miter"/>
   </g>
   <g id="patch_10">
    <path d="M 597.060938 124.601625
L 679.528156 124.601625
Q 683.30528 124.601625 683.30528 120.666375
L 683.30528 95.743125
Q 683.30528 91.807875 679.528156 91.807875
L 597.060938 91.807875
Q 593.283814 91.807875 593.283814 95.743125
L 593.283814 120.666375
Q 593.283814 124.601625 597.060938 124.601625
z
" clip-path="url(#pfae84ff9bf)" style="fill: #c4a5a5; stroke: #6b3a3a; stroke-width: 0.8; stroke-linejoin: miter"/>
   </g>
   <g id="patch_11">
    <path d="M 71.725876 82.625625
Q 128.382743 94.103437 184.053413 105.381462
" clip-path="url(#pfae84ff9bf)" style="fill: none; stroke: #4a5568; stroke-width: 0.9; stroke-linecap: round"/>
    <path d="M 179.825502 102.076198
L 184.053413 105.381462
L 178.872456 106.780633
z
" clip-path="url(#pfae84ff9bf)" style="fill: #4a5568; stroke: #4a5568; stroke-width: 0.9; stroke-linecap: round"/>
   </g>
   <g id="patch_12">
    <path d="M 156.711177 82.625625
Q 170.875394 94.103437 184.257835 104.947747
" clip-path="url(#pfae84ff9bf)" style="fill: none; stroke: #4a5568; stroke-width: 0.9; stroke-linecap: round"/>
    <path d="M 182.039539 100.061115
L 184.257835 104.947747
L 179.017552 103.790404
z
" clip-path="url(#pfae84ff9bf)" style="fill: #4a5568; stroke: #4a5568; stroke-width: 0.9; stroke-linecap: round"/>
   </g>
   <g id="patch_13">
    <path d="M 241.696478 82.625625
Q 213.368044 94.103437 185.972201 105.203393
" clip-path="url(#pfae84ff9bf)" style="fill: none; stroke: #4a5568; stroke-width: 0.9; stroke-linecap: round"/>
    <path d="M 191.322156 105.625268
L 185.972201 105.203393
L 189.519673 101.176554
z
" clip-path="url(#pfae84ff9bf)" style="fill: #4a5568; stroke: #4a5568; stroke-width: 0.9; stroke-linecap: round"/>
   </g>
   <g id="patch_14">
    <path d="M 326.681778 82.625625
Q 255.860694 94.103437 186.032881 105.420273
" clip-path="url(#pfae84ff9bf)" style="fill: none; stroke: #4a5568; stroke-width: 0.9; stroke-linecap: round"/>
    <path d="M 191.155011 107.021456
L 186.032881 105.420273
L 190.387105 102.283279
z
" clip-path="url(#pfae84ff9bf)" style="fill: #4a5568; stroke: #4a5568; stroke-width: 0.9; stroke-linecap: round"/>
   </g>
   <g id="patch_15">
    <path d="M 381.450083 108.20475
Q 393.568357 108.20475 404.680401 108.20475
" clip-path="url(#pfae84ff9bf)" style="fill: none; stroke: #4a5568; stroke-width: 0.9; stroke-linecap: round"/>
    <path d="M 399.880401 105.80475
L 404.680401 108.20475
L 399.880401 110.60475
z
" clip-path="url(#pfae84ff9bf)" style="fill: #4a5568; stroke: #4a5568; stroke-width: 0.9; stroke-linecap: round"/>
   </g>
   <g id="patch_16">
    <path d="M 472.730591 108.20475
Q 484.848865 108.20475 495.960909 108.20475
" clip-path="url(#pfae84ff9bf)" style="fill: none; stroke: #4a5568; stroke-width: 0.9; stroke-linecap: round"/>
    <path d="M 491.160909 105.80475
L 495.960909 108.20475
L 491.160909 110.60475
z
" clip-path="url(#pfae84ff9bf)" style="fill: #4a5568; stroke: #4a5568; stroke-width: 0.9; stroke-linecap: round"/>
   </g>
   <g id="patch_17">
    <path d="M 564.011099 108.20475
Q 576.129373 108.20475 587.241417 108.20475
" clip-path="url(#pfae84ff9bf)" style="fill: none; stroke: #4a5568; stroke-width: 0.9; stroke-linecap: round"/>
    <path d="M 582.441417 105.80475
L 587.241417 108.20475
L 582.441417 110.60475
z
" clip-path="url(#pfae84ff9bf)" style="fill: #4a5568; stroke: #4a5568; stroke-width: 0.9; stroke-linecap: round"/>
   </g>
   <g id="patch_18">
    <path d="M 236.975072 133.455937
Q 274.746317 120.830344 311.563234 108.523748
" clip-path="url(#pfae84ff9bf)" style="fill: none; stroke: #4a5568; stroke-width: 0.9; stroke-linecap: round"/>
    <path d="M 306.249974 107.769253
L 311.563234 108.523748
L 307.771682 112.32166
z
" clip-path="url(#pfae84ff9bf)" style="fill: #4a5568; stroke: #4a5568; stroke-width: 0.9; stroke-linecap: round"/>
   </g>
   <g id="text_1">
    <!-- Multi-signal fusion to ordered risk level (illustration) -->
    <g style="fill: #2b2d42" transform="translate(156.936617 35.462484) scale(0.113 -0.113)">
     <defs>
      <path id="DejaVuSans-4d" d="M 628 4666
L 1569 4666
L 2759 1491
L 3956 4666
L 4897 4666
L 4897 0
L 4281 0
L 4281 4097
L 3078 897
L 2444 897
L 1241 4097
L 1241 0
L 628 0
L 628 4666
z
" transform="scale(0.015625)"/>
      <path id="DejaVuSans-75" d="M 544 1381
L 544 3500
L 1119 3500
L 1119 1403
Q 1119 906 1312 657
Q 1506 409 1894 409
Q 2359 409 2629 706
Q 2900 1003 2900 1516
L 2900 3500
L 3475 3500
L 3475 0
L 2900 0
L 2900 538
Q 2691 219 2414 64
Q 2138 -91 1772 -91
Q 1169 -91 856 284
Q 544 659 544 1381
z
M 1991 3584
L 1991 3584
z
" transform="scale(0.015625)"/>
      <path id="DejaVuSans-6c" d="M 603 4863
L 1178 4863
L 1178 0
L 603 0
L 603 4863
z
" transform="scale(0.015625)"/>
      <path id="DejaVuSans-74" d="M 1172 4494
L 1172 3500
L 2356 3500
L 2356 3053
L 1172 3053
L 1172 1153
Q 1172 725 1289 603
Q 1406 481 1766 481
L 2356 481
L 2356 0
L 1766 0
Q 1100 0 847 248
Q 594 497 594 1153
L 594 3053
L 172 3053
L 172 3500
L 594 3500
L 594 4494
L 1172 4494
z
" transform="scale(0.015625)"/>
      <path id="DejaVuSans-69" d="M 603 3500
L 1178 3500
L 1178 0
L 603 0
L 603 3500
z
M 603 4863
L 1178 4863
L 1178 4134
L 603 4134
L 603 4863
z
" transform="scale(0.015625)"/>
      <path id="DejaVuSans-2d" d="M 313 2009
L 1997 2009
L 1997 1497
L 313 1497
L 313 2009
z
" transform="scale(0.015625)"/>
      <path id="DejaVuSans-73" d="M 2834 3397
L 2834 2853
Q 2591 2978 2328 3040
Q 2066 3103 1784 3103
Q 1356 3103 1142 2972
Q 928 2841 928 2578
Q 928 2378 1081 2264
Q 1234 2150 1697 2047
L 1894 2003
Q 2506 1872 2764 1633
Q 3022 1394 3022 966
Q 3022 478 2636 193
Q 2250 -91 1575 -91
Q 1294 -91 989 -36
Q 684 19 347 128
L 347 722
Q 666 556 975 473
Q 1284 391 1588 391
Q 1994 391 2212 530
Q 2431 669 2431 922
Q 2431 1156 2273 1281
Q 2116 1406 1581 1522
L 1381 1569
Q 847 1681 609 1914
Q 372 2147 372 2553
Q 372 3047 722 3315
Q 1072 3584 1716 3584
Q 2034 3584 2315 3537
Q 2597 3491 2834 3397
z
" transform="scale(0.015625)"/>
      <path id="DejaVuSans-67" d="M 2906 1791
Q 2906 2416 2648 2759
Q 2391 3103 1925 3103
Q 1463 3103 1205 2759
Q 947 2416 947 1791
Q 947 1169 1205 825
Q 1463 481 1925 481
Q 2391 481 2648 825
Q 2906 1169 2906 1791
z
M 3481 434
Q 3481 -459 3084 -895
Q 2688 -1331 1869 -1331
Q 1566 -1331 1297 -1286
Q 1028 -1241 775 -1147
L 775 -588
Q 1028 -725 1275 -790
Q 1522 -856 1778 -856
Q 2344 -856 2625 -561
Q 2906 -266 2906 331
L 2906 616
Q 2728 306 2450 153
Q 2172 0 1784 0
Q 1141 0 747 490
Q 353 981 353 1791
Q 353 2603 747 3093
Q 1141 3584 1784 3584
Q 2172 3584 2450 3431
Q 2728 3278 2906 2969
L 2906 3500
L 3481 3500
L 3481 434
z
" transform="scale(0.015625)"/>
      <path id="DejaVuSans-6e" d="M 3513 2113
L 3513 0
L 2938 0
L 2938 2094
Q 2938 2591 2744 2837
Q 2550 3084 2163 3084
Q 1697 3084 1428 2787
Q 1159 2491 1159 1978
L 1159 0
L 581 0
L 581 3500
L 1159 3500
L 1159 2956
Q 1366 3272 1645 3428
Q 1925 3584 2291 3584
Q 2894 3584 3203 3211
Q 3513 2838 3513 2113
z
" transform="scale(0.015625)"/>
      <path id="DejaVuSans-61" d="M 2194 1759
Q 1497 1759 1228 1600
Q 959 1441 959 1056
Q 959 750 1161 570
Q 1363 391 1709 391
Q 2188 391 2477 730
Q 2766 1069 2766 1631
L 2766 1759
L 2194 1759
z
M 3341 1997
L 3341 0
L 2766 0
L 2766 531
Q 2569 213 2275 61
Q 1981 -91 1556 -91
Q 1019 -91 701 211
Q 384 513 384 1019
Q 384 1609 779 1909
Q 1175 2209 1959 2209
L 2766 2209
L 2766 2266
Q 2766 2663 2505 2880
Q 2244 3097 1772 3097
Q 1472 3097 1187 3025
Q 903 2953 641 2809
L 641 3341
Q 956 3463 1253 3523
Q 1550 3584 1831 3584
Q 2591 3584 2966 3190
Q 3341 2797 3341 1997
z
" transform="scale(0.015625)"/>
      <path id="DejaVuSans-20" transform="scale(0.015625)"/>
      <path id="DejaVuSans-66" d="M 2375 4863
L 2375 4384
L 1825 4384
Q 1516 4384 1395 4259
Q 1275 4134 1275 3809
L 1275 3500
L 2222 3500
L 2222 3053
L 1275 3053
L 1275 0
L 697 0
L 697 3053
L 147 3053
L 147 3500
L 697 3500
L 697 3744
Q 697 4328 969 4595
Q 1241 4863 1831 4863
L 2375 4863
z
" transform="scale(0.015625)"/>
      <path id="DejaVuSans-6f" d="M 1959 3097
Q 1497 3097 1228 2736
Q 959 2375 959 1747
Q 959 1119 1226 758
Q 1494 397 1959 397
Q 2419 397 2687 759
Q 2956 1122 2956 1747
Q 2956 2369 2687 2733
Q 2419 3097 1959 3097
z
M 1959 3584
Q 2709 3584 3137 3096
Q 3566 2609 3566 1747
Q 3566 888 3137 398
Q 2709 -91 1959 -91
Q 1206 -91 779 398
Q 353 888 353 1747
Q 353 2609 779 3096
Q 1206 3584 1959 3584
z
" transform="scale(0.015625)"/>
      <path id="DejaVuSans-72" d="M 2631 2963
Q 2534 3019 2420 3045
Q 2306 3072 2169 3072
Q 1681 3072 1420 2755
Q 1159 2438 1159 1844
L 1159 0
L 581 0
L 581 3500
L 1159 3500
L 1159 2956
Q 1341 3275 1631 3429
Q 1922 3584 2338 3584
Q 2397 3584 2469 3576
Q 2541 3569 2628 3553
L 2631 2963
z
" transform="scale(0.015625)"/>
      <path id="DejaVuSans-64" d="M 2906 2969
L 2906 4863
L 3481 4863
L 3481 0
L 2906 0
L 2906 525
Q 2725 213 2448 61
Q 2172 -91 1784 -91
Q 1150 -91 751 415
Q 353 922 353 1747
Q 353 2572 751 3078
Q 1150 3584 1784 3584
Q 2172 3584 2448 3432
Q 2725 3281 2906 2969
z
M 947 1747
Q 947 1113 1208 752
Q 1469 391 1925 391
Q 2381 391 2643 752
Q 2906 1113 2906 1747
Q 2906 2381 2643 2742
Q 2381 3103 1925 3103
Q 1469 3103 1208 2742
Q 947 2381 947 1747
z
" transform="scale(0.015625)"/>
      <path id="DejaVuSans-65" d="M 3597 1894
L 3597 1613
L 953 1613
Q 991 1019 1311 708
Q 1631 397 2203 397
Q 2534 397 2845 478
Q 3156 559 3463 722
L 3463 178
Q 3153 47 2828 -22
Q 2503 -91 2169 -91
Q 1331 -91 842 396
Q 353 884 353 1716
Q 353 2575 817 3079
Q 1281 3584 2069 3584
Q 2775 3584 3186 3129
Q 3597 2675 3597 1894
z
M 3022 2063
Q 3016 2534 2758 2815
Q 2500 3097 2075 3097
Q 1594 3097 1305 2825
Q 1016 2553 972 2059
L 3022 2063
z
" transform="scale(0.015625)"/>
      <path id="DejaVuSans-6b" d="M 581 4863
L 1159 4863
L 1159 1991
L 2875 3500
L 3609 3500
L 1753 1863
L 3688 0
L 2938 0
L 1159 1709
L 1159 0
L 581 0
L 581 4863
z
" transform="scale(0.015625)"/>
      <path id="DejaVuSans-76" d="M 191 3500
L 800 3500
L 1894 563
L 2988 3500
L 3597 3500
L 2284 0
L 1503 0
L 191 3500
z
" transform="scale(0.015625)"/>
      <path id="DejaVuSans-28" d="M 1984 4856
Q 1566 4138 1362 3434
Q 1159 2731 1159 2009
Q 1159 1288 1364 580
Q 1569 -128 1984 -844
L 1484 -844
Q 1016 -109 783 600
Q 550 1309 550 2009
Q 550 2706 781 3412
Q 1013 4119 1484 4856
L 1984 4856
z
" transform="scale(0.015625)"/>
      <path id="DejaVuSans-29" d="M 513 4856
L 1013 4856
Q 1481 4119 1714 3412
Q 1947 2706 1947 2009
Q 1947 1309 1714 600
Q 1481 -109 1013 -844
L 513 -844
Q 928 -128 1133 580
Q 1338 1288 1338 2009
Q 1338 2731 1133 3434
Q 928 4138 513 4856
z
" transform="scale(0.015625)"/>
     </defs>
     <use xlink:href="#DejaVuSans-4d"/>
     <use xlink:href="#DejaVuSans-75" transform="translate(86.279297 0)"/>
     <use xlink:href="#DejaVuSans-6c" transform="translate(149.658203 0)"/>
     <use xlink:href="#DejaVuSans-74" transform="translate(177.441406 0)"/>
     <use xlink:href="#DejaVuSans-69" transform="translate(216.650391 0)"/>
     <use xlink:href="#DejaVuSans-2d" transform="translate(244.433594 0)"/>
     <use xlink:href="#DejaVuSans-73" transform="translate(280.517578 0)"/>
     <use xlink:href="#DejaVuSans-69" transform="translate(332.617188 0)"/>
     <use xlink:href="#DejaVuSans-67" transform="translate(360.400391 0)"/>
     <use xlink:href="#DejaVuSans-6e" transform="translate(423.876953 0)"/>
     <use xlink:href="#DejaVuSans-61" transform="translate(487.255859 0)"/>
     <use xlink:href="#DejaVuSans-6c" transform="translate(548.535156 0)"/>
     <use xlink:href="#DejaVuSans-20" transform="translate(576.318359 0)"/>
     <use xlink:href="#DejaVuSans-66" transform="translate(608.105469 0)"/>
     <use xlink:href="#DejaVuSans-75" transform="translate(643.310547 0)"/>
     <use xlink:href="#DejaVuSans-73" transform="translate(706.689453 0)"/>
     <use xlink:href="#DejaVuSans-69" transform="translate(758.789062 0)"/>
     <use xlink:href="#DejaVuSans-6f" transform="translate(786.572266 0)"/>
     <use xlink:href="#DejaVuSans-6e" transform="translate(847.753906 0)"/>
     <use xlink:href="#DejaVuSans-20" transform="translate(911.132812 0)"/>
     <use xlink:href="#DejaVuSans-74" transform="translate(942.919922 0)"/>
     <use xlink:href="#DejaVuSans-6f" transform="translate(982.128906 0)"/>
     <use xlink:href="#DejaVuSans-20" transform="translate(1043.310547 0)"/>
     <use xlink:href="#DejaVuSans-6f" transform="translate(1075.097656 0)"/>
     <use xlink:href="#DejaVuSans-72" transform="translate(1136.279297 0)"/>
     <use xlink:href="#DejaVuSans-64" transform="translate(1175.642578 0)"/>
     <use xlink:href="#DejaVuSans-65" transform="translate(1239.119141 0)"/>
     <use xlink:href="#DejaVuSans-72" transform="translate(1300.642578 0)"/>
     <use xlink:href="#DejaVuSans-65" transform="translate(1339.505859 0)"/>
     <use xlink:href="#DejaVuSans-64" transform="translate(1401.029297 0)"/>
     <use xlink:href="#DejaVuSans-20" transform="translate(1464.505859 0)"/>
     <use xlink:href="#DejaVuSans-72" transform="translate(1496.292969 0)"/>
     <use xlink:href="#DejaVuSans-69" transform="translate(1537.40625 0)"/>
     <use xlink:href="#DejaVuSans-73" transform="translate(1565.189453 0)"/>
     <use xlink:href="#DejaVuSans-6b" transform="translate(1617.289062 0)"/>
     <use xlink:href="#DejaVuSans-20" transform="translate(1675.199219 0)"/>
     <use xlink:href="#DejaVuSans-6c" transform="translate(1706.986328 0)"/>
     <use xlink:href="#DejaVuSans-65" transform="translate(1734.769531 0)"/>
     <use xlink:href="#DejaVuSans-76" transform="translate(1796.292969 0)"/>
     <use xlink:href="#DejaVuSans-65" transform="translate(1855.472656 0)"/>
     <use xlink:href="#DejaVuSans-6c" transform="translate(1916.996094 0)"/>
     <use xlink:href="#DejaVuSans-20" transform="translate(1944.779297 0)"/>
     <use xlink:href="#DejaVuSans-28" transform="translate(1976.566406 0)"/>
     <use xlink:href="#DejaVuSans-69" transform="translate(2015.580078 0)"/>
     <use xlink:href="#DejaVuSans-6c" transform="translate(2043.363281 0)"/>
     <use xlink:href="#DejaVuSans-6c" transform="translate(2071.146484 0)"/>
     <use xlink:href="#DejaVuSans-75" transform="translate(2098.929688 0)"/>
     <use xlink:href="#DejaVuSans-73" transform="translate(2162.308594 0)"/>
     <use xlink:href="#DejaVuSans-74" transform="translate(2214.408203 0)"/>
     <use xlink:href="#DejaVuSans-72" transform="translate(2253.617188 0)"/>
     <use xlink:href="#DejaVuSans-61" transform="translate(2294.730469 0)"/>
     <use xlink:href="#DejaVuSans-74" transform="translate(2356.009766 0)"/>
     <use xlink:href="#DejaVuSans-69" transform="translate(2395.21875 0)"/>
     <use xlink:href="#DejaVuSans-6f" transform="translate(2423.001953 0)"/>
     <use xlink:href="#DejaVuSans-6e" transform="translate(2484.183594 0)"/>
     <use xlink:href="#DejaVuSans-29" transform="translate(2547.5625 0)"/>
    </g>
   </g>
   <g id="text_2">
    <!-- Biomech -->
    <g style="fill: #2b2d42" transform="translate(52.156501 65.312859) scale(0.09 -0.09)">
     <defs>
      <path id="DejaVuSans-42" d="M 1259 2228
L 1259 519
L 2272 519
Q 2781 519 3026 730
Q 3272 941 3272 1375
Q 3272 1813 3026 2020
Q 2781 2228 2272 2228
L 1259 2228
z
M 1259 4147
L 1259 2741
L 2194 2741
Q 2656 2741 2882 2914
Q 3109 3088 3109 3444
Q 3109 3797 2882 3972
Q 2656 4147 2194 4147
L 1259 4147
z
M 628 4666
L 2241 4666
Q 2963 4666 3353 4366
Q 3744 4066 3744 3513
Q 3744 3084 3544 2831
Q 3344 2578 2956 2516
Q 3422 2416 3680 2098
Q 3938 1781 3938 1306
Q 3938 681 3513 340
Q 3088 0 2303 0
L 628 0
L 628 4666
z
" transform="scale(0.015625)"/>
      <path id="DejaVuSans-6d" d="M 3328 2828
Q 3544 3216 3844 3400
Q 4144 3584 4550 3584
Q 5097 3584 5394 3201
Q 5691 2819 5691 2113
L 5691 0
L 5113 0
L 5113 2094
Q 5113 2597 4934 2840
Q 4756 3084 4391 3084
Q 3944 3084 3684 2787
Q 3425 2491 3425 1978
L 3425 0
L 2847 0
L 2847 2094
Q 2847 2600 2669 2842
Q 2491 3084 2119 3084
Q 1678 3084 1418 2786
Q 1159 2488 1159 1978
L 1159 0
L 581 0
L 581 3500
L 1159 3500
L 1159 2956
Q 1356 3278 1631 3431
Q 1906 3584 2284 3584
Q 2666 3584 2933 3390
Q 3200 3197 3328 2828
z
" transform="scale(0.015625)"/>
      <path id="DejaVuSans-63" d="M 3122 3366
L 3122 2828
Q 2878 2963 2633 3030
Q 2388 3097 2138 3097
Q 1578 3097 1268 2742
Q 959 2388 959 1747
Q 959 1106 1268 751
Q 1578 397 2138 397
Q 2388 397 2633 464
Q 2878 531 3122 666
L 3122 134
Q 2881 22 2623 -34
Q 2366 -91 2075 -91
Q 1284 -91 818 406
Q 353 903 353 1747
Q 353 2603 823 3093
Q 1294 3584 2113 3584
Q 2378 3584 2631 3529
Q 2884 3475 3122 3366
z
" transform="scale(0.015625)"/>
      <path id="DejaVuSans-68" d="M 3513 2113
L 3513 0
L 2938 0
L 2938 2094
Q 2938 2591 2744 2837
Q 2550 3084 2163 3084
Q 1697 3084 1428 2787
Q 1159 2491 1159 1978
L 1159 0
L 581 0
L 581 4863
L 1159 4863
L 1159 2956
Q 1366 3272 1645 3428
Q 1925 3584 2291 3584
Q 2894 3584 3203 3211
Q 3513 2838 3513 2113
z
" transform="scale(0.015625)"/>
     </defs>
     <use xlink:href="#DejaVuSans-42"/>
     <use xlink:href="#DejaVuSans-69" transform="translate(68.603516 0)"/>
     <use xlink:href="#DejaVuSans-6f" transform="translate(96.386719 0)"/>
     <use xlink:href="#DejaVuSans-6d" transform="translate(157.568359 0)"/>
     <use xlink:href="#DejaVuSans-65" transform="translate(254.980469 0)"/>
     <use xlink:href="#DejaVuSans-63" transform="translate(316.503906 0)"/>
     <use xlink:href="#DejaVuSans-68" transform="translate(371.484375 0)"/>
    </g>
    <!-- probes -->
    <g style="fill: #2b2d42" transform="translate(56.397048 75.390891) scale(0.09 -0.09)">
     <defs>
      <path id="DejaVuSans-70" d="M 1159 525
L 1159 -1331
L 581 -1331
L 581 3500
L 1159 3500
L 1159 2969
Q 1341 3281 1617 3432
Q 1894 3584 2278 3584
Q 2916 3584 3314 3078
Q 3713 2572 3713 1747
Q 3713 922 3314 415
Q 2916 -91 2278 -91
Q 1894 -91 1617 61
Q 1341 213 1159 525
z
M 3116 1747
Q 3116 2381 2855 2742
Q 2594 3103 2138 3103
Q 1681 3103 1420 2742
Q 1159 2381 1159 1747
Q 1159 1113 1420 752
Q 1681 391 2138 391
Q 2594 391 2855 752
Q 3116 1113 3116 1747
z
" transform="scale(0.015625)"/>
      <path id="DejaVuSans-62" d="M 3116 1747
Q 3116 2381 2855 2742
Q 2594 3103 2138 3103
Q 1681 3103 1420 2742
Q 1159 2381 1159 1747
Q 1159 1113 1420 752
Q 1681 391 2138 391
Q 2594 391 2855 752
Q 3116 1113 3116 1747
z
M 1159 2969
Q 1341 3281 1617 3432
Q 1894 3584 2278 3584
Q 2916 3584 3314 3078
Q 3713 2572 3713 1747
Q 3713 922 3314 415
Q 2916 -91 2278 -91
Q 1894 -91 1617 61
Q 1341 213 1159 525
L 1159 0
L 581 0
L 581 4863
L 1159 4863
L 1159 2969
z
" transform="scale(0.015625)"/>
     </defs>
     <use xlink:href="#DejaVuSans-70"/>
     <use xlink:href="#DejaVuSans-72" transform="translate(63.476562 0)"/>
     <use xlink:href="#DejaVuSans-6f" transform="translate(102.339844 0)"/>
     <use xlink:href="#DejaVuSans-62" transform="translate(163.521484 0)"/>
     <use xlink:href="#DejaVuSans-65" transform="translate(226.998047 0)"/>
     <use xlink:href="#DejaVuSans-73" transform="translate(288.521484 0)"/>
    </g>
   </g>
   <g id="text_3">
    <!-- Action -->
    <g style="fill: #2b2d42" transform="translate(142.617739 65.312859) scale(0.09 -0.09)">
     <defs>
      <path id="DejaVuSans-41" d="M 2188 4044
L 1331 1722
L 3047 1722
L 2188 4044
z
M 1831 4666
L 2547 4666
L 4325 0
L 3669 0
L 3244 1197
L 1141 1197
L 716 0
L 50 0
L 1831 4666
z
" transform="scale(0.015625)"/>
     </defs>
     <use xlink:href="#DejaVuSans-41"/>
     <use xlink:href="#DejaVuSans-63" transform="translate(66.658203 0)"/>
     <use xlink:href="#DejaVuSans-74" transform="translate(121.638672 0)"/>
     <use xlink:href="#DejaVuSans-69" transform="translate(160.847656 0)"/>
     <use xlink:href="#DejaVuSans-6f" transform="translate(188.630859 0)"/>
     <use xlink:href="#DejaVuSans-6e" transform="translate(249.8125 0)"/>
    </g>
    <!-- signals -->
    <g style="fill: #2b2d42" transform="translate(141.056099 75.390891) scale(0.09 -0.09)">
     <use xlink:href="#DejaVuSans-73"/>
     <use xlink:href="#DejaVuSans-69" transform="translate(52.099609 0)"/>
     <use xlink:href="#DejaVuSans-67" transform="translate(79.882812 0)"/>
     <use xlink:href="#DejaVuSans-6e" transform="translate(143.359375 0)"/>
     <use xlink:href="#DejaVuSans-61" transform="translate(206.738281 0)"/>
     <use xlink:href="#DejaVuSans-6c" transform="translate(268.017578 0)"/>
     <use xlink:href="#DejaVuSans-73" transform="translate(295.800781 0)"/>
    </g>
   </g>
   <g id="text_4">
    <!-- Anomaly -->
    <g style="fill: #2b2d42" transform="translate(221.958353 65.312859) scale(0.09 -0.09)">
     <defs>
      <path id="DejaVuSans-79" d="M 2059 -325
Q 1816 -950 1584 -1140
Q 1353 -1331 966 -1331
L 506 -1331
L 506 -850
L 844 -850
Q 1081 -850 1212 -737
Q 1344 -625 1503 -206
L 1606 56
L 191 3500
L 800 3500
L 1894 763
L 2988 3500
L 3597 3500
L 2059 -325
z
" transform="scale(0.015625)"/>
     </defs>
     <use xlink:href="#DejaVuSans-41"/>
     <use xlink:href="#DejaVuSans-6e" transform="translate(68.408203 0)"/>
     <use xlink:href="#DejaVuSans-6f" transform="translate(131.787109 0)"/>
     <use xlink:href="#DejaVuSans-6d" transform="translate(192.96875 0)"/>
     <use xlink:href="#DejaVuSans-61" transform="translate(290.380859 0)"/>
     <use xlink:href="#DejaVuSans-6c" transform="translate(351.660156 0)"/>
     <use xlink:href="#DejaVuSans-79" transform="translate(379.443359 0)"/>
    </g>
    <!-- detectors -->
    <g style="fill: #2b2d42" transform="translate(220.351712 75.390891) scale(0.09 -0.09)">
     <use xlink:href="#DejaVuSans-64"/>
     <use xlink:href="#DejaVuSans-65" transform="translate(63.476562 0)"/>
     <use xlink:href="#DejaVuSans-74" transform="translate(125 0)"/>
     <use xlink:href="#DejaVuSans-65" transform="translate(164.208984 0)"/>
     <use xlink:href="#DejaVuSans-63" transform="translate(225.732422 0)"/>
     <use xlink:href="#DejaVuSans-74" transform="translate(280.712891 0)"/>
     <use xlink:href="#DejaVuSans-6f" transform="translate(319.921875 0)"/>
     <use xlink:href="#DejaVuSans-72" transform="translate(381.103516 0)"/>
     <use xlink:href="#DejaVuSans-73" transform="translate(422.216797 0)"/>
    </g>
   </g>
   <g id="text_5">
    <!-- Tracking -->
    <g style="fill: #2b2d42" transform="translate(307.950528 65.312859) scale(0.09 -0.09)">
     <defs>
      <path id="DejaVuSans-54" d="M -19 4666
L 3928 4666
L 3928 4134
L 2272 4134
L 2272 0
L 1638 0
L 1638 4134
L -19 4134
L -19 4666
z
" transform="scale(0.015625)"/>
     </defs>
     <use xlink:href="#DejaVuSans-54"/>
     <use xlink:href="#DejaVuSans-72" transform="translate(46.333984 0)"/>
     <use xlink:href="#DejaVuSans-61" transform="translate(87.447266 0)"/>
     <use xlink:href="#DejaVuSans-63" transform="translate(148.726562 0)"/>
     <use xlink:href="#DejaVuSans-6b" transform="translate(203.707031 0)"/>
     <use xlink:href="#DejaVuSans-69" transform="translate(261.617188 0)"/>
     <use xlink:href="#DejaVuSans-6e" transform="translate(289.400391 0)"/>
     <use xlink:href="#DejaVuSans-67" transform="translate(352.779297 0)"/>
    </g>
    <!-- cues -->
    <g style="fill: #2b2d42" transform="translate(316.242481 75.390891) scale(0.09 -0.09)">
     <use xlink:href="#DejaVuSans-63"/>
     <use xlink:href="#DejaVuSans-75" transform="translate(54.980469 0)"/>
     <use xlink:href="#DejaVuSans-65" transform="translate(118.359375 0)"/>
     <use xlink:href="#DejaVuSans-73" transform="translate(179.882812 0)"/>
    </g>
   </g>
   <g id="text_6">
    <!-- Aggregation + -->
    <g style="fill: #2b2d42" transform="translate(152.295079 120.822328) scale(0.09 -0.09)">
     <defs>
      <path id="DejaVuSans-2b" d="M 2944 4013
L 2944 2272
L 4684 2272
L 4684 1741
L 2944 1741
L 2944 0
L 2419 0
L 2419 1741
L 678 1741
L 678 2272
L 2419 2272
L 2419 4013
L 2944 4013
z
" transform="scale(0.015625)"/>
     </defs>
     <use xlink:href="#DejaVuSans-41"/>
     <use xlink:href="#DejaVuSans-67" transform="translate(68.408203 0)"/>
     <use xlink:href="#DejaVuSans-67" transform="translate(131.884766 0)"/>
     <use xlink:href="#DejaVuSans-72" transform="translate(195.361328 0)"/>
     <use xlink:href="#DejaVuSans-65" transform="translate(234.224609 0)"/>
     <use xlink:href="#DejaVuSans-67" transform="translate(295.748047 0)"/>
     <use xlink:href="#DejaVuSans-61" transform="translate(359.224609 0)"/>
     <use xlink:href="#DejaVuSans-74" transform="translate(420.503906 0)"/>
     <use xlink:href="#DejaVuSans-69" transform="translate(459.712891 0)"/>
     <use xlink:href="#DejaVuSans-6f" transform="translate(487.496094 0)"/>
     <use xlink:href="#DejaVuSans-6e" transform="translate(548.677734 0)"/>
     <use xlink:href="#DejaVuSans-20" transform="translate(612.056641 0)"/>
     <use xlink:href="#DejaVuSans-2b" transform="translate(643.84375 0)"/>
    </g>
    <!-- thresholds -->
    <g style="fill: #2b2d42" transform="translate(161.505314 130.900359) scale(0.09 -0.09)">
     <use xlink:href="#DejaVuSans-74"/>
     <use xlink:href="#DejaVuSans-68" transform="translate(39.208984 0)"/>
     <use xlink:href="#DejaVuSans-72" transform="translate(102.587891 0)"/>
     <use xlink:href="#DejaVuSans-65" transform="translate(141.451172 0)"/>
     <use xlink:href="#DejaVuSans-73" transform="translate(202.974609 0)"/>
     <use xlink:href="#DejaVuSans-68" transform="translate(255.074219 0)"/>
     <use xlink:href="#DejaVuSans-6f" transform="translate(318.453125 0)"/>
     <use xlink:href="#DejaVuSans-6c" transform="translate(379.634766 0)"/>
     <use xlink:href="#DejaVuSans-64" transform="translate(407.417969 0)"/>
     <use xlink:href="#DejaVuSans-73" transform="translate(470.894531 0)"/>
    </g>
    <!-- (rules, weights -->
    <g style="fill: #2b2d42" transform="translate(151.842267 140.978391) scale(0.09 -0.09)">
     <defs>
      <path id="DejaVuSans-2c" d="M 750 794
L 1409 794
L 1409 256
L 897 -744
L 494 -744
L 750 256
L 750 794
z
" transform="scale(0.015625)"/>
      <path id="DejaVuSans-77" d="M 269 3500
L 844 3500
L 1563 769
L 2278 3500
L 2956 3500
L 3675 769
L 4391 3500
L 4966 3500
L 4050 0
L 3372 0
L 2619 2869
L 1863 0
L 1184 0
L 269 3500
z
" transform="scale(0.015625)"/>
     </defs>
     <use xlink:href="#DejaVuSans-28"/>
     <use xlink:href="#DejaVuSans-72" transform="translate(39.013672 0)"/>
     <use xlink:href="#DejaVuSans-75" transform="translate(80.126953 0)"/>
     <use xlink:href="#DejaVuSans-6c" transform="translate(143.505859 0)"/>
     <use xlink:href="#DejaVuSans-65" transform="translate(171.289062 0)"/>
     <use xlink:href="#DejaVuSans-73" transform="translate(232.8125 0)"/>
     <use xlink:href="#DejaVuSans-2c" transform="translate(284.912109 0)"/>
     <use xlink:href="#DejaVuSans-20" transform="translate(316.699219 0)"/>
     <use xlink:href="#DejaVuSans-77" transform="translate(348.486328 0)"/>
     <use xlink:href="#DejaVuSans-65" transform="translate(430.273438 0)"/>
     <use xlink:href="#DejaVuSans-69" transform="translate(491.796875 0)"/>
     <use xlink:href="#DejaVuSans-67" transform="translate(519.580078 0)"/>
     <use xlink:href="#DejaVuSans-68" transform="translate(583.056641 0)"/>
     <use xlink:href="#DejaVuSans-74" transform="translate(646.435547 0)"/>
     <use xlink:href="#DejaVuSans-73" transform="translate(685.644531 0)"/>
    </g>
    <!-- from config) -->
    <g style="fill: #2b2d42" transform="translate(157.613517 151.056422) scale(0.09 -0.09)">
     <use xlink:href="#DejaVuSans-66"/>
     <use xlink:href="#DejaVuSans-72" transform="translate(35.205078 0)"/>
     <use xlink:href="#DejaVuSans-6f" transform="translate(74.068359 0)"/>
     <use xlink:href="#DejaVuSans-6d" transform="translate(135.25 0)"/>
     <use xlink:href="#DejaVuSans-20" transform="translate(232.662109 0)"/>
     <use xlink:href="#DejaVuSans-63" transform="translate(264.449219 0)"/>
     <use xlink:href="#DejaVuSans-6f" transform="translate(319.429688 0)"/>
     <use xlink:href="#DejaVuSans-6e" transform="translate(380.611328 0)"/>
     <use xlink:href="#DejaVuSans-66" transform="translate(443.990234 0)"/>
     <use xlink:href="#DejaVuSans-69" transform="translate(479.195312 0)"/>
     <use xlink:href="#DejaVuSans-67" transform="translate(506.978516 0)"/>
     <use xlink:href="#DejaVuSans-29" transform="translate(570.455078 0)"/>
    </g>
   </g>
   <g id="text_7">
    <!-- LOW -->
    <g style="fill: #2b2d42" transform="translate(351.938117 110.908937) scale(0.098 -0.098)">
     <defs>
      <path id="DejaVuSans-Bold-4c" d="M 588 4666
L 1791 4666
L 1791 909
L 3903 909
L 3903 0
L 588 0
L 588 4666
z
" transform="scale(0.015625)"/>
      <path id="DejaVuSans-Bold-4f" d="M 2719 3878
Q 2169 3878 1866 3472
Q 1563 3066 1563 2328
Q 1563 1594 1866 1187
Q 2169 781 2719 781
Q 3272 781 3575 1187
Q 3878 1594 3878 2328
Q 3878 3066 3575 3472
Q 3272 3878 2719 3878
z
M 2719 4750
Q 3844 4750 4481 4106
Q 5119 3463 5119 2328
Q 5119 1197 4481 553
Q 3844 -91 2719 -91
Q 1597 -91 958 553
Q 319 1197 319 2328
Q 319 3463 958 4106
Q 1597 4750 2719 4750
z
" transform="scale(0.015625)"/>
      <path id="DejaVuSans-Bold-57" d="M 191 4666
L 1344 4666
L 2150 1275
L 2950 4666
L 4109 4666
L 4909 1275
L 5716 4666
L 6859 4666
L 5759 0
L 4372 0
L 3525 3547
L 2688 0
L 1300 0
L 191 4666
z
" transform="scale(0.015625)"/>
     </defs>
     <use xlink:href="#DejaVuSans-Bold-4c"/>
     <use xlink:href="#DejaVuSans-Bold-4f" transform="translate(60.095703 0)"/>
     <use xlink:href="#DejaVuSans-Bold-57" transform="translate(145.105469 0)"/>
    </g>
   </g>
   <g id="text_8">
    <!-- MEDIUM -->
    <g style="fill: #2b2d42" transform="translate(432.764015 110.908937) scale(0.098 -0.098)">
     <defs>
      <path id="DejaVuSans-Bold-4d" d="M 588 4666
L 2119 4666
L 3181 2169
L 4250 4666
L 5778 4666
L 5778 0
L 4641 0
L 4641 3413
L 3566 897
L 2803 897
L 1728 3413
L 1728 0
L 588 0
L 588 4666
z
" transform="scale(0.015625)"/>
      <path id="DejaVuSans-Bold-45" d="M 588 4666
L 3834 4666
L 3834 3756
L 1791 3756
L 1791 2888
L 3713 2888
L 3713 1978
L 1791 1978
L 1791 909
L 3903 909
L 3903 0
L 588 0
L 588 4666
z
" transform="scale(0.015625)"/>
      <path id="DejaVuSans-Bold-44" d="M 1791 3756
L 1791 909
L 2222 909
Q 2959 909 3348 1275
Q 3738 1641 3738 2338
Q 3738 3031 3350 3393
Q 2963 3756 2222 3756
L 1791 3756
z
M 588 4666
L 1856 4666
Q 2919 4666 3439 4514
Q 3959 4363 4331 4000
Q 4659 3684 4818 3271
Q 4978 2859 4978 2338
Q 4978 1809 4818 1395
Q 4659 981 4331 666
Q 3956 303 3431 151
Q 2906 0 1856 0
L 588 0
L 588 4666
z
" transform="scale(0.015625)"/>
      <path id="DejaVuSans-Bold-49" d="M 588 4666
L 1791 4666
L 1791 0
L 588 0
L 588 4666
z
" transform="scale(0.015625)"/>
      <path id="DejaVuSans-Bold-55" d="M 588 4666
L 1791 4666
L 1791 1869
Q 1791 1291 1980 1042
Q 2169 794 2597 794
Q 3028 794 3217 1042
Q 3406 1291 3406 1869
L 3406 4666
L 4609 4666
L 4609 1869
Q 4609 878 4112 393
Q 3616 -91 2597 -91
Q 1581 -91 1084 393
Q 588 878 588 1869
L 588 4666
z
" transform="scale(0.015625)"/>
     </defs>
     <use xlink:href="#DejaVuSans-Bold-4d"/>
     <use xlink:href="#DejaVuSans-Bold-45" transform="translate(99.511719 0)"/>
     <use xlink:href="#DejaVuSans-Bold-44" transform="translate(167.822266 0)"/>
     <use xlink:href="#DejaVuSans-Bold-49" transform="translate(250.830078 0)"/>
     <use xlink:href="#DejaVuSans-Bold-55" transform="translate(288.037109 0)"/>
     <use xlink:href="#DejaVuSans-Bold-4d" transform="translate(369.238281 0)"/>
    </g>
   </g>
   <g id="text_9">
    <!-- HIGH -->
    <g style="fill: #2b2d42" transform="translate(532.967883 110.908937) scale(0.098 -0.098)">
     <defs>
      <path id="DejaVuSans-Bold-48" d="M 588 4666
L 1791 4666
L 1791 2888
L 3566 2888
L 3566 4666
L 4769 4666
L 4769 0
L 3566 0
L 3566 1978
L 1791 1978
L 1791 0
L 588 0
L 588 4666
z
" transform="scale(0.015625)"/>
      <path id="DejaVuSans-Bold-47" d="M 4781 347
Q 4331 128 3847 18
Q 3363 -91 2847 -91
Q 1681 -91 1000 561
Q 319 1213 319 2328
Q 319 3456 1012 4103
Q 1706 4750 2913 4750
Q 3378 4750 3804 4662
Q 4231 4575 4609 4403
L 4609 3438
Q 4219 3659 3833 3768
Q 3447 3878 3059 3878
Q 2341 3878 1952 3476
Q 1563 3075 1563 2328
Q 1563 1588 1938 1184
Q 2313 781 3003 781
Q 3191 781 3352 804
Q 3513 828 3641 878
L 3641 1784
L 2906 1784
L 2906 2591
L 4781 2591
L 4781 347
z
" transform="scale(0.015625)"/>
     </defs>
     <use xlink:href="#DejaVuSans-Bold-48"/>
     <use xlink:href="#DejaVuSans-Bold-49" transform="translate(83.691406 0)"/>
     <use xlink:href="#DejaVuSans-Bold-47" transform="translate(120.898438 0)"/>
     <use xlink:href="#DejaVuSans-Bold-48" transform="translate(202.978516 0)"/>
    </g>
   </g>
   <g id="text_10">
    <!-- CRITICAL -->
    <g style="fill: #2b2d42" transform="translate(613.426281 110.908937) scale(0.098 -0.098)">
     <defs>
      <path id="DejaVuSans-Bold-43" d="M 4288 256
Q 3956 84 3597 -3
Q 3238 -91 2847 -91
Q 1681 -91 1000 561
Q 319 1213 319 2328
Q 319 3447 1000 4098
Q 1681 4750 2847 4750
Q 3238 4750 3597 4662
Q 3956 4575 4288 4403
L 4288 3438
Q 3953 3666 3628 3772
Q 3303 3878 2944 3878
Q 2300 3878 1931 3465
Q 1563 3053 1563 2328
Q 1563 1606 1931 1193
Q 2300 781 2944 781
Q 3303 781 3628 887
Q 3953 994 4288 1222
L 4288 256
z
" transform="scale(0.015625)"/>
      <path id="DejaVuSans-Bold-52" d="M 2297 2597
Q 2675 2597 2839 2737
Q 3003 2878 3003 3200
Q 3003 3519 2839 3656
Q 2675 3794 2297 3794
L 1791 3794
L 1791 2597
L 2297 2597
z
M 1791 1766
L 1791 0
L 588 0
L 588 4666
L 2425 4666
Q 3347 4666 3776 4356
Q 4206 4047 4206 3378
Q 4206 2916 3982 2619
Q 3759 2322 3309 2181
Q 3556 2125 3751 1926
Q 3947 1728 4147 1325
L 4800 0
L 3519 0
L 2950 1159
Q 2778 1509 2601 1637
Q 2425 1766 2131 1766
L 1791 1766
z
" transform="scale(0.015625)"/>
      <path id="DejaVuSans-Bold-54" d="M 31 4666
L 4331 4666
L 4331 3756
L 2784 3756
L 2784 0
L 1581 0
L 1581 3756
L 31 3756
L 31 4666
z
" transform="scale(0.015625)"/>
      <path id="DejaVuSans-Bold-41" d="M 3419 850
L 1538 850
L 1241 0
L 31 0
L 1759 4666
L 3194 4666
L 4922 0
L 3713 0
L 3419 850
z
M 1838 1716
L 3116 1716
L 2478 3572
L 1838 1716
z
" transform="scale(0.015625)"/>
     </defs>
     <use xlink:href="#DejaVuSans-Bold-43"/>
     <use xlink:href="#DejaVuSans-Bold-52" transform="translate(73.388672 0)"/>
     <use xlink:href="#DejaVuSans-Bold-49" transform="translate(150.390625 0)"/>
     <use xlink:href="#DejaVuSans-Bold-54" transform="translate(187.597656 0)"/>
     <use xlink:href="#DejaVuSans-Bold-49" transform="translate(255.810547 0)"/>
     <use xlink:href="#DejaVuSans-Bold-43" transform="translate(293.017578 0)"/>
     <use xlink:href="#DejaVuSans-Bold-41" transform="translate(366.40625 0)"/>
     <use xlink:href="#DejaVuSans-Bold-4c" transform="translate(443.798828 0)"/>
    </g>
   </g>
   <g id="text_11">
    <!-- Ordering is fixed (LOW&lt;…&lt;CRITICAL); cut-offs are tunable research parameters. -->
    <g style="fill: #2b2d42; opacity: 0.78" transform="translate(128.715797 202.65075) scale(0.086 -0.086)">
     <defs>
      <path id="DejaVuSans-Oblique-4f" d="M 2919 4238
Q 2400 4238 2003 3986
Q 1606 3734 1313 3219
Q 1125 2891 1026 2522
Q 928 2153 928 1778
Q 928 1128 1239 775
Q 1550 422 2119 422
Q 2631 422 3032 676
Q 3434 931 3719 1434
Q 3909 1772 4009 2142
Q 4109 2513 4109 2881
Q 4109 3528 3796 3883
Q 3484 4238 2919 4238
z
M 2100 -91
Q 1241 -91 748 418
Q 256 928 256 1813
Q 256 2319 448 2847
Q 641 3375 978 3788
Q 1375 4272 1862 4511
Q 2350 4750 2938 4750
Q 3794 4750 4287 4245
Q 4781 3741 4781 2869
Q 4781 2331 4593 1812
Q 4406 1294 4056 872
Q 3656 384 3173 146
Q 2691 -91 2100 -91
z
" transform="scale(0.015625)"/>
      <path id="DejaVuSans-Oblique-72" d="M 2853 2969
Q 2766 3016 2653 3041
Q 2541 3066 2413 3066
Q 1953 3066 1609 2717
Q 1266 2369 1153 1784
L 800 0
L 225 0
L 909 3500
L 1484 3500
L 1375 2956
Q 1603 3259 1920 3421
Q 2238 3584 2597 3584
Q 2691 3584 2781 3573
Q 2872 3563 2963 3538
L 2853 2969
z
" transform="scale(0.015625)"/>
      <path id="DejaVuSans-Oblique-64" d="M 2675 525
Q 2444 222 2128 65
Q 1813 -91 1428 -91
Q 903 -91 598 267
Q 294 625 294 1247
Q 294 1766 478 2236
Q 663 2706 1013 3078
Q 1244 3325 1534 3454
Q 1825 3584 2144 3584
Q 2481 3584 2739 3421
Q 2997 3259 3138 2956
L 3513 4863
L 4091 4863
L 3144 0
L 2566 0
L 2675 525
z
M 891 1350
Q 891 897 1095 644
Q 1300 391 1663 391
Q 1931 391 2161 520
Q 2391 650 2566 903
Q 2750 1166 2856 1509
Q 2963 1853 2963 2188
Q 2963 2622 2758 2865
Q 2553 3109 2194 3109
Q 1922 3109 1687 2981
Q 1453 2853 1288 2613
Q 1106 2353 998 2009
Q 891 1666 891 1350
z
" transform="scale(0.015625)"/>
      <path id="DejaVuSans-Oblique-65" d="M 3078 2063
Q 3088 2113 3092 2166
Q 3097 2219 3097 2272
Q 3097 2653 2873 2875
Q 2650 3097 2266 3097
Q 1838 3097 1509 2826
Q 1181 2556 1013 2059
L 3078 2063
z
M 3578 1613
L 903 1613
Q 884 1494 878 1425
Q 872 1356 872 1306
Q 872 872 1139 634
Q 1406 397 1894 397
Q 2269 397 2603 481
Q 2938 566 3225 728
L 3116 159
Q 2806 34 2476 -28
Q 2147 -91 1806 -91
Q 1078 -91 686 257
Q 294 606 294 1247
Q 294 1794 489 2264
Q 684 2734 1063 3103
Q 1306 3334 1642 3459
Q 1978 3584 2356 3584
Q 2950 3584 3301 3228
Q 3653 2872 3653 2272
Q 3653 2128 3634 1964
Q 3616 1800 3578 1613
z
" transform="scale(0.015625)"/>
      <path id="DejaVuSans-Oblique-69" d="M 1172 4863
L 1747 4863
L 1606 4134
L 1031 4134
L 1172 4863
z
M 909 3500
L 1484 3500
L 800 0
L 225 0
L 909 3500
z
" transform="scale(0.015625)"/>
      <path id="DejaVuSans-Oblique-6e" d="M 3566 2113
L 3156 0
L 2578 0
L 2988 2091
Q 3016 2238 3031 2350
Q 3047 2463 3047 2528
Q 3047 2791 2881 2937
Q 2716 3084 2419 3084
Q 1956 3084 1622 2776
Q 1288 2469 1184 1941
L 800 0
L 225 0
L 903 3500
L 1478 3500
L 1363 2950
Q 1603 3253 1940 3418
Q 2278 3584 2650 3584
Q 3113 3584 3367 3334
Q 3622 3084 3622 2631
Q 3622 2519 3608 2391
Q 3594 2263 3566 2113
z
" transform="scale(0.015625)"/>
      <path id="DejaVuSans-Oblique-67" d="M 3816 3500
L 3219 434
Q 3047 -456 2561 -893
Q 2075 -1331 1253 -1331
Q 950 -1331 690 -1286
Q 431 -1241 206 -1147
L 313 -588
Q 525 -725 762 -790
Q 1000 -856 1269 -856
Q 1816 -856 2167 -557
Q 2519 -259 2631 300
L 2681 563
Q 2441 288 2122 144
Q 1803 0 1434 0
Q 903 0 598 351
Q 294 703 294 1319
Q 294 1803 478 2267
Q 663 2731 997 3091
Q 1219 3328 1514 3456
Q 1809 3584 2131 3584
Q 2484 3584 2746 3420
Q 3009 3256 3138 2956
L 3238 3500
L 3816 3500
z
M 2950 2216
Q 2950 2641 2750 2872
Q 2550 3103 2181 3103
Q 1953 3103 1747 3012
Q 1541 2922 1394 2759
Q 1156 2491 1023 2127
Q 891 1763 891 1375
Q 891 944 1092 712
Q 1294 481 1672 481
Q 2219 481 2584 976
Q 2950 1472 2950 2216
z
" transform="scale(0.015625)"/>
      <path id="DejaVuSans-Oblique-20" transform="scale(0.015625)"/>
      <path id="DejaVuSans-Oblique-73" d="M 3200 3397
L 3091 2853
Q 2863 2978 2609 3040
Q 2356 3103 2088 3103
Q 1634 3103 1373 2948
Q 1113 2794 1113 2528
Q 1113 2219 1719 2053
Q 1766 2041 1788 2034
L 1972 1978
Q 2547 1819 2739 1644
Q 2931 1469 2931 1166
Q 2931 609 2489 259
Q 2047 -91 1331 -91
Q 1053 -91 747 -37
Q 441 16 72 128
L 184 722
Q 500 559 806 475
Q 1113 391 1394 391
Q 1816 391 2080 572
Q 2344 753 2344 1031
Q 2344 1331 1650 1516
L 1591 1531
L 1394 1581
Q 956 1697 753 1886
Q 550 2075 550 2369
Q 550 2928 970 3256
Q 1391 3584 2113 3584
Q 2397 3584 2667 3537
Q 2938 3491 3200 3397
z
" transform="scale(0.015625)"/>
      <path id="DejaVuSans-Oblique-66" d="M 3059 4863
L 2969 4384
L 2419 4384
Q 2106 4384 1964 4261
Q 1822 4138 1753 3809
L 1691 3500
L 2638 3500
L 2553 3053
L 1606 3053
L 1013 0
L 434 0
L 1031 3053
L 481 3053
L 563 3500
L 1113 3500
L 1159 3744
Q 1278 4363 1576 4613
Q 1875 4863 2516 4863
L 3059 4863
z
" transform="scale(0.015625)"/>
      <path id="DejaVuSans-Oblique-78" d="M 3841 3500
L 2234 1784
L 3219 0
L 2559 0
L 1819 1388
L 531 0
L -166 0
L 1556 1844
L 641 3500
L 1300 3500
L 1972 2234
L 3144 3500
L 3841 3500
z
" transform="scale(0.015625)"/>
      <path id="DejaVuSans-Oblique-28" d="M 2731 4856
Q 1903 3822 1495 2892
Q 1088 1963 1088 1100
Q 1088 606 1206 120
Q 1325 -366 1563 -844
L 1063 -844
Q 775 -306 634 201
Q 494 709 494 1197
Q 494 2125 923 3036
Q 1353 3947 2222 4856
L 2731 4856
z
" transform="scale(0.015625)"/>
      <path id="DejaVuSans-Oblique-4c" d="M 1075 4666
L 1709 4666
L 909 525
L 3181 525
L 3078 0
L 172 0
L 1075 4666
z
" transform="scale(0.015625)"/>
      <path id="DejaVuSans-Oblique-57" d="M 616 4666
L 1228 4666
L 1453 697
L 3213 4666
L 3916 4666
L 4147 697
L 5888 4666
L 6528 4666
L 4453 0
L 3659 0
L 3444 3891
L 1697 0
L 903 0
L 616 4666
z
" transform="scale(0.015625)"/>
      <path id="DejaVuSans-Oblique-3c" d="M 4684 3150
L 1459 2003
L 4684 863
L 4684 294
L 678 1747
L 678 2266
L 4684 3719
L 4684 3150
z
" transform="scale(0.015625)"/>
      <path id="DejaVuSans-Oblique-2026" d="M 569 794
L 1228 794
L 1075 0
L 416 0
L 569 794
z
M 4838 794
L 5497 794
L 5344 0
L 4684 0
L 4838 794
z
M 2700 794
L 3359 794
L 3206 0
L 2547 0
L 2700 794
z
" transform="scale(0.015625)"/>
      <path id="DejaVuSans-Oblique-43" d="M 4447 4306
L 4319 3641
Q 4019 3944 3683 4091
Q 3347 4238 2956 4238
Q 2422 4238 2017 3981
Q 1613 3725 1319 3200
Q 1131 2863 1032 2486
Q 934 2109 934 1728
Q 934 1091 1264 756
Q 1594 422 2222 422
Q 2656 422 3056 561
Q 3456 700 3834 978
L 3688 231
Q 3316 72 2936 -9
Q 2556 -91 2175 -91
Q 1278 -91 773 396
Q 269 884 269 1753
Q 269 2309 461 2846
Q 653 3384 1013 3828
Q 1394 4300 1883 4525
Q 2372 4750 3022 4750
Q 3422 4750 3780 4639
Q 4138 4528 4447 4306
z
" transform="scale(0.015625)"/>
      <path id="DejaVuSans-Oblique-52" d="M 1613 4147
L 1294 2491
L 2106 2491
Q 2584 2491 2879 2755
Q 3175 3019 3175 3444
Q 3175 3784 2976 3965
Q 2778 4147 2406 4147
L 1613 4147
z
M 2772 2241
Q 2972 2194 3105 2009
Q 3238 1825 3413 1275
L 3809 0
L 3144 0
L 2778 1197
Q 2638 1659 2453 1815
Q 2269 1972 1888 1972
L 1191 1972
L 806 0
L 172 0
L 1081 4666
L 2503 4666
Q 3150 4666 3495 4373
Q 3841 4081 3841 3531
Q 3841 3044 3547 2687
Q 3253 2331 2772 2241
z
" transform="scale(0.015625)"/>
      <path id="DejaVuSans-Oblique-49" d="M 1081 4666
L 1716 4666
L 806 0
L 172 0
L 1081 4666
z
" transform="scale(0.015625)"/>
      <path id="DejaVuSans-Oblique-54" d="M 378 4666
L 4325 4666
L 4225 4134
L 2559 4134
L 1759 0
L 1125 0
L 1925 4134
L 275 4134
L 378 4666
z
" transform="scale(0.015625)"/>
      <path id="DejaVuSans-Oblique-41" d="M 2356 4666
L 3072 4666
L 3938 0
L 3278 0
L 3084 1197
L 984 1197
L 325 0
L -341 0
L 2356 4666
z
M 2584 4044
L 1275 1722
L 2988 1722
L 2584 4044
z
" transform="scale(0.015625)"/>
      <path id="DejaVuSans-Oblique-29" d="M -397 -844
Q 434 191 840 1120
Q 1247 2050 1247 2913
Q 1247 3406 1130 3892
Q 1013 4378 775 4856
L 1275 4856
Q 1563 4316 1703 3812
Q 1844 3309 1844 2822
Q 1844 1891 1411 973
Q 978 56 116 -844
L -397 -844
z
" transform="scale(0.015625)"/>
      <path id="DejaVuSans-Oblique-3b" d="M 563 794
L 1222 794
L 1113 256
L 409 -744
L 6 -744
L 453 256
L 563 794
z
M 1050 3309
L 1709 3309
L 1556 2516
L 897 2516
L 1050 3309
z
" transform="scale(0.015625)"/>
      <path id="DejaVuSans-Oblique-63" d="M 3431 3366
L 3316 2797
Q 3109 2947 2876 3022
Q 2644 3097 2394 3097
Q 2119 3097 1870 3000
Q 1622 2903 1453 2725
Q 1184 2453 1037 2087
Q 891 1722 891 1331
Q 891 859 1127 628
Q 1363 397 1844 397
Q 2081 397 2348 469
Q 2616 541 2906 684
L 2797 116
Q 2547 13 2283 -39
Q 2019 -91 1741 -91
Q 1044 -91 669 257
Q 294 606 294 1253
Q 294 1797 489 2255
Q 684 2713 1069 3078
Q 1331 3328 1684 3456
Q 2038 3584 2456 3584
Q 2700 3584 2940 3529
Q 3181 3475 3431 3366
z
" transform="scale(0.015625)"/>
      <path id="DejaVuSans-Oblique-75" d="M 428 1388
L 838 3500
L 1416 3500
L 1006 1409
Q 975 1256 961 1147
Q 947 1038 947 966
Q 947 700 1109 554
Q 1272 409 1569 409
Q 2031 409 2368 721
Q 2706 1034 2809 1563
L 3194 3500
L 3769 3500
L 3091 0
L 2516 0
L 2631 550
Q 2388 244 2052 76
Q 1716 -91 1338 -91
Q 878 -91 622 161
Q 366 413 366 863
Q 366 956 381 1097
Q 397 1238 428 1388
z
" transform="scale(0.015625)"/>
      <path id="DejaVuSans-Oblique-74" d="M 2706 3500
L 2619 3053
L 1472 3053
L 1100 1153
Q 1081 1047 1072 975
Q 1063 903 1063 863
Q 1063 663 1183 572
Q 1303 481 1569 481
L 2150 481
L 2053 0
L 1503 0
Q 991 0 739 200
Q 488 400 488 806
Q 488 878 497 964
Q 506 1050 525 1153
L 897 3053
L 409 3053
L 500 3500
L 978 3500
L 1172 4494
L 1747 4494
L 1556 3500
L 2706 3500
z
" transform="scale(0.015625)"/>
      <path id="DejaVuSans-Oblique-2d" d="M 391 2009
L 2075 2009
L 1978 1497
L 288 1497
L 391 2009
z
" transform="scale(0.015625)"/>
      <path id="DejaVuSans-Oblique-6f" d="M 1625 -91
Q 1009 -91 651 289
Q 294 669 294 1325
Q 294 1706 417 2101
Q 541 2497 738 2766
Q 1047 3184 1428 3384
Q 1809 3584 2291 3584
Q 2888 3584 3255 3212
Q 3622 2841 3622 2241
Q 3622 1825 3500 1412
Q 3378 1000 3181 728
Q 2875 309 2494 109
Q 2113 -91 1625 -91
z
M 891 1344
Q 891 869 1089 633
Q 1288 397 1691 397
Q 2269 397 2648 901
Q 3028 1406 3028 2181
Q 3028 2634 2825 2865
Q 2622 3097 2228 3097
Q 1903 3097 1650 2945
Q 1397 2794 1197 2484
Q 1050 2253 970 1956
Q 891 1659 891 1344
z
" transform="scale(0.015625)"/>
      <path id="DejaVuSans-Oblique-61" d="M 3438 1997
L 3047 0
L 2472 0
L 2578 531
Q 2325 219 2001 64
Q 1678 -91 1281 -91
Q 834 -91 548 182
Q 263 456 263 884
Q 263 1497 752 1853
Q 1241 2209 2100 2209
L 2900 2209
L 2931 2363
Q 2938 2388 2941 2417
Q 2944 2447 2944 2509
Q 2944 2788 2717 2942
Q 2491 3097 2081 3097
Q 1800 3097 1504 3025
Q 1209 2953 897 2809
L 997 3341
Q 1322 3463 1633 3523
Q 1944 3584 2234 3584
Q 2853 3584 3176 3315
Q 3500 3047 3500 2534
Q 3500 2431 3484 2292
Q 3469 2153 3438 1997
z
M 2816 1759
L 2241 1759
Q 1534 1759 1195 1570
Q 856 1381 856 984
Q 856 709 1029 553
Q 1203 397 1509 397
Q 1978 397 2328 733
Q 2678 1069 2791 1631
L 2816 1759
z
" transform="scale(0.015625)"/>
      <path id="DejaVuSans-Oblique-62" d="M 3169 2138
Q 3169 2591 2961 2847
Q 2753 3103 2388 3103
Q 2122 3103 1889 2973
Q 1656 2844 1484 2597
Q 1303 2338 1198 1995
Q 1094 1653 1094 1313
Q 1094 881 1298 636
Q 1503 391 1863 391
Q 2134 391 2365 517
Q 2597 644 2772 891
Q 2950 1147 3059 1487
Q 3169 1828 3169 2138
z
M 1381 2969
Q 1594 3256 1914 3420
Q 2234 3584 2584 3584
Q 3122 3584 3439 3221
Q 3756 2859 3756 2241
Q 3756 1734 3570 1259
Q 3384 784 3041 416
Q 2816 172 2522 40
Q 2228 -91 1906 -91
Q 1566 -91 1316 65
Q 1066 222 909 531
L 806 0
L 231 0
L 1178 4863
L 1753 4863
L 1381 2969
z
" transform="scale(0.015625)"/>
      <path id="DejaVuSans-Oblique-6c" d="M 1172 4863
L 1747 4863
L 800 0
L 225 0
L 1172 4863
z
" transform="scale(0.015625)"/>
      <path id="DejaVuSans-Oblique-68" d="M 3566 2113
L 3156 0
L 2578 0
L 2988 2091
Q 3016 2238 3031 2350
Q 3047 2463 3047 2528
Q 3047 2791 2881 2937
Q 2716 3084 2419 3084
Q 1956 3084 1617 2771
Q 1278 2459 1178 1941
L 800 0
L 225 0
L 1172 4863
L 1747 4863
L 1375 2950
Q 1594 3244 1934 3414
Q 2275 3584 2650 3584
Q 3113 3584 3367 3334
Q 3622 3084 3622 2631
Q 3622 2519 3608 2391
Q 3594 2263 3566 2113
z
" transform="scale(0.015625)"/>
      <path id="DejaVuSans-Oblique-70" d="M 3175 2156
Q 3175 2616 2975 2859
Q 2775 3103 2400 3103
Q 2144 3103 1911 2972
Q 1678 2841 1497 2591
Q 1319 2344 1212 1994
Q 1106 1644 1106 1300
Q 1106 863 1306 627
Q 1506 391 1875 391
Q 2147 391 2380 519
Q 2613 647 2778 891
Q 2956 1147 3065 1494
Q 3175 1841 3175 2156
z
M 1394 2969
Q 1625 3272 1939 3428
Q 2253 3584 2638 3584
Q 3175 3584 3472 3232
Q 3769 2881 3769 2247
Q 3769 1728 3584 1258
Q 3400 788 3053 416
Q 2822 169 2531 39
Q 2241 -91 1919 -91
Q 1547 -91 1294 64
Q 1041 219 916 525
L 556 -1331
L -19 -1331
L 922 3500
L 1497 3500
L 1394 2969
z
" transform="scale(0.015625)"/>
      <path id="DejaVuSans-Oblique-6d" d="M 5747 2113
L 5338 0
L 4763 0
L 5166 2094
Q 5191 2228 5203 2325
Q 5216 2422 5216 2491
Q 5216 2772 5059 2928
Q 4903 3084 4622 3084
Q 4203 3084 3875 2770
Q 3547 2456 3450 1953
L 3066 0
L 2491 0
L 2900 2094
Q 2925 2209 2937 2307
Q 2950 2406 2950 2484
Q 2950 2769 2794 2926
Q 2638 3084 2363 3084
Q 1938 3084 1609 2770
Q 1281 2456 1184 1953
L 800 0
L 225 0
L 909 3500
L 1484 3500
L 1375 2956
Q 1609 3263 1923 3423
Q 2238 3584 2597 3584
Q 2978 3584 3223 3384
Q 3469 3184 3519 2828
Q 3781 3197 4126 3390
Q 4472 3584 4856 3584
Q 5306 3584 5551 3325
Q 5797 3066 5797 2591
Q 5797 2488 5784 2364
Q 5772 2241 5747 2113
z
" transform="scale(0.015625)"/>
      <path id="DejaVuSans-Oblique-2e" d="M 525 794
L 1184 794
L 1031 0
L 372 0
L 525 794
z
" transform="scale(0.015625)"/>
     </defs>
     <use xlink:href="#DejaVuSans-Oblique-4f"/>
     <use xlink:href="#DejaVuSans-Oblique-72" transform="translate(78.710938 0)"/>
     <use xlink:href="#DejaVuSans-Oblique-64" transform="translate(119.824219 0)"/>
     <use xlink:href="#DejaVuSans-Oblique-65" transform="translate(183.300781 0)"/>
     <use xlink:href="#DejaVuSans-Oblique-72" transform="translate(244.824219 0)"/>
     <use xlink:href="#DejaVuSans-Oblique-69" transform="translate(285.9375 0)"/>
     <use xlink:href="#DejaVuSans-Oblique-6e" transform="translate(313.720703 0)"/>
     <use xlink:href="#DejaVuSans-Oblique-67" transform="translate(377.099609 0)"/>
     <use xlink:href="#DejaVuSans-Oblique-20" transform="translate(440.576172 0)"/>
     <use xlink:href="#DejaVuSans-Oblique-69" transform="translate(472.363281 0)"/>
     <use xlink:href="#DejaVuSans-Oblique-73" transform="translate(500.146484 0)"/>
     <use xlink:href="#DejaVuSans-Oblique-20" transform="translate(552.246094 0)"/>
     <use xlink:href="#DejaVuSans-Oblique-66" transform="translate(584.033203 0)"/>
     <use xlink:href="#DejaVuSans-Oblique-69" transform="translate(619.238281 0)"/>
     <use xlink:href="#DejaVuSans-Oblique-78" transform="translate(647.021484 0)"/>
     <use xlink:href="#DejaVuSans-Oblique-65" transform="translate(706.201172 0)"/>
     <use xlink:href="#DejaVuSans-Oblique-64" transform="translate(767.724609 0)"/>
     <use xlink:href="#DejaVuSans-Oblique-20" transform="translate(831.201172 0)"/>
     <use xlink:href="#DejaVuSans-Oblique-28" transform="translate(862.988281 0)"/>
     <use xlink:href="#DejaVuSans-Oblique-4c" transform="translate(902.001953 0)"/>
     <use xlink:href="#DejaVuSans-Oblique-4f" transform="translate(954.589844 0)"/>
     <use xlink:href="#DejaVuSans-Oblique-57" transform="translate(1033.300781 0)"/>
     <use xlink:href="#DejaVuSans-Oblique-3c" transform="translate(1132.177734 0)"/>
     <use xlink:href="#DejaVuSans-Oblique-2026" transform="translate(1215.966797 0)"/>
     <use xlink:href="#DejaVuSans-Oblique-3c" transform="translate(1315.966797 0)"/>
     <use xlink:href="#DejaVuSans-Oblique-43" transform="translate(1399.755859 0)"/>
     <use xlink:href="#DejaVuSans-Oblique-52" transform="translate(1469.580078 0)"/>
     <use xlink:href="#DejaVuSans-Oblique-49" transform="translate(1539.0625 0)"/>
     <use xlink:href="#DejaVuSans-Oblique-54" transform="translate(1568.554688 0)"/>
     <use xlink:href="#DejaVuSans-Oblique-49" transform="translate(1629.638672 0)"/>
     <use xlink:href="#DejaVuSans-Oblique-43" transform="translate(1659.130859 0)"/>
     <use xlink:href="#DejaVuSans-Oblique-41" transform="translate(1728.955078 0)"/>
     <use xlink:href="#DejaVuSans-Oblique-4c" transform="translate(1797.363281 0)"/>
     <use xlink:href="#DejaVuSans-Oblique-29" transform="translate(1853.076172 0)"/>
     <use xlink:href="#DejaVuSans-Oblique-3b" transform="translate(1892.089844 0)"/>
     <use xlink:href="#DejaVuSans-Oblique-20" transform="translate(1925.78125 0)"/>
     <use xlink:href="#DejaVuSans-Oblique-63" transform="translate(1957.568359 0)"/>
     <use xlink:href="#DejaVuSans-Oblique-75" transform="translate(2012.548828 0)"/>
     <use xlink:href="#DejaVuSans-Oblique-74" transform="translate(2075.927734 0)"/>
     <use xlink:href="#DejaVuSans-Oblique-2d" transform="translate(2115.136719 0)"/>
     <use xlink:href="#DejaVuSans-Oblique-6f" transform="translate(2151.220703 0)"/>
     <use xlink:href="#DejaVuSans-Oblique-66" transform="translate(2212.402344 0)"/>
     <use xlink:href="#DejaVuSans-Oblique-66" transform="translate(2247.607422 0)"/>
     <use xlink:href="#DejaVuSans-Oblique-73" transform="translate(2282.8125 0)"/>
     <use xlink:href="#DejaVuSans-Oblique-20" transform="translate(2334.912109 0)"/>
     <use xlink:href="#DejaVuSans-Oblique-61" transform="translate(2366.699219 0)"/>
     <use xlink:href="#DejaVuSans-Oblique-72" transform="translate(2427.978516 0)"/>
     <use xlink:href="#DejaVuSans-Oblique-65" transform="translate(2469.091797 0)"/>
     <use xlink:href="#DejaVuSans-Oblique-20" transform="translate(2530.615234 0)"/>
     <use xlink:href="#DejaVuSans-Oblique-74" transform="translate(2562.402344 0)"/>
     <use xlink:href="#DejaVuSans-Oblique-75" transform="translate(2601.611328 0)"/>
     <use xlink:href="#DejaVuSans-Oblique-6e" transform="translate(2664.990234 0)"/>
     <use xlink:href="#DejaVuSans-Oblique-61" transform="translate(2728.369141 0)"/>
     <use xlink:href="#DejaVuSans-Oblique-62" transform="translate(2789.648438 0)"/>
     <use xlink:href="#DejaVuSans-Oblique-6c" transform="translate(2853.125 0)"/>
     <use xlink:href="#DejaVuSans-Oblique-65" transform="translate(2880.908203 0)"/>
     <use xlink:href="#DejaVuSans-Oblique-20" transform="translate(2942.431641 0)"/>
     <use xlink:href="#DejaVuSans-Oblique-72" transform="translate(2974.21875 0)"/>
     <use xlink:href="#DejaVuSans-Oblique-65" transform="translate(3015.332031 0)"/>
     <use xlink:href="#DejaVuSans-Oblique-73" transform="translate(3076.855469 0)"/>
     <use xlink:href="#DejaVuSans-Oblique-65" transform="translate(3128.955078 0)"/>
     <use xlink:href="#DejaVuSans-Oblique-61" transform="translate(3190.478516 0)"/>
     <use xlink:href="#DejaVuSans-Oblique-72" transform="translate(3251.757812 0)"/>
     <use xlink:href="#DejaVuSans-Oblique-63" transform="translate(3292.871094 0)"/>
     <use xlink:href="#DejaVuSans-Oblique-68" transform="translate(3347.851562 0)"/>
     <use xlink:href="#DejaVuSans-Oblique-20" transform="translate(3411.230469 0)"/>
     <use xlink:href="#DejaVuSans-Oblique-70" transform="translate(3443.017578 0)"/>
     <use xlink:href="#DejaVuSans-Oblique-61" transform="translate(3506.494141 0)"/>
     <use xlink:href="#DejaVuSans-Oblique-72" transform="translate(3567.773438 0)"/>
     <use xlink:href="#DejaVuSans-Oblique-61" transform="translate(3608.886719 0)"/>
     <use xlink:href="#DejaVuSans-Oblique-6d" transform="translate(3670.166016 0)"/>
     <use xlink:href="#DejaVuSans-Oblique-65" transform="translate(3767.578125 0)"/>
     <use xlink:href="#DejaVuSans-Oblique-74" transform="translate(3829.101562 0)"/>
     <use xlink:href="#DejaVuSans-Oblique-65" transform="translate(3868.310547 0)"/>
     <use xlink:href="#DejaVuSans-Oblique-72" transform="translate(3929.833984 0)"/>
     <use xlink:href="#DejaVuSans-Oblique-73" transform="translate(3970.947266 0)"/>
     <use xlink:href="#DejaVuSans-Oblique-2e" transform="translate(4023.046875 0)"/>
    </g>
   </g>
  </g>
 </g>
 <defs>
  <clipPath id="pfae84ff9bf">
   <rect x="7.2" y="7.2" width="591.7495" height="209.88"/>
  </clipPath>
 </defs>
</svg>
